<?xml version="1.0" standalone="no"?>
<!DOCTYPE svg PUBLIC "-//W3C//DTD SVG 20010904//EN"
 "http://www.w3.org/TR/2001/REC-SVG-20010904/DTD/svg10.dtd">
<svg version="1.0" xmlns="http://www.w3.org/2000/svg"
 width="240.000000pt" height="212.000000pt" viewBox="0 0 240.000000 212.000000"
 preserveAspectRatio="xMidYMid meet">

<g transform="translate(0.000000,212.000000) scale(0.100000,-0.100000)"
fill="#9c51ff" stroke="none">
<path d="M0 1060 l0 -1060 1200 0 1200 0 -2 1063 c-1 584 -4 1037 -7 1007 l-6
-55 -57 -3 -58 -3 0 56 0 55 -49 0 -50 0 -3 -52 -3 -53 -57 -3 -58 -3 0 56 0
55 -55 0 -55 0 0 -55 0 -56 -57 3 -58 3 -3 53 -3 52 -49 0 -49 0 -3 -52 -3
-53 -55 0 -55 0 -3 53 -3 52 -49 0 -49 0 -3 -52 -3 -53 -57 -3 -58 -3 0 56 0
55 -55 0 -55 0 0 -55 0 -55 -55 0 -55 0 0 55 0 55 -55 0 -55 0 0 -55 0 -56
-57 3 -58 3 -3 53 -3 52 -49 0 -49 0 -3 -52 -3 -53 -57 -3 -58 -3 0 56 0 55
-49 0 -50 0 -3 -52 -3 -53 -57 -3 -58 -3 0 56 0 55 -55 0 -55 0 0 -55 0 -56
-57 3 -58 3 -3 53 -3 52 -49 0 -49 0 -3 -52 -3 -53 -55 0 -55 0 -3 53 c-3 44
-6 52 -23 52 -19 0 -19 -16 -19 -1060z m160 790 l0 -60 -60 0 -60 0 0 60 0 60
60 0 60 0 0 -60z m220 0 l0 -61 -57 3 -58 3 -3 58 -3 57 61 0 60 0 0 -60z
m225 0 l0 -55 -57 -3 -58 -3 0 61 0 61 58 -3 57 -3 0 -55z m225 0 l0 -60 -60
0 -60 0 0 60 0 60 60 0 60 0 0 -60z m220 0 l0 -60 -60 0 -60 0 0 60 0 60 60 0
60 0 0 -60z m220 0 l0 -60 -55 0 -55 0 0 60 0 60 55 0 55 0 0 -60z m230 0 l0
-60 -60 0 -60 0 0 60 0 60 60 0 60 0 0 -60z m220 0 l0 -60 -60 0 -60 0 0 60 0
60 60 0 60 0 0 -60z m220 0 l0 -61 -57 3 -58 3 -3 58 -3 57 61 0 60 0 0 -60z
m225 0 l0 -55 -57 -3 -58 -3 0 61 0 61 58 -3 57 -3 0 -55z m225 0 l0 -60 -60
0 -60 0 0 60 0 60 60 0 60 0 0 -60z m-2230 -220 l0 -60 -60 0 -60 0 0 60 0 60
60 0 60 0 0 -60z m220 0 l0 -60 -60 0 -60 0 0 53 c0 30 3 57 7 60 3 4 30 7 60
7 l53 0 0 -60z m228 -2 l3 -58 -61 0 -60 0 0 60 0 61 58 -3 57 -3 3 -57z m222
2 l0 -60 -60 0 -60 0 0 60 0 60 60 0 60 0 0 -60z m220 0 l0 -60 -60 0 -60 0 0
53 c0 30 3 57 7 60 3 4 30 7 60 7 l53 0 0 -60z m220 0 l0 -60 -55 0 -55 0 0
60 0 60 55 0 55 0 0 -60z m228 -2 l3 -58 -61 0 -60 0 0 60 0 61 58 -3 57 -3 3
-57z m222 2 l0 -60 -60 0 -60 0 0 60 0 60 60 0 60 0 0 -60z m220 0 l0 -60 -60
0 -60 0 0 53 c0 30 3 57 7 60 3 4 30 7 60 7 l53 0 0 -60z m228 -2 l3 -58 -61
0 -60 0 0 60 0 61 58 -3 57 -3 3 -57z m222 2 l0 -60 -60 0 -60 0 0 60 0 60 60
0 60 0 0 -60z m-2230 -225 l0 -55 -60 0 -60 0 0 55 0 55 60 0 60 0 0 -55z
m220 0 l0 -55 -60 0 -60 0 0 55 0 55 60 0 60 0 0 -55z m230 0 l0 -55 -60 0
-60 0 0 55 0 55 60 0 60 0 0 -55z m220 0 l0 -55 -60 0 -60 0 0 55 0 55 60 0
60 0 0 -55z m220 0 l0 -55 -60 0 -60 0 0 55 0 55 60 0 60 0 0 -55z m220 0 l0
-55 -55 0 -55 0 0 55 0 55 55 0 55 0 0 -55z m230 0 l0 -55 -60 0 -60 0 0 55 0
55 60 0 60 0 0 -55z m220 0 l0 -55 -60 0 -60 0 0 55 0 55 60 0 60 0 0 -55z
m220 0 l0 -55 -60 0 -60 0 0 55 0 55 60 0 60 0 0 -55z m230 0 l0 -55 -60 0
-60 0 0 55 0 55 60 0 60 0 0 -55z m220 0 l0 -55 -60 0 -60 0 0 55 0 55 60 0
60 0 0 -55z m-2230 -225 l0 -60 -60 0 -60 0 0 60 0 60 60 0 60 0 0 -60z m220
0 l0 -61 -57 3 -58 3 -3 58 -3 57 61 0 60 0 0 -60z m228 3 l-3 -58 -57 -3 -58
-3 0 61 0 60 60 0 61 0 -3 -57z m222 -3 l0 -60 -60 0 -60 0 0 60 0 60 60 0 60
0 0 -60z m220 0 l0 -61 -57 3 -58 3 -3 58 -3 57 61 0 60 0 0 -60z m220 0 l0
-60 -55 0 -55 0 0 60 0 60 55 0 55 0 0 -60z m228 3 l-3 -58 -57 -3 -58 -3 0
61 0 60 60 0 61 0 -3 -57z m222 -3 l0 -60 -60 0 -60 0 0 60 0 60 60 0 60 0 0
-60z m220 0 l0 -61 -57 3 -58 3 -3 58 -3 57 61 0 60 0 0 -60z m228 3 l-3 -58
-57 -3 -58 -3 0 61 0 60 60 0 61 0 -3 -57z m222 -3 l0 -60 -60 0 -60 0 0 60 0
60 60 0 60 0 0 -60z m-2230 -220 l0 -60 -60 0 -60 0 0 60 0 60 60 0 60 0 0
-60z m220 0 l0 -61 -57 3 -58 3 -3 44 c-5 66 0 71 63 71 l55 0 0 -60z m228 -2
l3 -58 -61 0 -60 0 0 60 0 61 58 -3 57 -3 3 -57z m222 2 l0 -60 -60 0 -60 0 0
60 0 60 60 0 60 0 0 -60z m220 0 l0 -60 -60 0 -60 0 0 60 0 60 60 0 60 0 0
-60z m220 0 l0 -60 -55 0 -55 0 0 60 0 60 55 0 55 0 0 -60z m230 0 l0 -60 -60
0 -60 0 0 60 0 60 60 0 60 0 0 -60z m220 0 l0 -60 -60 0 -60 0 0 60 0 60 60 0
60 0 0 -60z m220 0 l0 -61 -57 3 -58 3 -3 44 c-5 66 0 71 63 71 l55 0 0 -60z
m228 -2 l3 -58 -61 0 -60 0 0 60 0 61 58 -3 57 -3 3 -57z m222 2 l0 -60 -60 0
-60 0 0 60 0 60 60 0 60 0 0 -60z m-2230 -220 l0 -60 -60 0 -60 0 0 53 c0 30
3 57 7 60 3 4 30 7 60 7 l53 0 0 -60z m220 0 l0 -60 -60 0 -60 0 0 53 c0 30 3
57 7 60 3 4 30 7 60 7 l53 0 0 -60z m228 -2 l3 -58 -61 0 -60 0 0 60 0 61 58
-3 57 -3 3 -57z m220 0 l3 -58 -61 0 -60 0 0 53 c0 30 3 57 7 61 4 4 30 6 58
4 l50 -3 3 -57z m222 2 l0 -60 -60 0 -60 0 0 53 c0 30 3 57 7 60 3 4 30 7 60
7 l53 0 0 -60z m220 0 l0 -60 -55 0 -55 0 0 60 0 60 55 0 55 0 0 -60z m228 -2
l3 -58 -61 0 -60 0 0 60 0 61 58 -3 57 -3 3 -57z m222 2 l0 -60 -60 0 -60 0 0
53 c0 30 3 57 7 60 3 4 30 7 60 7 l53 0 0 -60z m220 0 l0 -60 -60 0 -60 0 0
53 c0 30 3 57 7 60 3 4 30 7 60 7 l53 0 0 -60z m228 -2 l3 -58 -61 0 -60 0 0
60 0 61 58 -3 57 -3 3 -57z m220 0 l3 -58 -61 0 -60 0 0 53 c0 30 3 57 7 61 4
4 30 6 58 4 l50 -3 3 -57z m-2228 -223 l0 -55 -60 0 -60 0 0 55 0 55 60 0 60
0 0 -55z m220 0 l0 -55 -60 0 -60 0 0 55 0 55 60 0 60 0 0 -55z m230 0 l0 -55
-60 0 -60 0 0 55 0 55 60 0 60 0 0 -55z m220 0 l0 -55 -60 0 -60 0 0 55 0 55
60 0 60 0 0 -55z m220 0 l0 -55 -60 0 -60 0 0 55 0 55 60 0 60 0 0 -55z m220
0 l0 -55 -55 0 -55 0 0 55 0 55 55 0 55 0 0 -55z m230 0 l0 -55 -60 0 -60 0 0
55 0 55 60 0 60 0 0 -55z m220 0 l0 -55 -60 0 -60 0 0 55 0 55 60 0 60 0 0
-55z m220 0 l0 -55 -60 0 -60 0 0 55 0 55 60 0 60 0 0 -55z m230 0 l0 -55 -60
0 -60 0 0 55 0 55 60 0 60 0 0 -55z m220 0 l0 -55 -60 0 -60 0 0 55 0 55 60 0
60 0 0 -55z m-2230 -225 l0 -60 -60 0 -60 0 0 60 0 60 60 0 60 0 0 -60z m220
0 l0 -61 -57 3 -58 3 -3 58 -3 57 61 0 60 0 0 -60z m228 3 l-3 -58 -57 -3 -58
-3 0 61 0 60 60 0 61 0 -3 -57z m222 -3 l0 -60 -60 0 -60 0 0 60 0 60 60 0 60
0 0 -60z m220 0 l0 -61 -57 3 -58 3 -3 58 -3 57 61 0 60 0 0 -60z m220 0 l0
-60 -55 0 -55 0 0 60 0 60 55 0 55 0 0 -60z m228 3 l-3 -58 -57 -3 -58 -3 0
61 0 60 60 0 61 0 -3 -57z m222 -3 l0 -60 -60 0 -60 0 0 60 0 60 60 0 60 0 0
-60z m220 0 l0 -61 -57 3 -58 3 -3 58 -3 57 61 0 60 0 0 -60z m228 3 l-3 -58
-57 -3 -58 -3 0 61 0 60 60 0 61 0 -3 -57z m222 -3 l0 -60 -60 0 -60 0 0 60 0
60 60 0 60 0 0 -60z m-2230 -220 l0 -60 -60 0 -60 0 0 60 0 60 60 0 60 0 0
-60z m220 0 l0 -61 -57 3 -58 3 -3 44 c-5 66 0 71 63 71 l55 0 0 -60z m228 -2
l3 -58 -61 0 -60 0 0 60 0 61 58 -3 57 -3 3 -57z m222 2 l0 -60 -60 0 -60 0 0
60 0 60 60 0 60 0 0 -60z m220 0 l0 -60 -60 0 -60 0 0 60 0 60 60 0 60 0 0
-60z m220 0 l0 -60 -55 0 -55 0 0 60 0 60 55 0 55 0 0 -60z m230 0 l0 -60 -60
0 -60 0 0 60 0 60 60 0 60 0 0 -60z m220 0 l0 -60 -60 0 -60 0 0 60 0 60 60 0
60 0 0 -60z m220 0 l0 -61 -57 3 -58 3 -3 44 c-5 66 0 71 63 71 l55 0 0 -60z
m228 -2 l3 -58 -61 0 -60 0 0 60 0 61 58 -3 57 -3 3 -57z m222 2 l0 -60 -60 0
-60 0 0 60 0 60 60 0 60 0 0 -60z"/>
</g>
</svg>
