<svg width="942" height="455" viewBox="0 0 942 455" fill="none" xmlns="http://www.w3.org/2000/svg">
<g style="mix-blend-mode:soft-light">
<path d="M942 70.0583C942 83.0914 941.961 96.2317 941.821 109.24C940.848 200.038 941.262 292.36 941.67 381.641C941.776 405.644 941.586 413.09 941.67 437.503L939.433 441.529C939.349 417.118 939.539 405.644 939.433 381.642C939.214 332.904 938.985 283.245 938.985 233.437C938.985 192.004 939.142 150.471 939.584 109.24C939.813 87.7616 939.768 65.9248 939.729 44.8048C939.701 30.1979 939.673 28.7491 939.729 13.8929L941.966 19.3289C941.905 34.1835 941.933 30.1996 941.966 44.8048C941.983 53.1313 942 61.5717 942 70.0583Z" fill="white" fill-opacity="0.52"/>
<path d="M926.003 78.0196C926.003 89.1766 925.449 100.385 923.76 111.502C922.4 120.418 920.353 129.514 918.368 138.31C913.87 158.264 909.222 178.897 912.226 199.09C913.669 208.779 915.934 218.64 918.127 228.174C921.528 242.96 925.041 258.249 925.578 273.294C926.238 291.747 923.301 310.512 920.471 328.661C918.435 341.691 916.332 355.165 915.571 368.407C914.586 385.579 917.545 403.039 920.409 419.927C922.417 431.764 924.878 441.136 925.578 453.176L923.34 454.585C922.641 442.555 920.18 431.792 918.177 419.96C915.313 403.062 912.355 385.589 913.333 368.396C914.094 355.143 916.197 341.666 918.233 328.631C921.069 310.494 923.995 291.737 923.34 273.302C922.803 258.276 919.29 242.995 915.895 228.22C913.703 218.681 911.437 208.817 909.988 199.12C906.979 178.89 911.633 158.237 916.13 138.265C918.11 129.473 920.157 120.38 921.517 111.471C924.822 89.7711 923.777 67.7081 922.764 46.37C922.065 31.636 921.343 16.4017 922.059 1.41009L926.003 2.8194C925.287 17.8028 924.302 31.6327 925.001 46.3618C925.499 56.7822 926.003 67.3778 926.003 78.0196Z" fill="white" fill-opacity="0.52"/>
<path d="M910.911 81.6909C910.911 91.2923 910.005 100.917 907.466 110.485C904.742 120.752 901.162 131.166 897.7 141.236C895.87 146.556 893.98 152.056 892.235 157.468C891.804 158.804 891.368 160.14 890.926 161.479C886.775 174.121 882.485 187.192 885.953 200.007C888.577 209.701 892.66 219.54 896.609 229.056C902.079 242.237 907.734 255.868 909.614 269.345C911.404 282.174 907.757 295.387 904.227 308.165C903.293 311.557 902.32 315.063 901.481 318.483C900.938 320.68 900.39 322.876 899.847 325.073C896.061 340.276 892.145 355.997 890.484 371.491C888.75 387.66 894.198 404.049 899.467 419.899C903.271 431.348 907.209 443.187 908.417 454.863L906.179 454.883C904.977 443.23 901.044 431.401 897.241 419.963C891.966 404.093 886.507 387.683 888.247 371.471C889.908 355.963 893.829 340.234 897.616 325.025C898.164 322.828 898.712 320.632 899.249 318.436C900.094 315.012 901.061 311.505 901.995 308.113C905.519 295.354 909.166 282.16 907.376 269.373C905.497 255.923 899.848 242.305 894.383 229.137C890.434 219.614 886.345 209.769 883.716 200.06C880.231 187.187 884.532 174.085 888.694 161.415C889.136 160.077 889.572 158.741 890.003 157.405C891.748 151.99 893.639 146.489 895.468 141.169C898.93 131.102 902.51 120.691 905.228 110.432C911.001 88.6715 908.322 66.5771 905.732 45.211C903.947 30.4803 902.102 15.2459 903.025 0.231187L905.262 0.242812C904.333 15.241 906.179 30.4638 907.964 45.1879C909.429 57.1871 910.911 69.4175 910.911 81.6909Z" fill="white" fill-opacity="0.52"/>
<path d="M896.693 85.1821C896.693 93.6918 895.529 102.22 892.447 110.721C888.66 121.173 883.61 131.751 878.727 141.981C876.148 147.381 873.485 152.965 871.035 158.462C870.398 159.892 869.743 161.328 869.089 162.764C863.344 175.366 857.404 188.398 862.192 201.09C865.694 210.367 871.309 219.755 876.746 228.834C884.18 241.255 891.866 254.098 894.271 266.877C895.602 273.963 893.488 281.282 891.435 288.36C890.971 289.967 890.49 291.63 890.059 293.248C887.793 301.824 884.958 310.212 882.228 317.998C881.439 320.254 880.639 322.511 879.84 324.767C874.229 340.603 868.434 356.977 865.996 373.151C863.613 388.989 871.343 404.944 878.827 420.373C884.292 431.649 889.947 443.31 891.631 454.86L889.393 454.888C887.715 443.371 882.071 431.727 876.612 420.465C869.117 405.006 861.37 389.021 863.764 373.121C866.203 356.927 872.009 340.543 877.619 324.698C878.419 322.442 879.219 320.186 880.007 317.93C882.731 310.147 885.567 301.764 887.833 293.197C888.263 291.575 888.744 289.912 889.209 288.304C891.256 281.247 893.365 273.951 892.039 266.913C889.639 254.174 881.965 241.351 874.543 228.948C869.106 219.859 863.479 210.461 859.971 201.161C855.15 188.388 861.113 175.315 866.874 162.673C867.528 161.237 868.183 159.803 868.82 158.373C871.27 152.872 873.938 147.287 876.511 141.887C881.395 131.663 886.44 121.089 890.221 110.649C898.164 88.7277 893.331 66.5656 888.66 45.1334C885.455 30.4457 882.144 15.2575 882.944 0.231187L885.181 0.241123C884.381 15.241 887.693 30.4143 890.892 45.0905C893.762 58.2506 896.693 71.6899 896.693 85.1821Z" fill="white" fill-opacity="0.52"/>
<path d="M883.945 85.083C883.945 94.0766 882.116 102.491 878.464 110.652C873.765 121.142 867.411 131.729 861.264 141.966C858.019 147.371 854.663 152.961 851.592 158.469C850.843 159.813 850.071 161.166 849.299 162.521C842.106 175.147 834.672 188.199 840.501 200.83C844.651 209.828 851.559 218.898 858.238 227.67C867.265 239.532 876.606 251.797 879.314 264.099C880.913 271.392 878.134 278.98 875.443 286.319C874.884 287.848 874.302 289.43 873.782 290.966C870.812 299.697 867.086 308.213 863.507 316.117C862.477 318.388 861.437 320.658 860.397 322.929C853.013 339.034 845.378 355.688 842.218 372.189C839.147 388.216 848.991 404.247 858.506 419.749C865.543 431.21 872.814 443.06 874.867 454.858L872.635 454.891C870.594 443.136 863.333 431.307 856.308 419.866C846.771 404.326 836.91 388.254 839.992 372.151C843.157 355.624 850.798 338.958 858.187 322.84C859.227 320.569 860.268 318.3 861.297 316.029C864.877 308.132 868.597 299.621 871.567 290.9C872.093 289.362 872.669 287.779 873.234 286.248C875.913 278.937 878.687 271.375 877.099 264.14C874.403 251.89 865.084 239.651 856.073 227.814C849.383 219.028 842.47 209.945 838.308 200.917C832.435 188.188 839.902 175.084 847.118 162.411C847.89 161.055 848.656 159.706 849.405 158.362C852.476 152.851 855.838 147.259 859.082 141.851C865.224 131.618 871.572 121.039 876.265 110.564C883.464 94.4928 883.542 77.4319 876.523 56.8717C875.32 53.3525 874.028 49.7772 872.775 46.3191C867.321 31.2581 861.689 15.6853 862.108 0.234565L864.346 0.239483C863.909 15.6522 869.548 31.207 874.996 46.2481C876.249 49.7079 877.546 53.2848 878.749 56.8056C882.206 66.985 883.945 76.3106 883.945 85.083Z" fill="white" fill-opacity="0.52"/>
<path d="M872.423 86.9623C872.423 95.3449 868.854 103.409 865.213 110.353C859.748 120.772 852.241 131.252 844.981 141.388C841.149 146.737 837.184 152.269 833.57 157.724C832.837 158.831 832.088 159.942 831.338 161.058C822.803 173.764 813.971 186.903 820.537 199.576C825.135 208.446 833.106 217.344 840.814 225.948C851.128 237.46 861.789 249.363 864.586 261.405C866.32 268.873 862.891 276.678 859.574 284.225C858.987 285.564 858.377 286.948 857.818 288.291C854.177 297.03 849.4 305.863 845.21 313.354C843.957 315.597 842.688 317.841 841.418 320.084C832.334 336.141 822.937 352.742 819.133 369.261C815.319 385.83 827.082 402.323 838.464 418.271C846.978 430.199 855.776 442.535 858.058 454.858L855.827 454.894C853.55 442.621 844.768 430.311 836.277 418.408C824.867 402.414 813.064 385.876 816.902 369.217C820.716 352.666 830.119 336.048 839.214 319.976C840.484 317.734 841.753 315.491 843.006 313.248C847.19 305.766 851.962 296.939 855.597 288.213C856.157 286.869 856.766 285.483 857.354 284.144C860.654 276.628 864.066 268.857 862.349 261.453C859.569 249.474 848.93 237.6 838.643 226.119C830.919 217.499 822.931 208.585 818.317 199.678C811.688 186.892 820.554 173.695 829.135 160.933C829.884 159.816 830.628 158.705 831.361 157.6C834.98 152.141 838.94 146.607 842.777 141.254C850.032 131.128 857.533 120.656 862.986 110.256C867.181 102.258 871.281 92.7687 869.9 83.0385C868.541 73.4966 864.497 64.0059 861.118 56.804C859.462 53.2766 857.689 49.693 855.978 46.2266C848.555 31.2301 840.881 15.7249 840.769 0.241122L843.006 0.239533C843.118 15.6754 850.781 31.1574 858.193 46.1308C859.91 49.5972 861.683 53.1824 863.339 56.7132C866.723 63.9299 870.778 73.4421 872.137 83.0105C872.333 84.3316 872.423 85.651 872.423 86.9623Z" fill="white" fill-opacity="0.52"/>
<path d="M860.027 87.8078C860.027 95.7875 856.263 103.358 852.387 109.897C846.295 120.171 837.776 130.461 829.537 140.414C825.191 145.664 820.7 151.092 816.622 156.449C816.079 157.163 815.531 157.878 814.983 158.596C805.122 171.471 794.925 184.784 801.973 197.667C806.844 206.568 815.688 215.453 824.246 224.044C835.578 235.419 847.291 247.183 849.993 259.183C851.721 266.84 847.643 274.84 843.706 282.577C843.174 283.615 842.648 284.648 842.145 285.671C837.894 294.246 832.289 302.892 827.367 310.221C825.902 312.403 824.419 314.584 822.937 316.766C812.253 332.491 801.201 348.749 796.855 365.014C792.178 382.501 805.765 399.935 818.91 416.794C828.586 429.211 838.593 442.051 841.295 454.855L839.063 454.896C836.373 442.145 826.388 429.334 816.734 416.943C803.555 400.034 789.93 382.55 794.628 364.963C798.986 348.66 810.05 332.38 820.75 316.637C822.232 314.456 823.714 312.276 825.18 310.094C830.097 302.775 835.696 294.138 839.936 285.577C840.445 284.553 840.97 283.521 841.496 282.481C845.417 274.779 849.472 266.815 847.766 259.229C845.082 247.302 833.397 235.574 822.104 224.232C813.529 215.621 804.657 206.717 799.769 197.774C792.654 184.766 802.896 171.39 812.807 158.452C813.355 157.734 813.904 157.019 814.446 156.306C818.529 150.942 823.026 145.51 827.373 140.259C835.601 130.317 844.108 120.035 850.188 109.785C854.837 101.947 859.317 92.6283 857.298 82.9179C855.318 73.3876 850.116 63.915 845.803 56.728C843.678 53.1874 841.407 49.5939 839.208 46.1177C829.778 31.1987 820.023 15.7711 819.307 0.24609L821.544 0.237893C822.255 15.7068 831.993 31.1062 841.407 45.9971C843.605 49.475 845.881 53.0702 848.001 56.6141C852.325 63.8193 857.538 73.3149 859.524 82.8783C859.871 84.5331 860.027 86.1779 860.027 87.8078Z" fill="white" fill-opacity="0.52"/>
<path d="M847.532 88.3676C847.532 96.1805 843.487 103.529 839.678 109.356C833.084 119.436 823.698 129.488 814.619 139.208C809.831 144.334 804.881 149.635 800.401 154.875L800.082 155.249C788.794 168.452 777.121 182.104 784.437 195.454C789.426 204.555 798.991 213.597 808.243 222.339C820.37 233.8 832.91 245.652 835.366 257.823C836.971 265.759 832.172 274.001 827.535 281.972C827.227 282.506 826.914 283.036 826.612 283.564C821.818 291.854 815.458 300.182 809.865 307.236C808.209 309.326 806.531 311.415 804.853 313.506C792.699 328.656 780.124 344.322 775.364 360.103C770.755 375.37 782.496 390.543 793.845 405.216L794.281 405.776C796.027 408.032 797.839 410.329 799.595 412.549C810.447 426.297 821.673 440.512 824.509 454.855L822.277 454.893C819.458 440.606 808.254 426.419 797.419 412.699C795.669 410.478 793.851 408.181 792.106 405.923L791.675 405.363C780.287 390.641 768.507 375.416 773.144 360.043C777.921 344.216 790.512 328.526 802.683 313.353C804.361 311.263 806.039 309.174 807.695 307.084C813.283 300.04 819.637 291.724 824.414 283.452C824.721 282.923 825.029 282.392 825.337 281.858C829.951 273.925 834.728 265.721 833.14 257.861C830.701 245.77 818.199 233.957 806.117 222.534C796.843 213.768 787.251 204.705 782.239 195.557C774.85 182.071 786.579 168.351 797.923 155.083L798.242 154.71C802.728 149.464 807.678 144.159 812.472 139.03C821.539 129.321 830.913 119.282 837.491 109.228C842.179 102.061 847.218 92.5821 844.573 82.7974C841.994 73.2802 835.668 63.8242 830.443 56.6504C827.854 53.0966 825.085 49.4898 822.411 46.002C811.023 31.1673 799.249 15.8256 797.973 0.24445L800.211 0.227907C801.48 15.743 813.232 31.0501 824.593 45.8551C827.272 49.3445 830.041 52.9529 832.631 56.5117C837.872 63.7053 844.215 73.1878 846.804 82.7446C847.308 84.6355 847.532 86.5147 847.532 88.3676Z" fill="white" fill-opacity="0.52"/>
<path d="M834.722 88.9308C834.722 94.8462 832.144 101.211 826.791 108.799C819.816 118.676 809.692 128.476 799.897 137.952C794.735 142.947 789.393 148.113 784.588 153.226C771.734 166.886 760.771 180.231 767.629 193.278C772.612 202.755 782.764 212.137 792.587 221.21C805.334 232.983 818.513 245.157 820.605 257.718C823.038 272.339 808.405 288.041 795.501 301.897C794.556 302.909 793.621 303.916 792.693 304.914C790.864 306.891 789.012 308.867 787.155 310.844C773.686 325.215 759.764 340.074 754.735 355.18C749.584 370.672 761.929 386.184 773.871 401.185L775.113 402.749C777.054 405.191 779.073 407.678 781.031 410.083C792.85 424.625 805.071 439.665 807.723 454.858L805.491 454.893C802.856 439.759 790.657 424.751 778.86 410.238C776.903 407.832 774.883 405.345 772.942 402.901L771.701 401.337C759.719 386.283 747.324 370.716 752.515 355.115C757.56 339.952 771.51 325.064 785.002 310.667C786.853 308.691 788.705 306.715 790.534 304.739C791.457 303.74 792.397 302.734 793.342 301.72C806.207 287.912 820.778 272.263 818.373 257.747C816.298 245.273 803.158 233.141 790.456 221.408C780.605 212.312 770.425 202.905 765.414 193.377C758.489 180.198 769.514 166.781 782.429 153.047C787.245 147.926 792.587 142.757 797.755 137.758C807.532 128.297 817.646 118.513 824.598 108.664C831.853 98.3885 833.973 90.3774 831.484 82.6917C828.419 73.2389 821.415 64.1908 814.966 56.5843C811.94 53.014 808.702 49.394 805.569 45.8914C792.38 31.1425 778.748 15.8901 777.048 0.247779L779.285 0.226267C780.975 15.7926 794.578 31.0087 807.734 45.7213C810.866 49.2256 814.105 52.8488 817.136 56.4225C823.603 64.0521 830.634 73.1299 833.71 82.6273C834.387 84.6949 834.722 86.7823 834.722 88.9308Z" fill="white" fill-opacity="0.52"/>
<path d="M821.242 89.2478C821.242 95.0542 818.675 101.257 813.417 108.3C806.179 117.997 795.434 127.563 785.035 136.814C779.559 141.689 773.893 146.729 768.814 151.724C756.716 163.63 744.376 177.5 751.161 191.476C756.039 201.518 766.689 211.433 776.986 221.023C790.215 233.339 803.891 246.075 805.541 259.244C805.636 260.021 805.687 260.801 805.687 261.58C805.687 275.875 789.84 290.647 775.773 303.761C773.792 305.607 771.784 307.454 769.782 309.3C755.189 322.726 740.103 336.61 734.996 350.891C729.38 366.58 742.228 382.418 754.652 397.734C755.272 398.502 755.893 399.268 756.514 400.032C758.629 402.648 760.832 405.31 762.964 407.885C775.599 423.137 788.66 438.909 790.942 454.858L788.705 454.886C786.434 439.003 773.395 423.263 760.788 408.042C758.657 405.466 756.447 402.802 754.333 400.186C753.718 399.421 753.097 398.655 752.47 397.889C740.002 382.519 727.115 366.626 732.77 350.823C737.905 336.474 753.024 322.558 767.651 309.1C769.659 307.254 771.661 305.409 773.642 303.563C788.42 289.785 805.178 274.166 803.309 259.268C801.671 246.189 788.039 233.498 774.855 221.223C764.53 211.608 753.852 201.665 748.946 191.568C742.094 177.462 754.501 163.506 766.672 151.533C771.756 146.527 777.428 141.482 782.91 136.604C793.286 127.369 804.02 117.819 811.23 108.157C818.507 98.4066 820.599 90.2866 817.825 82.6009C814.407 73.1564 806.565 64.1215 799.338 56.5282C795.926 52.9446 792.273 49.3098 788.744 45.7956C773.999 31.126 758.752 15.9561 756.883 0.249418L759.121 0.226267C760.978 15.8504 776.187 30.9774 790.892 45.6073C794.427 49.1249 798.079 52.7613 801.497 56.3499C808.746 63.9695 816.622 73.0391 820.056 82.5315C820.845 84.7263 821.242 86.9573 821.242 89.2478Z" fill="white" fill-opacity="0.52"/>
<path d="M806.856 89.4873C806.856 95.2574 804.333 101.35 799.254 107.932C792.167 117.111 780.975 126.332 770.146 135.252C748.644 152.963 726.41 171.279 734.733 190.401C739.437 201.208 750.513 211.866 761.224 222.173C774.827 235.265 788.895 248.803 790.086 262.804C790.137 263.366 790.159 263.927 790.159 264.485C790.159 280.473 770.985 295.577 752.42 310.203C736.999 322.351 721.052 334.914 716.196 347.9C710.279 363.737 723.524 379.826 736.339 395.385C737.066 396.266 737.787 397.144 738.503 398.019C740.763 400.779 743.135 403.59 745.422 406.308C758.707 422.071 772.439 438.37 774.162 454.865L771.924 454.884C770.207 438.461 756.503 422.196 743.252 406.466C740.959 403.746 738.593 400.936 736.327 398.173C735.611 397.298 734.89 396.421 734.163 395.539C721.303 379.925 708.008 363.779 713.97 347.826C718.859 334.758 734.851 322.156 750.322 309.969C769.463 294.891 789.247 279.299 787.849 262.819C786.663 248.911 772.64 235.415 759.082 222.366C748.342 212.031 737.239 201.346 732.513 190.483C724.117 171.201 746.446 152.811 768.037 135.027C778.844 126.127 790.014 116.924 797.073 107.783C804.204 98.5453 806.257 90.2866 803.337 82.5348C799.786 73.0953 791.3 64.0703 783.469 56.487C779.755 52.8918 775.773 49.2454 771.913 45.7196C755.944 31.1177 739.432 16.0172 737.743 0.246089L739.98 0.224627C741.658 15.9032 758.125 30.9575 774.044 45.5165C777.904 49.0456 781.892 52.6936 785.612 56.2937C793.47 63.9051 801.989 72.9665 805.564 82.4605C806.425 84.7576 806.856 87.096 806.856 89.4873Z" fill="white" fill-opacity="0.52"/>
<path d="M790.467 90.8018C790.467 96.6165 788.319 102.225 783.995 107.765C776.601 117.241 765.151 126.547 754.081 135.546C732.68 152.94 710.553 170.927 717.975 190.389C722.472 202.179 733.928 213.803 745.008 225.044C758.908 239.144 773.278 253.725 774.072 268.777C774.089 269.08 774.095 269.383 774.095 269.684C774.095 284.704 754.534 298.406 735.6 311.668C719.581 322.891 703.013 334.496 698.364 346.843C692.368 362.778 705.966 378.998 719.116 394.685C719.787 395.486 720.453 396.284 721.119 397.078C723.507 399.94 726.019 402.856 728.452 405.679C742.201 421.643 756.425 438.152 757.387 454.866L755.15 454.878C754.193 438.241 740.002 421.77 726.287 405.842C723.854 403.02 721.342 400.102 718.948 397.237C718.283 396.442 717.617 395.645 716.946 394.844C703.751 379.101 690.103 362.823 696.138 346.771C700.82 334.327 717.449 322.678 733.536 311.41C752.761 297.945 772.635 284.02 771.835 268.786C771.046 253.82 756.716 239.285 742.861 225.226C731.752 213.958 720.269 202.306 715.749 190.46C712.387 181.655 714.714 172.409 722.853 162.193C730.107 153.09 741.222 144.055 751.972 135.316C763.019 126.336 774.447 117.05 781.808 107.612C796.983 88.1579 782.021 70.0583 767.287 56.4638C763.383 52.8604 759.171 49.2058 755.099 45.6734C738.324 31.1177 720.979 16.0667 719.927 0.237842L722.165 0.224627C723.211 15.9511 740.5 30.9527 757.219 45.4604C761.297 48.9977 765.509 52.654 769.419 56.264C779.856 65.8934 786.014 73.992 788.8 81.752C789.913 84.8386 790.467 87.8474 790.467 90.8018Z" fill="white" fill-opacity="0.52"/>
<path d="M772.892 89.1801C772.892 94.8065 770.442 100.7 765.441 107.263C758.422 116.481 747.626 125.693 737.183 134.599C716.057 152.628 694.208 171.269 702.66 190.86C707.884 202.973 719.771 214.994 731.265 226.617C746.088 241.603 761.414 257.102 762.684 273C763.853 287.921 742.592 301.499 722.008 314.632C705.619 325.091 688.671 335.906 683.156 347.335C676.018 362.149 688.822 377.614 701.206 392.57C702.487 394.12 703.762 395.656 704.998 397.177C707.28 399.986 709.68 402.85 711.996 405.618C725.375 421.608 739.202 438.142 740.606 454.866L738.369 454.883C736.976 438.23 723.171 421.732 709.825 405.776C707.51 403.007 705.116 400.143 702.828 397.332C701.592 395.813 700.322 394.277 699.036 392.728C687.177 378.412 673.742 362.183 680.941 347.245C686.495 335.719 703.516 324.86 719.978 314.357C740.45 301.292 761.61 287.785 760.446 273.018C759.182 257.206 743.901 241.752 729.117 226.805C717.6 215.156 705.686 203.112 700.439 190.946C691.921 171.2 713.858 152.484 735.069 134.385C745.489 125.495 756.263 116.301 763.254 107.12C770.369 97.7758 772.288 89.8027 769.279 82.0278C765.581 72.4661 756.704 63.157 749.388 56.1137C745.769 52.6309 741.904 49.1034 738.168 45.6916C722.198 31.1145 705.686 16.042 703.689 0.251057L705.927 0.226266C707.907 15.9247 724.374 30.9543 740.293 45.4885C744.035 48.902 747.9 52.4327 751.525 55.9205C758.875 62.9902 767.785 72.3389 771.499 81.9535C772.428 84.3316 772.892 86.7311 772.892 89.1801Z" fill="white" fill-opacity="0.52"/>
<path d="M751.122 87.6807C751.122 93.1749 748.846 99.0507 744.147 105.94C737.966 115.007 728.446 124.235 719.239 133.161C699.802 152.002 679.704 171.485 688.721 191.202C694.359 203.531 706.05 215.811 717.354 227.688C732.071 243.151 747.285 259.138 749.394 275.456C750.977 287.762 732.205 300.177 715.637 311.133C713.327 312.659 710.944 314.211 708.645 315.712C692.799 326.035 676.41 336.71 670.179 348.108C662.46 362.226 674.86 377.917 685.807 391.76C687.384 393.755 688.872 395.64 690.327 397.537C692.402 400.254 694.572 403.02 696.669 405.695C709.199 421.673 722.153 438.195 723.837 454.865L721.6 454.884C719.927 438.281 706.995 421.79 694.488 405.844C692.391 403.168 690.22 400.401 688.139 397.682C686.691 395.788 685.203 393.904 683.625 391.911C672.634 378.007 660.183 362.249 667.969 348.003C674.251 336.517 690.701 325.803 706.609 315.44C708.914 313.94 711.291 312.39 713.601 310.864C730.068 299.974 748.734 287.633 747.162 275.482C745.064 259.244 729.884 243.293 715.206 227.868C703.885 215.97 692.172 203.667 686.512 191.293C677.428 171.431 697.598 151.88 717.102 132.971C726.293 124.061 735.802 114.848 741.96 105.813C748.689 95.9444 750.423 88.1777 747.576 80.6291C744.774 73.1811 739.258 65.3138 729.71 55.1196C726.639 51.8448 723.395 48.5287 720.257 45.3216C706.061 30.8155 691.378 15.8157 688.889 0.254335L691.126 0.222938C693.604 15.7067 708.248 30.6686 722.411 45.1383C725.549 48.347 728.798 51.6648 731.869 54.9429C741.457 65.1718 746.989 73.0722 749.808 80.5564C750.675 82.8915 751.122 85.2498 751.122 87.6807Z" fill="white" fill-opacity="0.52"/>
<path d="M733.581 278.389C733.581 289.589 717.27 301.125 702.8 311.359L701.48 312.292C699.338 313.81 697.128 315.352 694.992 316.845C680.214 327.162 664.932 337.83 658.768 349.091C651.2 362.907 662.409 378.316 672.299 391.912C673.848 394.044 675.314 396.057 676.729 398.084C678.552 400.695 680.448 403.35 682.283 405.92C693.666 421.844 705.429 438.311 707.046 454.866L704.808 454.886C703.203 438.39 691.456 421.953 680.096 406.057C678.261 403.487 676.36 400.83 674.536 398.217C673.127 396.194 671.661 394.181 670.112 392.051C660.183 378.399 648.929 362.925 656.564 348.985C662.773 337.647 678.11 326.94 692.939 316.588C695.075 315.096 697.285 313.554 699.427 312.038L700.747 311.105C715.783 300.468 732.815 288.413 731.254 276.883C729 260.423 714.586 244.156 700.647 228.423C690.008 216.412 679 203.994 673.462 191.558C666.951 176.942 675.879 162.624 685.583 149.213C689.364 143.989 693.537 138.7 697.576 133.585C705.228 123.891 713.137 113.867 718.686 103.881C722.746 96.567 726.489 87.8325 723.44 78.5037C721.063 71.2308 716.387 63.3255 708.718 53.6267C706.341 50.6194 703.846 47.5742 701.435 44.6297C689.683 30.2821 677.529 15.4458 675.202 0.254335L677.439 0.224627C679.76 15.3533 691.887 30.1583 703.611 44.4745C706.027 47.4206 708.522 50.4675 710.899 53.478C718.59 63.2065 723.283 71.14 725.666 78.4426C728.754 87.9019 724.738 97.0657 720.889 103.992C715.335 113.999 707.415 124.033 699.752 133.739C695.719 138.852 691.546 144.138 687.77 149.355C678.105 162.711 669.211 176.965 675.677 191.476C681.198 203.87 692.184 216.269 702.806 228.26C716.773 244.026 731.221 260.327 733.48 276.859C733.547 277.365 733.581 277.877 733.581 278.389Z" fill="white" fill-opacity="0.52"/>
<path d="M715.559 278.968C715.559 289.967 701.267 301.421 688.587 311.581L686.752 313.052C684.856 314.575 682.938 316.097 681.013 317.621C667.79 328.108 654.114 338.951 648.51 350.224C641.658 364.015 651.038 378.609 660.105 392.722C661.386 394.715 662.711 396.776 663.942 398.766C665.48 401.258 667.08 403.793 668.629 406.245C678.631 422.085 688.967 438.464 690.259 454.866L688.022 454.881C686.736 438.532 676.41 422.18 666.426 406.366C664.876 403.913 663.276 401.378 661.738 398.885C660.508 396.896 659.188 394.835 657.907 392.844C648.801 378.678 639.387 364.028 646.295 350.126C651.927 338.784 665.648 327.908 678.916 317.39C680.834 315.868 682.753 314.347 684.649 312.824L686.484 311.351C699.701 300.759 714.686 288.75 713.215 277.404C711.084 260.93 698.09 244.551 685.527 228.711C675.963 216.655 666.079 204.19 661.028 191.757C654.897 176.659 662.941 161.09 669.407 148.582C672.209 143.16 675.297 137.659 678.289 132.34C683.956 122.252 689.818 111.82 693.951 101.495C696.972 93.9627 699.752 85.0252 697.503 75.8466C695.758 68.7025 692.34 61.0515 686.763 51.7688C685.141 49.072 683.452 46.3372 681.813 43.6933C673.076 29.5753 664.043 14.9785 662.331 0.249417L664.569 0.226266C666.275 14.9074 675.297 29.4812 684.017 43.5744C685.656 46.22 687.345 48.9548 688.967 51.6532C694.561 60.9606 697.984 68.6331 699.735 75.8003C701.995 85.0351 699.203 94.0106 696.172 101.574C692.027 111.914 686.165 122.354 680.493 132.449C677.506 137.767 674.419 143.266 671.616 148.683C663.422 164.541 657.599 177.777 663.248 191.679C668.283 204.076 678.155 216.523 687.703 228.56C700.294 244.43 713.31 260.841 715.447 277.38C715.525 277.908 715.559 278.438 715.559 278.968Z" fill="white" fill-opacity="0.52"/>
<path d="M696.026 278.588C696.026 290.044 684.006 301.537 672.377 312.654C671.706 313.296 671.035 313.937 670.375 314.573C669.122 315.777 667.858 316.981 666.593 318.185C655.116 329.112 643.252 340.411 638.76 351.969C633.323 365.959 641.311 380.554 649.041 394.669C650.087 396.576 651.167 398.548 652.179 400.465C653.27 402.524 654.377 404.585 655.485 406.645C663.942 422.378 672.685 438.646 673.496 454.868L671.258 454.878C670.447 438.702 661.716 422.457 653.275 406.749C652.168 404.688 651.06 402.627 649.97 400.567C648.957 398.652 647.878 396.682 646.832 394.776C639.079 380.617 631.064 365.977 636.54 351.897C641.053 340.276 652.956 328.947 664.462 317.991C665.726 316.787 666.991 315.584 668.244 314.381C668.909 313.744 669.575 313.105 670.252 312.461C681.903 301.32 693.946 289.797 693.8 278.374C693.627 265.588 685.018 252.562 676.69 239.965C675.7 238.465 674.709 236.973 673.742 235.486C672.494 233.569 671.23 231.652 669.966 229.734C661.996 217.644 653.756 205.141 649.282 192.676C644.063 178.136 648.532 163.385 652.856 149.122L653.04 148.504C654.814 142.647 656.794 136.695 658.701 130.938C662.147 120.57 665.704 109.848 668.215 99.2802C671.997 83.377 670.716 67.2129 664.3 49.8664C663.383 47.3892 662.443 44.9138 661.503 42.4399C656.273 28.6621 650.859 14.4153 650.02 0.244449L652.257 0.232873C653.096 14.3724 658.5 28.6043 663.724 42.3673C664.664 44.8411 665.603 47.3166 666.521 49.7954C672.948 67.1816 674.234 83.3836 670.442 99.3265C667.93 109.902 664.367 120.63 660.922 131.002C659.009 136.756 657.034 142.706 655.261 148.562L655.076 149.18C650.764 163.413 646.3 178.131 651.497 192.607C655.96 205.042 664.194 217.53 672.153 229.607C673.417 231.525 674.682 233.443 675.934 235.361C676.902 236.847 677.892 238.34 678.882 239.838C687.228 252.465 695.864 265.522 696.038 278.37C696.026 278.441 696.026 278.516 696.026 278.588Z" fill="white" fill-opacity="0.52"/>
<path d="M675.258 278.032C675.258 292.186 663.327 306.159 651.787 319.677C642.457 330.607 632.809 341.909 629.548 353.221C625.369 367.729 631.897 382.645 638.206 397.068C638.822 398.47 639.431 399.867 640.03 401.261C640.858 403.187 641.702 405.111 642.541 407.036C649.371 422.664 656.43 438.823 656.704 454.873L654.467 454.876C654.193 438.867 647.139 422.73 640.321 407.12C639.482 405.195 638.637 403.269 637.809 401.344C637.211 399.95 636.595 398.553 635.986 397.152C629.659 382.694 623.115 367.742 627.316 353.163C630.594 341.797 640.265 330.47 649.617 319.514C661.224 305.924 673.194 291.871 673.02 277.68C672.785 261.067 663.254 244.32 654.041 228.124C647.452 216.549 640.645 204.58 637.283 192.757C633.541 179.597 634.99 166.158 636.394 153.161C636.59 151.353 636.786 149.545 636.965 147.74C637.58 141.643 638.279 135.445 638.956 129.45C640.181 118.647 641.445 107.476 642.234 96.486C643.526 78.4409 641.892 60.1151 640.31 42.3937C639.073 28.5812 637.809 14.2997 637.921 0.236152L640.158 0.237841C640.047 14.2964 641.316 28.5696 642.547 42.3772C644.13 60.1068 645.769 78.4393 644.471 96.5009C643.682 107.494 642.418 118.668 641.193 129.473C640.516 135.466 639.812 141.664 639.202 147.761C639.023 149.568 638.827 151.376 638.631 153.184C637.233 166.163 635.784 179.582 639.515 192.705C642.871 204.501 649.673 216.455 656.251 228.017C665.48 244.237 675.028 261.011 675.263 277.679C675.258 277.796 675.258 277.915 675.258 278.032Z" fill="white" fill-opacity="0.52"/>
<path d="M653.896 276.584C653.896 276.607 653.896 276.631 653.896 276.655C653.879 290.997 645.142 305.305 636.691 319.142C629.659 330.659 622.382 342.568 620.19 354.427C616.789 372.787 623.289 391.402 629.581 409.403C634.783 424.288 640.17 439.683 639.929 454.875L637.692 454.871C637.932 439.711 632.551 424.338 627.355 409.47C621.057 391.443 614.546 372.802 617.958 354.39C620.162 342.49 627.45 330.56 634.492 319.024C642.927 305.214 651.647 290.936 651.664 276.653C651.664 276.63 651.664 276.605 651.664 276.582C651.664 260.348 644.572 243.943 637.709 228.073C632.714 216.525 627.551 204.583 625.157 192.799C623.009 182.226 622.405 171.444 621.823 161.015C621.566 156.416 621.297 151.66 620.906 146.99C620.369 140.657 619.826 134.325 619.278 127.992C618.31 116.762 617.315 105.151 616.381 93.7298C614.781 74.1357 617.997 54.3236 621.101 35.1638C622.958 23.7261 624.871 11.8986 625.75 0.229644L627.987 0.244448C627.109 11.9217 625.19 23.754 623.333 35.1968C620.229 54.345 617.018 74.1456 618.612 93.7149C619.546 105.136 620.542 116.747 621.51 127.975C622.052 134.309 622.601 140.64 623.137 146.973C623.535 151.647 623.798 156.403 624.055 161.004C624.637 171.424 625.241 182.2 627.383 192.757C629.771 204.52 634.929 216.45 639.918 227.989C646.792 243.88 653.896 260.309 653.896 276.584Z" fill="white" fill-opacity="0.52"/>
<path d="M632.467 275.568C632.467 289.93 626.751 304.369 621.219 318.343C616.481 330.318 611.576 342.7 610.306 354.957C608.483 372.508 612.577 390.299 616.532 407.505C620.1 423.014 623.786 439.051 623.143 454.876L620.906 454.868C621.555 439.069 617.863 423.045 614.3 407.55C610.34 390.329 606.24 372.521 608.069 354.937C609.344 342.652 614.249 330.255 618.998 318.266C624.676 303.923 630.532 289.09 630.219 274.376C629.878 259.116 625.397 243.664 621.068 228.72C617.589 216.718 613.992 204.307 612.555 192.059C609.898 169.419 604.304 146.473 598.901 124.283C596.216 113.269 593.442 101.883 591.059 90.6664L590.634 88.6814C588.877 80.5135 587.06 72.0664 588.855 63.7317C590.248 57.2829 592.703 50.5979 596.373 43.2937C597.072 41.8999 597.777 40.5078 598.481 39.1173C604.897 26.4492 611.531 13.3501 613.22 0.224626L615.458 0.249416C613.757 13.4129 607.118 26.5302 600.691 39.2147C599.986 40.6052 599.281 41.9973 598.582 43.3911C594.924 50.6772 592.474 57.344 591.081 63.773C589.291 72.0664 591.104 80.492 592.86 88.6401L593.285 90.6268C595.668 101.84 598.442 113.227 601.127 124.238C606.536 146.435 612.13 169.388 614.786 192.039C616.224 204.269 619.815 216.672 623.294 228.666C627.629 243.623 632.109 259.088 632.456 274.374C632.462 274.772 632.467 275.17 632.467 275.568Z" fill="white" fill-opacity="0.52"/>
<path d="M611.52 273.637C611.52 287.912 608.399 302.361 605.378 316.338C602.581 329.284 599.69 342.672 599.287 355.87C598.806 371.806 600.887 387.995 602.895 403.651C605.054 420.436 607.28 437.791 606.363 454.879L604.125 454.87C605.048 437.799 602.816 420.452 600.663 403.677C598.649 388.013 596.568 371.816 597.049 355.865C597.447 342.647 600.344 329.251 603.141 316.297C606.184 302.205 609.338 287.632 609.277 273.258C609.221 258.56 606.704 243.641 604.271 229.213C602.218 217.043 600.092 204.461 599.455 192.064C598.252 168.782 588.816 145.31 579.687 122.61C575.19 111.43 570.542 99.8698 566.934 88.4667L566.526 87.1852C563.83 78.7085 561.039 69.9443 563.662 61.2942C565.586 54.9428 569.244 48.4924 574.843 41.5763C575.856 40.3228 576.879 39.0743 577.892 37.8291C588.229 25.1693 597.989 13.2114 600.02 0.224626L602.257 0.256023C600.215 13.3072 590.427 25.2932 580.068 37.9844C579.05 39.2296 578.032 40.478 577.019 41.7298C571.448 48.6146 567.807 55.0337 565.888 61.352C563.282 69.9427 566.062 78.6771 568.752 87.1225L569.16 88.4056C572.768 99.8004 577.416 111.357 581.908 122.534C591.042 145.249 600.489 168.739 601.692 192.056C602.33 204.44 604.45 217.018 606.502 229.181C608.936 243.618 611.458 258.545 611.514 273.258C611.514 273.383 611.52 273.51 611.52 273.637Z" fill="white" fill-opacity="0.52"/>
<path d="M591.49 274.752C591.49 287.97 590.298 301.373 589.146 314.35C587.899 328.371 586.612 342.87 586.825 357.132C587.009 369.575 587.703 382.237 588.368 394.48C589.448 414.281 590.561 434.755 589.588 454.879L587.35 454.87C588.324 434.757 587.211 414.286 586.131 394.49C585.465 382.245 584.777 369.582 584.587 357.133C584.375 342.86 585.661 328.357 586.909 314.332C588.1 300.929 589.336 287.068 589.252 273.433C589.168 259.777 588.245 245.897 587.356 232.474C586.495 219.467 585.6 206.017 585.471 192.784C585.236 168.921 572.947 145.01 561.067 121.885C555.255 110.576 549.248 98.8806 544.711 87.3223L544.482 86.7377C541.008 77.8976 537.423 68.757 540.46 59.7567C542.575 53.4912 547.228 46.988 554.293 40.4236C555.753 39.0645 557.224 37.7169 558.678 36.376C571.705 24.4097 584.005 13.1073 585.874 0.222936L588.111 0.251055C586.226 13.2246 573.881 24.5683 560.809 36.5774C559.349 37.9167 557.884 39.2643 556.424 40.6217C549.41 47.1416 544.79 53.6002 542.686 59.8195C539.671 68.7487 543.246 77.8547 546.703 86.6601L546.932 87.2447C551.463 98.7914 557.47 110.48 563.282 121.784C575.179 144.932 587.479 168.868 587.714 192.779C587.843 206.007 588.738 219.454 589.599 232.459C590.488 245.885 591.411 259.769 591.495 273.429C591.49 273.872 591.49 274.313 591.49 274.752Z" fill="white" fill-opacity="0.52"/>
<path d="M573.389 383.667C573.389 407.394 573.249 431.238 572.802 454.876L570.564 454.873C571.403 410.354 571.163 365.08 570.933 321.298C570.85 305.442 570.76 289.049 570.727 272.926C570.704 261.916 570.604 250.722 570.503 239.896C570.363 224.45 570.218 208.479 570.296 192.771C570.296 192.667 570.296 192.563 570.296 192.458C570.296 168.655 556.597 144.978 543.341 122.078C536.584 110.403 529.598 98.3307 524.485 86.3546C518.142 71.5083 515.06 55.577 535.297 39.6821C538.29 37.3321 541.635 34.9821 544.868 32.7097C549.309 29.5885 553.896 26.3633 557.621 23.1034C565.547 16.1691 569.737 8.68649 570.441 0.227904L572.679 0.244448C571.968 8.77074 567.74 16.3161 559.741 23.3148C555.993 26.5962 551.384 29.833 546.932 32.9657C543.704 35.2331 540.371 37.5765 537.395 39.9149C517.331 55.6745 520.396 71.5082 526.706 86.272C531.813 98.2332 538.799 110.299 545.55 121.966C558.818 144.893 572.533 168.599 572.533 192.458C572.533 192.564 572.533 192.667 572.533 192.772C572.449 208.479 572.6 224.45 572.74 239.894C572.841 250.721 572.942 261.914 572.964 272.924C572.997 289.047 573.087 305.441 573.171 321.296C573.277 341.835 573.389 362.705 573.389 383.667Z" fill="white" fill-opacity="0.52"/>
<path d="M558.689 330.706C558.689 339.714 558.214 348.746 556.855 357.708C553.61 379.129 554.461 400.888 555.283 421.93C555.702 432.724 556.144 443.886 556.021 454.876L553.784 454.874C553.901 443.889 553.471 432.731 553.046 421.939C552.223 400.886 551.373 379.119 554.623 357.678C557.599 338.048 556.334 318.071 555.115 298.751C554.567 290.109 554.002 281.173 553.829 272.386C553.521 257.255 553.761 241.874 553.991 226.998C554.164 215.72 554.349 204.06 554.287 192.591C554.203 176.466 549.801 160.911 540.818 145.041C536.892 138.099 532.484 131.057 528.222 124.246C520.514 111.924 512.537 99.1811 507.084 86.5362C503.04 77.1677 501.664 69.6372 502.76 62.8383C504.125 54.3335 509.383 46.7568 518.825 39.6738C521.845 37.4097 525.201 35.1456 528.451 32.9574C533.233 29.7322 538.184 26.398 542.116 23.0126C549.975 16.2451 553.801 8.96724 553.801 0.781138C553.801 0.601133 553.801 0.421136 553.795 0.239479L556.032 0.236151C556.038 0.417807 556.038 0.599482 556.038 0.781138C556.038 9.04155 552.173 16.3888 544.23 23.2273C540.27 26.6375 535.303 29.9849 530.498 33.2233C527.26 35.4065 523.909 37.664 520.905 39.9166C499.812 55.7372 503.202 72.3191 509.304 86.452C514.752 99.0788 522.723 111.813 530.425 124.126C534.688 130.938 539.095 137.985 543.028 144.931C552.028 160.839 556.446 176.426 556.525 192.589C556.586 204.06 556.402 215.722 556.228 227C555.999 241.874 555.758 257.254 556.066 272.381C556.245 281.163 556.81 290.097 557.353 298.737C558.013 309.252 558.689 319.963 558.689 330.706Z" fill="white" fill-opacity="0.52"/>
<path d="M545.841 328.478C545.841 338.094 544.532 347.727 540.706 357.261C534.313 373.205 531.936 388.058 533.446 402.668C534.078 408.79 535.034 415.009 535.963 421.025C537.669 432.113 539.431 443.58 539.241 454.878L537.003 454.874C537.205 443.59 535.437 432.134 533.731 421.055C532.803 415.037 531.846 408.813 531.214 402.688C529.698 388.045 532.081 373.16 538.486 357.183C546.535 337.117 543.419 316.573 540.404 296.705C539.006 287.483 537.557 277.948 537.249 268.591C536.774 254.129 537.579 239.43 538.357 225.214C538.983 213.818 539.627 202.032 539.604 190.442C539.576 174.44 534.911 159.012 525.347 143.274C521.409 136.792 516.995 130.22 512.728 123.862C504.611 111.777 496.227 99.2786 490.706 86.85C486.651 77.7225 485.426 70.1987 486.835 63.1735C488.519 54.8091 494.006 47.2538 503.621 40.0767C506.446 37.9679 509.534 35.8508 512.521 33.803C517.661 30.2772 522.98 26.6309 527.103 22.9234C534.878 15.9329 538.116 8.51809 537.015 0.249415L539.252 0.222936C540.371 8.57088 537.093 16.0634 529.234 23.1282C525.078 26.8637 519.742 30.5233 514.579 34.0623C511.598 36.1051 508.521 38.2172 505.708 40.3178C483.474 56.9146 487.199 73.8566 492.932 86.7624C498.442 99.1696 506.826 111.656 514.931 123.731C519.199 130.091 523.618 136.667 527.562 143.155C537.154 158.931 541.825 174.399 541.853 190.439C541.853 190.607 541.853 190.776 541.853 190.946C541.853 202.379 541.215 213.99 540.6 225.223C539.822 239.433 539.017 254.128 539.493 268.582C539.8 277.926 541.249 287.457 542.647 296.673C544.225 307.142 545.841 317.798 545.841 328.478Z" fill="white" fill-opacity="0.52"/>
<path d="M532.562 325.808C532.562 336.357 530.291 346.9 523.495 357.262C522.712 358.456 521.912 359.644 521.118 360.824C516.995 366.936 513.108 372.708 511.821 378.896C510.406 385.7 510.535 392.916 512.252 402.297C513.376 408.45 515.021 414.697 516.615 420.74C519.563 431.91 522.617 443.458 522.466 454.878L520.229 454.876C520.38 443.488 517.326 431.948 514.383 420.791C512.789 414.745 511.139 408.494 510.015 402.333C508.298 392.926 508.163 385.687 509.59 378.856C510.887 372.625 514.792 366.831 518.925 360.697C519.72 359.516 520.519 358.331 521.302 357.138C535.023 336.215 530.219 314.509 525.576 293.519C523.428 283.805 521.207 273.76 520.872 263.96C520.391 249.898 521.985 235.615 523.529 221.804C524.77 210.685 526.051 199.19 526.242 187.877C526.516 172.232 521.666 157.161 511.43 141.813C507.308 135.63 502.676 129.364 498.196 123.305C489.682 111.79 480.884 99.883 475.179 88.0076C470.955 79.2072 469.691 71.4257 471.325 64.2189C473.193 55.965 478.809 48.3768 488.485 41.0214C491.159 38.9918 494.045 36.9489 496.842 34.9738C502.273 31.1326 507.895 27.1627 512.129 23.1216C519.664 15.9363 522.315 8.46024 520.223 0.269188L522.455 0.219657C524.563 8.49659 521.89 16.0519 514.271 23.3181C510.004 27.3889 504.365 31.3754 498.912 35.2298C496.121 37.2016 493.24 39.2395 490.577 41.2625C472.55 54.9643 468.483 69.3531 477.399 87.9184C483.088 99.769 491.881 111.664 500.388 123.168C504.869 129.23 509.506 135.499 513.628 141.689C523.887 157.08 528.753 172.196 528.479 187.886C528.283 199.206 527.002 210.708 525.76 221.831C524.222 235.635 522.628 249.91 523.109 263.958C523.445 273.74 525.66 283.776 527.808 293.481C530.163 304.131 532.562 314.971 532.562 325.808Z" fill="white" fill-opacity="0.52"/>
<path d="M518.931 322.746C518.931 334.357 515.631 345.912 505.551 357.16C504.293 358.564 502.984 359.962 501.72 361.316C496.316 367.093 491.209 372.551 489.554 378.618C487.73 385.325 488.049 392.513 490.589 401.928C492.256 408.11 494.644 414.377 496.948 420.437C501.233 431.689 505.657 443.321 505.68 454.874L503.442 454.874C503.42 443.357 499.001 431.745 494.728 420.513C492.418 414.448 490.029 408.174 488.362 401.983C485.812 392.532 485.493 385.31 487.328 378.567C488.994 372.435 494.129 366.949 499.566 361.141C500.83 359.791 502.139 358.392 503.392 356.993C523.076 335.027 516.755 311.81 510.636 289.357C507.811 278.986 504.891 268.26 504.634 257.881C504.304 244.325 506.843 230.577 509.299 217.283C511.29 206.525 513.343 195.401 513.863 184.446C514.579 169.454 509.5 154.912 498.347 139.985C494.001 134.17 489.112 128.283 484.38 122.588C475.391 111.772 466.1 100.585 460.132 89.3866C450.729 71.7395 454.997 56.7611 473.556 42.2517C474.647 41.3979 475.744 40.5491 476.829 39.7052C493.346 26.8671 508.952 14.739 503.437 0.277484L505.657 0.203113C506.441 2.25583 506.804 4.26402 506.804 6.23086C506.804 18.2681 493.201 28.8388 478.915 39.9397C477.83 40.7836 476.739 41.6308 475.648 42.4862C457.229 56.8849 453 71.756 462.342 89.2859C468.293 100.456 477.573 111.628 486.55 122.433C491.282 128.131 496.176 134.023 500.528 139.844C511.715 154.823 516.805 169.416 516.095 184.457C515.575 195.426 513.516 206.557 511.525 217.321C509.07 230.605 506.53 244.343 506.86 257.878C507.112 268.234 510.032 278.947 512.851 289.306C515.877 300.344 518.931 311.571 518.931 322.746Z" fill="white" fill-opacity="0.52"/>
<path d="M504.578 176.428C504.578 177.771 504.522 179.115 504.399 180.463C503.476 191.023 500.545 201.718 497.715 212.059C494.236 224.752 490.661 237.879 490.74 250.843C490.818 261.391 493.85 272.098 496.786 282.453C498.447 288.315 500.165 294.378 501.328 300.344C505.014 319.268 506.95 339.229 487.132 356.993C485.28 358.654 483.328 360.284 481.443 361.861C474.96 367.285 468.836 372.407 466.861 378.353C464.047 386.823 466.335 395.21 468.634 401.572C470.883 407.779 474.037 414.065 477.086 420.142C482.769 431.462 488.648 443.173 488.899 454.873L486.662 454.878C486.41 443.224 480.548 431.538 474.871 420.238C471.817 414.154 468.662 407.863 466.408 401.641C464.092 395.248 461.799 386.816 464.629 378.286C466.626 372.262 472.796 367.103 479.329 361.64C481.208 360.066 483.155 358.44 485.001 356.785C504.701 339.13 502.76 319.24 499.085 300.381C497.927 294.424 496.21 288.366 494.549 282.507C491.612 272.14 488.575 261.419 488.497 250.845C488.424 237.854 491.998 224.712 495.483 212.006C498.313 201.673 501.239 190.987 502.162 180.446C503.403 166.207 498.067 152.298 485.84 137.922C481.247 132.518 476.062 127.057 471.056 121.774C461.536 111.742 451.697 101.366 445.421 90.9207C440.426 82.6075 439.045 74.7896 441.193 67.0164C443.368 59.1259 449.124 51.493 458.784 43.6801C459.808 42.8528 460.831 42.0304 461.849 41.2129C478.518 27.81 494.252 15.1502 486.679 0.28737L488.888 0.188308C496.557 15.2179 480.716 27.9553 463.947 41.4408C462.929 42.2583 461.905 43.0807 460.887 43.9064C442.121 59.0813 437.786 74.4213 447.625 90.8051C453.879 101.219 463.706 111.577 473.21 121.596C478.227 126.882 483.412 132.348 488.01 137.76C499.13 150.834 504.578 163.526 504.578 176.428Z" fill="white" fill-opacity="0.52"/>
<path d="M493.352 171.244C493.352 172.887 493.24 174.532 493.022 176.184C491.674 186.309 487.814 196.529 484.083 206.413C479.53 218.477 474.821 230.951 474.647 243.329C474.502 254.521 478.014 265.887 481.421 276.881C483.362 283.136 485.364 289.605 486.668 295.966C488.581 305.294 490.449 316.13 488.469 326.711C486.287 338.362 479.743 348.199 468.461 356.785C465.961 358.689 463.281 360.527 460.697 362.304C453.252 367.414 446.227 372.239 443.945 378.085C440.689 386.43 443.614 394.827 446.529 401.212C449.37 407.446 453.308 413.743 457.112 419.833C464.232 431.228 471.593 443.011 472.119 454.87L469.882 454.878C469.361 443.075 462.017 431.32 454.913 419.952C451.104 413.853 447.161 407.548 444.314 401.297C441.383 394.875 438.44 386.425 441.724 378.007C444.04 372.066 451.132 367.197 458.644 362.041C461.223 360.271 463.891 358.44 466.38 356.545C490.695 338.036 488.636 316.489 484.441 296.004C483.138 289.653 481.136 283.189 479.2 276.939C475.788 265.93 472.27 254.547 472.415 243.324C472.583 230.912 477.304 218.419 481.863 206.337C485.588 196.465 489.442 186.257 490.79 176.154C492.619 162.434 487.165 149.591 473.618 135.737C468.763 130.77 463.27 125.758 457.967 120.911C447.888 111.707 437.467 102.19 430.873 92.5309C425.363 84.462 423.864 76.6326 426.291 68.5951C428.602 60.9491 434.419 53.298 444.084 45.2061C445.058 44.3886 446.036 43.5761 447.01 42.7652C463.813 28.7711 479.676 15.5515 469.915 0.295666L472.113 0.173454C474.216 3.45813 475.145 6.64698 475.145 9.76652C475.145 21.3034 462.42 31.9022 449.113 42.9849C448.14 43.7941 447.166 44.6083 446.187 45.4241C426.834 61.6328 422.544 76.9993 433.065 92.3988C439.638 102.022 450.041 111.521 460.099 120.706C465.412 125.558 470.905 130.575 475.771 135.552C487.557 147.624 493.352 159.347 493.352 171.244Z" fill="white" fill-opacity="0.52"/>
<path d="M482.131 166.29C482.131 168.437 481.907 170.607 481.471 172.807C479.592 182.206 474.932 191.651 470.424 200.783C464.685 212.421 458.745 224.456 458.532 236.482C458.325 248.159 462.274 260.02 466.095 271.489C468.382 278.354 470.743 285.452 472.186 292.432C476.638 313.947 478.663 336.567 450.864 355.877C447.81 357.999 443.933 360.02 440.191 361.975C435.677 364.334 431.007 366.771 427.824 369.37C424.585 372.016 422.259 374.949 420.905 378.087C417.487 386.015 420.732 393.957 423.937 399.991C427.416 406.542 432.349 413.14 437.115 419.522C445.678 430.987 454.533 442.841 455.333 454.868L453.095 454.881C452.301 442.92 443.469 431.099 434.928 419.666C430.151 413.275 425.218 406.666 421.722 400.095C418.494 394.018 415.228 386.015 418.679 378.006C420.055 374.82 422.421 371.839 425.71 369.148C428.954 366.497 433.675 364.033 438.234 361.652C441.948 359.713 445.79 357.708 448.794 355.621C476.404 336.443 474.379 313.909 469.943 292.475C468.5 285.506 466.139 278.413 463.857 271.555C460.031 260.069 456.088 248.192 456.284 236.479C456.496 224.407 462.448 212.348 468.198 200.688C472.695 191.568 477.349 182.139 479.223 172.767C481.924 159.276 476.359 146.914 461.704 133.863C456.496 129.224 450.556 124.559 444.817 120.049C434.005 111.557 422.829 102.776 415.988 93.7512C404.913 79.1428 409.22 64.1446 429.558 46.552C430.447 45.784 431.337 45.0178 432.226 44.2532C449.152 29.6794 465.144 15.9131 453.123 0.310471L455.305 0.163518C458.269 4.01464 459.556 7.75345 459.556 11.413C459.556 22.7583 447.222 33.3786 434.341 44.4662C433.451 45.2308 432.562 45.9954 431.678 46.765C411.485 64.237 407.195 79.1213 418.175 93.6076C424.983 102.586 436.136 111.346 446.915 119.817C452.665 124.334 458.611 129.004 463.829 133.656C476.197 144.661 482.131 155.181 482.131 166.29Z" fill="white" fill-opacity="0.52"/>
<path d="M470.609 161.836C470.609 164.118 470.312 166.432 469.719 168.789C467.454 177.812 461.916 186.814 456.558 195.519C449.779 206.542 442.764 217.938 442.384 229.442C441.976 241.725 446.445 254.212 450.769 266.287C453.364 273.532 456.043 281.023 457.643 288.385C459.232 295.715 460.535 303.163 460.535 310.557C460.535 326.386 454.561 341.972 432.607 355.677C428.574 358.194 423.937 360.524 419.451 362.778C410.003 367.523 401.082 372.006 398.19 377.817C394.325 385.592 398.139 393.559 401.898 399.629C405.97 406.205 411.681 412.813 417.208 419.202C427.192 430.736 437.506 442.664 438.558 454.866L436.321 454.883C435.275 442.755 424.988 430.864 415.043 419.366C409.505 412.965 403.783 406.346 399.7 399.748C395.913 393.627 392.065 385.591 395.98 377.722C398.934 371.783 407.967 367.247 417.526 362.444C421.99 360.203 426.599 357.885 430.587 355.396C462.565 335.432 460.384 311.368 455.411 288.428C453.817 281.079 451.138 273.595 448.548 266.358C444.219 254.265 439.744 241.758 440.152 229.437C440.538 217.877 447.569 206.451 454.365 195.401C459.707 186.713 465.233 177.729 467.493 168.741C470.777 155.685 464.97 143.94 449.236 131.78C443.777 127.561 437.529 123.337 431.493 119.253C420.133 111.567 408.381 103.619 401.272 95.3185C394.744 87.6988 393.111 79.8711 396.277 71.3877C398.922 64.3031 404.807 56.8634 414.797 47.9755C415.686 47.1845 416.576 46.3967 417.465 45.609C434.547 30.4902 450.69 16.2121 436.365 0.325374L438.53 0.155271C453.023 16.2335 436.785 30.6042 419.59 45.8187C418.701 46.6064 417.812 47.3942 416.922 48.1852C402.732 60.812 388.368 77.5607 403.448 95.1583C410.512 103.406 422.225 111.329 433.552 118.99C439.598 123.081 445.852 127.312 451.334 131.546C464.338 141.603 470.609 151.379 470.609 161.836Z" fill="white" fill-opacity="0.52"/>
<path d="M458.421 158.066C458.421 160.442 458.051 162.865 457.319 165.349C454.746 174.057 448.414 182.662 442.289 190.985C434.581 201.46 426.61 212.292 426.146 223.365C425.609 236.147 430.649 249.15 435.526 261.726C438.469 269.316 441.511 277.163 443.29 284.869C448.917 309.262 451.35 334.813 414.836 355.548C410.205 358.179 404.74 360.573 399.454 362.887C389.039 367.448 379.205 371.757 375.922 377.538C371.576 385.196 375.911 393.171 380.173 399.263C384.793 405.862 391.254 412.479 397.502 418.878C408.829 430.483 420.547 442.484 421.783 454.866L419.546 454.886C418.315 442.586 406.642 430.627 395.348 419.062C389.089 412.651 382.617 406.02 377.98 399.398C373.679 393.25 369.299 385.198 373.713 377.431C377.074 371.507 387.042 367.141 397.597 362.519C402.844 360.218 408.275 357.842 412.85 355.244C449.102 334.661 446.663 309.214 441.058 284.915C439.285 277.223 436.248 269.383 433.306 261.802C428.423 249.206 423.372 236.182 423.914 223.358C424.384 212.219 432.377 201.355 440.107 190.847C446.215 182.543 452.536 173.959 455.098 165.293C458.89 152.463 452.883 141.23 436.192 129.941C430.503 126.093 423.981 122.265 417.672 118.564C405.808 111.603 393.542 104.406 386.225 96.7288C379.127 89.2759 377.382 81.4201 380.889 72.7138C383.669 65.8191 389.525 58.5677 399.879 49.2025C400.735 48.4296 401.591 47.6568 402.452 46.8839C419.848 31.235 436.276 16.4548 419.596 0.33695L421.738 0.143695C429.323 7.47271 430.688 15.2691 425.906 23.977C421.643 31.7387 412.968 39.5417 404.583 47.0903C403.727 47.8615 402.866 48.6344 402.01 49.4073C386.46 63.4708 372.678 80.0692 388.379 96.5504C395.634 104.167 407.855 111.336 419.669 118.268C425.989 121.977 432.528 125.812 438.239 129.678C451.848 138.883 458.421 148.053 458.421 158.066Z" fill="white" fill-opacity="0.52"/>
<path d="M445.192 155.348C445.192 157.579 444.834 159.853 444.129 162.178C441.276 171.532 432.746 180.694 425.218 188.777C415.004 199.746 409.942 209.764 409.752 219.401C409.477 232.373 415.071 245.573 420.469 258.345C423.909 266.479 427.46 274.889 429.463 283.138C432.204 294.447 434.822 307.591 431.147 320.45C427.058 334.765 415.826 346.402 396.808 356.025C391.651 358.635 385.638 360.943 379.821 363.178C368.488 367.529 357.788 371.639 354.147 377.507C349.47 385.039 354.326 393.006 359.075 399.106C364.17 405.649 371.235 412.202 378.07 418.54C390.667 430.222 403.694 442.302 405.008 454.866L402.771 454.886C401.462 442.415 388.485 430.379 375.939 418.74C369.092 412.39 362.011 405.822 356.893 399.255C352.094 393.093 347.194 385.039 351.943 377.388C355.679 371.362 366.542 367.191 378.048 362.775C383.82 360.557 389.794 358.265 394.878 355.692C435.918 334.923 433.367 308.486 427.237 283.186C425.24 274.954 421.688 266.553 418.259 258.428C412.85 245.636 407.251 232.405 407.525 219.4C407.721 209.703 412.806 199.629 423.075 188.604C430.576 180.547 439.084 171.414 441.92 162.12C445.684 149.782 439.403 138.848 422.717 128.692C416.738 125.052 409.813 121.47 403.112 118.006C391.506 112.003 379.496 105.793 371.973 99.0573C363.857 91.7943 361.463 84.0012 364.662 75.2355C367.828 66.5507 376.112 58.1466 382.97 51.7969C384.508 50.3717 386.102 48.9234 387.646 47.5213C404.432 32.2638 421.789 16.4878 402.849 0.348475L404.963 0.132169C424.149 16.4796 406.675 32.3646 389.777 47.7261C388.239 49.1265 386.645 50.5748 385.107 51.9983C368.93 66.9718 356.406 83.0121 374.104 98.8525C381.56 105.526 393.508 111.704 405.064 117.68C411.782 121.153 418.723 124.745 424.736 128.405C438.424 136.753 445.186 145.622 445.192 155.348Z" fill="white" fill-opacity="0.52"/>
<path d="M430.615 153.544C430.615 155.863 430.224 158.259 429.446 160.754C426.745 169.39 419.109 177.234 409.399 186.591C398.514 197.086 393.217 206.932 393.206 216.695C393.206 216.703 393.206 216.713 393.206 216.723C393.206 225.043 396.92 233.488 400.511 241.656C401.11 243.022 401.714 244.387 402.295 245.748L402.95 247.282C407.743 258.484 412.699 270.065 415.792 281.516C418.93 293.134 421.956 306.635 418.075 319.856C413.734 334.644 401.473 346.515 380.604 356.146C374.859 358.796 368.046 361.092 361.452 363.313C349.152 367.456 337.534 371.37 333.367 377.2C328.098 384.58 332.964 392.221 338.418 398.721C343.927 405.286 351.602 411.853 359.019 418.205C372.756 429.964 386.964 442.122 388.217 454.863L385.979 454.883C384.737 442.243 370.586 430.133 356.904 418.421C349.47 412.056 341.779 405.474 336.242 398.881C330.727 392.307 325.81 384.575 331.174 377.064C335.459 371.065 347.267 367.088 359.762 362.879C366.301 360.676 373.064 358.4 378.713 355.791C423.758 335.006 420.318 306.58 413.561 281.569C410.467 270.133 405.517 258.558 400.729 247.365L400.075 245.831C399.493 244.47 398.895 243.106 398.29 241.74C394.688 233.552 390.969 225.086 390.969 216.723C390.969 216.713 390.969 216.705 390.969 216.695C390.98 206.865 396.305 196.955 407.257 186.398C416.928 177.077 424.535 169.268 427.214 160.693C431.219 147.883 425.016 137.393 407.693 127.68C401.585 124.253 394.465 120.912 387.585 117.68C375.676 112.089 363.365 106.307 355.814 99.8797C347.362 92.6845 344.968 84.8485 348.508 75.9242C351.842 67.5168 359.981 59.3009 367.504 52.3716C369.076 50.9233 370.715 49.4452 372.298 48.0168C389.492 32.4884 407.274 16.4317 386.058 0.356722L388.144 0.117265C395.18 5.44806 398 10.7673 398 16.0568C398 26.9364 386.08 37.6987 374.429 48.2215C372.846 49.65 371.212 51.1264 369.641 52.573C352.922 67.9742 339.928 84.3382 357.933 99.6634C365.401 106.02 377.645 111.768 389.486 117.329C396.389 120.57 403.532 123.923 409.679 127.373C418.83 132.504 424.82 137.816 428.003 143.614C429.743 146.797 430.615 150.085 430.615 153.544Z" fill="white" fill-opacity="0.52"/>
<path d="M414.025 152.182C414.025 154.905 413.494 157.742 412.436 160.713C409.321 169.464 401.177 177.528 392.552 186.063L391.808 186.799C381.829 196.679 376.879 206.028 376.672 215.38C376.487 223.515 380.168 231.762 383.725 239.744C384.284 240.995 384.838 242.246 385.381 243.492L386.438 245.927C391.377 257.277 396.484 269.015 399.672 280.621C402.933 292.487 406.071 306.275 402.044 319.75C397.502 334.942 384.642 347.025 362.738 356.696C356.966 359.246 350.259 361.432 343.782 363.549C331.325 367.615 319.562 371.456 315.384 377.385C310.21 384.727 315.272 392.358 320.905 398.853C326.487 405.291 334.189 411.738 341.64 417.972C355.769 429.798 370.385 442.028 371.43 454.866L369.193 454.883C368.158 442.149 353.604 429.969 339.531 418.191C332.064 411.944 324.344 405.484 318.74 399.017C313.04 392.449 307.928 384.727 313.197 377.251C317.498 371.146 329.457 367.242 342.126 363.107C348.553 361.008 355.198 358.839 360.887 356.329C408.079 335.495 404.505 306.354 397.451 280.674C394.269 269.083 389.162 257.353 384.223 246.009L383.166 243.575C382.623 242.328 382.069 241.08 381.51 239.828C377.941 231.825 374.255 223.547 374.434 215.375C374.641 205.961 379.625 196.551 389.66 186.611L390.404 185.874C399.001 177.369 407.117 169.335 410.21 160.644C414.976 147.249 409.002 136.589 391.416 127.098C385.252 123.774 378.07 120.544 371.123 117.421C358.929 111.94 346.327 106.271 338.77 99.8814C319.696 83.7503 335.627 66.8744 352.055 52.322C353.576 50.9728 355.165 49.5939 356.697 48.2596C374.753 32.5529 393.419 16.3128 369.299 0.371576L371.341 0.102411C379.714 5.63633 383.02 11.1933 383.02 16.7405C383.02 27.4136 370.782 38.0587 358.812 48.4709C357.279 49.8036 355.696 51.1825 354.175 52.5301C337.864 66.9784 322.04 83.7288 340.879 99.6634C348.346 105.977 360.876 111.61 372.991 117.058C379.961 120.192 387.171 123.432 393.374 126.781C407.279 134.287 414.019 142.503 414.025 152.182Z" fill="white" fill-opacity="0.52"/>
<path d="M395.992 150.677C395.992 154.596 394.761 158.365 393.184 161.909C389.867 169.355 384.312 176.732 378.943 183.866C370.53 195.043 361.826 206.6 361.754 218.51C361.754 218.6 361.754 218.691 361.754 218.782C361.754 231.165 366.766 243.755 371.621 255.934C374.954 264.302 378.4 272.954 380.184 281.455C382.657 293.217 384.922 306.887 380.525 320.285C375.603 335.282 363.158 347.319 342.49 357.087C337.562 359.414 331.991 361.498 326.604 363.511C314.97 367.859 303.984 371.966 300.583 377.983C296.388 385.402 301.45 393.007 306.954 399.469C312.229 405.659 319.322 411.871 326.179 417.878C339.738 429.751 353.755 442.031 354.661 454.868L352.424 454.881C351.523 442.144 337.562 429.915 324.059 418.087C317.185 412.068 310.081 405.844 304.784 399.629C299.219 393.103 294.106 385.414 298.374 377.874C301.87 371.689 313.035 367.518 324.848 363.102C330.201 361.102 335.733 359.033 340.594 356.737C385.224 335.65 383.283 306.843 377.958 281.497C376.174 273.013 372.734 264.37 369.406 256.012C364.511 243.724 359.444 231.019 359.528 218.51C359.6 206.529 368.326 194.936 376.767 183.724C382.125 176.605 387.668 169.241 390.974 161.825C395.488 151.7 397.121 139.73 375.016 127.714C368.595 124.223 361.043 120.845 353.738 117.578C341.427 112.071 328.696 106.375 320.96 99.959C301.406 83.742 318.516 66.9371 336.096 52.4591C337.534 51.275 338.999 50.0844 340.471 48.8887C360.137 32.9162 380.481 16.3986 352.552 0.391398L354.544 0.0891957C367.258 7.37527 371.173 15.4474 366.531 24.7697C362.431 32.9921 352.34 41.1881 342.579 49.1149C341.108 50.3089 339.643 51.498 338.205 52.682C320.759 67.0527 303.76 83.7255 323.075 99.7377C330.721 106.077 343.374 111.739 355.612 117.215C362.94 120.494 370.519 123.885 376.985 127.401C391.617 135.357 395.992 143.286 395.992 150.677Z" fill="white" fill-opacity="0.52"/>
<path d="M377.169 150.319C377.169 155.247 375.156 160.147 373.058 164.437C370.502 169.667 367.532 174.942 364.662 180.043C356.832 193.95 348.738 208.33 348.531 222.858C348.525 223.125 348.525 223.393 348.525 223.66C348.525 235.248 352.01 247.013 355.383 258.4C358.073 267.489 360.859 276.889 361.854 286.142C363.085 297.573 363.594 309.792 359.058 321.709C353.923 335.189 343.072 346.305 325.883 355.69C321.056 358.327 315.49 360.696 310.115 362.986C298.754 367.825 288.026 372.394 285.408 378.846C282.377 386.319 287.517 393.883 292.937 400.295C297.887 406.148 304.32 412.033 310.534 417.727C323.578 429.666 337.059 442.012 337.881 454.87L335.643 454.883C334.832 442.122 321.397 429.824 308.409 417.932C302.178 412.228 295.739 406.331 290.767 400.458C285.291 393.988 280.111 386.35 283.188 378.772C285.873 372.156 296.757 367.521 308.28 362.614C313.622 360.339 319.148 357.986 323.919 355.38C361.524 334.846 362.067 308.887 359.623 286.167C358.627 276.934 355.847 267.542 353.157 258.461C349.705 246.797 346.137 234.735 346.299 222.858C346.506 208.277 354.617 193.87 362.459 179.937C365.328 174.839 368.298 169.568 370.849 164.345C377.516 150.704 377.706 140.708 358.974 129.982C351.988 125.984 343.48 122.147 335.246 118.438C322.605 112.743 309.533 106.854 301.657 100.226C292.932 92.8843 291.114 84.9723 296.097 76.0414C300.628 67.9197 310.154 59.983 319.775 52.6176C321.044 51.6466 322.331 50.6689 323.623 49.688C345.108 33.3901 367.325 16.5374 335.789 0.404612L337.724 0.0743412C352.083 7.41987 356.647 15.6209 351.686 25.1463C347.317 33.5306 336.331 41.8669 325.704 49.9275C324.412 50.9067 323.125 51.8828 321.855 52.8538C302.217 67.8917 284.648 83.9204 303.76 100.007C311.547 106.558 324.54 112.414 337.109 118.077C345.37 121.799 353.917 125.65 360.954 129.678C370.228 134.987 375.402 140.563 376.778 146.724C377.052 147.918 377.169 149.12 377.169 150.319Z" fill="white" fill-opacity="0.52"/>
<path d="M359.332 150.874C359.332 154.989 357.038 159.126 354.812 163.141C354.096 164.429 353.358 165.76 352.715 167.06C341.617 189.478 336.264 210.033 336.404 229.9C336.466 239.777 338.261 249.811 340.001 259.516C341.651 268.736 343.362 278.27 343.581 287.663C343.843 298.964 343.39 311.041 338.312 322.792C332.573 336.071 321.755 347.068 305.226 356.412C301.316 358.621 296.976 360.672 292.78 362.656C282.846 367.351 273.461 371.785 270.798 377.715C267.224 385.682 272.717 393.912 278.556 400.913C283.204 406.483 289.072 412.094 294.749 417.523C307.318 429.542 320.317 441.972 321.089 454.871L318.852 454.883C318.08 442.078 305.131 429.694 292.607 417.717C286.924 412.281 281.045 406.66 276.38 401.071C270.485 394.01 264.953 385.703 268.577 377.628C271.301 371.557 280.81 367.063 290.879 362.306C295.051 360.334 299.37 358.293 303.24 356.106C339.391 335.668 341.858 310.063 341.338 287.668C341.119 278.29 339.413 268.764 337.763 259.552C336.024 249.84 334.223 239.796 334.161 229.903C334.038 210.003 339.38 189.415 350.494 166.965C351.143 165.659 351.881 164.325 352.597 163.035C355.014 158.68 357.508 154.175 357.027 149.749C356.401 144.017 350.886 138.071 340.622 132.073C333.44 127.875 324.619 123.847 316.089 119.953C304.169 114.51 291.841 108.882 283.73 102.674C261.345 85.5437 280.833 68.828 302.72 53.1742C303.9 52.3286 305.097 51.4782 306.3 50.626C329.759 33.9648 354.018 16.7355 319.025 0.417827L320.916 0.0644051C336.852 7.49581 341.986 15.8504 336.611 25.6037C331.89 34.1713 319.931 42.6661 308.364 50.8803C307.161 51.7341 305.964 52.583 304.784 53.4268C283.07 68.9568 263.722 85.5322 285.817 102.436C293.843 108.579 306.11 114.179 317.968 119.594C326.532 123.503 335.38 127.546 342.618 131.775C353.028 137.861 358.627 143.9 359.259 149.73C359.309 150.108 359.332 150.491 359.332 150.874Z" fill="white" fill-opacity="0.52"/>
<path d="M339.906 153.07C339.906 157.328 337.243 161.61 334.665 165.755C333.44 167.727 332.17 169.765 331.219 171.758C322.901 189.2 323.696 206.965 324.462 224.141C324.641 228.131 324.826 232.254 324.893 236.32C324.999 242.511 325.346 248.81 325.687 254.9C326.375 267.346 327.091 280.213 325.754 292.867C323.561 313.635 318.387 337.443 284.592 357.18C281.655 358.894 278.618 360.512 275.676 362.076C266.167 367.136 257.184 371.917 255.254 378.326C252.826 386.398 258.347 394.583 264.069 401.525C268.404 406.787 273.718 412.096 278.858 417.23C290.996 429.358 303.554 441.899 304.314 454.868L302.077 454.879C301.316 442 288.809 429.504 276.71 417.417C271.564 412.274 266.239 406.957 261.893 401.681C256.132 394.685 250.572 386.433 253.028 378.267C254.996 371.717 264.091 366.878 273.718 361.756C276.649 360.197 279.675 358.585 282.589 356.882C316.178 337.267 321.324 313.544 323.511 292.847C324.848 280.21 324.132 267.349 323.444 254.912C323.108 248.82 322.756 242.52 322.65 236.325C322.583 232.263 322.398 228.139 322.219 224.151C321.453 206.948 320.658 189.159 328.998 171.667C329.955 169.661 331.23 167.614 332.461 165.638C335.095 161.402 337.825 157.016 337.663 152.704C337.461 147.29 332.802 141.629 323.813 135.881C316.049 130.913 305.931 126.213 296.148 121.667C284.105 116.072 271.654 110.287 263.42 103.936C253.145 96.0137 251.031 87.6575 256.949 78.3864C262.307 69.9972 273.779 61.6377 285.38 53.8545C286.477 53.1197 287.579 52.3831 288.692 51.6417C313.04 35.39 340.633 16.97 302.284 0.427713L304.13 0.0544689C321.598 7.58826 327.242 16.1096 321.391 26.1057C316.262 34.8698 303.285 43.5315 290.739 51.9075C289.631 52.649 288.524 53.3855 287.433 54.1188C264.108 69.7709 243.2 86.4916 265.518 103.698C273.673 109.986 286.063 115.743 298.044 121.312C307.866 125.876 318.024 130.596 325.855 135.603C334.978 141.438 339.704 147.188 339.911 152.696C339.9 152.819 339.906 152.947 339.906 153.07Z" fill="white" fill-opacity="0.52"/>
<path d="M320.3 155.772C320.3 156.164 320.278 156.553 320.233 156.943C319.791 160.692 317.168 164.437 314.629 168.059C313.102 170.234 311.524 172.483 310.45 174.697C302.882 190.289 306.35 206.096 309.706 221.383C311.323 228.75 312.995 236.37 313.426 243.892C314.355 260.172 312.587 277.84 308.163 296.404C303.554 315.754 296.036 338.013 265.009 357.299C262.671 358.753 259.98 360.172 257.379 361.544C252.882 363.916 248.24 366.368 245.398 369.019C242.126 372.077 240.185 375.505 239.637 379.206C238.479 387.014 243.642 394.763 248.849 401.312C252.994 406.527 258.039 411.795 262.911 416.888C274.641 429.144 286.767 441.812 287.534 454.87L285.296 454.881C284.536 441.909 272.448 429.284 260.763 417.073C255.88 411.972 250.835 406.699 246.673 401.469C241.432 394.875 236.23 387.072 237.405 379.183C237.964 375.425 239.939 371.94 243.267 368.825C246.176 366.111 250.88 363.627 255.427 361.227C258.011 359.865 260.679 358.455 262.99 357.019C293.849 337.837 301.333 315.651 305.931 296.361C310.35 277.816 312.117 260.167 311.189 243.907C310.758 236.4 309.091 228.79 307.475 221.429C304.113 206.107 300.634 190.265 308.235 174.607C309.32 172.372 310.903 170.113 312.436 167.927C314.959 164.331 317.565 160.614 317.996 156.922C318.695 150.983 313.957 144.689 303.917 138.222C296.041 133.149 285.861 128.324 276.017 123.657C263.577 117.761 250.717 111.664 242.316 104.986C220.166 87.3784 241.93 70.998 268.219 54.3748C269.109 53.8116 270.004 53.2468 270.904 52.6787C297.272 36.0539 327.164 17.2128 285.503 0.43437L287.31 0.0429927C302.597 6.20115 308.465 12.6103 308.465 19.0756C308.465 30.558 289.973 42.217 272.935 52.9578C272.034 53.5259 271.139 54.0907 270.25 54.6522C244.167 71.145 222.565 87.3867 244.414 104.755C252.737 111.37 265.54 117.438 277.919 123.305C287.802 127.989 298.016 132.832 305.953 137.945C315.484 144.085 320.3 150.076 320.3 155.772Z" fill="white" fill-opacity="0.52"/>
<path d="M301.702 254.907C301.702 270.544 296.075 286.629 289.928 301.745C282.505 320.009 272.034 339.354 245.918 357.062C243.955 358.393 241.773 359.696 239.665 360.958C234.961 363.772 230.514 366.431 228.075 369.466C225.519 372.647 224.232 376.041 224.137 379.84C223.941 387.483 229.026 395.119 233.478 400.918C237.444 406.083 242.221 411.303 246.836 416.352C258.213 428.79 269.97 441.653 270.753 454.868L268.516 454.879C267.738 441.746 256.014 428.924 244.676 416.524C240.056 411.468 235.274 406.243 231.297 401.063C226.816 395.23 221.704 387.544 221.9 379.836C222 375.984 223.304 372.543 225.899 369.314C228.394 366.206 233.104 363.389 237.662 360.666C239.76 359.412 241.93 358.114 243.871 356.798C269.87 339.168 280.307 319.881 287.713 301.665C294.173 285.775 300.063 268.812 299.42 252.445C299.045 242.862 295.158 233.191 291.393 223.839C285.604 209.45 279.619 194.572 286.348 179.724C287.612 176.938 289.794 174.144 291.908 171.442C294.772 167.778 297.731 163.988 298.391 160.205C299.37 154.56 295.437 148.569 286.7 142.397C278.388 136.523 266.933 131.002 255.858 125.662C244.201 120.04 232.141 114.229 223.662 107.973C212.15 99.4834 208.912 91.0925 214.041 83.0319C219.992 73.6799 234.541 64.9009 247.384 57.1574C249.179 56.074 251.014 54.9792 252.865 53.876C281.442 36.8267 313.829 17.5018 268.762 0.440927L270.524 0.034696C287.058 6.29359 293.401 12.8283 293.401 19.434C293.401 31.1789 273.349 43.1451 254.868 54.17C253.022 55.2715 251.187 56.3647 249.392 57.448C236.616 65.1552 222.135 73.8913 216.239 83.1558C211.194 91.0909 214.388 99.3595 225.737 107.731C234.15 113.933 246.153 119.722 257.765 125.318C268.885 130.68 280.385 136.224 288.764 142.145C297.63 148.408 301.624 154.497 300.623 160.241C299.957 164.082 296.97 167.9 294.089 171.593C291.992 174.28 289.816 177.059 288.569 179.815C281.879 194.581 287.841 209.417 293.614 223.764C297.384 233.135 301.283 242.824 301.657 252.441C301.685 253.261 301.702 254.083 301.702 254.907Z" fill="white" fill-opacity="0.52"/>
<path d="M288.915 261.713C288.915 276.559 279.848 291.763 271.067 306.494L270.625 307.234C262.044 321.628 249.079 340.423 224.775 358.136C223.734 358.892 222.666 359.644 221.637 360.37C217.033 363.609 212.687 366.669 210.786 370.208C209.04 373.458 208.386 376.901 208.777 380.737C209.561 388.37 214.712 395.972 219.114 401.738C222.655 406.379 226.749 411.079 230.704 415.622C241.757 428.311 253.19 441.434 253.973 454.868L251.735 454.879C250.958 441.523 239.558 428.439 228.534 415.785C224.573 411.237 220.473 406.534 216.927 401.882C212.503 396.086 207.329 388.444 206.54 380.755C206.143 376.878 206.809 373.393 208.576 370.102C210.523 366.482 214.919 363.387 219.578 360.111C220.608 359.386 221.67 358.638 222.705 357.885C246.936 340.229 259.868 321.479 268.426 307.117L268.868 306.377C278.12 290.862 287.685 274.818 286.6 259.262C285.878 248.932 280.1 238.548 274.507 228.507C266.441 214.016 258.095 199.031 264.841 183.965C266.245 180.824 268.975 177.72 271.62 174.717C274.602 171.33 277.684 167.826 278.808 164.302C280.788 158.125 276.805 151.485 266.983 144.564C258.532 138.611 247.037 132.987 235.923 127.549C223.835 121.634 211.334 115.519 202.641 108.936C191.164 100.241 188.328 91.7481 194.212 83.6908C200.947 74.466 215.853 65.9165 230.273 57.6478C231.867 56.7346 233.484 55.8131 235.117 54.885C265.725 37.4658 300.421 17.7198 251.998 0.444256L253.721 0.0231204C275.765 7.8872 282.846 16.9453 275.39 27.7142C268.885 37.1025 252.731 46.2977 237.103 55.1889C235.47 56.117 233.853 57.0385 232.265 57.9501C217.912 66.1808 203.072 74.6905 196.405 83.8295C190.621 91.758 193.418 100.126 204.733 108.697C213.353 115.226 225.804 121.317 237.841 127.207C249 132.665 260.534 138.31 269.047 144.308C279.015 151.33 283.048 158.076 281.034 164.363C279.887 167.94 276.783 171.469 273.785 174.882C271.162 177.867 268.449 180.951 267.062 184.051C260.361 199.021 268.678 213.957 276.716 228.4C282.321 238.464 288.115 248.871 288.837 259.249C288.887 260.069 288.915 260.892 288.915 261.713Z" fill="white" fill-opacity="0.52"/>
<path d="M274.747 266.483C274.747 280.045 264.052 293.924 253.71 307.353L252.272 309.217C239.033 326.45 222.929 343.09 204.42 358.676C195.778 365.95 192.344 372.389 193.283 379.551C194.352 387.701 199.638 395.65 204.666 402.349C207.743 406.45 211.183 410.606 214.505 414.628C225.278 427.656 236.42 441.126 237.192 454.87L234.955 454.881C234.183 441.212 223.08 427.778 212.335 414.786C209.007 410.763 205.567 406.602 202.485 402.495C197.434 395.765 192.126 387.78 191.046 379.578C190.095 372.328 193.569 365.813 202.306 358.458C220.787 342.895 236.868 326.278 250.091 309.072L251.529 307.206C261.994 293.62 272.834 279.568 272.504 265.897C272.241 254.56 264.427 243.24 256.865 232.291C246.662 217.516 236.113 202.238 244.005 186.728C245.622 183.549 248.749 180.438 251.775 177.429C255.181 174.037 258.705 170.529 260.008 166.959C262.128 161.124 258.895 154.846 250.399 148.301C241.617 141.537 228.802 135.22 216.413 129.11C204.101 123.039 191.371 116.762 182.527 110.024C171.626 101.721 168.493 93.7975 173.214 86.4734C179.529 76.6772 195.946 67.6802 211.82 58.9805L213.118 58.2688C214.578 57.4662 216.066 56.6586 217.559 55.8428C234.071 46.8393 251.148 37.5286 258 28.0445C265.792 17.259 258.347 8.23403 235.24 0.455831L236.924 0.0198413C254.521 5.94349 263.23 12.5706 263.236 20.1176C263.236 22.6955 262.218 25.3807 260.193 28.1815C253.274 37.7581 236.118 47.1118 219.528 56.1566C218.035 56.9708 216.552 57.78 215.093 58.5809L213.795 59.2927C197.999 67.9478 181.671 76.8985 175.418 86.5956C170.775 93.7958 173.874 101.597 184.619 109.783C193.395 116.468 206.076 122.721 218.337 128.768C230.777 134.901 243.636 141.245 252.491 148.062C261.116 154.705 264.399 161.086 262.24 167.027C260.92 170.658 257.368 174.194 253.928 177.614C250.924 180.601 247.82 183.689 246.226 186.824C238.395 202.218 248.905 217.438 259.069 232.157C266.648 243.137 274.49 254.491 274.753 265.891C274.747 266.089 274.747 266.287 274.747 266.483Z" fill="white" fill-opacity="0.52"/>
<path d="M258.548 270.691C258.548 284.008 245.644 297.484 233.154 310.53C232.421 311.293 231.694 312.053 230.972 312.809C224.042 320.072 216.401 327.403 209.012 334.491C201.126 342.058 192.965 349.882 185.665 357.637C170.82 373.402 180.385 389.396 190.509 403.149C192.987 406.511 195.655 409.926 198.234 413.227C208.777 426.724 219.685 440.682 220.412 454.87L218.175 454.879C217.447 440.761 206.568 426.84 196.047 413.376C193.462 410.073 190.794 406.656 188.316 403.289C178.131 389.458 168.521 373.37 183.5 357.46C190.811 349.695 198.972 341.868 206.864 334.296C214.253 327.211 221.889 319.884 228.813 312.629C229.535 311.873 230.262 311.113 230.995 310.349C243.776 296.998 256.999 283.194 256.277 269.626C255.679 258.266 246.785 246.908 238.182 235.924C226.408 220.891 214.237 205.346 223.147 189.565C225.027 186.234 228.718 183.026 232.292 179.923C235.99 176.709 239.816 173.386 241.55 169.968C244.76 163.644 241.505 156.756 231.879 149.497C222.912 142.734 210.098 136.398 197.697 130.269C185.934 124.455 173.773 118.443 164.863 112.056C152.25 103.016 148.726 94.501 154.392 86.7509C161.44 77.105 178.226 68.2847 194.458 59.7534L196.875 58.4835C198.899 57.4167 200.952 56.3466 203.011 55.2748C219.019 46.9318 235.576 38.3064 243.558 28.9626C252.725 18.23 244.285 8.64026 218.465 0.45911L220.104 0.00826574C239.592 6.18459 249.386 13.1486 249.386 20.7881C249.386 23.4849 248.167 26.2642 245.722 29.1245C237.668 38.5541 221.038 47.2191 204.957 55.6001C202.899 56.6719 200.852 57.7403 198.827 58.8071L196.41 60.0771C180.256 68.5654 163.56 77.3411 156.579 86.8896C151.008 94.5076 154.493 102.89 166.933 111.805C175.781 118.146 187.897 124.137 199.621 129.931C212.066 136.082 224.931 142.443 233.965 149.256C243.737 156.626 247.031 163.626 243.765 170.065C242.003 173.541 238.143 176.894 234.412 180.136C230.872 183.214 227.208 186.396 225.357 189.674C216.519 205.325 228.646 220.805 240.364 235.775C248.989 246.792 257.911 258.185 258.515 269.616C258.537 269.975 258.548 270.333 258.548 270.691Z" fill="white" fill-opacity="0.52"/>
<path d="M239.894 272.285C239.894 285.883 225.2 299.357 210.976 312.401L210.17 313.139C206.501 316.507 202.619 319.925 198.866 323.231C186.018 334.553 172.733 346.259 165.266 358.161C155.992 372.947 165.288 388.249 176.503 403.931C178.231 406.349 180.038 408.805 181.783 411.181C192.21 425.36 202.988 440.022 203.62 454.871L201.383 454.879C200.751 440.096 189.995 425.469 179.596 411.322C177.851 408.945 176.044 406.488 174.31 404.068C163.045 388.319 153.71 372.946 163.062 358.042C170.557 346.095 183.87 334.365 196.74 323.023C200.493 319.719 204.37 316.302 208.034 312.938L208.839 312.2C223.472 298.779 238.613 284.9 237.601 270.959C236.801 259.893 227.421 248.752 218.342 237.978C205.544 222.782 192.305 207.069 202.843 191.255C205.086 187.891 209.348 184.702 213.476 181.617C217.576 178.55 221.821 175.379 223.986 172.077C228.153 165.727 225.586 158.791 216.357 151.462C207.15 144.149 193.306 137.359 179.921 130.789C167.682 124.783 155.024 118.574 145.879 111.96C133.226 102.811 130.167 94.5571 136.532 86.7244C144.229 77.2502 161.3 68.6166 177.806 60.267C178.981 59.6725 180.156 59.0796 181.319 58.4884C183.204 57.5306 185.111 56.5711 187.024 55.61C203.799 47.1663 221.15 38.4336 229.233 28.9082C238.345 18.1756 229.087 8.60725 201.718 0.470685L203.307 0.00498667C231.269 8.3166 240.722 18.0947 231.403 29.0684C223.237 38.6863 205.807 47.4603 188.954 55.9436C187.041 56.9047 185.139 57.8642 183.254 58.8204C182.085 59.4116 180.916 60.0061 179.742 60.6006C163.319 68.9089 146.332 77.4996 138.713 86.8797C132.465 94.572 135.486 102.694 147.959 111.71C157.043 118.277 169.651 124.464 181.85 130.449C195.292 137.043 209.186 143.862 218.465 151.231C227.84 158.674 230.441 165.73 226.196 172.2C223.986 175.564 219.707 178.765 215.568 181.858C211.479 184.915 207.25 188.074 205.052 191.38C194.615 207.05 207.787 222.691 220.529 237.816C229.636 248.625 239.049 259.802 239.855 270.942C239.877 271.392 239.894 271.837 239.894 272.285Z" fill="white" fill-opacity="0.52"/>
<path d="M219.45 270.797C219.45 270.891 219.45 270.984 219.45 271.079C219.204 287.539 200.359 303.175 182.13 318.297C166.507 331.257 150.353 344.66 145.991 358.519C141.152 373.879 152.02 389.477 162.53 404.562L162.57 404.622C163.381 405.783 164.192 406.945 165.008 408.106C175.653 423.298 186.661 439.006 186.851 454.874L184.614 454.876C184.423 439.075 173.438 423.4 162.816 408.24C161.999 407.077 161.188 405.916 160.377 404.754L160.338 404.694C149.794 389.562 138.892 373.914 143.759 358.456C148.15 344.515 164.348 331.074 180.016 318.074C198.178 303.005 216.966 287.422 217.207 271.074C217.207 270.982 217.207 270.888 217.207 270.795C217.207 259.742 207.519 248.531 198.144 237.686C184.904 222.369 171.217 206.529 184.474 190.824C187.103 187.707 191.527 184.765 195.812 181.917C200.835 178.577 206.031 175.122 208.229 171.418C211.809 165.377 209.124 158.745 200.259 151.705C190.878 144.253 176.744 137.339 163.079 130.652C150.991 124.739 138.495 118.623 129.26 112.137C116.323 103.047 113.006 94.9072 119.119 87.2496C126.671 77.7886 143.927 69.2029 160.618 60.9012C161.725 60.3513 162.827 59.8013 163.923 59.2547C166.015 58.2094 168.135 57.1623 170.261 56.112C187.103 47.7889 204.515 39.1817 213.135 29.7851C223.382 18.6182 213.896 8.75585 184.949 0.473964L186.504 1.84961e-05C208.386 6.25891 219.377 13.4046 219.377 21.3215C219.377 24.1075 218.018 26.9876 215.294 29.9585C206.59 39.4442 189.1 48.0894 172.179 56.4522C170.054 57.5025 167.939 58.5479 165.847 59.5932C164.751 60.1415 163.644 60.6898 162.536 61.2413C145.935 69.5018 128.768 78.0429 121.295 87.4049C115.293 94.9221 118.571 102.928 131.319 111.884C140.487 118.326 152.943 124.42 164.986 130.314C178.707 137.027 192.892 143.968 202.351 151.477C211.356 158.627 214.074 165.377 210.428 171.533C208.185 175.317 202.932 178.809 197.853 182.187C193.614 185.007 189.223 187.924 186.644 190.984C173.527 206.529 187.147 222.286 200.315 237.524C209.723 248.409 219.444 259.663 219.45 270.797Z" fill="white" fill-opacity="0.52"/>
<path d="M203.201 268.518C203.201 285.534 184.39 301.921 166.189 317.777C151.651 330.443 136.616 343.541 131.296 356.861C125.166 372.198 136.263 387.747 146.992 402.785L148.659 405.125C160.181 421.278 172.101 437.979 170.065 454.886L167.828 454.863C169.847 438.038 157.961 421.375 146.466 405.262L144.799 402.922C134.032 387.832 122.901 372.227 129.07 356.785C134.423 343.395 149.492 330.265 164.069 317.565C182.427 301.57 201.405 285.026 200.952 267.904C200.661 257.176 191.499 246.341 182.633 235.863C170.238 221.211 157.424 206.06 168.538 190.895C170.775 187.844 174.691 184.935 178.483 182.122C182.74 178.961 187.147 175.692 189.088 172.25C192.668 165.905 189.849 158.887 180.704 151.393C171.821 144.115 158.749 137.266 146.108 130.642C135.1 124.877 123.723 118.914 115.103 112.673C101.897 103.112 98.4067 95.0988 104.118 87.456C111.255 77.9075 127.733 69.1434 143.675 60.6683C144.643 60.1531 145.61 59.6395 146.572 59.1259C148.435 58.1334 150.314 57.1392 152.199 56.1434C168.309 47.6303 184.96 38.825 192.937 29.3078C202.043 18.4398 193.692 8.73441 168.118 0.462438L169.768 0.0165617C195.879 8.46194 204.403 18.3705 195.107 29.4664C187.064 39.0711 170.333 47.9127 154.151 56.4654C152.266 57.4612 150.387 58.4554 148.53 59.4463C147.568 59.9599 146.6 60.4734 145.633 60.9903C129.769 69.4241 113.369 78.1453 106.305 87.5997C100.694 95.1054 104.151 102.994 117.173 112.426C125.737 118.628 137.086 124.572 148.055 130.32C160.741 136.967 173.863 143.841 182.807 151.17C192.081 158.773 194.939 165.902 191.292 172.361C189.312 175.872 184.86 179.174 180.558 182.368C176.805 185.156 172.918 188.039 170.725 191.037C159.723 206.051 172.47 221.125 184.804 235.704C193.697 246.221 202.893 257.093 203.184 267.9C203.201 268.105 203.201 268.312 203.201 268.518Z" fill="white" fill-opacity="0.52"/>
<path d="M186.292 265.615C186.292 279.827 172.135 294.004 158.436 307.72L156.786 309.374C154.537 311.632 152.205 313.929 149.945 316.15C136.263 329.622 122.112 343.554 117.055 357.738C111.842 372.36 122.414 387.13 132.633 401.416L133.959 403.268C145.258 419.103 158.067 437.052 153.284 454.899L151.053 454.846C155.813 437.095 143.591 419.967 131.772 403.403L130.446 401.552C120.188 387.216 109.577 372.393 114.829 357.667C119.908 343.42 134.088 329.459 147.803 315.957C150.057 313.736 152.389 311.44 154.638 309.184L156.288 307.53C170.015 293.785 184.233 279.569 184.049 265.38C183.931 254.739 175.071 244.047 166.502 233.708C154.845 219.638 142.785 205.09 152.518 190.426C154.459 187.503 157.826 184.685 161.082 181.959C164.947 178.724 168.946 175.378 170.496 171.88C173.13 165.938 170.703 159.389 163.291 152.416C155.158 144.77 142.584 137.524 130.424 130.515C119.813 124.4 108.839 118.077 100.812 111.494C89.7816 102.446 86.7779 94.937 91.3589 87.8607C97.6181 78.1966 113.073 69.2194 128.019 60.5362L129.82 59.4909C131.028 58.789 132.247 58.0839 133.472 57.3721C164.941 39.1437 200.611 18.4845 151.293 0.442665L153.033 0.0281369C175.451 8.2291 182.578 17.6983 174.814 28.9759C168.051 38.8002 151.483 48.395 135.464 57.6743C134.239 58.3845 133.019 59.0896 131.811 59.7915L130.01 60.8368C115.137 69.477 99.7548 78.4129 93.5516 87.9862C89.0488 94.9403 92.0246 102.34 102.909 111.271C110.886 117.816 121.827 124.119 132.404 130.215C144.609 137.248 157.228 144.519 165.417 152.22C172.929 159.285 175.384 165.928 172.705 171.966C171.128 175.533 167.089 178.912 163.179 182.178C159.946 184.882 156.607 187.678 154.7 190.553C145.062 205.074 157.06 219.552 168.661 233.551C177.258 243.928 186.152 254.658 186.269 265.379C186.292 265.458 186.292 265.537 186.292 265.615Z" fill="white" fill-opacity="0.52"/>
<path d="M168.661 262.974C168.661 276.909 156.042 290.974 143.826 304.588C142.853 305.67 141.891 306.748 140.934 307.82C138.976 310.015 136.957 312.248 135.005 314.408C122.71 327.991 109.996 342.036 104.772 356.225C98.7423 372.611 109.996 388.903 120.881 404.66C132.147 420.964 143.792 437.824 136.504 454.916L134.283 454.833C141.527 437.85 129.915 421.043 118.689 404.792C107.77 388.986 96.477 372.64 102.546 356.154C107.787 341.914 120.523 327.844 132.84 314.238C134.792 312.079 136.812 309.847 138.769 307.653C139.726 306.582 140.694 305.503 141.661 304.42C154.118 290.536 167.005 276.179 166.401 262.023C165.97 251.786 157.748 241.532 149.8 231.615C139.111 218.283 128.058 204.499 135.738 190.546C137.371 187.574 140.425 184.687 143.378 181.894C146.712 178.742 150.158 175.482 151.522 172.12C153.995 166.019 151.875 159.549 145.045 152.339C137.841 144.734 126.637 137.422 115.802 130.352C106.881 124.529 97.6516 118.508 90.6709 112.336C79.484 102.444 76.5865 94.2533 81.5535 86.5577C87.5218 77.313 100.98 68.577 114.001 60.1283L114.147 60.0342C115.528 59.1375 116.927 58.2341 118.336 57.3258C146.455 39.1916 178.332 18.638 134.479 0.42945L136.303 0.0463194C152.25 6.66852 158.386 13.5764 158.386 20.5536C158.386 33.0863 138.596 45.8468 120.372 57.6C118.963 58.5083 117.564 59.4116 116.183 60.3067L116.037 60.4008C103.077 68.8131 89.6697 77.5128 83.7518 86.6799C78.8575 94.2599 81.7325 102.345 92.7965 112.125C99.738 118.263 108.939 124.27 117.844 130.076C128.712 137.169 139.955 144.504 147.204 152.157C154.118 159.453 156.255 166.006 153.749 172.194C152.362 175.616 148.882 178.905 145.521 182.088C142.59 184.857 139.564 187.722 137.953 190.647C130.346 204.471 141.342 218.191 151.981 231.458C159.957 241.41 168.208 251.7 168.644 262.01C168.655 262.333 168.661 262.654 168.661 262.974Z" fill="white" fill-opacity="0.52"/>
<path d="M150.381 261.161C150.381 274.258 139.849 287.613 129.641 300.557C128.332 302.219 127.029 303.868 125.764 305.505C123.902 307.908 121.978 310.35 120.115 312.713C108.883 326.967 97.2656 341.707 92.5951 356.509C87.6896 372.056 97.8138 387.506 107.602 402.45C118.756 419.473 130.284 437.074 119.718 454.932L117.514 454.818C128.013 437.08 116.518 419.539 105.404 402.576C95.582 387.586 85.4298 372.087 90.3633 356.446C95.0506 341.6 106.679 326.838 117.934 312.563C119.796 310.202 121.72 307.759 123.583 305.358C124.853 303.721 126.15 302.07 127.465 300.409C138.339 286.616 149.587 272.356 147.999 258.487C146.902 248.944 139.608 239.341 132.549 230.055C122.537 216.88 112.189 203.254 119.287 189.526C120.686 186.819 123.191 184.162 125.613 181.594C128.298 178.747 131.073 175.804 132.314 172.807C135.05 166.217 133.064 159.144 126.24 151.183C120.076 143.989 110.847 136.956 101.914 130.154C93.6019 123.824 85.0103 117.276 78.8854 110.601C70.4449 101.404 68.3249 93.7413 72.2124 86.4833C77.2857 77.019 89.5746 67.9527 101.461 59.1853L104.146 57.2036C128.572 39.1668 156.26 18.7222 117.66 0.414546L119.561 0.0660918C132.661 6.27874 139.144 13.1107 139.144 20.7815C139.144 23.3759 138.406 26.0644 136.929 28.8587C131.8 38.5624 118.801 48.1637 106.226 57.448L103.542 59.4297C91.7001 68.1641 79.4616 77.1941 74.4218 86.5858C70.5847 93.748 72.6879 101.323 81.0445 110.426C87.1414 117.069 95.7107 123.599 104 129.914C112.955 136.735 122.213 143.788 128.405 151.021C135.296 159.063 137.298 166.216 134.529 172.887C133.265 175.933 130.469 178.9 127.761 181.77C125.356 184.32 122.873 186.958 121.491 189.625C114.46 203.232 124.763 216.794 134.725 229.909C141.801 239.227 149.123 248.86 150.225 258.464C150.331 259.361 150.381 260.263 150.381 261.161Z" fill="white" fill-opacity="0.52"/>
<path d="M131.375 258.842C131.375 272.222 122.151 285.884 113.207 299.124C111.926 301.023 110.601 302.987 109.336 304.899C107.91 307.056 106.473 309.212 105.029 311.371C95.2017 326.065 85.0383 341.262 80.9718 356.433C77.0116 371.208 86.0563 385.936 94.8045 400.178C105.734 417.973 117.033 436.374 102.921 454.949L100.739 454.803C114.751 436.357 103.491 418.023 92.6007 400.293C83.8301 386.01 74.7575 371.24 78.74 356.379C82.8177 341.169 92.9922 325.955 102.831 311.24C104.274 309.084 105.717 306.927 107.138 304.77C108.402 302.858 109.728 300.893 111.009 298.993C120.49 284.95 130.301 270.429 129.02 256.316C128.159 246.79 121.368 237.253 114.807 228.03C106.143 215.851 97.1762 203.257 101.701 190.506C102.798 187.413 105.242 184.365 107.608 181.417C109.952 178.496 112.374 175.474 113.464 172.428C115.674 166.234 114.354 159.615 109.431 152.192C104.409 144.612 96.2868 137.136 88.4391 129.904C81.7549 123.751 74.847 117.386 69.8576 110.974C62.6252 101.68 60.6283 93.9643 63.5705 86.6915C67.4524 77.1033 78.1527 67.7959 88.4951 58.794L90.2738 57.2466C111.988 38.3609 134.446 18.8313 100.84 0.393134L102.809 0.0793064C118.057 8.44541 123.152 17.8486 118.387 28.8306C114.192 38.4997 103.111 48.1374 92.3937 57.458L90.615 59.0054C80.3062 67.9743 69.645 77.2503 65.7911 86.7691C62.8769 93.9643 64.8626 101.609 72.039 110.825C77.0116 117.211 83.9028 123.561 90.5703 129.701C98.4403 136.949 106.579 144.445 111.63 152.063C116.591 159.552 117.922 166.236 115.691 172.496C114.589 175.584 112.15 178.626 109.789 181.569C107.44 184.495 105.013 187.522 103.928 190.574C99.4415 203.221 108.363 215.763 116.994 227.893C123.577 237.144 130.385 246.711 131.252 256.296C131.336 257.145 131.375 257.994 131.375 258.842Z" fill="white" fill-opacity="0.52"/>
<path d="M111.686 256.274C111.686 270.397 103.793 284.74 96.1525 298.617C95.2912 300.179 94.4353 301.736 93.5907 303.29C92.3154 305.634 91.0233 307.979 89.7312 310.324C81.5535 325.16 73.0906 340.502 69.6338 355.746C66.4287 369.854 74.5057 384.005 82.3087 397.692C92.9643 416.375 103.983 435.693 86.129 454.962L83.9699 454.787C101.696 435.66 90.7157 416.415 80.0992 397.801C72.2683 384.078 64.1746 369.886 67.3964 355.702C70.8644 340.426 79.3329 325.069 87.5218 310.218C88.8139 307.873 90.106 305.53 91.3813 303.186C92.2259 301.632 93.0817 300.073 93.9431 298.511C101.701 284.415 109.717 269.839 109.443 255.528C109.247 245.662 102.831 235.789 96.628 226.24C88.9146 214.366 80.9327 202.086 84.7866 189.673C85.6927 186.745 87.7008 183.838 89.6417 181.027C91.4205 178.451 93.2551 175.789 94.2284 173.129C96.6895 166.412 95.6995 159.169 91.2079 150.986C87.2645 143.806 81.1061 136.635 75.149 129.701C69.9023 123.591 64.4766 117.272 60.5724 110.961C54.537 101.198 53.0715 92.5771 56.0976 84.6056C59.5152 75.6004 67.8271 66.7422 75.865 58.1747L76.6872 57.3011C94.3962 38.4385 112.704 18.9352 84.0371 0.37654L86.0731 0.102407C115.075 18.8791 96.656 38.5013 78.8407 57.4761L78.0185 58.3497C70.003 66.8925 61.719 75.726 58.3182 84.6784C55.3201 92.5837 56.7744 101.143 62.7706 110.84C66.6581 117.13 72.0782 123.439 77.3137 129.538C83.2819 136.485 89.4515 143.67 93.4117 150.881C97.9369 159.123 98.9269 166.422 96.4434 173.2C95.459 175.89 93.6075 178.568 91.8232 181.159C89.8934 183.954 87.9022 186.842 87.0072 189.734C83.1868 202.055 91.1352 214.287 98.8206 226.116C105.046 235.694 111.479 245.598 111.68 255.525C111.68 255.774 111.686 256.025 111.686 256.274Z" fill="white" fill-opacity="0.52"/>
<path d="M91.2974 256.476C91.2974 270.239 85.1669 284.216 79.2378 297.75C78.4715 299.497 77.7052 301.241 76.9557 302.982C75.9545 305.302 74.942 307.62 73.924 309.941C67.3964 324.871 60.6451 340.31 57.9322 355.593C55.0516 371.849 63.9956 387.047 73.4654 403.139L73.4933 403.188C82.5548 418.586 89.1495 436.782 69.3318 454.977L67.2006 454.775C86.8729 436.715 80.3118 418.621 71.2951 403.301L71.2671 403.251C61.775 387.122 52.8086 371.889 55.706 355.558C58.4189 340.249 65.1758 324.799 71.709 309.855C72.7214 307.535 73.7394 305.216 74.7351 302.896C75.4846 301.155 76.2509 299.411 77.0172 297.664C83.1421 283.688 89.4795 269.24 89.0376 255.064C88.73 245.223 83.2707 235.336 77.9905 225.774C71.5188 214.054 64.8234 201.934 67.5251 189.758C68.2075 186.674 69.9415 183.597 71.6195 180.623C72.9843 178.197 74.3995 175.688 75.2273 173.196C77.4703 166.467 76.9613 159.184 73.6835 150.932C70.8196 143.72 66.1603 136.465 61.6519 129.45C57.6861 123.279 53.5861 116.896 50.7166 110.558C41.7894 90.8481 51.7067 72.8988 62.586 57.9402L62.9999 57.3721C76.7096 38.5244 90.8891 19.0327 67.223 0.35016L69.3206 0.119C78.6449 7.48104 82.1632 14.957 82.1632 22.4594C82.1632 34.1779 73.5884 45.9624 65.187 57.5108L64.7731 58.0789C53.9329 72.9813 44.0548 90.8613 52.9373 110.47C55.8011 116.79 59.8956 123.163 63.8501 129.326C68.3641 136.353 73.0291 143.619 75.9041 150.854C79.2043 159.153 79.7077 166.482 77.4535 173.259C76.6145 175.772 75.1993 178.293 73.8233 180.73C72.1565 183.688 70.4337 186.748 69.7569 189.8C67.072 201.898 73.745 213.981 80.1999 225.665C85.4914 235.25 90.9674 245.162 91.275 255.054C91.2918 255.53 91.2974 256.005 91.2974 256.476Z" fill="white" fill-opacity="0.52"/>
<path d="M70.2715 259.638C70.2715 272.239 65.9421 285.029 61.747 297.438C60.9024 299.936 60.0298 302.519 59.2076 305.048C58.6314 306.829 58.0497 308.61 57.4624 310.392C52.6744 325.038 47.7185 340.185 45.7384 355.134C43.5178 371.914 52.445 387.645 61.0758 402.856C66.8315 412.994 69.2087 421.337 68.5655 429.112C67.788 438.478 62.5469 446.941 52.5401 454.988L50.4426 454.761C73.3255 436.354 67.5474 418.249 58.8719 402.965C50.2188 387.721 41.2748 371.958 43.5066 355.109C45.4867 340.14 50.4426 324.985 55.2362 310.329C55.8179 308.547 56.3996 306.767 56.9813 304.985C57.8036 302.455 58.6762 299.872 59.5208 297.373C64.1634 283.652 68.9626 269.461 67.8831 255.602C67.1335 245.994 62.9999 236.292 59.0006 226.91C53.9497 215.053 48.7309 202.793 50.258 190.579C50.6999 187.055 52.2045 183.524 53.6644 180.109C54.7719 177.516 55.9186 174.834 56.5842 172.181C58.1672 165.88 58.0105 159.098 56.1032 151.445C54.2461 143.979 50.9068 136.429 47.6738 129.126C44.726 122.466 41.6832 115.578 39.7646 108.766C35.4912 93.5862 38.2208 77.9208 48.6247 57.9716L48.8932 57.4563C58.7209 38.6235 68.8787 19.1483 50.4146 0.328698L52.5625 0.14538C71.1664 19.1054 60.9695 38.6533 51.1026 57.5571L50.8341 58.0723C40.4582 77.967 37.7286 93.5861 41.9908 108.712C43.9038 115.509 46.9466 122.389 49.8888 129.041C53.1218 136.351 56.4667 143.91 58.3294 151.396C60.2424 159.082 60.399 165.895 58.8104 172.229C58.1392 174.901 56.9925 177.591 55.8794 180.192C54.4307 183.592 52.9261 187.108 52.4898 190.604C50.9683 202.763 56.1759 214.997 61.2156 226.828C65.2206 236.228 69.3597 245.946 70.1093 255.587C70.2211 256.935 70.2715 258.286 70.2715 259.638Z" fill="white" fill-opacity="0.52"/>
<path d="M54.9229 424.647C54.9229 435.928 48.6079 445.724 35.7429 455L33.6733 454.749C54.028 440.071 57.8427 424.061 46.0517 402.837C37.6279 387.67 28.9188 371.988 30.334 355.279C31.4806 341.757 34.8423 328.002 38.0865 314.702C42.5781 296.313 47.2207 277.299 46.0908 258.606C45.4867 248.569 42.5278 238.394 39.6639 228.555C36.1064 216.295 32.4147 203.615 33.2426 191.065C33.5838 185.861 34.6801 180.618 35.7373 175.548C37.3818 167.679 39.0766 159.541 37.9747 151.432C36.9511 143.93 34.9318 136.315 32.9797 128.953C31.201 122.242 29.3607 115.302 28.2756 108.462C25.8648 93.2261 27.6994 76.6623 33.897 57.8196L33.9641 57.6148C40.1561 38.7688 46.5607 19.2804 33.6118 0.303858L35.8044 0.173449C48.826 19.2457 42.4047 38.7837 36.1904 57.6793L36.1232 57.884C29.9424 76.6921 28.1078 93.2261 30.513 108.429C31.5925 115.261 33.4328 122.194 35.2115 128.9C37.1636 136.269 39.1829 143.888 40.2121 151.404C41.3196 159.547 39.6192 167.702 37.9747 175.588C36.9175 180.651 35.8268 185.886 35.4856 191.076C34.6633 203.591 38.3438 216.254 41.9069 228.499C44.7708 238.348 47.7353 248.534 48.3394 258.595C49.4637 277.318 44.8155 296.348 40.3239 314.751C37.0797 328.044 33.7236 341.79 32.577 355.297C31.1618 371.942 39.8541 387.594 48.2611 402.731C52.6855 410.696 54.9229 417.934 54.9229 424.647Z" fill="white" fill-opacity="0.52"/>
<path d="M40.9504 423.111C40.9504 425.187 40.7267 427.21 40.2736 429.187C38.1648 438.484 33.4336 445.732 21.195 453.811L18.9512 453.206C41.5098 438.315 44.2841 423.808 32.521 402.724C30.9772 399.96 29.2712 397.152 27.6211 394.439C24.9978 390.127 22.2849 385.668 20.1594 381.252C15.9028 372.407 15.6175 363.728 15.9531 355.664C16.4845 342.756 18.1458 329.632 19.7511 316.941C21.9549 299.55 24.2315 281.566 23.6274 263.882C23.2638 253.099 21.6361 242.142 20.0643 231.546C18.1346 218.529 16.1377 205.069 16.4565 191.808C16.5964 186.053 17.2899 180.216 17.9556 174.572C18.8561 167 19.7846 159.171 19.3819 151.449C18.9904 143.908 18.0898 136.246 17.2172 128.834C16.423 122.086 15.6007 115.111 15.17 108.244C14.1688 92.3591 15.047 75.8366 17.8549 57.7337C20.7803 38.9058 20.5387 23.1882 13.5413 4.02671L21.6193 0.462436C28.6335 19.6751 23.0177 38.9108 20.0923 57.7651C17.2844 75.8548 16.4062 92.3624 17.4074 108.234C17.8381 115.094 18.6604 122.068 19.4546 128.813C20.3272 136.228 21.2278 143.893 21.6193 151.44C22.0164 159.177 21.0879 167.017 20.193 174.597C19.5218 180.236 18.8338 186.069 18.6939 191.814C18.3751 205.057 20.372 218.511 22.3017 231.52C23.8735 242.12 25.5012 253.082 25.8648 263.878C26.4633 281.578 24.1867 299.568 21.9829 316.967C20.3776 329.655 18.7163 342.774 18.1849 355.674C17.8549 363.711 18.1346 372.361 22.3688 381.162C24.4888 385.564 27.196 390.018 29.8194 394.323C31.4694 397.04 33.1811 399.847 34.7249 402.619C38.892 410.075 40.9504 416.836 40.9504 423.111Z" fill="white" fill-opacity="0.52"/>
<path d="M26.4409 422.239C26.4409 424.625 26.1277 426.949 25.5068 429.22C22.9617 438.481 24.6477 442.087 11.4806 450.186L9.12563 448.575C33.3231 433.694 30.0319 423.298 18.0786 402.632C16.3558 399.651 14.4205 396.627 12.5467 393.704C9.92892 389.619 7.22167 385.394 5.0458 381.211C0.610163 372.678 0.0116606 364.192 0.0340347 356.299C0.0620023 344.297 0.162685 332.095 0.252181 320.293C0.380831 304.395 0.50948 287.955 0.47592 271.786C0.408798 240.63 0.308117 208.953 0.213028 178.319C0.140313 154.927 0.0675966 131.536 0.00606848 108.143C-0.0274923 94.8858 0.0843787 81.4069 0.190655 68.3722C0.375241 46.0417 0.835163 39.2183 0.298189 16.5095C0.835163 39.2216 2.61264 46.0417 2.42805 68.3739C2.32177 81.4086 2.2099 94.8875 2.24346 108.143C2.30499 131.536 2.37771 154.928 2.45042 178.319C2.54551 208.953 2.64619 240.63 2.71332 271.786C2.75247 287.955 2.61823 304.397 2.48958 320.295C2.39449 332.096 2.2994 344.299 2.27143 356.301C2.24346 364.17 2.84196 372.624 7.26082 381.112C9.43109 385.284 12.1328 389.503 14.7449 393.584C16.6187 396.51 18.5597 399.535 20.2825 402.523C24.3993 409.632 26.4409 416.145 26.4409 422.239Z" fill="white" fill-opacity="0.52"/>
</g>
</svg>
