<svg width="456" height="942" viewBox="0 0 456 942" fill="none" xmlns="http://www.w3.org/2000/svg">
<g style="mix-blend-mode:soft-light">
<path d="M385.307 942C372.273 942 359.131 941.961 346.121 941.821C255.313 940.848 162.981 941.262 73.6906 941.67C49.6845 941.776 42.2379 941.586 17.8222 941.67L13.7951 939.433C38.2091 939.349 49.6845 939.539 73.6889 939.433C122.433 939.214 172.096 938.985 221.91 938.985C263.348 938.985 304.885 939.142 346.121 939.584C367.602 939.813 389.441 939.768 410.563 939.729C425.172 939.701 426.621 939.673 441.479 939.729L436.042 941.966C421.186 941.905 425.17 941.933 410.563 941.966C402.236 941.983 393.795 942 385.307 942Z" fill="white" fill-opacity="0.52"/>
<path d="M377.345 926.003C366.187 926.003 354.977 925.449 343.859 923.76C334.942 922.4 325.845 920.353 317.048 918.367C297.092 913.87 276.457 909.222 256.261 912.226C246.571 913.669 236.709 915.934 227.174 918.127C212.386 921.528 197.095 925.04 182.049 925.577C163.594 926.237 144.827 923.301 126.676 920.471C113.645 918.435 100.169 916.332 86.9251 915.571C69.7518 914.586 52.2893 917.545 35.4 920.409C23.5613 922.417 14.189 924.878 2.14716 925.577L0.737659 923.34C12.7696 922.641 23.5333 920.18 35.367 918.177C52.2662 915.313 69.7418 912.354 86.9367 913.333C100.191 914.094 113.67 916.197 126.706 918.233C144.845 921.069 163.604 923.994 182.041 923.34C197.069 922.803 212.351 919.29 227.128 915.895C236.668 913.703 246.533 911.437 256.231 909.988C276.463 906.979 297.118 911.633 317.093 916.13C325.886 918.11 334.98 920.157 343.89 921.517C365.592 924.822 387.658 923.776 408.998 922.764C423.734 922.065 438.97 921.343 453.963 922.059L452.553 926.003C437.568 925.287 423.737 924.302 409.006 925.001C398.585 925.499 387.988 926.003 377.345 926.003Z" fill="white" fill-opacity="0.52"/>
<path d="M373.673 910.911C364.071 910.911 354.445 910.005 344.876 907.466C334.608 904.742 324.193 901.162 314.121 897.7C308.801 895.87 303.3 893.98 297.888 892.235C296.551 891.804 295.215 891.368 293.876 890.926C281.233 886.775 268.16 882.485 255.344 885.953C245.649 888.577 235.809 892.66 226.292 896.609C213.109 902.079 199.477 907.734 185.998 909.614C173.168 911.404 159.954 907.757 147.174 904.227C143.781 903.293 140.275 902.32 136.855 901.481C134.658 900.938 132.461 900.39 130.265 899.847C115.06 896.061 99.3367 892.145 83.8413 890.484C67.6705 888.75 51.2799 894.198 35.4278 899.467C23.9773 903.271 12.1369 907.208 0.460082 908.417L0.440261 906.179C12.094 904.977 23.9244 901.044 35.3634 897.241C51.2354 891.966 67.6473 886.507 83.8611 888.247C99.3714 889.908 115.101 893.829 130.312 897.616C132.509 898.164 134.706 898.712 136.902 899.249C140.326 900.094 143.834 901.061 147.227 901.995C159.987 905.519 173.182 909.166 185.97 907.376C199.422 905.497 213.041 899.847 226.211 894.383C235.734 890.434 245.581 886.345 255.291 883.716C268.165 880.231 281.269 884.532 293.94 888.694C295.278 889.136 296.614 889.572 297.95 890.003C303.366 891.748 308.867 893.639 314.189 895.468C324.257 898.93 334.669 902.51 344.929 905.228C366.692 911.001 388.789 908.322 410.157 905.732C424.889 903.948 440.125 902.102 455.142 903.025L455.13 905.262C440.13 904.333 424.906 906.179 410.18 907.964C398.18 909.429 385.948 910.911 373.673 910.911Z" fill="white" fill-opacity="0.52"/>
<path d="M370.182 896.693C361.671 896.693 353.142 895.529 344.64 892.447C334.187 888.66 323.608 883.61 313.376 878.727C307.976 876.148 302.392 873.485 296.893 871.035C295.463 870.398 294.028 869.743 292.591 869.089C279.987 863.344 266.955 857.404 254.26 862.192C244.983 865.694 235.594 871.309 226.514 876.746C214.092 884.18 201.247 891.866 188.467 894.271C181.38 895.602 174.06 893.488 166.981 891.435C165.374 890.971 163.711 890.49 162.093 890.059C153.516 887.793 145.127 884.958 137.34 882.228C135.084 881.439 132.826 880.639 130.57 879.84C114.733 874.229 98.3573 868.434 82.1815 865.996C66.3409 863.613 50.3848 871.343 34.9538 878.827C23.6767 884.292 12.0147 889.947 0.463383 891.631L0.435306 889.393C11.9536 887.715 23.5991 882.071 34.8613 876.612C50.322 869.117 66.3095 861.37 82.2112 863.764C98.4068 866.203 114.792 872.009 130.64 877.619C132.896 878.419 135.152 879.219 137.408 880.007C145.192 882.731 153.575 885.567 162.144 887.833C163.766 888.263 165.429 888.744 167.038 889.209C174.095 891.256 181.392 893.365 188.431 892.039C201.171 889.639 213.996 881.965 226.4 874.542C235.49 869.106 244.889 863.479 254.189 859.971C266.965 855.15 280.039 861.112 292.682 866.874C294.119 867.528 295.552 868.183 296.983 868.82C302.484 871.27 308.07 873.938 313.47 876.511C323.696 881.395 334.271 886.44 344.712 890.221C366.636 898.164 388.8 893.331 410.235 888.66C424.924 885.455 440.114 882.144 455.142 882.944L455.132 885.181C440.13 884.381 424.955 887.693 410.278 890.892C397.116 893.762 383.675 896.693 370.182 896.693Z" fill="white" fill-opacity="0.52"/>
<path d="M370.281 883.945C361.286 883.945 352.871 882.116 344.709 878.464C334.218 873.765 323.629 867.411 313.391 861.263C307.986 858.019 302.395 854.663 296.887 851.592C295.542 850.843 294.19 850.071 292.834 849.299C280.207 842.106 267.153 834.672 254.521 840.5C245.522 844.651 236.451 851.559 227.678 858.238C215.814 867.265 203.548 876.606 191.245 879.314C183.952 880.913 176.363 878.134 169.023 875.443C167.493 874.884 165.911 874.302 164.375 873.782C155.643 870.812 147.126 867.086 139.221 863.507C136.95 862.477 134.679 861.437 132.408 860.397C116.302 853.013 99.6455 845.378 83.1427 842.218C67.1139 839.147 51.0817 848.991 35.5781 858.506C24.116 865.543 12.2641 872.814 0.465036 874.867L0.432002 872.635C12.1881 870.594 24.0186 863.333 35.4609 856.308C51.0025 846.771 67.0759 836.909 83.1807 839.992C99.7099 843.157 116.378 850.798 132.498 858.187C134.769 859.227 137.038 860.268 139.309 861.297C147.207 864.877 155.719 868.597 164.441 871.567C165.979 872.093 167.563 872.669 169.094 873.234C176.405 875.913 183.968 878.687 191.204 877.099C203.455 874.403 215.695 865.084 227.534 856.073C236.321 849.383 245.405 842.469 254.434 838.308C267.164 832.435 280.27 839.902 292.944 847.118C294.3 847.89 295.65 848.656 296.994 849.405C302.505 852.476 308.098 855.838 313.507 859.082C323.74 865.224 334.32 871.572 344.796 876.265C360.87 883.464 377.933 883.542 398.495 876.523C402.015 875.32 405.59 874.028 409.049 872.775C424.111 867.321 439.686 861.689 455.138 862.108L455.134 864.346C439.719 863.909 424.163 869.547 409.12 874.996C405.66 876.248 402.082 877.546 398.561 878.749C388.381 882.206 379.054 883.945 370.281 883.945Z" fill="white" fill-opacity="0.52"/>
<path d="M368.401 872.422C360.018 872.422 351.953 868.854 345.008 865.212C334.588 859.748 324.107 852.241 313.969 844.981C308.62 841.149 303.087 837.184 297.632 833.57C296.525 832.837 295.413 832.088 294.297 831.338C281.59 822.803 268.449 813.971 255.775 820.537C246.904 825.135 238.005 833.106 229.4 840.814C217.887 851.128 205.982 861.789 193.939 864.586C186.47 866.32 178.665 862.891 171.117 859.574C169.778 858.987 168.394 858.377 167.051 857.818C158.311 854.177 149.476 849.4 141.984 845.21C139.742 843.957 137.497 842.688 135.254 841.418C119.196 832.334 102.592 822.937 86.071 819.133C69.5004 815.319 53.0059 827.082 37.0563 838.464C25.1268 846.978 12.7893 855.776 0.465036 858.058L0.428701 855.827C12.7034 853.55 25.0145 844.768 36.9192 836.277C52.915 824.867 69.4542 813.064 86.1156 816.902C102.668 820.716 119.288 830.119 135.361 839.214C137.604 840.484 139.847 841.753 142.09 843.006C149.574 847.19 158.401 851.962 167.128 855.597C168.473 856.157 169.859 856.766 171.198 857.354C178.714 860.654 186.487 864.066 193.891 862.349C205.872 859.569 217.747 848.93 229.229 838.643C237.85 830.919 246.765 822.931 255.673 818.317C268.461 811.688 281.659 820.554 294.423 829.135C295.539 829.884 296.651 830.628 297.755 831.361C303.216 834.98 308.75 838.94 314.103 842.777C324.231 850.032 334.703 857.533 345.105 862.986C353.104 867.181 362.594 871.281 372.325 869.9C381.868 868.541 391.36 864.497 398.563 861.118C402.091 859.462 405.675 857.689 409.141 855.978C424.14 848.555 439.646 840.881 455.132 840.769L455.133 843.006C439.696 843.118 424.212 850.781 409.237 858.193C405.77 859.91 402.185 861.683 398.654 863.339C391.436 866.723 381.923 870.778 372.353 872.137C371.032 872.333 369.713 872.422 368.401 872.422Z" fill="white" fill-opacity="0.52"/>
<path d="M367.556 860.027C359.575 860.027 352.004 856.263 345.464 852.387C335.189 846.295 324.898 837.776 314.944 829.537C309.693 825.191 304.264 820.7 298.907 816.622C298.193 816.079 297.478 815.531 296.76 814.983C283.884 805.122 270.568 794.925 257.684 801.973C248.782 806.844 239.896 815.688 231.305 824.246C219.929 835.578 208.163 847.291 196.162 849.993C188.503 851.721 180.503 847.643 172.765 843.706C171.726 843.174 170.694 842.648 169.67 842.145C161.095 837.894 152.447 832.289 145.117 827.367C142.936 825.901 140.754 824.419 138.572 822.937C122.846 812.253 106.586 801.201 90.3189 796.855C72.8301 792.178 55.3941 805.765 38.5329 818.91C26.1144 828.586 13.2732 838.593 0.468338 841.295L0.427047 839.063C13.1791 836.372 25.9922 826.388 38.3842 816.734C55.295 803.555 72.7805 789.93 90.3701 794.628C106.675 798.986 122.956 810.05 138.701 820.75C140.883 822.232 143.063 823.714 145.245 825.18C152.565 830.097 161.202 835.696 169.764 839.936C170.788 840.445 171.821 840.97 172.861 841.496C180.564 845.417 188.528 849.472 196.116 847.766C208.044 845.082 219.773 833.397 231.117 822.104C239.728 813.529 248.633 804.657 257.577 799.769C270.587 792.654 283.965 802.895 296.903 812.807C297.622 813.355 298.337 813.904 299.05 814.446C304.415 818.529 309.847 823.026 315.099 827.373C325.042 835.601 335.324 844.108 345.576 850.188C353.414 854.837 362.735 859.317 372.446 857.298C381.977 855.318 391.451 850.116 398.639 845.803C402.18 843.678 405.774 841.407 409.25 839.208C424.171 829.778 439.6 820.023 455.127 819.307L455.135 821.544C439.665 822.255 424.263 831.993 409.371 841.407C405.893 843.605 402.297 845.881 398.753 848.001C391.547 852.325 382.05 857.538 372.486 859.524C370.831 859.871 369.186 860.027 367.556 860.027Z" fill="white" fill-opacity="0.52"/>
<path d="M366.996 847.532C359.182 847.532 351.832 843.487 346.005 839.678C335.924 833.083 325.871 823.698 316.149 814.619C311.023 809.831 305.721 804.881 300.481 800.401L300.107 800.082C286.903 788.794 273.249 777.121 259.897 784.437C250.795 789.426 241.753 798.991 233.009 808.243C221.547 820.37 209.694 832.91 197.521 835.366C189.585 836.971 181.342 832.172 173.37 827.535C172.836 827.227 172.306 826.914 171.778 826.612C163.487 821.818 155.158 815.458 148.104 809.865C146.013 808.209 143.923 806.531 141.832 804.853C126.681 792.699 111.014 780.124 95.2308 775.364C79.9617 770.755 64.7868 782.496 50.1123 793.845L49.5524 794.281C47.2963 796.027 44.9989 797.839 42.7791 799.595C29.0295 810.447 14.8125 821.673 0.468338 824.509L0.430351 822.277C14.7184 819.458 28.9073 808.254 42.6288 797.419C44.8503 795.669 47.1476 793.851 49.4054 792.106L49.9653 791.675C64.6893 780.287 79.9155 768.507 95.2902 773.144C111.119 777.921 126.811 790.511 141.986 802.683C144.075 804.361 146.165 806.039 148.256 807.695C155.3 813.283 163.617 819.637 171.89 824.414C172.419 824.721 172.95 825.029 173.484 825.337C181.418 829.951 189.623 834.728 197.483 833.14C209.576 830.701 221.39 818.199 232.814 806.117C241.581 796.843 250.645 787.251 259.795 782.239C273.282 774.85 287.004 786.579 300.272 797.923L300.646 798.242C305.893 802.728 311.198 807.678 316.328 812.472C326.038 821.539 336.078 830.913 346.133 837.491C353.301 842.179 362.781 847.218 372.567 844.573C382.085 841.994 391.542 835.668 398.716 830.443C402.271 827.854 405.878 825.085 409.366 822.411C424.202 811.023 439.546 799.249 455.129 797.973L455.145 800.211C439.628 801.48 424.32 813.232 409.513 824.593C406.023 827.272 402.414 830.041 398.855 832.63C391.661 837.872 382.177 844.215 372.619 846.804C370.728 847.308 368.849 847.532 366.996 847.532Z" fill="white" fill-opacity="0.52"/>
<path d="M366.432 834.722C360.516 834.722 354.151 832.144 346.562 826.791C336.684 819.816 326.883 809.691 317.406 799.897C312.41 794.734 307.244 789.393 302.131 784.588C288.468 771.734 275.122 760.771 262.074 767.629C252.596 772.612 243.213 782.765 234.139 792.587C222.365 805.334 210.189 818.512 197.627 820.604C183.004 823.038 167.3 808.405 153.443 795.501C152.431 794.556 151.423 793.621 150.426 792.693C148.449 790.864 146.472 789.012 144.495 787.155C130.123 773.686 115.261 759.764 100.154 754.735C84.6605 749.584 69.147 761.929 54.1438 773.871L52.5798 775.113C50.137 777.053 47.6497 779.073 45.245 781.031C30.701 792.85 15.6598 805.071 0.465036 807.723L0.430351 805.491C15.5657 802.856 30.5754 790.657 45.0897 778.86C47.4961 776.902 49.9834 774.883 52.4278 772.942L53.9919 771.701C69.0479 759.719 84.6159 747.324 100.219 752.515C115.384 757.56 130.273 771.51 144.672 785.002C146.649 786.853 148.624 788.705 150.601 790.534C151.6 791.457 152.606 792.396 153.62 793.342C167.429 806.207 183.08 820.778 197.597 818.373C210.073 816.297 222.206 803.158 233.941 790.456C243.038 780.605 252.445 770.425 261.975 765.413C275.155 758.489 288.574 769.513 302.309 782.429C307.431 787.245 312.6 792.587 317.599 797.755C327.062 807.532 336.847 817.646 346.697 824.598C356.974 831.853 364.986 833.973 372.672 831.484C382.126 828.419 391.175 821.415 398.782 814.966C402.353 811.94 405.974 808.701 409.477 805.569C424.227 792.38 439.481 778.748 455.125 777.048L455.147 779.285C439.579 780.974 424.361 794.578 409.647 807.734C406.142 810.866 402.518 814.105 398.944 817.136C391.314 823.602 382.235 830.633 372.737 833.71C370.669 834.387 368.581 834.722 366.432 834.722Z" fill="white" fill-opacity="0.52"/>
<path d="M366.115 821.242C360.308 821.242 354.105 818.675 347.061 813.417C337.363 806.179 327.797 795.434 318.544 785.035C313.669 779.559 308.628 773.893 303.632 768.814C291.725 756.716 277.854 744.376 263.876 751.161C253.833 756.039 243.916 766.689 234.326 776.986C222.008 790.215 209.271 803.891 196.101 805.541C195.323 805.636 194.543 805.687 193.764 805.687C179.468 805.687 164.694 789.84 151.579 775.773C149.732 773.792 147.886 771.784 146.039 769.782C132.612 755.189 118.727 740.103 104.443 734.996C88.7532 729.38 72.9127 742.228 57.5957 754.652C56.8277 755.272 56.0613 755.893 55.2966 756.514C52.6805 758.628 50.0181 760.832 47.4433 762.964C32.189 775.599 16.4162 788.66 0.465036 790.942L0.436957 788.705C16.3221 786.434 32.0635 773.395 47.2864 760.788C49.8629 758.656 52.5269 756.447 55.143 754.333C55.9077 753.717 56.6741 753.097 57.4404 752.47C72.8119 740.002 88.707 727.115 104.511 732.77C118.862 737.905 132.78 753.024 146.239 767.651C148.085 769.659 149.93 771.661 151.777 773.642C165.556 788.42 181.177 805.178 196.076 803.309C209.157 801.67 221.849 788.039 234.126 774.855C243.741 764.53 253.686 753.852 263.784 748.946C277.892 742.094 291.849 754.5 303.823 766.672C308.829 771.756 313.875 777.428 318.754 782.91C327.99 793.286 337.541 804.02 347.204 811.23C356.956 818.507 365.077 820.599 372.763 817.825C382.209 814.407 391.245 806.565 398.839 799.338C402.423 795.926 406.058 792.273 409.572 788.744C424.244 773.999 439.415 758.752 455.124 756.883L455.147 759.121C439.521 760.978 424.392 776.187 409.761 790.892C406.243 794.427 402.606 798.079 399.017 801.497C391.396 808.746 382.326 816.622 372.832 820.056C370.637 820.845 368.406 821.242 366.115 821.242Z" fill="white" fill-opacity="0.52"/>
<path d="M365.876 806.856C360.105 806.856 354.012 804.333 347.429 799.254C338.249 792.167 329.027 780.975 320.107 770.146C302.393 748.644 284.075 726.41 264.951 734.733C254.143 739.437 243.484 750.512 233.176 761.224C220.082 774.827 206.542 788.895 192.54 790.086C191.978 790.137 191.417 790.159 190.859 790.159C174.869 790.159 159.764 770.985 145.136 752.42C132.986 736.999 120.423 721.052 107.434 716.196C91.5956 710.279 75.5057 723.524 59.9443 736.339C59.0639 737.066 58.1853 737.787 57.3099 738.503C54.5501 740.763 51.7391 743.135 49.0205 745.422C33.256 758.707 16.9546 772.439 0.458428 774.162L0.43861 771.924C16.8638 770.207 33.1305 756.503 48.862 743.252C51.5822 740.959 54.3932 738.593 57.1563 736.327C58.0317 735.611 58.9087 734.89 59.7907 734.163C75.4066 721.303 91.5543 708.008 107.509 713.97C120.578 718.859 133.181 734.851 145.37 750.322C160.449 769.463 176.044 789.247 192.525 787.849C206.435 786.663 219.932 772.64 232.983 759.082C243.319 748.342 254.004 737.239 264.869 732.513C284.153 724.117 302.545 746.446 320.331 768.037C329.232 778.844 338.436 790.014 347.578 797.073C356.817 804.204 365.077 806.257 372.829 803.337C382.27 799.786 391.296 791.3 398.88 783.469C402.475 779.755 406.122 775.773 409.648 771.913C424.252 755.944 439.354 739.432 455.127 737.743L455.148 739.98C439.468 741.658 424.412 758.125 409.852 774.044C406.322 777.904 402.674 781.892 399.073 785.612C391.461 793.47 382.399 801.989 372.903 805.564C370.606 806.425 368.267 806.856 365.876 806.856Z" fill="white" fill-opacity="0.52"/>
<path d="M364.561 790.467C358.746 790.467 353.137 788.319 347.596 783.995C338.119 776.601 328.812 765.151 319.813 754.081C302.416 732.68 284.427 710.553 264.963 717.975C253.172 722.472 241.546 733.928 230.304 745.008C216.203 758.908 201.621 773.278 186.566 774.072C186.264 774.089 185.96 774.095 185.659 774.095C170.638 774.095 156.935 754.534 143.671 735.6C132.446 719.58 120.841 703.013 108.492 698.364C92.5552 692.368 76.3331 705.966 60.6445 719.116C59.8435 719.787 59.0458 720.453 58.2514 721.119C55.3891 723.507 52.4724 726.019 49.6498 728.452C33.6837 742.201 17.1727 756.425 0.456778 757.387L0.445215 755.149C17.0835 754.193 33.5566 740.002 49.4863 726.287C52.3089 723.854 55.2273 721.342 58.0928 718.948C58.8872 718.283 59.685 717.617 60.486 716.946C76.2307 703.751 92.5106 690.103 108.564 696.138C121.009 700.82 132.659 717.449 143.928 733.536C157.396 752.761 171.322 772.635 186.558 771.835C201.525 771.046 216.062 756.716 230.122 742.861C241.391 731.752 253.045 720.268 264.892 715.749C273.698 712.387 282.946 714.714 293.162 722.853C302.266 730.107 311.302 741.222 320.042 751.972C329.024 763.019 338.311 774.447 347.75 781.808C367.205 796.983 385.307 782.021 398.903 767.287C402.507 763.383 406.162 759.171 409.695 755.099C424.252 738.324 439.305 720.979 455.135 719.927L455.148 722.165C439.42 723.211 424.417 740.5 409.908 757.219C406.37 761.297 402.713 765.509 399.103 769.419C389.472 779.856 381.373 786.014 373.612 788.8C370.525 789.913 367.516 790.467 364.561 790.467Z" fill="white" fill-opacity="0.52"/>
<path d="M366.183 772.892C360.556 772.892 354.661 770.442 348.098 765.441C338.879 758.422 329.666 747.626 320.759 737.183C302.728 716.057 284.085 694.208 264.492 702.66C252.378 707.884 240.356 719.771 228.732 731.265C213.743 746.088 198.243 761.414 182.343 762.684C167.421 763.853 153.841 742.592 140.706 722.008C130.246 705.619 119.43 688.671 107.999 683.156C93.1845 676.018 77.7172 688.822 62.7602 701.206C61.2094 702.487 59.6734 703.762 58.1523 704.998C55.3429 707.28 52.479 709.68 49.7109 711.996C33.7184 725.375 17.1826 739.202 0.456778 740.606L0.440261 738.369C17.095 736.976 33.5946 723.171 49.5524 709.825C52.3221 707.51 55.186 705.116 57.997 702.828C59.5165 701.592 61.0525 700.322 62.6017 699.036C76.9194 687.177 93.1498 673.742 108.09 680.941C119.617 686.495 130.478 703.516 140.982 719.977C154.048 740.45 167.556 761.61 182.325 760.446C198.139 759.182 213.595 743.901 228.543 729.117C240.194 717.6 252.239 705.686 264.406 700.439C284.154 691.921 302.872 713.858 320.974 735.069C329.864 745.489 339.059 756.263 348.242 763.254C357.587 770.369 365.56 772.288 373.336 769.279C382.899 765.581 392.209 756.704 399.253 749.388C402.736 745.769 406.264 741.904 409.676 738.168C424.255 722.198 439.329 705.686 455.122 703.689L455.147 705.927C439.447 707.907 424.415 724.374 409.88 740.293C406.466 744.035 402.935 747.9 399.446 751.525C392.376 758.875 383.026 767.785 373.41 771.499C371.032 772.428 368.632 772.892 366.183 772.892Z" fill="white" fill-opacity="0.52"/>
<path d="M367.683 751.122C362.188 751.122 356.311 748.846 349.421 744.147C340.354 737.966 331.124 728.446 322.198 719.239C303.354 699.802 283.869 679.704 264.15 688.721C251.819 694.359 239.538 706.05 227.66 717.354C212.196 732.071 196.207 747.285 179.887 749.394C167.579 750.977 155.163 732.205 144.206 715.637C142.68 713.327 141.127 710.944 139.626 708.645C129.302 692.799 118.626 676.41 107.226 670.179C93.1068 662.46 77.4149 674.86 63.5695 685.807C61.5744 687.384 59.6899 688.872 57.7922 690.326C55.0753 692.402 52.3089 694.572 49.6333 696.669C33.654 709.199 17.1297 722.153 0.458428 723.837L0.43861 721.6C17.0438 719.927 33.5368 706.995 49.4846 694.488C52.1602 692.391 54.9283 690.22 57.6469 688.139C59.5413 686.691 61.4258 685.203 63.4192 683.625C77.3241 672.634 93.0837 660.183 107.332 667.969C118.819 674.251 129.535 690.701 139.898 706.609C141.398 708.914 142.949 711.291 144.475 713.601C155.366 730.068 167.708 748.734 179.861 747.162C196.101 745.064 212.054 729.884 227.48 715.206C239.38 703.885 251.684 692.172 264.059 686.512C283.923 677.428 303.477 697.598 322.388 717.102C331.298 726.293 340.512 735.802 349.548 741.96C359.418 748.689 367.186 750.423 374.735 747.576C382.184 744.773 390.052 739.258 400.247 729.71C403.523 726.639 406.839 723.395 410.046 720.257C424.554 706.061 439.556 691.378 455.119 688.889L455.15 691.126C439.665 693.604 424.701 708.248 410.23 722.411C407.021 725.549 403.703 728.799 400.424 731.869C390.194 741.457 382.293 746.989 374.808 749.808C372.472 750.675 370.114 751.122 367.683 751.122Z" fill="white" fill-opacity="0.52"/>
<path d="M176.954 733.581C165.753 733.581 154.215 717.27 143.98 702.8L143.046 701.48C141.529 699.338 139.986 697.128 138.493 694.992C128.175 680.214 117.506 664.932 106.244 658.768C92.4264 651.2 77.0152 662.409 63.4176 672.299C61.2854 673.848 59.2721 675.314 57.2455 676.729C54.6343 678.552 51.9786 680.448 49.4087 682.283C33.4823 693.666 17.0141 705.429 0.456778 707.045L0.436957 704.808C16.9348 703.203 33.3732 691.456 49.2716 680.096C51.8415 678.261 54.4989 676.36 57.1118 674.536C59.135 673.127 61.1483 671.661 63.2788 670.112C76.9326 660.183 92.4082 648.929 106.349 656.564C117.689 662.773 128.397 678.11 138.751 692.939C140.242 695.075 141.785 697.285 143.301 699.427L144.234 700.747C154.872 715.782 166.929 732.815 178.46 731.254C194.922 729 211.19 714.586 226.925 700.647C238.937 690.008 251.357 679 263.794 673.462C278.412 666.951 292.731 675.879 306.144 685.583C311.368 689.364 316.658 693.537 321.773 697.576C331.468 705.228 341.493 713.137 351.48 718.686C358.795 722.746 367.531 726.488 376.861 723.44C384.134 721.063 392.041 716.387 401.74 708.718C404.748 706.341 407.794 703.846 410.738 701.435C425.088 689.683 439.926 677.529 455.119 675.202L455.148 677.439C440.018 679.76 425.211 691.887 410.894 703.611C407.947 706.027 404.9 708.522 401.889 710.899C392.16 718.59 384.225 723.283 376.922 725.666C367.461 728.754 358.297 724.738 351.37 720.889C341.361 715.335 331.326 707.415 321.619 699.752C316.506 695.719 311.219 691.546 306.002 687.77C292.644 678.105 278.389 669.211 263.876 675.677C251.481 681.198 239.081 692.184 227.088 702.806C211.32 716.773 195.017 731.221 178.483 733.48C177.978 733.547 177.466 733.581 176.954 733.581Z" fill="white" fill-opacity="0.52"/>
<path d="M176.374 715.559C165.374 715.559 153.919 701.267 143.758 688.587L142.287 686.752C140.764 684.856 139.241 682.938 137.717 681.013C127.229 667.79 116.385 654.114 105.111 648.51C91.3181 641.658 76.7229 651.038 62.6083 660.105C60.6148 661.386 58.5536 662.711 56.5634 663.942C54.0712 665.48 51.5359 667.08 49.0833 668.629C33.2411 678.63 16.8605 688.967 0.456778 690.259L0.441914 688.022C16.7928 686.736 33.147 676.41 48.9627 666.426C51.4154 664.876 53.9506 663.276 56.4445 661.738C58.433 660.508 60.4942 659.188 62.4861 657.907C76.6535 648.801 91.3049 639.387 105.208 646.295C116.551 651.927 127.429 665.648 137.948 678.916C139.471 680.834 140.992 682.753 142.515 684.649L143.988 686.484C154.581 699.701 166.592 714.686 177.938 713.215C194.415 711.084 210.795 698.09 226.637 685.527C238.694 675.962 251.16 666.079 263.595 661.028C278.694 654.897 294.266 662.941 306.775 669.407C312.197 672.209 317.699 675.297 323.018 678.289C333.108 683.956 343.541 689.818 353.867 693.951C361.4 696.972 370.339 699.752 379.518 697.503C386.663 695.758 394.315 692.34 403.599 686.763C406.296 685.141 409.031 683.452 411.675 681.813C425.794 673.076 440.393 664.043 455.124 662.331L455.147 664.569C440.464 666.275 425.889 675.297 411.794 684.017C409.148 685.656 406.413 687.345 403.714 688.967C394.406 694.561 386.732 697.984 379.564 699.735C370.329 701.995 361.352 699.203 353.788 696.172C343.447 692.027 333.006 686.165 322.909 680.493C317.591 677.506 312.091 674.419 306.674 671.616C290.814 663.422 277.576 657.599 263.673 663.248C251.274 668.283 238.826 678.155 226.788 687.703C210.916 700.294 194.504 713.31 177.963 715.447C177.434 715.525 176.904 715.559 176.374 715.559Z" fill="white" fill-opacity="0.52"/>
<path d="M176.754 696.026C165.297 696.026 153.803 684.006 142.685 672.377C142.042 671.706 141.401 671.035 140.766 670.375C139.561 669.122 138.357 667.857 137.153 666.593C126.225 655.116 114.925 643.252 103.365 638.76C89.3742 633.323 74.7773 641.311 60.6611 649.041C58.7535 650.087 56.7814 651.167 54.8639 652.179C52.8044 653.27 50.7432 654.377 48.6836 655.485C32.9488 663.942 16.6788 672.685 0.455124 673.496L0.445215 671.258C16.6227 670.447 32.8695 661.716 48.5796 653.275C50.6408 652.168 52.702 651.06 54.7615 649.969C56.6774 648.957 58.6477 647.878 60.5537 646.832C74.7146 639.079 89.356 631.063 103.438 636.539C115.06 641.053 126.39 652.956 137.347 664.462C138.551 665.726 139.755 666.991 140.957 668.243C141.595 668.909 142.234 669.575 142.878 670.251C154.02 681.903 165.545 693.945 176.969 693.8C189.755 693.627 202.783 685.018 215.382 676.69C216.881 675.7 218.374 674.709 219.861 673.742C221.778 672.494 223.696 671.23 225.613 669.966C237.705 661.996 250.209 653.756 262.675 649.281C277.218 644.063 291.97 648.532 306.235 652.856L306.852 653.04C312.711 654.813 318.663 656.794 324.421 658.701C334.789 662.147 345.513 665.704 356.082 668.215C371.987 671.997 388.153 670.716 405.501 664.3C407.979 663.383 410.454 662.443 412.928 661.503C426.708 656.273 440.956 650.859 455.129 650.02L455.14 652.257C440.999 653.096 426.766 658.5 413.001 663.724C410.527 664.664 408.051 665.603 405.572 666.521C388.184 672.948 371.98 674.234 356.036 670.442C345.459 667.93 334.73 664.367 324.356 660.922C318.602 659.009 312.651 657.034 306.795 655.261L306.177 655.076C291.942 650.764 277.223 646.3 262.745 651.497C250.308 655.96 237.819 664.194 225.741 672.153C223.823 673.417 221.904 674.682 219.986 675.934C218.5 676.902 217.007 677.892 215.509 678.882C202.881 687.228 189.821 695.864 176.972 696.037C176.901 696.026 176.827 696.026 176.754 696.026Z" fill="white" fill-opacity="0.52"/>
<path d="M177.311 675.258C163.155 675.258 149.18 663.327 135.66 651.787C124.73 642.457 113.427 632.809 102.113 629.548C87.6037 625.369 72.6864 631.897 58.2613 638.206C56.8591 638.822 55.4618 639.431 54.0678 640.03C52.1421 640.858 50.218 641.702 48.2922 642.541C32.6631 649.371 16.5021 656.43 0.45017 656.704L0.446868 654.467C16.4575 654.193 32.597 647.139 48.208 640.321C50.1337 639.482 52.0595 638.637 53.9853 637.809C55.3792 637.211 56.7765 636.595 58.177 635.986C72.6368 629.659 87.5905 623.115 102.171 627.316C113.539 630.594 124.867 640.265 135.824 649.617C149.415 661.224 163.47 673.194 177.662 673.02C194.277 672.785 211.026 663.254 227.224 654.041C238.8 647.452 250.771 640.645 262.594 637.283C275.756 633.541 289.197 634.99 302.195 636.394C304.003 636.59 305.812 636.786 307.617 636.965C313.715 637.58 319.913 638.279 325.909 638.956C336.714 640.181 347.885 641.445 358.876 642.234C376.923 643.526 395.251 641.892 412.975 640.309C426.789 639.073 441.072 637.809 455.137 637.921L455.135 640.158C441.075 640.047 426.8 641.316 412.991 642.547C395.26 644.13 376.925 645.769 358.862 644.471C347.867 643.682 336.692 642.418 325.886 641.193C319.892 640.516 313.693 639.812 307.596 639.202C305.789 639.023 303.98 638.827 302.172 638.631C289.192 637.233 275.771 635.784 262.647 639.515C250.85 642.871 238.894 649.673 227.331 656.251C211.109 665.48 194.334 675.028 177.664 675.263C177.547 675.258 177.428 675.258 177.311 675.258Z" fill="white" fill-opacity="0.52"/>
<path d="M178.759 653.896C178.736 653.896 178.711 653.896 178.688 653.896C164.344 653.879 150.034 645.142 136.196 636.69C124.677 629.659 112.768 622.382 100.907 620.19C82.5448 616.789 63.9279 623.289 45.9254 629.581C31.0379 634.783 15.6416 640.17 0.448519 639.929L0.451823 637.692C15.6136 637.932 30.9883 632.551 45.8577 627.355C63.8866 621.057 82.5299 614.546 100.944 617.958C112.845 620.162 124.776 627.45 136.314 634.492C150.125 642.927 164.405 651.647 178.69 651.664C178.713 651.664 178.738 651.664 178.761 651.664C194.996 651.664 211.403 644.572 227.275 637.709C238.825 632.714 250.767 627.551 262.553 625.157C273.127 623.009 283.91 622.405 294.34 621.823C298.94 621.566 303.696 621.297 308.367 620.906C314.701 620.369 321.033 619.826 327.367 619.278C338.598 618.31 350.21 617.315 361.633 616.381C381.229 614.781 401.043 617.997 420.205 621.101C431.644 622.958 443.473 624.871 455.143 625.75L455.129 627.987C443.45 627.109 431.616 625.19 420.172 623.333C401.022 620.229 381.219 617.018 361.648 618.612C350.225 619.546 338.613 620.542 327.384 621.51C321.05 622.052 314.717 622.6 308.384 623.137C303.709 623.535 298.953 623.797 294.352 624.055C283.93 624.637 273.153 625.241 262.594 627.383C250.83 629.771 238.899 634.929 227.359 639.918C211.466 646.792 195.036 653.896 178.759 653.896Z" fill="white" fill-opacity="0.52"/>
<path d="M179.775 632.467C165.411 632.467 150.971 626.751 136.995 621.219C125.019 616.481 112.635 611.576 100.377 610.306C82.8239 608.483 65.0312 612.577 47.8231 616.532C32.3129 620.1 16.2742 623.786 0.446868 623.143L0.455124 620.906C16.256 621.555 32.2815 617.863 47.7785 614.3C65.0015 610.34 82.8107 606.24 100.397 608.069C112.683 609.344 125.082 614.249 137.073 618.998C151.417 624.676 166.251 630.532 180.967 630.219C196.228 629.878 211.682 625.397 226.627 621.068C238.631 617.589 251.043 613.992 263.293 612.555C285.935 609.898 308.884 604.304 331.077 598.901C342.091 596.216 353.479 593.442 364.697 591.059L366.682 590.634C374.851 588.877 383.299 587.059 391.634 588.855C398.084 590.248 404.77 592.703 412.075 596.373C413.469 597.072 414.861 597.777 416.251 598.481C428.921 604.897 442.021 611.531 455.148 613.22L455.124 615.458C441.959 613.757 428.84 607.118 416.154 600.691C414.763 599.986 413.371 599.281 411.977 598.582C404.69 594.924 398.023 592.474 391.593 591.081C383.299 589.291 374.872 591.104 366.723 592.86L364.736 593.285C353.522 595.668 342.134 598.442 331.121 601.127C308.922 606.536 285.966 612.13 263.313 614.786C251.081 616.224 238.678 619.815 226.682 623.294C211.723 627.629 196.256 632.109 180.969 632.456C180.571 632.462 180.173 632.467 179.775 632.467Z" fill="white" fill-opacity="0.52"/>
<path d="M181.705 611.52C167.429 611.52 152.979 608.399 139 605.378C126.053 602.581 112.663 599.69 99.4638 599.287C83.5259 598.806 67.3352 600.887 51.678 602.895C34.8911 605.054 17.5344 607.28 0.443564 606.363L0.453474 604.125C17.5261 605.048 34.8746 602.816 51.6516 600.663C67.317 598.649 83.516 596.568 99.4688 597.049C112.688 597.447 126.086 600.344 139.041 603.141C153.134 606.184 167.71 609.338 182.085 609.277C196.785 609.221 211.705 606.704 226.135 604.271C238.306 602.218 250.89 600.092 263.288 599.455C286.572 598.252 310.047 588.816 332.75 579.687C343.931 575.19 355.492 570.542 366.897 566.934L368.178 566.526C376.656 563.83 385.421 561.039 394.072 563.662C400.424 565.586 406.875 569.244 413.792 574.843C415.046 575.856 416.294 576.879 417.54 577.892C430.201 588.229 442.16 597.989 455.148 600.02L455.117 602.257C442.064 600.215 430.077 590.427 417.384 580.068C416.139 579.05 414.891 578.032 413.639 577.019C406.753 571.448 400.333 567.807 394.014 565.888C385.423 563.282 376.687 566.062 368.241 568.752L366.958 569.16C355.562 572.768 344.004 577.416 332.826 581.908C310.108 591.042 286.615 600.49 263.296 601.692C250.911 602.33 238.331 604.45 226.167 606.502C211.728 608.936 196.799 611.458 182.085 611.514C181.96 611.514 181.833 611.52 181.705 611.52Z" fill="white" fill-opacity="0.52"/>
<path d="M180.591 591.49C167.371 591.49 153.967 590.298 140.988 589.146C126.966 587.898 112.465 586.612 98.202 586.825C85.7572 587.009 73.0943 587.703 60.8493 588.368C41.0466 589.448 20.57 590.561 0.443564 589.588L0.453474 587.35C20.5684 588.324 41.0416 587.211 60.8394 586.131C73.0861 585.465 85.7506 584.777 98.2004 584.587C112.475 584.375 126.98 585.661 141.007 586.909C154.411 588.1 168.273 589.336 181.91 589.252C195.567 589.168 209.449 588.245 222.873 587.356C235.881 586.495 249.334 585.6 262.568 585.471C286.434 585.236 310.347 572.947 333.475 561.067C344.785 555.255 356.482 549.248 368.041 544.711L368.626 544.482C377.467 541.008 386.608 537.423 395.61 540.46C401.876 542.574 408.38 547.228 414.945 554.293C416.304 555.753 417.652 557.224 418.993 558.678C430.961 571.705 442.264 584.005 455.15 585.874L455.122 588.111C442.147 586.226 430.802 573.881 418.792 560.809C417.452 559.349 416.104 557.884 414.747 556.424C408.226 549.41 401.767 544.789 395.547 542.686C386.617 539.671 377.51 543.246 368.703 546.703L368.119 546.932C356.571 551.463 344.881 557.47 333.575 563.282C310.425 575.179 286.487 587.479 262.573 587.714C249.344 587.843 235.895 588.738 222.888 589.599C209.461 590.488 195.576 591.411 181.914 591.495C181.471 591.49 181.03 591.49 180.591 591.49Z" fill="white" fill-opacity="0.52"/>
<path d="M71.664 573.389C47.9338 573.389 24.0879 573.249 0.446868 572.802L0.45017 570.564C44.9741 571.403 90.2528 571.163 134.04 570.933C149.897 570.85 166.293 570.76 182.417 570.727C193.429 570.704 204.623 570.604 215.451 570.503C230.898 570.363 246.871 570.218 262.581 570.296C262.685 570.296 262.789 570.296 262.893 570.296C286.7 570.296 310.379 556.597 333.281 543.341C344.958 536.584 357.032 529.598 369.009 524.485C383.857 518.142 399.79 515.06 415.687 535.297C418.037 538.29 420.387 541.635 422.66 544.868C425.781 549.309 429.007 553.896 432.267 557.621C439.202 565.547 446.686 569.737 455.145 570.441L455.129 572.679C446.601 571.968 439.055 567.74 432.056 559.741C428.774 555.993 425.537 551.384 422.404 546.932C420.136 543.704 417.792 540.371 415.454 537.395C399.692 517.331 383.857 520.396 369.092 526.706C357.129 531.813 345.062 538.799 333.394 545.55C310.465 558.818 286.756 572.533 262.893 572.533C262.788 572.533 262.685 572.533 262.58 572.533C246.871 572.449 230.899 572.6 215.453 572.74C204.625 572.841 193.43 572.941 182.419 572.964C166.294 572.997 149.899 573.087 134.042 573.171C113.501 573.277 92.6279 573.389 71.664 573.389Z" fill="white" fill-opacity="0.52"/>
<path d="M124.631 558.689C115.621 558.689 106.589 558.214 97.6256 556.855C76.2026 553.61 54.4411 554.461 33.3964 555.283C22.6015 555.702 11.4383 556.144 0.446868 556.021L0.448519 553.784C11.435 553.901 22.5949 553.471 33.3881 553.045C54.4428 552.223 76.2126 551.373 97.6553 554.623C117.288 557.599 137.267 556.334 156.59 555.115C165.232 554.567 174.169 554.002 182.957 553.829C198.089 553.521 213.472 553.761 228.35 553.991C239.629 554.164 251.291 554.349 262.761 554.287C278.888 554.203 294.444 549.801 310.316 540.818C317.259 536.891 324.302 532.484 331.113 528.222C343.437 520.514 356.181 512.537 368.827 507.084C378.197 503.04 385.728 501.664 392.528 502.76C401.034 504.125 408.611 509.383 415.695 518.825C417.959 521.845 420.224 525.201 422.412 528.451C425.638 533.233 428.972 538.184 432.358 542.116C439.126 549.975 446.405 553.801 454.592 553.801C454.772 553.801 454.952 553.801 455.134 553.795L455.137 556.032C454.955 556.038 454.773 556.038 454.592 556.038C446.33 556.038 438.982 552.173 432.143 544.23C428.733 540.27 425.385 535.303 422.146 530.498C419.963 527.26 417.705 523.909 415.452 520.905C399.63 499.812 383.046 503.202 368.912 509.304C356.283 514.752 343.548 522.723 331.233 530.425C324.421 534.688 317.373 539.095 310.427 543.028C294.517 552.028 278.927 556.446 262.763 556.525C251.291 556.586 239.627 556.402 228.348 556.228C213.472 555.999 198.091 555.758 182.962 556.066C174.179 556.245 165.244 556.81 156.603 557.352C146.087 558.013 135.375 558.689 124.631 558.689Z" fill="white" fill-opacity="0.52"/>
<path d="M126.859 545.841C117.242 545.841 107.608 544.532 98.0732 540.706C82.127 534.313 67.2724 531.936 52.6607 533.446C46.5382 534.078 40.3182 535.034 34.3015 535.963C23.2126 537.669 11.7438 539.431 0.445215 539.241L0.448519 537.003C11.7339 537.205 23.1911 535.437 34.2717 533.731C40.2902 532.803 46.5151 531.846 52.6409 531.214C67.2856 529.698 82.1715 532.081 98.1508 538.486C118.219 546.535 138.765 543.419 158.636 540.404C167.858 539.006 177.395 537.557 186.753 537.249C201.216 536.774 215.917 537.579 230.134 538.357C241.532 538.983 253.319 539.627 264.91 539.604C280.914 539.576 296.343 534.911 312.083 525.346C318.566 521.409 325.139 516.995 331.498 512.728C343.584 504.611 356.084 496.227 368.514 490.706C377.642 486.651 385.167 485.426 392.193 486.835C400.558 488.519 408.114 494.006 415.292 503.621C417.401 506.446 419.518 509.534 421.566 512.521C425.092 517.661 428.739 522.98 432.447 527.103C439.438 534.878 446.854 538.116 455.124 537.015L455.15 539.252C446.801 540.371 439.308 537.093 432.242 529.234C428.506 525.078 424.846 519.742 421.307 514.579C419.264 511.598 417.152 508.521 415.051 505.708C398.452 483.474 381.508 487.199 368.601 492.932C356.193 498.442 343.705 506.826 331.628 514.931C325.268 519.199 318.691 523.618 312.202 527.562C296.424 537.154 280.955 541.825 264.913 541.853C264.745 541.853 264.576 541.853 264.406 541.853C252.972 541.853 241.36 541.215 230.126 540.6C215.914 539.823 201.218 539.017 186.761 539.492C177.416 539.8 167.885 541.249 158.667 542.647C148.198 544.225 137.54 545.841 126.859 545.841Z" fill="white" fill-opacity="0.52"/>
<path d="M129.53 532.562C118.979 532.562 108.435 530.291 98.0715 523.495C96.8774 522.712 95.6899 521.912 94.509 521.118C88.3964 516.995 82.6241 513.108 76.4355 511.821C69.6309 510.406 62.4134 510.535 53.0323 512.252C46.8784 513.376 40.6304 515.021 34.5872 516.615C23.4157 519.563 11.8661 522.617 0.445215 522.466L0.446868 520.229C11.8363 520.38 23.3777 517.326 34.536 514.383C40.5825 512.789 46.8338 511.139 52.996 510.015C62.4035 508.298 69.6441 508.163 76.4752 509.59C82.7067 510.887 88.5021 514.792 94.6362 518.925C95.8171 519.719 97.0029 520.519 98.1954 521.302C119.121 535.023 140.83 530.218 161.822 525.576C171.537 523.428 181.583 521.207 191.384 520.872C205.447 520.391 219.732 521.985 233.544 523.529C244.665 524.77 256.161 526.051 267.475 526.242C283.122 526.516 298.195 521.666 313.545 511.43C319.728 507.308 325.995 502.676 332.054 498.196C343.571 489.682 355.479 480.884 367.356 475.179C376.157 470.955 383.939 469.691 391.147 471.325C399.402 473.193 406.991 478.809 414.347 488.485C416.377 491.159 418.42 494.045 420.395 496.842C424.237 502.273 428.207 507.895 432.249 512.129C439.435 519.664 446.912 522.315 455.104 520.223L455.153 522.455C446.876 524.563 439.319 521.89 432.052 514.271C427.981 510.004 423.994 504.365 420.139 498.912C418.167 496.121 416.129 493.24 414.106 490.577C400.403 472.55 386.012 468.483 367.445 477.399C355.593 483.088 343.696 491.881 332.191 500.388C326.128 504.869 319.859 509.506 313.669 513.628C298.276 523.887 283.159 528.753 267.467 528.479C256.145 528.283 244.642 527.002 233.518 525.76C219.712 524.222 205.436 522.628 191.386 523.109C181.603 523.445 171.566 525.66 161.86 527.808C151.209 530.163 140.367 532.562 129.53 532.562Z" fill="white" fill-opacity="0.52"/>
<path d="M132.592 518.931C120.979 518.931 109.423 515.631 98.1739 505.551C96.7701 504.293 95.3712 502.984 94.0169 501.72C88.2395 496.316 82.781 491.209 76.713 489.554C70.0058 487.73 62.8164 488.049 53.4006 490.589C47.2186 492.255 40.9508 494.644 34.8894 496.948C23.637 501.233 12.0031 505.657 0.448519 505.68V503.442C11.9668 503.42 23.5809 499.001 34.8134 494.728C40.8798 492.418 47.1542 490.029 53.3461 488.362C62.7982 485.812 70.0207 485.493 76.7642 487.328C82.8966 488.994 88.3832 494.129 94.1919 499.566C95.5429 500.83 96.9418 502.139 98.3407 503.392C120.309 523.076 143.529 516.755 165.984 510.636C176.356 507.811 187.083 504.891 197.463 504.634C211.021 504.304 224.771 506.843 238.066 509.299C248.825 511.29 259.95 513.343 270.907 513.863C285.9 514.579 300.444 509.5 315.373 498.347C321.188 494.001 327.076 489.112 332.771 484.38C343.589 475.391 354.777 466.1 365.977 460.132C383.626 450.729 398.606 454.997 413.117 473.556C413.971 474.647 414.819 475.743 415.663 476.829C428.503 493.346 440.632 508.952 455.095 503.437L455.17 505.657C453.117 506.441 451.109 506.804 449.141 506.804C437.103 506.804 426.531 493.201 415.429 478.915C414.585 477.83 413.738 476.739 412.882 475.648C398.482 457.229 383.609 453 366.077 462.341C354.906 468.293 343.733 477.573 332.926 486.55C327.228 491.282 321.335 496.176 315.513 500.528C300.533 511.715 285.938 516.805 270.895 516.095C259.925 515.575 248.794 513.516 238.028 511.525C224.743 509.07 211.003 506.53 197.467 506.86C187.11 507.112 176.396 510.032 166.035 512.851C154.996 515.877 143.768 518.931 132.592 518.931Z" fill="white" fill-opacity="0.52"/>
<path d="M278.926 504.578C277.583 504.578 276.238 504.522 274.891 504.399C264.329 503.476 253.633 500.545 243.29 497.715C230.596 494.236 217.468 490.661 204.503 490.74C193.954 490.818 183.245 493.85 172.889 496.786C167.026 498.447 160.963 500.165 154.996 501.328C136.07 505.014 116.107 506.95 98.3407 487.132C96.6792 485.28 95.0491 483.328 93.4718 481.443C88.048 474.96 82.9247 468.835 76.9789 466.861C68.5078 464.047 60.1193 466.335 53.7574 468.634C47.549 470.883 41.263 474.037 35.1851 477.086C23.8633 482.769 12.1518 488.648 0.45017 488.899L0.445215 486.662C12.1006 486.41 23.7873 480.548 35.0893 474.871C41.1738 471.817 47.4647 468.662 53.688 466.408C60.0813 464.092 68.5144 461.799 77.045 464.629C83.07 466.626 88.2296 472.796 93.6931 479.329C95.2671 481.208 96.8939 483.155 98.5489 485.001C116.206 504.701 136.098 502.76 154.959 499.085C160.917 497.927 166.975 496.21 172.835 494.549C183.203 491.612 193.926 488.575 204.501 488.497C217.492 488.424 230.636 491.998 243.343 495.483C253.677 498.313 264.365 501.239 274.907 502.161C289.147 503.403 303.059 498.067 317.436 485.84C322.84 481.247 328.302 476.062 333.585 471.056C343.619 461.536 353.996 451.697 364.442 445.421C372.756 440.426 380.575 439.045 388.349 441.193C396.241 443.368 403.874 449.124 411.688 458.784C412.516 459.808 413.338 460.831 414.156 461.849C427.56 478.518 440.221 494.252 455.086 486.679L455.185 488.888C440.153 496.557 427.415 480.716 413.928 463.947C413.11 462.929 412.288 461.905 411.462 460.887C396.285 442.121 380.943 437.786 364.558 447.625C354.143 453.879 343.784 463.706 333.764 473.21C328.477 478.227 323.01 483.412 317.598 488.01C304.522 499.13 291.829 504.578 278.926 504.578Z" fill="white" fill-opacity="0.52"/>
<path d="M284.11 493.352C282.467 493.352 280.822 493.24 279.17 493.022C269.044 491.674 258.822 487.814 248.937 484.083C236.872 479.53 224.396 474.821 212.017 474.647C200.824 474.502 189.456 478.014 178.462 481.421C172.205 483.362 165.736 485.364 159.374 486.668C150.046 488.581 139.208 490.449 128.626 488.469C116.974 486.287 107.136 479.743 98.5489 468.461C96.6446 465.96 94.8063 463.281 93.0292 460.697C87.9191 453.252 83.0931 446.227 77.2465 443.944C68.9009 440.689 60.5025 443.614 54.1174 446.529C47.8826 449.37 41.585 453.308 35.4939 457.112C24.0978 464.232 12.3136 471.593 0.453474 472.119L0.445215 469.882C12.2492 469.361 24.0054 462.017 35.375 454.913C41.4744 451.104 47.7802 447.161 54.0315 444.314C60.4546 441.383 68.9059 438.44 77.3241 441.724C83.2666 444.04 88.1355 451.132 93.2918 458.644C95.0623 461.223 96.8939 463.891 98.7883 466.38C117.3 490.695 138.85 488.636 159.336 484.441C165.688 483.138 172.153 481.136 178.404 479.2C189.414 475.788 200.798 472.27 212.022 472.415C224.436 472.583 236.93 477.304 249.013 481.863C258.887 485.588 269.095 489.442 279.2 490.79C292.921 492.619 305.766 487.165 319.621 473.618C324.589 468.763 329.602 463.27 334.449 457.967C343.654 447.888 353.172 437.467 362.832 430.872C370.902 425.363 378.732 423.864 386.77 426.291C394.417 428.602 402.069 434.419 410.162 444.084C410.98 445.058 411.792 446.036 412.603 447.01C426.599 463.813 439.82 479.676 455.077 469.915L455.2 472.113C451.915 474.216 448.725 475.145 445.605 475.145C434.067 475.145 423.467 462.42 412.383 449.113C411.574 448.14 410.76 447.166 409.944 446.187C393.733 426.834 378.365 422.544 362.964 433.065C353.34 439.638 343.84 450.041 334.654 460.099C329.802 465.412 324.784 470.905 319.806 475.771C307.733 487.557 296.008 493.352 284.11 493.352Z" fill="white" fill-opacity="0.52"/>
<path d="M289.065 482.131C286.918 482.131 284.747 481.907 282.547 481.471C273.147 479.592 263.701 474.932 254.568 470.424C242.929 464.685 230.892 458.745 218.865 458.532C207.186 458.325 195.325 462.274 183.854 466.095C176.988 468.382 169.89 470.743 162.909 472.186C141.391 476.638 118.769 478.663 99.4572 450.864C97.3349 447.81 95.3134 443.933 93.3579 440.191C90.9994 435.677 88.5616 431.007 85.962 427.824C83.3161 424.585 80.3829 422.259 77.2448 420.905C69.3155 417.487 61.3729 420.732 55.3379 423.937C48.786 427.416 42.1879 432.349 35.8044 437.115C24.339 445.678 12.4838 454.533 0.455124 455.333L0.441914 453.095C12.4045 452.301 24.2267 443.469 35.6607 434.928C42.0524 430.151 48.6621 425.218 55.2339 421.722C61.3118 418.494 69.3155 415.228 77.3257 418.679C80.5117 420.055 83.4928 422.421 86.1849 425.71C88.8358 428.954 91.3 433.675 93.6816 438.234C95.6206 441.948 97.6256 445.79 99.7132 448.794C118.893 476.404 141.429 474.379 162.866 469.943C169.835 468.5 176.929 466.139 183.788 463.857C195.275 460.031 207.153 456.088 218.868 456.284C230.941 456.496 243.001 462.448 254.663 468.198C263.784 472.695 273.214 477.349 282.587 479.223C296.079 481.924 308.443 476.359 321.496 461.704C326.135 456.496 330.801 450.556 335.311 444.817C343.804 434.005 352.585 422.829 361.611 415.988C376.222 404.913 391.221 409.22 408.816 429.558C409.584 430.447 410.35 431.337 411.115 432.226C425.69 449.152 439.458 465.144 455.062 453.123L455.209 455.305C451.358 458.269 447.619 459.556 443.959 459.556C432.612 459.556 421.991 447.222 410.902 434.341C410.137 433.451 409.373 432.562 408.603 431.678C391.129 411.485 376.243 407.195 361.755 418.175C352.775 424.983 344.015 436.136 335.543 446.915C331.025 452.665 326.355 458.611 321.702 463.829C310.696 476.197 300.175 482.131 289.065 482.131Z" fill="white" fill-opacity="0.52"/>
<path d="M293.519 470.609C291.237 470.609 288.923 470.312 286.566 469.719C277.541 467.454 268.539 461.916 259.833 456.558C248.808 449.779 237.411 442.764 225.906 442.384C213.621 441.976 201.133 446.445 189.057 450.769C181.811 453.364 174.32 456.043 166.957 457.643C159.625 459.232 152.176 460.535 144.782 460.535C128.952 460.535 113.364 454.561 99.6571 432.606C97.14 428.574 94.8096 423.937 92.5552 419.451C87.8101 410.003 83.326 401.082 77.514 398.19C69.7383 394.325 61.7709 398.139 55.6996 401.898C49.123 405.97 42.5149 411.681 36.1248 417.208C24.59 427.192 12.6605 437.506 0.456778 438.558L0.440261 436.321C12.5696 435.275 24.4612 424.988 35.9613 415.043C42.3629 409.505 48.9826 403.783 55.5807 399.7C61.7032 395.913 69.7399 392.065 77.6098 395.98C83.549 398.934 88.0859 407.967 92.8888 417.526C95.13 421.99 97.4489 426.599 99.9379 430.587C119.904 462.565 143.971 460.384 166.914 455.411C174.263 453.817 181.748 451.138 188.986 448.548C201.08 444.219 213.588 439.744 225.911 440.152C237.472 440.538 248.899 447.569 259.95 454.365C268.639 459.707 277.624 465.233 286.614 467.493C299.671 470.776 311.418 464.97 323.578 449.236C327.798 443.777 332.023 437.529 336.107 431.493C343.794 420.133 351.743 408.381 360.044 401.272C367.665 394.744 375.493 393.111 383.977 396.277C391.063 398.922 398.503 404.807 407.392 414.797C408.183 415.686 408.971 416.576 409.759 417.465C424.879 434.547 439.159 450.69 455.048 436.365L455.218 438.53C439.138 453.023 424.765 436.785 409.549 419.59C408.761 418.701 407.974 417.812 407.182 416.922C394.554 402.732 377.804 388.368 360.204 403.448C351.956 410.512 344.032 422.225 336.37 433.552C332.279 439.598 328.048 445.852 323.813 451.333C313.755 464.338 303.977 470.609 293.519 470.609Z" fill="white" fill-opacity="0.52"/>
<path d="M297.29 458.42C294.913 458.42 292.49 458.051 290.006 457.319C281.297 454.746 272.691 448.414 264.367 442.289C253.891 434.581 243.058 426.61 231.984 426.146C219.2 425.609 206.195 430.649 193.618 435.526C186.028 438.468 178.179 441.511 170.473 443.29C146.077 448.917 120.523 451.35 99.7859 414.836C97.1549 410.205 94.7601 404.74 92.4462 399.454C87.8844 389.039 83.5754 379.205 77.7931 375.922C70.1347 371.576 62.1591 375.911 56.0663 380.173C49.4665 384.793 42.8485 391.254 36.4485 397.502C24.8427 408.829 12.8405 420.547 0.456778 421.783L0.436957 419.546C12.7381 418.315 24.699 406.642 36.2652 395.348C42.6767 389.089 49.3079 382.617 55.9309 377.98C62.0798 373.679 70.133 369.299 77.9005 373.713C83.8248 377.074 88.1916 387.042 92.8145 397.597C95.1152 402.844 97.4918 408.275 100.09 412.85C120.675 449.102 146.125 446.663 170.427 441.058C178.12 439.285 185.96 436.248 193.543 433.306C206.139 428.423 219.166 423.372 231.99 423.914C243.13 424.384 253.996 432.377 264.505 440.107C272.81 446.215 281.395 452.536 290.062 455.098C302.894 458.89 314.128 452.883 325.418 436.192C329.266 430.503 333.095 423.981 336.796 417.672C343.758 405.808 350.955 393.542 358.634 386.225C366.087 379.127 373.944 377.382 382.651 380.889C389.547 383.669 396.799 389.525 406.165 399.879C406.938 400.735 407.711 401.591 408.484 402.452C424.135 419.848 438.916 436.276 455.036 419.596L455.229 421.738C447.899 429.323 440.102 430.688 431.393 425.906C423.631 421.643 415.827 412.968 408.278 404.583C407.506 403.727 406.733 402.866 405.96 402.01C391.895 386.46 375.295 372.678 358.812 388.379C351.195 395.634 344.025 407.855 337.092 419.669C333.382 425.989 329.547 432.528 325.681 438.239C316.475 451.848 307.303 458.42 297.29 458.42Z" fill="white" fill-opacity="0.52"/>
<path d="M300.008 445.192C297.777 445.192 295.503 444.834 293.177 444.129C283.823 441.276 274.659 432.746 266.575 425.217C255.605 415.004 245.586 409.942 235.947 409.751C222.974 409.477 209.773 415.071 196.999 420.469C188.865 423.909 180.454 427.46 172.204 429.463C160.894 432.204 147.748 434.822 134.887 431.147C120.571 427.058 108.932 415.826 99.3086 396.808C96.6991 391.651 94.3901 385.638 92.1555 379.821C87.8035 368.488 83.6927 357.788 77.8245 354.147C70.2916 349.47 62.3242 354.326 56.2232 359.075C49.6795 364.17 43.126 371.235 36.7871 378.07C25.1037 390.667 13.0222 403.694 0.456778 405.008L0.436957 402.771C12.9099 401.462 24.9468 388.485 36.5873 375.939C42.9377 369.092 49.5061 362.011 56.0745 356.893C62.2367 352.094 70.2915 347.194 77.9434 351.943C83.9701 355.679 88.1421 366.542 92.5585 378.048C94.7766 383.82 97.069 389.794 99.6422 394.878C120.413 435.918 146.853 433.367 172.156 427.237C180.389 425.24 188.791 421.688 196.917 418.259C209.71 412.85 222.943 407.251 235.949 407.525C245.647 407.721 255.722 412.806 266.748 423.075C274.806 430.576 283.94 439.084 293.235 441.92C305.574 445.684 316.509 439.403 326.667 422.717C330.307 416.738 333.889 409.813 337.354 403.112C343.358 391.506 349.568 379.496 356.305 371.973C363.569 363.857 371.363 361.463 380.129 364.662C388.815 367.828 397.22 376.112 403.57 382.97C404.996 384.508 406.444 386.102 407.846 387.646C423.106 404.432 438.883 421.789 455.025 402.849L455.241 404.963C438.892 424.149 423.005 406.675 407.642 389.777C406.241 388.239 404.793 386.645 403.369 385.107C388.394 368.93 372.352 356.406 356.51 374.104C349.836 381.56 343.657 393.508 337.68 405.064C334.206 411.782 330.614 418.723 326.954 424.736C318.605 438.424 309.735 445.186 300.008 445.192Z" fill="white" fill-opacity="0.52"/>
<path d="M301.812 430.615C299.493 430.615 297.096 430.224 294.601 429.446C285.965 426.745 278.12 419.109 268.762 409.399C258.266 398.514 248.419 393.217 238.654 393.206C238.646 393.206 238.636 393.206 238.626 393.206C230.306 393.206 221.859 396.92 213.69 400.511C212.325 401.11 210.959 401.714 209.598 402.295L208.063 402.95C196.861 407.743 185.278 412.699 173.826 415.792C162.207 418.93 148.705 421.956 135.482 418.075C120.692 413.734 108.82 401.473 99.188 380.604C96.5372 374.859 94.2415 368.046 92.0201 361.452C87.8762 349.152 83.9619 337.534 78.1317 333.367C70.7507 328.098 63.1087 332.964 56.608 338.418C50.0429 343.927 43.4745 351.602 37.1224 359.019C25.3613 372.756 13.2022 386.964 0.460082 388.217L0.440261 385.979C13.0816 384.737 25.1929 370.586 36.906 356.904C43.2713 349.47 49.8546 341.779 56.4478 336.242C63.0228 330.727 70.7557 325.81 78.2672 331.174C84.2674 335.459 88.2445 347.267 92.4544 359.762C94.6577 366.301 96.9336 373.064 99.5431 378.713C120.33 423.758 148.759 420.318 173.773 413.561C185.21 410.467 196.786 405.517 207.981 400.729L209.515 400.075C210.876 399.493 212.24 398.895 213.606 398.29C221.795 394.688 230.263 390.969 238.626 390.969C238.636 390.969 238.645 390.969 238.654 390.969C248.485 390.98 258.396 396.305 268.955 407.257C278.276 416.928 286.087 424.535 294.662 427.214C307.473 431.219 317.965 425.016 327.679 407.693C331.106 401.585 334.447 394.465 337.68 387.585C343.272 375.676 349.054 363.365 355.482 355.814C362.678 347.362 370.515 344.968 379.44 348.508C387.849 351.842 396.066 359.981 402.996 367.504C404.444 369.076 405.922 370.715 407.351 372.297C422.881 389.492 438.94 407.274 455.016 386.057L455.256 388.144C449.924 395.18 444.605 398 439.314 398C428.434 398 417.67 386.08 407.146 374.429C405.718 372.846 404.241 371.212 402.794 369.641C387.391 352.922 371.026 339.928 355.699 357.933C349.342 365.401 343.592 377.645 338.031 389.486C334.789 396.389 331.437 403.532 327.986 409.679C322.855 418.83 317.542 424.82 311.743 428.003C308.56 429.743 305.272 430.615 301.812 430.615Z" fill="white" fill-opacity="0.52"/>
<path d="M303.174 414.025C300.451 414.025 297.613 413.494 294.642 412.436C285.89 409.321 277.826 401.177 269.29 392.552L268.553 391.808C258.672 381.829 249.322 376.879 239.969 376.672C231.833 376.487 223.585 380.168 215.603 383.725C214.351 384.284 213.101 384.838 211.854 385.381L209.419 386.438C198.068 391.377 186.328 396.484 174.721 399.672C162.854 402.933 149.065 406.071 135.588 402.044C120.395 397.502 108.31 384.642 98.638 362.738C96.088 356.966 93.9012 350.259 91.7839 343.782C87.7176 331.325 83.876 319.562 77.9467 315.384C70.6037 310.21 62.9716 315.272 56.4759 320.905C50.0379 326.487 43.5901 334.189 37.3553 341.64C25.5281 355.769 13.2963 370.385 0.456778 371.431L0.440261 369.193C13.1758 368.158 25.3564 353.604 37.1356 339.531C43.3836 332.064 49.8447 324.344 56.3124 318.74C62.8808 313.04 70.6037 307.928 78.0805 313.197C84.1865 317.498 88.0909 329.457 92.2265 342.126C94.3257 348.553 96.4943 355.198 99.0047 360.887C119.841 408.079 148.986 404.505 174.668 397.451C186.261 394.269 197.992 389.162 209.337 384.223L211.771 383.166C213.018 382.623 214.267 382.069 215.519 381.51C223.522 377.941 231.802 374.255 239.974 374.434C249.39 374.641 258.801 379.625 268.742 389.66L269.478 390.404C277.984 399.001 286.019 407.117 294.712 410.21C308.108 414.976 318.769 409.002 328.261 391.416C331.585 385.252 334.816 378.07 337.939 371.123C343.421 358.929 349.091 346.327 355.481 338.77C371.614 319.696 388.491 335.627 403.045 352.055C404.395 353.576 405.774 355.165 407.108 356.697C422.817 374.753 439.058 393.418 455.001 369.299L455.271 371.341C449.736 379.714 444.178 383.02 438.631 383.02C427.956 383.02 417.31 370.782 406.897 358.812C405.564 357.279 404.185 355.696 402.837 354.175C388.387 337.864 371.635 322.04 355.699 340.879C349.385 348.346 343.751 360.876 338.302 372.991C335.168 379.961 331.927 387.171 328.578 393.374C321.071 407.279 312.854 414.019 303.174 414.025Z" fill="white" fill-opacity="0.52"/>
<path d="M304.679 395.992C300.76 395.992 296.991 394.761 293.446 393.184C285.999 389.867 278.622 384.312 271.487 378.943C260.309 370.53 248.751 361.826 236.839 361.754C236.748 361.754 236.658 361.754 236.567 361.754C224.183 361.754 211.591 366.766 199.411 371.621C191.042 374.954 182.389 378.4 173.887 380.184C162.124 382.657 148.452 384.922 135.053 380.525C120.054 375.603 108.016 363.158 98.2466 342.49C95.9195 337.562 93.8352 331.991 91.8219 326.604C87.4732 314.97 83.3656 303.984 77.3489 300.583C69.9282 296.388 62.3226 301.45 55.8598 306.954C49.6696 312.229 43.4563 319.322 37.4494 326.179C25.5744 339.738 13.293 353.755 0.455124 354.661L0.441914 352.424C13.1807 351.523 25.4109 337.562 37.2397 324.059C43.2598 317.185 49.4846 310.081 55.6996 304.784C62.2268 299.219 69.9166 294.106 77.4579 298.374C83.6431 301.87 87.8151 313.035 92.2315 324.848C94.2316 330.201 96.301 335.733 98.5968 340.594C119.686 385.224 148.497 383.283 173.845 377.958C182.33 376.174 190.974 372.734 199.333 369.406C211.623 364.511 224.328 359.444 236.839 359.528C248.822 359.6 260.416 368.326 271.629 376.767C278.749 382.125 286.113 387.668 293.531 390.974C303.657 395.488 315.627 397.121 327.645 375.016C331.136 368.595 334.515 361.043 337.782 353.738C343.29 341.427 348.987 328.696 355.403 320.96C371.622 301.406 388.429 318.516 402.908 336.096C404.092 337.534 405.283 338.999 406.479 340.471C422.453 360.137 438.973 380.481 454.982 352.552L455.284 354.544C447.997 367.258 439.924 371.173 430.601 366.531C422.377 362.431 414.18 352.34 406.253 342.579C405.059 341.108 403.869 339.643 402.685 338.205C388.313 320.759 371.638 303.76 355.624 323.075C349.284 330.721 343.622 343.374 338.145 355.612C334.865 362.94 331.475 370.519 327.958 376.985C320.001 391.617 312.072 395.992 304.679 395.992Z" fill="white" fill-opacity="0.52"/>
<path d="M305.037 377.169C300.109 377.169 295.209 375.156 290.918 373.058C285.687 370.502 280.412 367.532 275.31 364.662C261.402 356.832 247.02 348.738 232.491 348.531C232.223 348.525 231.956 348.525 231.688 348.525C220.099 348.525 208.333 352.01 196.945 355.383C187.854 358.073 178.453 360.859 169.2 361.854C157.767 363.085 145.547 363.594 133.629 359.058C120.147 353.923 109.03 343.072 99.6439 325.883C97.0063 321.056 94.6379 315.49 92.3471 310.115C87.5079 298.754 82.9379 288.026 76.4851 285.408C69.0116 282.377 61.4472 287.517 55.034 292.937C49.1807 297.887 43.2944 304.32 37.5997 310.534C25.6603 323.578 13.3129 337.059 0.453474 337.881L0.440261 335.643C13.2022 334.832 25.5017 321.397 37.3949 308.409C43.0995 302.178 48.9974 295.739 54.8705 290.767C61.3415 285.291 68.9802 280.111 76.5594 283.188C83.1757 285.873 87.8118 296.757 92.7187 308.28C94.9946 313.622 97.3481 319.148 99.9544 323.919C120.49 361.524 146.452 362.067 169.175 359.623C178.409 358.627 187.802 355.847 196.884 353.157C208.549 349.705 220.612 346.137 232.491 346.299C247.073 346.506 261.481 354.616 275.416 362.459C280.514 365.328 285.786 368.298 291.01 370.849C304.653 377.516 314.65 377.706 325.377 358.974C329.375 351.988 333.212 343.48 336.922 335.246C342.618 322.605 348.508 309.533 355.136 301.657C362.479 292.932 370.391 291.114 379.323 296.097C387.446 300.628 395.383 310.154 402.75 319.775C403.721 321.044 404.699 322.331 405.68 323.623C421.979 345.108 438.834 367.325 454.968 335.789L455.299 337.724C447.952 352.083 439.75 356.647 430.224 351.685C421.839 347.317 413.502 336.331 405.44 325.704C404.461 324.412 403.485 323.125 402.513 321.855C387.474 302.217 371.443 284.648 355.355 303.76C348.803 311.547 342.947 324.54 337.283 337.109C333.561 345.37 329.709 353.917 325.681 360.954C320.371 370.228 314.795 375.402 308.633 376.778C307.439 377.052 306.236 377.169 305.037 377.169Z" fill="white" fill-opacity="0.52"/>
<path d="M304.482 359.332C300.367 359.332 296.229 357.038 292.214 354.812C290.926 354.096 289.595 353.358 288.295 352.715C265.875 341.617 245.317 336.264 225.448 336.404C215.57 336.466 205.535 338.261 195.828 340.001C186.607 341.651 177.073 343.362 167.678 343.581C156.376 343.843 144.298 343.39 132.545 338.311C119.265 332.573 108.267 321.755 98.9221 305.226C96.7123 301.316 94.661 296.976 92.6774 292.78C87.9819 282.846 83.5473 273.461 77.6164 270.798C69.6491 267.224 61.4175 272.717 54.4163 278.556C48.8455 283.204 43.2333 289.072 37.8045 294.749C25.7841 307.318 13.3525 320.317 0.451823 321.089L0.440261 318.852C13.2468 318.08 25.6322 305.131 37.6096 292.607C43.0467 286.924 48.6688 281.045 54.2578 276.38C61.32 270.485 69.6276 264.953 77.704 268.577C83.7753 271.301 88.2693 280.81 93.0275 290.879C94.9996 295.051 97.0409 299.37 99.2277 303.24C119.668 339.391 145.276 341.858 167.673 341.338C177.053 341.119 186.579 339.413 195.792 337.763C205.505 336.024 215.55 334.223 225.445 334.161C245.347 334.038 265.937 339.38 288.389 350.494C289.696 351.143 291.03 351.881 292.32 352.597C296.675 355.014 301.181 357.508 305.607 357.027C311.34 356.401 317.287 350.886 323.286 340.622C327.484 333.44 331.513 324.619 335.407 316.089C340.851 304.169 346.479 291.841 352.688 283.73C369.82 261.345 386.537 280.833 402.193 302.72C403.039 303.9 403.889 305.097 404.741 306.3C421.404 329.759 438.636 354.018 454.955 319.025L455.309 320.916C447.876 336.852 439.521 341.986 429.767 336.611C421.198 331.89 412.702 319.931 404.487 308.364C403.633 307.161 402.784 305.964 401.94 304.784C386.409 283.07 369.831 263.722 352.926 285.817C346.782 293.843 341.181 306.11 335.765 317.968C331.856 326.532 327.813 335.38 323.583 342.618C317.497 353.028 311.457 358.627 305.627 359.259C305.249 359.309 304.866 359.332 304.482 359.332Z" fill="white" fill-opacity="0.52"/>
<path d="M302.286 339.906C298.028 339.906 293.745 337.243 289.6 334.665C287.628 333.44 285.59 332.17 283.596 331.219C266.152 322.901 248.386 323.696 231.207 324.462C227.217 324.641 223.093 324.826 219.027 324.893C212.835 324.999 206.536 325.346 200.445 325.687C187.998 326.375 175.129 327.091 162.474 325.754C141.704 323.561 117.892 318.387 98.1541 284.592C96.4398 281.655 94.8212 278.618 93.2571 275.676C88.1966 266.167 83.4152 257.184 77.0053 255.254C68.9323 252.826 60.7469 258.347 53.8036 264.069C48.5416 268.404 43.2317 273.718 38.0968 278.858C25.9675 290.996 13.4252 303.553 0.455124 304.314L0.443564 302.077C13.3244 301.316 25.8221 288.809 37.9102 276.71C43.0533 271.564 48.3715 266.239 53.6483 261.893C60.6445 256.132 68.8976 250.572 77.0648 253.028C83.6151 254.996 88.4542 264.091 93.5775 273.718C95.1366 276.649 96.7486 279.675 98.4514 282.589C118.069 316.178 141.794 321.324 162.494 323.511C175.132 324.848 187.995 324.132 200.433 323.444C206.526 323.108 212.827 322.756 219.022 322.65C223.085 322.583 227.209 322.398 231.197 322.219C248.402 321.453 266.193 320.658 283.687 328.998C285.694 329.955 287.74 331.23 289.717 332.461C293.953 335.095 298.34 337.825 302.652 337.663C308.066 337.461 313.728 332.802 319.477 323.813C324.445 316.049 329.146 305.931 333.693 296.148C339.288 284.105 345.074 271.654 351.426 263.42C359.349 253.145 367.706 251.031 376.978 256.949C385.368 262.307 393.729 273.779 401.513 285.38C402.248 286.477 402.984 287.579 403.726 288.692C419.979 313.04 438.401 340.633 454.945 302.284L455.319 304.13C447.784 321.598 439.262 327.242 429.264 321.391C420.499 316.262 411.837 303.285 403.46 290.739C402.718 289.631 401.982 288.524 401.248 287.433C385.594 264.108 368.872 243.2 351.664 265.518C345.375 273.673 339.617 286.063 334.048 298.044C329.483 307.866 324.762 318.024 319.755 325.855C313.92 334.978 308.169 339.704 302.661 339.911C302.537 339.9 302.41 339.906 302.286 339.906Z" fill="white" fill-opacity="0.52"/>
<path d="M299.584 320.3C299.192 320.3 298.803 320.278 298.413 320.233C294.664 319.791 290.918 317.168 287.296 314.629C285.121 313.102 282.871 311.524 280.656 310.45C265.064 302.882 249.254 306.35 233.966 309.706C226.598 311.323 218.977 312.995 211.454 313.426C195.173 314.355 177.502 312.587 158.936 308.163C139.585 303.553 117.323 296.036 98.0352 265.009C96.5801 262.671 95.1614 259.98 93.7889 257.379C91.4172 252.882 88.9646 248.24 86.3138 245.398C83.255 242.126 79.8263 240.185 76.125 239.637C68.3162 238.479 60.5669 243.642 54.0167 248.849C48.8009 252.994 43.5323 258.039 38.4387 262.911C26.1822 274.641 13.5127 286.767 0.453474 287.534L0.441914 285.296C13.4153 284.536 26.0418 272.448 38.2537 260.763C43.3555 255.88 48.6291 250.835 53.8597 246.673C60.4546 241.432 68.2584 236.23 76.1482 237.405C79.9072 237.964 83.3921 239.939 86.507 243.267C89.2223 246.176 91.7063 250.88 94.106 255.427C95.4686 258.011 96.8791 260.679 98.3143 262.99C117.499 293.849 139.687 301.333 158.979 305.931C177.527 310.35 195.178 312.117 211.439 311.189C218.948 310.758 226.558 309.091 233.919 307.475C249.243 304.113 265.087 300.634 280.747 308.235C282.982 309.32 285.241 310.903 287.428 312.436C291.024 314.959 294.741 317.565 298.434 317.996C304.373 318.695 310.668 313.957 317.135 303.917C322.209 296.041 327.035 285.861 331.703 276.017C337.599 263.577 343.697 250.717 350.376 242.316C367.985 220.166 384.367 241.93 400.992 268.219C401.555 269.109 402.12 270.004 402.688 270.904C419.315 297.272 438.158 327.164 454.939 285.503L455.33 287.31C449.171 302.597 442.761 308.465 436.295 308.465C424.812 308.465 413.151 289.973 402.409 272.935C401.841 272.034 401.276 271.139 400.715 270.25C384.22 244.167 367.977 222.565 350.607 244.414C343.99 252.737 337.922 265.54 332.054 277.919C327.37 287.802 322.526 298.016 317.413 305.953C311.272 315.484 305.28 320.3 299.584 320.3Z" fill="white" fill-opacity="0.52"/>
<path d="M200.438 301.702C184.799 301.702 168.712 296.075 153.595 289.928C135.328 282.505 115.982 272.034 98.2714 245.918C96.9402 243.955 95.6371 241.773 94.3752 239.665C91.5609 234.961 88.9018 230.514 85.8662 228.075C82.6852 225.519 79.2911 224.232 75.4908 224.137C67.8472 223.941 60.2102 229.026 54.4114 233.478C49.2452 237.444 44.0244 242.221 38.9755 246.836C26.5356 258.213 13.6713 269.97 0.455124 270.753L0.443564 268.516C13.5788 267.738 26.4018 256.014 38.8037 244.676C43.8593 240.056 49.085 235.274 54.266 231.297C60.0995 226.816 67.7861 221.704 75.4958 221.9C79.3473 222 82.7892 223.304 86.0181 225.899C89.1264 228.394 91.9441 233.104 94.6676 237.662C95.9212 239.76 97.2193 241.93 98.5356 243.871C116.168 269.87 135.457 280.307 153.674 287.713C169.566 294.173 186.531 300.063 202.901 299.42C212.485 299.045 222.157 295.158 231.51 291.393C245.9 285.604 260.779 279.619 275.629 286.348C278.415 287.612 281.21 289.794 283.912 291.908C287.577 294.772 291.367 297.731 295.151 298.391C300.796 299.37 306.788 295.437 312.96 286.7C318.835 278.388 324.356 266.933 329.697 255.858C335.32 244.201 341.132 232.141 347.388 223.662C355.879 212.15 364.271 208.912 372.332 214.041C381.685 219.992 390.465 234.541 398.209 247.384C399.293 249.179 400.388 251.014 401.491 252.865C418.542 281.442 437.869 313.829 454.932 268.762L455.338 270.524C449.079 287.058 442.543 293.401 435.937 293.401C424.191 293.401 412.223 273.349 401.197 254.868C400.095 253.022 399.002 251.187 397.919 249.392C390.211 236.616 381.474 222.135 372.208 216.239C364.272 211.194 356.003 214.388 347.631 225.737C341.427 234.15 335.638 246.153 330.041 257.765C324.678 268.885 319.134 280.385 313.213 288.764C306.948 297.63 300.859 301.624 295.115 300.623C291.273 299.957 287.454 296.97 283.761 294.089C281.074 291.992 278.295 289.816 275.538 288.569C260.771 281.879 245.933 287.841 231.584 293.614C222.213 297.384 212.523 301.283 202.904 301.657C202.085 301.685 201.262 301.702 200.438 301.702Z" fill="white" fill-opacity="0.52"/>
<path d="M193.632 288.915C178.784 288.915 163.577 279.848 148.845 271.067L148.105 270.625C133.71 262.044 114.913 249.079 97.1979 224.775C96.4414 223.734 95.6899 222.666 94.9632 221.637C91.7244 217.033 88.664 212.687 85.1246 210.786C81.8742 209.04 78.4307 208.386 74.594 208.777C66.9603 209.561 59.3579 214.712 53.5905 219.114C48.9495 222.655 44.2491 226.749 39.7055 230.704C27.0146 241.757 13.8909 253.19 0.455124 253.973L0.443564 251.735C13.8017 250.958 26.8874 239.558 39.542 228.534C44.0905 224.573 48.7943 220.473 53.4468 216.927C59.244 212.503 66.8859 207.329 74.5758 206.54C78.4538 206.143 81.9387 206.809 85.2303 208.576C88.8506 210.523 91.9457 214.919 95.2225 219.578C95.9476 220.608 96.6957 221.67 97.4489 222.705C115.106 246.936 133.859 259.868 148.223 268.426L148.962 268.868C164.479 278.12 180.525 287.685 196.083 286.6C206.413 285.878 216.799 280.1 226.841 274.507C241.333 266.441 256.32 258.095 271.388 264.841C274.529 266.245 277.634 268.975 280.637 271.62C284.024 274.602 287.529 277.684 291.053 278.808C297.23 280.788 303.871 276.805 310.793 266.983C316.747 258.532 322.371 247.037 327.81 235.923C333.726 223.835 339.842 211.334 346.425 202.641C355.121 191.164 363.615 188.328 371.673 194.212C380.899 200.947 389.449 215.853 397.719 230.273C398.632 231.867 399.554 233.484 400.482 235.117C417.903 265.725 437.651 300.421 454.929 251.998L455.35 253.721C447.485 275.765 438.426 282.846 427.656 275.39C418.266 268.885 409.07 252.731 400.178 237.103C399.25 235.47 398.328 233.853 397.417 232.264C389.185 217.912 380.674 203.072 371.534 196.405C363.605 190.621 355.236 193.418 346.664 204.733C340.134 213.353 334.043 225.804 328.152 237.841C322.693 249 317.048 260.534 311.049 269.047C304.027 279.015 297.28 283.048 290.992 281.034C287.415 279.887 283.885 276.783 280.471 273.785C277.487 271.162 274.402 268.449 271.302 267.062C256.33 260.361 241.393 268.678 226.948 276.716C216.883 282.321 206.475 288.115 196.096 288.837C195.275 288.887 194.453 288.915 193.632 288.915Z" fill="white" fill-opacity="0.52"/>
<path d="M188.86 274.747C175.297 274.747 161.417 264.052 147.986 253.71L146.122 252.272C128.887 239.033 112.246 222.929 96.6578 204.42C89.3825 195.778 82.9428 192.344 75.7798 193.283C67.6292 194.352 59.68 199.638 52.9794 204.666C48.8785 207.743 44.7214 211.183 40.6998 214.505C27.6703 225.278 14.1981 236.42 0.453474 237.192L0.441914 234.955C14.1122 234.183 27.548 223.08 40.5412 212.335C44.5645 209.007 48.7266 205.567 52.8341 202.485C59.5644 197.434 67.5499 192.126 75.7534 191.046C83.004 190.095 89.5195 193.569 96.8758 202.306C112.44 220.787 129.059 236.868 146.267 250.091L148.133 251.528C161.721 261.994 175.775 272.834 189.447 272.504C200.785 272.241 212.107 264.427 223.057 256.865C237.834 246.662 253.113 236.113 268.624 244.005C271.804 245.622 274.915 248.749 277.925 251.775C281.317 255.181 284.825 258.705 288.396 260.008C294.231 262.128 300.51 258.895 307.056 250.399C313.821 241.617 320.138 228.802 326.249 216.413C332.32 204.101 338.598 191.37 345.337 182.527C353.641 171.625 361.565 168.493 368.89 173.214C378.687 179.529 387.685 195.946 396.386 211.82L397.098 213.118C397.901 214.578 398.708 216.066 399.524 217.559C408.529 234.071 417.84 251.148 427.326 258C438.112 265.792 447.138 258.347 454.917 235.24L455.353 236.924C449.429 254.521 442.801 263.23 435.253 263.236C432.675 263.236 429.99 262.218 427.188 260.193C417.611 253.274 408.256 236.118 399.21 219.528C398.396 218.035 397.587 216.552 396.786 215.092L396.074 213.795C387.418 197.999 378.466 181.671 368.768 175.418C361.567 170.775 353.765 173.874 345.578 184.619C338.892 193.395 332.639 206.076 326.591 218.337C320.457 230.777 314.113 243.636 307.295 252.491C300.651 261.116 294.269 264.399 288.328 262.24C284.696 260.92 281.16 257.368 277.74 253.928C274.752 250.924 271.663 247.82 268.529 246.226C253.132 238.395 237.911 248.905 223.19 259.068C212.209 266.648 200.854 274.49 189.453 274.753C189.255 274.747 189.057 274.747 188.86 274.747Z" fill="white" fill-opacity="0.52"/>
<path d="M184.652 258.548C171.333 258.548 157.856 245.644 144.809 233.154C144.046 232.421 143.286 231.694 142.529 230.972C135.266 224.042 127.934 216.401 120.846 209.012C113.278 201.126 105.453 192.965 97.6966 185.665C81.9304 170.82 65.9346 180.385 52.1801 190.509C48.8174 192.987 45.4019 195.655 42.1003 198.234C28.6018 208.777 14.6424 219.685 0.453474 220.412L0.443564 218.175C14.5631 217.447 28.4862 206.568 41.9517 196.047C45.2549 193.462 48.6721 190.794 52.0397 188.316C65.8719 178.131 81.9618 168.521 97.8734 183.5C105.639 190.811 113.468 198.972 121.04 206.864C128.126 214.253 135.454 221.889 142.709 228.813C143.466 229.535 144.226 230.262 144.99 230.995C158.342 243.776 172.148 256.999 185.717 256.277C197.079 255.679 208.438 246.785 219.423 238.182C234.458 226.408 250.004 214.237 265.787 223.147C269.118 225.027 272.327 228.718 275.431 232.292C278.645 235.99 281.968 239.816 285.387 241.55C291.711 244.76 298.599 241.505 305.86 231.879C312.623 222.912 318.96 210.098 325.09 197.697C330.905 185.934 336.917 173.773 343.305 164.863C352.346 152.25 360.862 148.726 368.613 154.392C378.26 161.44 387.081 178.226 395.613 194.458L396.883 196.875C397.95 198.899 399.02 200.952 400.092 203.011C408.436 219.019 417.062 235.576 426.407 243.558C437.141 252.725 446.732 244.285 454.914 218.465L455.365 220.104C449.188 239.592 442.223 249.386 434.583 249.386C431.886 249.386 429.106 248.167 426.245 245.722C416.815 237.668 408.149 221.038 399.767 204.957C398.695 202.899 397.626 200.851 396.559 198.827L395.289 196.41C386.8 180.256 378.023 163.56 368.474 156.579C360.855 151.008 352.471 154.493 343.556 166.933C337.214 175.781 331.222 187.897 325.428 199.621C319.276 212.066 312.914 224.931 306.101 233.965C298.73 243.737 291.729 247.031 285.289 243.765C281.812 242.003 278.46 238.143 275.218 234.412C272.139 230.872 268.956 227.208 265.678 225.357C250.026 216.519 234.544 228.646 219.572 240.364C208.554 248.989 197.16 257.911 185.727 258.515C185.369 258.537 185.01 258.548 184.652 258.548Z" fill="white" fill-opacity="0.52"/>
<path d="M183.058 239.894C169.459 239.894 155.983 225.2 142.937 210.976L142.199 210.17C138.831 206.501 135.413 202.619 132.106 198.866C120.783 186.018 109.076 172.733 97.1731 165.266C82.3846 155.992 67.0808 165.288 51.3972 176.503C48.9793 178.231 46.5233 180.038 44.1467 181.783C29.966 192.21 15.303 202.988 0.451823 203.62L0.443564 201.383C15.2287 200.751 29.857 189.995 44.0063 179.596C46.3829 177.851 48.8405 176.044 51.2601 174.31C67.0115 163.045 82.3863 153.71 97.292 163.062C109.24 170.557 120.971 183.87 132.314 196.74C135.619 200.493 139.036 204.37 142.401 208.034L143.139 208.839C156.561 223.472 170.442 238.613 184.384 237.601C195.452 236.801 206.594 227.421 217.369 218.342C232.567 205.544 248.282 192.305 264.097 202.843C267.462 205.086 270.651 209.348 273.736 213.476C276.803 217.576 279.974 221.821 283.277 223.986C289.628 228.153 296.565 225.586 303.894 216.357C311.208 207.15 317.999 193.306 324.569 179.921C330.576 167.682 336.786 155.024 343.401 145.879C352.551 133.226 360.805 130.167 368.639 136.532C378.114 144.229 386.749 161.3 395.099 177.806C395.694 178.981 396.287 180.156 396.878 181.319C397.836 183.204 398.796 185.111 399.757 187.024C408.202 203.799 416.935 221.15 426.462 229.233C437.195 238.345 446.765 229.087 454.902 201.718L455.368 203.307C447.056 231.269 437.276 240.722 426.301 231.403C416.682 223.237 407.908 205.807 399.423 188.954C398.462 187.041 397.502 185.139 396.546 183.254C395.955 182.085 395.36 180.916 394.766 179.742C386.457 163.319 377.865 146.332 368.484 138.713C360.791 132.465 352.668 135.486 343.65 147.959C337.083 157.043 330.895 169.651 324.909 181.85C318.315 195.292 311.495 209.186 304.126 218.465C296.682 227.84 289.625 230.441 283.154 226.196C279.789 223.986 276.589 219.707 273.495 215.568C270.438 211.479 267.278 207.25 263.972 205.052C248.3 194.615 232.657 207.787 217.53 220.529C206.721 229.636 195.543 239.049 184.401 239.855C183.952 239.877 183.506 239.894 183.058 239.894Z" fill="white" fill-opacity="0.52"/>
<path d="M184.546 219.45C184.452 219.45 184.36 219.45 184.264 219.45C167.802 219.204 152.165 200.359 137.041 182.13C124.079 166.507 110.675 150.353 96.8147 145.991C81.4531 141.152 65.8537 152.02 50.7663 162.53L50.7068 162.57C49.5458 163.381 48.383 164.192 47.222 165.008C32.0288 175.653 16.3188 186.661 0.448519 186.851L0.446868 184.614C16.2494 184.423 31.9264 173.438 47.0882 162.816C48.2509 161.999 49.412 161.188 50.5747 160.377L50.6342 160.338C65.7678 149.794 81.4184 138.892 96.8774 143.759C110.82 148.15 124.263 164.348 137.264 180.016C152.335 198.178 167.92 216.966 184.269 217.207C184.361 217.207 184.455 217.207 184.548 217.207C195.602 217.207 206.815 207.519 217.661 198.144C232.98 184.904 248.822 171.217 264.528 184.474C267.645 187.103 270.588 191.527 273.436 195.812C276.777 200.835 280.232 206.031 283.936 208.229C289.978 211.809 296.611 209.124 303.652 200.259C311.104 190.878 318.019 176.744 324.706 163.079C330.621 150.991 336.737 138.495 343.224 129.26C352.315 116.323 360.455 113.006 368.114 119.119C377.576 126.671 386.163 143.927 394.465 160.618C395.015 161.725 395.565 162.827 396.112 163.923C397.157 166.015 398.204 168.135 399.255 170.261C407.579 187.103 416.187 204.515 425.585 213.135C436.753 223.382 446.616 213.895 454.899 184.949L455.373 186.504C449.113 208.386 441.967 219.377 434.049 219.377C431.263 219.377 428.382 218.018 425.411 215.294C415.924 206.59 407.278 189.1 398.915 172.179C397.864 170.054 396.819 167.939 395.773 165.847C395.225 164.751 394.677 163.644 394.125 162.536C385.864 145.935 377.322 128.768 367.959 121.295C360.44 115.293 352.433 118.571 343.477 131.319C337.034 140.487 330.939 152.943 325.045 164.986C318.331 178.707 311.389 192.892 303.88 202.351C296.728 211.356 289.978 214.074 283.821 210.428C280.037 208.185 276.544 202.932 273.166 197.853C270.345 193.613 267.429 189.223 264.368 186.644C248.822 173.527 233.062 187.147 217.823 200.314C206.937 209.723 195.681 219.444 184.546 219.45Z" fill="white" fill-opacity="0.52"/>
<path d="M186.825 203.201C169.807 203.201 153.418 184.39 137.561 166.189C124.894 151.651 111.795 136.616 98.4729 131.296C83.1344 125.166 67.5829 136.263 52.5434 146.992L50.2031 148.659C34.0488 160.181 17.3461 172.101 0.436957 170.065L0.460082 167.828C17.2866 169.847 33.9513 157.961 50.066 146.466L52.4063 144.799C67.4987 134.032 83.1047 122.901 98.5489 129.07C111.94 134.423 125.072 149.492 137.773 164.069C153.77 182.427 170.316 201.405 187.44 200.952C198.169 200.661 209.005 191.499 219.484 182.633C234.137 170.238 249.291 157.424 264.457 168.538C267.508 170.775 270.418 174.691 273.231 178.483C276.392 182.74 279.662 187.147 283.104 189.088C289.45 192.668 296.469 189.849 303.964 180.704C311.242 171.821 318.092 158.749 324.716 146.108C330.482 135.1 336.446 123.723 342.687 115.103C352.25 101.897 360.264 98.4067 367.907 104.118C377.457 111.255 386.222 127.733 394.698 143.675C395.213 144.643 395.727 145.61 396.241 146.572C397.233 148.435 398.228 150.314 399.223 152.199C407.737 168.309 416.544 184.96 426.062 192.937C436.931 202.043 446.638 193.692 454.911 168.118L455.356 169.768C446.91 195.879 437.001 204.403 425.903 195.107C416.298 187.064 407.455 170.333 398.901 154.151C397.905 152.266 396.911 150.387 395.92 148.53C395.407 147.568 394.893 146.6 394.376 145.633C385.941 129.769 377.219 113.369 367.764 106.305C360.257 100.694 352.367 104.151 342.935 117.173C336.732 125.737 330.788 137.086 325.038 148.055C318.391 160.741 311.517 173.863 304.187 182.807C296.583 192.081 289.453 194.939 282.993 191.292C279.482 189.312 276.179 184.86 272.985 180.558C270.197 176.805 267.313 172.918 264.315 170.725C249.299 159.723 234.223 172.47 219.643 184.804C209.125 193.697 198.251 202.893 187.443 203.184C187.238 203.201 187.032 203.201 186.825 203.201Z" fill="white" fill-opacity="0.52"/>
<path d="M189.729 186.292C175.515 186.292 161.336 172.135 147.62 158.436L145.965 156.786C143.707 154.537 141.41 152.205 139.188 149.945C125.714 136.263 111.782 122.112 97.5959 117.055C82.9726 111.842 68.2006 122.414 53.9126 132.633L52.0611 133.959C36.2239 145.258 18.2726 158.067 0.423746 153.284L0.476596 151.053C18.2297 155.813 35.3601 143.591 51.9257 131.772L53.7772 130.446C68.1147 120.188 82.9395 109.577 97.6669 114.829C111.915 119.908 125.878 134.088 139.381 147.803C141.603 150.057 143.899 152.389 146.155 154.638L147.81 156.288C161.556 170.015 175.773 184.233 189.963 184.049C200.606 183.931 211.299 175.071 221.64 166.502C235.711 154.845 250.26 142.785 264.927 152.518C267.85 154.459 270.667 157.826 273.394 161.082C276.63 164.947 279.976 168.946 283.474 170.496C289.417 173.13 295.967 170.703 302.94 163.291C310.587 155.158 317.834 142.584 324.843 130.424C330.959 119.813 337.283 108.839 343.867 100.812C352.916 89.7816 360.426 86.7779 367.503 91.3589C377.168 97.618 386.146 113.073 394.83 128.019L395.876 129.82C396.578 131.028 397.283 132.247 397.995 133.472C416.225 164.941 436.887 200.611 454.93 151.293L455.345 153.033C447.143 175.451 437.673 182.578 426.394 174.814C416.569 168.051 406.973 151.483 397.692 135.464C396.982 134.239 396.277 133.019 395.575 131.811L394.53 130.01C385.888 115.137 376.951 99.7548 367.377 93.5516C360.422 89.0488 353.021 92.0246 344.09 102.909C337.544 110.886 331.24 121.827 325.144 132.404C318.11 144.609 310.838 157.228 303.136 165.417C296.071 172.929 289.426 175.384 283.388 172.705C279.821 171.128 276.442 167.089 273.175 163.179C270.471 159.946 267.675 156.607 264.799 154.7C250.277 145.062 235.797 157.06 221.797 168.661C211.418 177.258 200.687 186.152 189.965 186.269C189.886 186.292 189.807 186.292 189.729 186.292Z" fill="white" fill-opacity="0.52"/>
<path d="M192.37 168.661C178.434 168.661 164.367 156.042 150.751 143.826C149.669 142.853 148.591 141.891 147.519 140.934C145.324 138.976 143.091 136.957 140.931 135.005C127.346 122.71 113.299 109.996 99.1087 104.772C82.7215 98.7423 66.4268 109.996 50.6688 120.881C34.3626 132.147 17.5013 143.792 0.407229 136.504L0.489809 134.283C17.4749 141.527 34.2833 129.915 50.5367 118.689C66.3442 107.77 82.6918 96.477 99.1798 102.546C113.422 107.787 127.493 120.523 141.101 132.84C143.259 134.792 145.492 136.812 147.686 138.769C148.758 139.726 149.836 140.694 150.92 141.661C164.805 154.118 179.164 167.005 193.321 166.401C203.56 165.97 213.814 157.748 223.732 149.8C237.066 139.111 250.852 128.058 264.806 135.738C267.779 137.371 270.666 140.425 273.459 143.378C276.612 146.712 279.872 150.158 283.235 151.522C289.336 153.995 295.807 151.875 303.017 145.045C310.623 137.841 317.936 126.637 325.007 115.802C330.83 106.881 336.852 97.6516 343.024 90.6709C352.917 79.4839 361.109 76.5865 368.806 81.5535C378.051 87.5218 386.788 100.98 395.238 114.001L395.332 114.147C396.229 115.528 397.133 116.927 398.041 118.336C416.177 146.455 436.733 178.332 454.944 134.479L455.327 136.303C448.704 152.25 441.795 158.386 434.817 158.386C422.283 158.386 409.521 138.596 397.767 120.372C396.858 118.963 395.955 117.564 395.06 116.183L394.966 116.037C386.552 103.077 377.852 89.6697 368.684 83.7518C361.103 78.8575 353.017 81.7325 343.236 92.7965C337.097 99.738 331.09 108.939 325.283 117.844C318.189 128.712 310.853 139.955 303.199 147.204C295.902 154.118 289.349 156.255 283.16 153.749C279.738 152.362 276.448 148.882 273.265 145.521C270.496 142.59 267.63 139.564 264.705 137.953C250.88 130.346 237.158 141.342 223.889 151.981C213.937 159.957 203.645 168.208 193.334 168.644C193.011 168.655 192.69 168.661 192.37 168.661Z" fill="white" fill-opacity="0.52"/>
<path d="M194.183 150.381C181.084 150.381 167.728 139.849 154.783 129.641C153.121 128.332 151.471 127.029 149.834 125.764C147.431 123.902 144.989 121.978 142.625 120.115C128.37 108.883 113.628 97.2656 98.8247 92.5951C83.2765 87.6896 67.8241 97.8138 52.8787 107.602C35.854 118.756 18.2512 130.284 0.390712 119.718L0.504673 117.514C18.2446 128.013 35.7879 116.518 52.7532 105.404C67.7448 95.582 83.2451 85.4298 98.8874 90.3633C113.735 95.0506 128.499 106.679 142.776 117.934C145.137 119.796 147.58 121.72 149.981 123.583C151.618 124.853 153.27 126.15 154.931 127.465C168.726 138.339 182.987 149.587 196.857 147.999C206.402 146.902 216.006 139.608 225.293 132.549C238.469 122.537 252.097 112.189 265.827 119.287C268.534 120.686 271.191 123.191 273.759 125.613C276.607 128.298 279.55 131.073 282.547 132.314C289.137 135.05 296.211 133.064 304.174 126.24C311.368 120.076 318.402 110.847 325.205 101.914C331.536 93.6019 338.084 85.0103 344.76 78.8854C353.958 70.4449 361.621 68.3249 368.88 72.2124C378.345 77.2857 387.413 89.5746 396.181 101.461L398.163 104.146C416.202 128.572 436.649 156.26 454.958 117.66L455.307 119.561C449.094 132.661 442.261 139.144 434.589 139.144C431.995 139.144 429.306 138.406 426.511 136.929C416.806 131.8 407.204 118.801 397.919 106.226L395.937 103.542C387.201 91.7001 378.17 79.4616 368.778 74.4218C361.615 70.5847 354.039 72.6879 344.935 81.0445C338.291 87.1414 331.76 95.7107 325.445 104C318.623 112.955 311.569 122.213 304.335 128.405C296.292 135.296 289.139 137.298 282.467 134.529C279.421 133.265 276.453 130.469 273.583 127.761C271.033 125.356 268.395 122.873 265.728 121.491C252.118 114.46 238.555 124.763 225.438 134.725C216.12 141.801 206.486 149.123 196.88 150.225C195.984 150.331 195.082 150.381 194.183 150.381Z" fill="white" fill-opacity="0.52"/>
<path d="M196.502 131.375C183.121 131.375 169.457 122.151 156.216 113.207C154.317 111.926 152.353 110.601 150.441 109.336C148.284 107.91 146.127 106.473 143.968 105.029C129.272 95.2017 114.074 85.0383 98.9006 80.9718C84.1237 77.0116 69.3947 86.0563 55.1513 94.8045C37.3536 105.734 18.9514 117.033 0.374197 102.921L0.519537 100.739C18.968 114.751 37.3041 103.491 55.0357 92.6007C69.3204 83.8301 84.0924 74.7574 98.9551 78.74C114.166 82.8177 129.383 92.9922 144.098 102.831C146.255 104.274 148.412 105.717 150.569 107.138C152.482 108.402 154.447 109.728 156.347 111.009C170.392 120.49 184.915 130.301 199.029 129.02C208.556 128.158 218.094 121.368 227.318 114.807C239.498 106.143 252.094 97.1761 264.846 101.701C267.939 102.798 270.988 105.242 273.936 107.608C276.858 109.952 279.88 112.374 282.926 113.464C289.121 115.674 295.741 114.354 303.164 109.431C310.745 104.409 318.222 96.2868 325.454 88.4391C331.608 81.7549 337.974 74.8469 344.387 69.8576C353.682 62.6252 361.398 60.6283 368.672 63.5705C378.261 67.4523 387.57 78.1527 396.573 88.4951L398.12 90.2738C417.008 111.988 436.54 134.446 454.98 100.84L455.294 102.809C446.927 118.057 437.522 123.152 426.539 118.387C416.869 114.192 407.23 103.111 397.909 92.3937L396.361 90.615C387.391 80.3062 378.114 69.645 368.594 65.7911C361.398 62.8769 353.753 64.8626 344.535 72.039C338.149 77.0116 331.798 83.9028 325.658 90.5702C318.409 98.4403 310.912 106.579 303.293 111.63C295.803 116.591 289.119 117.922 282.858 115.691C279.77 114.589 276.727 112.15 273.784 109.789C270.857 107.44 267.83 105.013 264.778 103.927C252.13 99.4415 239.586 108.363 227.455 116.994C218.203 123.577 208.635 130.385 199.049 131.252C198.2 131.336 197.351 131.375 196.502 131.375Z" fill="white" fill-opacity="0.52"/>
<path d="M199.07 111.686C184.946 111.686 170.602 103.793 156.723 96.1525C155.161 95.2911 153.603 94.4353 152.049 93.5907C149.706 92.3154 147.36 91.0233 145.015 89.7312C130.177 81.5535 114.834 73.0906 99.5877 69.6338C85.4781 66.4287 71.3255 74.5057 57.637 82.3087C38.9524 92.9642 19.6319 103.983 0.360984 86.129L0.536054 83.9699C19.6649 101.696 38.9127 90.7157 57.528 80.0992C71.2528 72.2683 85.4467 64.1746 99.6323 67.3964C114.91 70.8644 130.268 79.3329 145.121 87.5218C147.466 88.8139 149.81 90.106 152.153 91.3813C153.707 92.2259 155.267 93.0817 156.829 93.9431C170.927 101.701 185.504 109.717 199.817 109.443C209.684 109.247 219.559 102.831 229.108 96.628C240.983 88.9146 253.265 80.9327 265.68 84.7866C268.608 85.6927 271.515 87.7008 274.326 89.6417C276.902 91.4204 279.565 93.2551 282.225 94.2284C288.942 96.6895 296.186 95.6995 304.37 91.2079C311.551 87.2645 318.723 81.1061 325.658 75.149C331.769 69.9023 338.088 64.4766 344.4 60.5724C354.164 54.537 362.786 53.0715 370.758 56.0976C379.764 59.5152 388.623 67.8271 397.192 75.865L398.066 76.6872C416.93 94.3962 436.436 112.704 454.996 84.037L455.271 86.0731C436.492 115.075 416.868 96.656 397.891 78.8407L397.017 78.0184C388.473 70.003 379.639 61.719 370.685 58.3182C362.779 55.3201 354.219 56.7744 344.521 62.7706C338.23 66.6581 331.921 72.0782 325.821 77.3137C318.873 83.2819 311.687 89.4515 304.476 93.4117C296.233 97.9369 288.933 98.9269 282.154 96.4434C279.464 95.459 276.785 93.6075 274.194 91.8232C271.399 89.8934 268.511 87.9022 265.619 87.0072C253.296 83.1868 241.062 91.1352 229.232 98.8206C219.653 105.046 209.748 111.479 199.82 111.68C199.571 111.68 199.32 111.686 199.07 111.686Z" fill="white" fill-opacity="0.52"/>
<path d="M198.869 91.2974C185.104 91.2974 171.125 85.1669 157.59 79.2378C155.843 78.4715 154.099 77.7052 152.358 76.9557C150.038 75.9545 147.719 74.942 145.398 73.924C130.466 67.3964 115.025 60.6451 99.7413 57.9322C83.4829 55.0516 68.2832 63.9956 52.19 73.4654L52.1404 73.4933C36.7409 82.5548 18.5435 89.1495 0.34612 69.3318L0.547616 67.2006C18.6096 86.8729 36.7062 80.3118 52.0281 71.2951L52.0777 71.2671C68.2089 61.775 83.4433 52.8086 99.776 55.706C115.086 58.4189 130.539 65.1758 145.484 71.709C147.805 72.7214 150.124 73.7394 152.444 74.7351C154.185 75.4846 155.929 76.2509 157.676 77.0172C171.654 83.1421 186.104 89.4795 200.281 89.0376C210.123 88.73 220.011 83.2707 229.574 77.9905C241.295 71.5188 253.417 64.8234 265.594 67.5251C268.679 68.2075 271.756 69.9415 274.73 71.6195C277.157 72.9843 279.665 74.3995 282.158 75.2273C288.888 77.4703 296.172 76.9613 304.425 73.6835C311.637 70.8196 318.893 66.1603 325.909 61.6519C332.081 57.6861 338.464 53.5861 344.803 50.7166C364.515 41.7894 382.466 51.7067 397.426 62.586L397.995 62.9999C416.844 76.7096 436.338 90.8891 455.023 67.223L455.254 69.3206C447.891 78.6449 440.414 82.1632 432.911 82.1632C421.191 82.1632 409.406 73.5884 397.856 65.187L397.288 64.7731C382.384 53.9329 364.502 44.0548 344.891 52.9372C338.57 55.8011 332.196 59.8955 326.033 63.8501C319.005 68.3641 311.738 73.0291 304.502 75.9041C296.203 79.2043 288.873 79.7077 282.095 77.4535C279.581 76.6145 277.061 75.1993 274.623 73.8233C271.665 72.1565 268.605 70.4337 265.552 69.7569C253.453 67.072 241.368 73.745 229.683 80.1999C220.097 85.4914 210.184 90.9674 200.291 91.275C199.815 91.2918 199.34 91.2974 198.869 91.2974Z" fill="white" fill-opacity="0.52"/>
<path d="M195.706 70.2715C183.104 70.2715 170.313 65.9421 157.903 61.747C155.404 60.9024 152.821 60.0298 150.292 59.2075C148.51 58.6314 146.729 58.0497 144.947 57.4624C130.299 52.6744 115.151 47.7185 100.2 45.7384C83.4185 43.5178 67.6853 52.445 52.4724 61.0758C42.3332 66.8315 33.9893 69.2087 26.2135 68.5655C16.8473 67.788 8.38282 62.5469 0.334558 52.5401L0.56248 50.4426C18.9713 73.3255 37.0778 67.5474 52.3634 58.8719C67.6094 50.2188 83.3739 41.2748 100.225 43.5066C115.195 45.4867 130.352 50.4426 145.01 55.2362C146.792 55.8179 148.573 56.3996 150.355 56.9813C152.885 57.8036 155.468 58.6762 157.967 59.5208C171.69 64.1634 185.882 68.9626 199.743 67.883C209.352 67.1335 219.055 62.9999 228.438 59.0006C240.296 53.9497 252.558 48.7309 264.773 50.258C268.297 50.6999 271.829 52.2045 275.244 53.6644C277.837 54.7719 280.519 55.9186 283.173 56.5842C289.474 58.1672 296.257 58.0105 303.911 56.1032C311.378 54.2461 318.929 50.9068 326.232 47.6738C332.893 44.726 339.782 41.6832 346.595 39.7646C361.777 35.4912 377.444 38.2208 397.395 48.6247L397.91 48.8932C416.745 58.7209 436.223 68.8787 455.044 50.4146L455.228 52.5625C436.266 71.1664 416.716 60.9695 397.81 51.1026L397.294 50.8341C377.397 40.4582 361.777 37.7286 346.65 41.9908C339.852 43.9038 332.971 46.9466 326.318 49.8888C319.007 53.1218 311.447 56.4667 303.961 58.3294C296.274 60.2423 289.459 60.399 283.126 58.8104C280.453 58.1392 277.763 56.9925 275.161 55.8794C271.761 54.4307 268.245 52.9261 264.748 52.4898C252.587 50.9683 240.352 56.1759 228.52 61.2156C219.119 65.2206 209.4 69.3597 199.758 70.1093C198.41 70.2211 197.059 70.2715 195.706 70.2715Z" fill="white" fill-opacity="0.52"/>
<path d="M30.6795 54.9229C19.3974 54.9229 9.60006 48.6079 0.322998 35.7429L0.57404 33.6733C15.2535 54.028 31.2658 57.8427 52.4922 46.0517C67.6606 37.6279 83.3442 28.9188 100.055 30.334C113.578 31.4806 127.335 34.8423 140.637 38.0865C159.027 42.5781 178.044 47.2207 196.738 46.0908C206.777 45.4867 216.952 42.5278 226.793 39.6639C239.054 36.1064 251.735 32.4147 264.287 33.2426C269.492 33.5838 274.735 34.6801 279.806 35.7373C287.676 37.3818 295.815 39.0766 303.924 37.9747C311.427 36.9511 319.043 34.9318 326.406 32.9797C333.118 31.201 340.058 29.3607 346.899 28.2756C362.137 25.8648 378.702 27.6994 397.547 33.897L397.752 33.9641C416.6 40.1561 436.091 46.5607 455.069 33.6117L455.2 35.8044C436.125 48.826 416.585 42.4047 397.687 36.1903L397.483 36.1232C378.673 29.9424 362.137 28.1078 346.932 30.513C340.099 31.5925 333.166 33.4328 326.459 35.2115C319.089 37.1636 311.469 39.1829 303.952 40.2121C295.808 41.3196 287.653 39.6192 279.766 37.9747C274.702 36.9175 269.467 35.8268 264.276 35.4856C251.76 34.6633 239.095 38.3438 226.849 41.9069C216.999 44.7708 206.812 47.7353 196.75 48.3394C178.024 49.4637 158.993 44.8155 140.587 40.3239C127.293 37.0797 113.545 33.7236 100.037 32.577C83.3904 31.1618 67.7365 39.8541 52.5979 48.2611C44.6322 52.6855 37.3933 54.9229 30.6795 54.9229Z" fill="white" fill-opacity="0.52"/>
<path d="M32.2155 40.9504C30.1394 40.9504 28.1162 40.7267 26.1392 40.2736C16.8407 38.1648 9.59191 33.4336 1.51227 21.195L2.11744 18.9512C17.01 41.5098 31.5185 44.2841 52.6045 32.521C55.3693 30.9772 58.177 29.2712 60.8906 27.6211C65.203 24.9978 69.6623 22.2849 74.0787 20.1594C82.9247 15.9028 91.6055 15.6175 99.6703 15.9531C112.579 16.4845 125.705 18.1458 138.397 19.7511C155.79 21.9549 173.776 24.2315 191.462 23.6274C202.247 23.2638 213.205 21.6361 223.802 20.0643C236.82 18.1346 250.282 16.1377 263.544 16.4565C269.3 16.5964 275.137 17.2899 280.782 17.9556C288.355 18.8561 296.185 19.7846 303.908 19.3819C311.449 18.9904 319.112 18.0898 326.525 17.2172C333.273 16.423 340.25 15.6007 347.117 15.17C363.004 14.1688 379.528 15.047 397.633 17.8549C416.463 20.7803 432.182 20.5387 451.346 13.5413L454.911 21.6193C435.696 28.6335 416.458 23.0177 397.602 20.0923C379.51 17.2844 363 16.4062 347.127 17.4074C340.266 17.8381 333.291 18.6604 326.546 19.4546C319.131 20.3272 311.464 21.2278 303.916 21.6193C296.178 22.0164 288.338 21.0879 280.757 20.193C275.117 19.5217 269.283 18.8337 263.538 18.6939C250.293 18.3751 236.838 20.372 223.828 22.3017C213.226 23.8735 202.263 25.5012 191.466 25.8648C173.765 26.4633 155.772 24.1867 138.371 21.9829C125.681 20.3776 112.561 18.7163 99.6604 18.1849C91.622 17.8549 82.9709 18.1346 74.1695 22.3688C69.7663 24.4888 65.312 27.196 61.0062 29.8194C58.2893 31.4694 55.4816 33.181 52.7102 34.7248C45.2532 38.892 38.4916 40.9504 32.2155 40.9504Z" fill="white" fill-opacity="0.52"/>
<path d="M33.0875 26.4409C30.701 26.4409 28.3771 26.1277 26.1062 25.5068C16.844 22.9617 13.2373 24.6477 5.1378 11.4806L6.74866 9.12562C21.6313 33.3231 32.0288 30.0319 52.697 18.0786C55.6782 16.3558 58.7023 14.4205 61.6256 12.5467C65.7117 9.92892 69.9365 7.22167 74.12 5.0458C82.6538 0.610163 91.1414 0.0116595 99.0344 0.0340335C111.038 0.0620009 123.242 0.162683 135.044 0.252179C150.944 0.380829 167.386 0.509478 183.557 0.475917C214.716 0.408796 246.397 0.308114 277.034 0.213025C300.429 0.14031 323.823 0.0675927 347.218 0.00606434C360.477 -0.0274966 373.957 0.0843742 386.993 0.19065C409.326 0.375236 416.15 0.835158 438.862 0.298184C416.147 0.835158 409.326 2.61263 386.992 2.42805C373.955 2.32177 360.475 2.2099 347.218 2.24346C323.823 2.30499 300.428 2.37771 277.034 2.45042C246.397 2.54551 214.716 2.64619 183.557 2.71331C167.386 2.75247 150.943 2.61823 135.043 2.48957C123.24 2.39449 111.037 2.29939 99.0328 2.27143C91.1629 2.24346 82.7083 2.84196 74.2191 7.26082C70.0471 9.43109 65.8273 12.1327 61.7462 14.7449C58.8195 16.6187 55.7938 18.5597 52.806 20.2825C45.6959 24.3993 39.1819 26.4409 33.0875 26.4409Z" fill="white" fill-opacity="0.52"/>
</g>
</svg>
