<svg width="1370" height="1080" viewBox="0 0 1370 1080" fill="none" xmlns="http://www.w3.org/2000/svg">
<circle cx="483" cy="540" r="887" fill="url(#paint0_linear_2422_20)"/>
<g style="mix-blend-mode:soft-light">
<path d="M1197.86 1080C1165.83 1080 1133.54 1079.96 1101.58 1079.79C878.477 1078.68 651.631 1079.15 432.255 1079.62C373.275 1079.74 354.98 1079.53 294.993 1079.62L285.099 1077.06C345.081 1076.96 373.275 1077.18 432.251 1077.06C552.008 1076.81 674.026 1076.54 796.412 1076.54C898.218 1076.54 1000.27 1076.72 1101.58 1077.23C1154.36 1077.49 1208.01 1077.44 1259.91 1077.4C1295.8 1077.36 1299.36 1077.33 1335.86 1077.4L1322.51 1079.96C1286.01 1079.89 1295.8 1079.92 1259.91 1079.96C1239.45 1079.98 1218.71 1080 1197.86 1080Z" fill="white" fill-opacity="0.52"/>
<path d="M1178.29 1061.66C1150.88 1061.66 1123.34 1061.02 1096.02 1059.09C1074.12 1057.53 1051.77 1055.18 1030.15 1052.91C981.123 1047.75 930.425 1042.42 880.807 1045.86C857 1047.52 832.771 1050.12 809.345 1052.63C773.012 1056.53 735.445 1060.56 698.478 1061.17C653.137 1061.93 607.028 1058.56 562.433 1055.32C530.417 1052.98 497.31 1050.57 464.77 1049.7C422.578 1048.57 379.675 1051.96 338.18 1055.25C309.094 1057.55 286.067 1060.37 256.482 1061.17L253.019 1058.61C282.58 1057.8 309.025 1054.98 338.099 1052.69C379.618 1049.4 422.553 1046.01 464.799 1047.13C497.363 1048.01 530.478 1050.42 562.506 1052.75C607.073 1056 653.161 1059.36 698.458 1058.61C735.38 1057.99 772.927 1053.96 809.232 1050.07C832.669 1047.56 856.906 1044.96 880.734 1043.3C930.441 1039.85 981.188 1045.18 1030.26 1050.34C1051.87 1052.61 1074.21 1054.96 1096.1 1056.52C1149.42 1060.31 1203.63 1059.11 1256.06 1057.95C1292.27 1057.14 1329.7 1056.32 1366.54 1057.14L1363.07 1061.66C1326.26 1060.84 1292.27 1059.71 1256.08 1060.51C1230.48 1061.08 1204.44 1061.66 1178.29 1061.66Z" fill="white" fill-opacity="0.52"/>
<path d="M1169.27 1044.36C1145.68 1044.36 1122.03 1043.32 1098.52 1040.41C1073.29 1037.28 1047.71 1033.18 1022.96 1029.21C1009.89 1027.11 996.376 1024.95 983.078 1022.94C979.796 1022.45 976.513 1021.95 973.222 1021.44C942.16 1016.69 910.042 1011.77 878.554 1015.74C854.735 1018.75 830.558 1023.43 807.178 1027.96C774.788 1034.23 741.295 1040.71 708.18 1042.87C676.659 1044.92 644.193 1040.74 612.794 1036.69C604.459 1035.62 595.844 1034.51 587.441 1033.54C582.044 1032.92 576.647 1032.29 571.25 1031.67C533.894 1027.33 495.264 1022.84 457.194 1020.94C417.464 1018.95 377.195 1025.2 338.248 1031.24C310.116 1035.6 281.025 1040.11 252.337 1041.5L252.288 1038.93C280.92 1037.55 309.986 1033.04 338.09 1028.68C377.085 1022.64 417.407 1016.38 457.243 1018.37C495.349 1020.28 533.996 1024.77 571.368 1029.11C576.765 1029.74 582.161 1030.37 587.558 1030.99C595.97 1031.95 604.589 1033.06 612.923 1034.13C644.274 1038.17 676.691 1042.36 708.111 1040.3C741.162 1038.15 774.622 1031.67 806.979 1025.41C830.376 1020.88 854.568 1016.19 878.424 1013.18C910.054 1009.18 942.249 1014.11 973.38 1018.88C976.667 1019.39 979.95 1019.89 983.233 1020.39C996.538 1022.39 1010.05 1024.55 1023.13 1026.65C1047.86 1030.62 1073.45 1034.72 1098.65 1037.84C1152.12 1044.46 1206.41 1041.39 1258.91 1038.42C1295.11 1036.37 1332.54 1034.26 1369.43 1035.31L1369.4 1037.88C1332.55 1036.82 1295.15 1038.93 1258.97 1040.98C1229.48 1042.66 1199.43 1044.36 1169.27 1044.36Z" fill="white" fill-opacity="0.52"/>
<path d="M1160.7 1028.06C1139.79 1028.06 1118.83 1026.72 1097.94 1023.19C1072.26 1018.85 1046.27 1013.06 1021.13 1007.46C1007.86 1004.5 994.144 1001.45 980.636 998.639C977.122 997.908 973.595 997.158 970.065 996.408C939.1 989.821 907.08 983.011 875.892 988.5C853.099 992.515 830.031 998.954 807.721 1005.19C777.203 1013.71 745.645 1022.52 714.246 1025.28C696.834 1026.8 678.85 1024.38 661.459 1022.03C657.51 1021.49 653.424 1020.94 649.448 1020.45C628.375 1017.85 607.766 1014.6 588.634 1011.47C583.091 1010.57 577.544 1009.65 572.001 1008.73C533.091 1002.3 492.858 995.657 453.116 992.861C414.198 990.129 374.995 998.992 337.084 1007.57C309.377 1013.84 280.725 1020.32 252.345 1022.25L252.276 1019.69C280.575 1017.76 309.186 1011.29 336.856 1005.03C374.841 996.44 414.121 987.558 453.189 990.303C492.979 993.099 533.237 999.755 572.171 1006.19C577.714 1007.1 583.257 1008.02 588.8 1008.93C607.924 1012.05 628.522 1015.3 649.573 1017.9C653.558 1018.39 657.644 1018.94 661.597 1019.47C678.935 1021.82 696.863 1024.24 714.157 1022.72C745.459 1019.97 776.967 1011.17 807.441 1002.66C829.775 996.427 852.868 989.975 875.718 985.955C907.105 980.427 939.226 987.263 970.288 993.868C973.818 994.618 977.341 995.369 980.855 996.1C994.371 998.909 1008.09 1001.97 1021.36 1004.92C1046.49 1010.52 1072.47 1016.3 1098.12 1020.64C1151.98 1029.74 1206.44 1024.2 1259.1 1018.85C1295.19 1015.17 1332.51 1011.38 1369.43 1012.29L1369.41 1014.86C1332.55 1013.94 1295.27 1017.74 1259.21 1021.41C1226.87 1024.7 1193.85 1028.06 1160.7 1028.06Z" fill="white" fill-opacity="0.52"/>
<path d="M1160.94 1013.44C1138.84 1013.44 1118.17 1011.34 1098.11 1007.16C1072.34 1001.77 1046.32 994.484 1021.17 987.436C1007.89 983.716 994.152 979.869 980.619 976.348C977.316 975.489 973.993 974.604 970.662 973.719C939.64 965.472 907.567 956.949 876.533 963.631C854.422 968.39 832.137 976.31 810.582 983.967C781.435 994.317 751.298 1005.03 721.071 1008.13C703.152 1009.96 684.507 1006.78 666.474 1003.69C662.716 1003.05 658.829 1002.38 655.055 1001.79C633.602 998.383 612.676 994.112 593.255 990.008C587.676 988.828 582.096 987.635 576.517 986.442C536.946 977.977 496.023 969.223 455.477 965.6C416.097 962.079 376.708 973.366 338.617 984.274C310.456 992.342 281.338 1000.68 252.349 1003.03L252.268 1000.47C281.151 998.133 310.217 989.809 338.329 981.754C376.513 970.82 416.003 959.514 455.571 963.048C496.181 966.677 537.132 975.437 576.736 983.909C582.316 985.102 587.891 986.294 593.47 987.474C612.875 991.579 633.789 995.843 655.218 999.249C658.996 999.851 662.887 1000.51 666.648 1001.16C684.612 1004.23 703.193 1007.41 720.97 1005.59C751.071 1002.5 781.143 991.816 810.229 981.485C831.816 973.815 854.134 965.889 876.318 961.117C907.595 954.384 939.794 962.945 970.933 971.218C974.265 972.103 977.58 972.981 980.883 973.841C994.424 977.361 1008.16 981.215 1021.45 984.935C1046.59 991.976 1072.59 999.255 1098.33 1004.64C1137.82 1012.89 1179.74 1012.98 1230.26 1004.93C1238.91 1003.55 1247.69 1002.07 1256.19 1000.63C1293.19 994.381 1331.46 987.923 1369.42 988.404L1369.41 990.969C1331.54 990.469 1293.32 996.933 1256.36 1003.18C1247.86 1004.62 1239.07 1006.1 1230.42 1007.48C1205.41 1011.45 1182.49 1013.44 1160.94 1013.44Z" fill="white" fill-opacity="0.52"/>
<path d="M1156.32 1000.23C1135.72 1000.23 1115.91 996.138 1098.85 991.963C1073.25 985.698 1047.5 977.092 1022.59 968.768C1009.45 964.375 995.852 959.828 982.449 955.685C979.731 954.845 977 953.986 974.257 953.127C943.036 943.341 910.752 933.215 879.613 940.743C857.819 946.015 835.955 955.153 814.814 963.99C786.528 975.816 757.279 988.039 727.69 991.245C709.34 993.233 690.163 989.302 671.619 985.499C668.328 984.826 664.928 984.127 661.629 983.485C640.155 979.311 618.45 973.834 600.044 969.031C594.534 967.594 589.019 966.139 583.509 964.683C544.055 954.268 503.262 943.495 462.672 939.134C421.96 934.76 381.435 948.246 342.249 961.297C312.94 971.057 282.628 981.145 252.349 983.761L252.26 981.203C282.417 978.592 312.664 968.524 341.912 958.789C381.212 945.707 421.847 932.176 462.781 936.575C503.449 940.949 544.282 951.729 583.772 962.156C589.283 963.612 594.793 965.068 600.304 966.504C618.69 971.301 640.378 976.771 661.82 980.94C665.123 981.581 668.527 982.28 671.818 982.953C690.285 986.737 709.381 990.649 727.572 988.68C757.007 985.493 786.183 973.295 814.392 961.502C835.574 952.646 857.478 943.488 879.361 938.198C910.781 930.598 943.207 940.763 974.565 950.6C977.308 951.459 980.039 952.312 982.754 953.152C996.169 957.302 1009.77 961.842 1022.92 966.241C1047.8 974.559 1073.53 983.158 1099.09 989.411C1118.74 994.221 1142.05 998.921 1165.96 997.337C1189.41 995.779 1212.73 991.143 1230.42 987.269C1239.09 985.371 1247.9 983.338 1256.41 981.376C1293.26 972.866 1331.36 964.067 1369.41 963.939L1369.41 966.504C1331.48 966.632 1293.44 975.418 1256.65 983.915C1248.13 985.884 1239.32 987.917 1230.65 989.815C1212.92 993.695 1189.54 998.344 1166.03 999.903C1162.79 1000.13 1159.54 1000.23 1156.32 1000.23Z" fill="white" fill-opacity="0.52"/>
<path d="M1154.24 986.019C1134.64 986.019 1116.04 981.703 1099.97 977.259C1074.72 970.275 1049.44 960.508 1024.98 951.062C1012.08 946.079 998.745 940.929 985.582 936.254C983.829 935.632 982.072 935.004 980.307 934.375C948.672 923.069 915.959 911.379 884.304 919.459C862.432 925.045 840.602 935.183 819.493 944.995C791.543 957.988 762.635 971.417 733.151 974.514C714.336 976.496 694.68 971.82 675.669 967.306C673.117 966.696 670.58 966.094 668.065 965.517C646.997 960.643 625.75 954.217 607.742 948.574C602.381 946.893 597.021 945.194 591.661 943.495C553.022 931.246 513.074 918.574 473.109 913.591C430.141 908.23 387.303 923.807 345.877 938.877C315.366 949.972 283.817 961.444 252.357 964.542L252.256 961.983C283.586 958.898 315.066 947.451 345.512 936.383C387.059 921.274 430.019 905.652 473.234 911.039C513.293 916.034 553.294 928.719 591.977 940.987C597.338 942.687 602.694 944.386 608.054 946.066C626.038 951.703 647.26 958.122 668.296 962.983C670.812 963.567 673.348 964.17 675.904 964.773C694.83 969.268 714.396 973.917 733.038 971.962C762.343 968.883 791.161 955.487 819.03 942.539C840.188 932.708 862.067 922.537 884.04 916.932C916.003 908.775 948.871 920.517 980.66 931.881C982.425 932.509 984.182 933.138 985.935 933.76C999.115 938.441 1012.46 943.597 1025.36 948.58C1049.79 958.013 1075.06 967.768 1100.24 974.738C1119.5 980.067 1142.4 985.204 1166.26 982.889C1189.68 980.619 1212.95 974.655 1230.61 969.711C1239.31 967.274 1248.14 964.67 1256.68 962.15C1293.34 951.338 1331.25 940.153 1369.4 939.333L1369.42 941.898C1331.41 942.712 1293.57 953.877 1256.98 964.67C1248.43 967.19 1239.6 969.8 1230.89 972.231C1213.19 977.188 1189.85 983.165 1166.36 985.442C1162.29 985.839 1158.25 986.019 1154.24 986.019Z" fill="white" fill-opacity="0.52"/>
<path d="M1152.87 971.692C1133.67 971.692 1115.61 967.056 1101.3 962.688C1076.53 955.128 1051.83 944.367 1027.95 933.959C1015.35 928.469 1002.32 922.794 989.449 917.657L988.532 917.291C956.09 904.35 922.544 890.966 889.741 899.354C867.379 905.075 845.162 916.041 823.681 926.648C795.52 940.551 766.397 954.929 736.491 957.744C716.993 959.585 696.741 954.082 677.154 948.766C675.843 948.413 674.541 948.054 673.242 947.708C652.872 942.212 632.409 934.92 615.078 928.508C609.941 926.609 604.808 924.686 599.671 922.762C562.445 908.826 523.953 894.41 485.176 888.953C447.662 883.669 410.379 897.129 374.326 910.141L372.95 910.641C367.407 912.642 361.763 914.72 356.309 916.733C322.528 929.175 287.599 942.045 252.357 945.297L252.264 942.738C287.368 939.506 322.228 926.661 355.94 914.239C361.398 912.232 367.042 910.147 372.589 908.147L373.965 907.653C410.14 894.596 447.549 881.091 485.322 886.407C524.212 891.883 562.765 906.319 600.048 920.273C605.181 922.197 610.314 924.121 615.451 926.019C632.758 932.426 653.193 939.711 673.518 945.188C674.817 945.54 676.123 945.893 677.434 946.246C696.928 951.536 717.087 957.013 736.398 955.192C766.109 952.396 795.134 938.063 823.202 924.211C844.74 913.578 867.01 902.58 889.49 896.834C922.626 888.363 956.338 901.811 988.938 914.816L989.855 915.182C1002.75 920.325 1015.78 926 1028.38 931.496C1052.24 941.891 1076.91 952.639 1101.61 960.181C1119.22 965.555 1142.51 971.333 1166.56 968.3C1189.94 965.343 1213.17 958.09 1230.8 952.101C1239.53 949.132 1248.4 945.957 1256.97 942.892C1293.42 929.835 1331.11 916.336 1369.4 914.874L1369.44 917.439C1331.32 918.895 1293.71 932.368 1257.33 945.393C1248.75 948.465 1239.89 951.639 1231.14 954.608C1213.47 960.617 1190.17 967.889 1166.68 970.859C1162.04 971.436 1157.42 971.692 1152.87 971.692Z" fill="white" fill-opacity="0.52"/>
<path d="M1151.48 957.007C1136.95 957.007 1121.31 954.05 1102.67 947.913C1078.4 939.916 1054.32 928.309 1031.03 917.08C1018.76 911.161 1006.07 905.036 993.503 899.528C959.937 884.791 927.146 872.221 895.089 880.084C871.802 885.798 848.75 897.437 826.456 908.698C797.528 923.313 767.614 938.422 736.751 940.82C700.823 943.61 662.242 926.834 628.197 912.039C625.71 910.955 623.234 909.884 620.783 908.82C615.926 906.723 611.069 904.6 606.212 902.471C570.901 887.029 534.389 871.067 497.273 865.302C459.207 859.396 421.092 873.549 384.231 887.24L380.388 888.664C374.387 890.889 368.276 893.204 362.368 895.449C326.635 908.999 289.681 923.012 252.349 926.051L252.264 923.493C289.449 920.472 326.326 906.486 361.986 892.961C367.898 890.716 374.009 888.401 380.015 886.176L383.858 884.752C420.848 871.016 459.097 856.805 497.431 862.756C534.689 868.54 571.27 884.534 606.646 900.002C611.503 902.125 616.356 904.247 621.214 906.344C623.668 907.403 626.14 908.48 628.631 909.564C662.558 924.314 701.01 941.019 736.678 938.262C767.33 935.882 797.139 920.818 825.969 906.255C848.319 894.962 871.432 883.29 894.846 877.544C927.227 869.605 960.197 882.245 993.941 897.052C1006.52 902.574 1019.23 908.698 1031.51 914.624C1054.76 925.833 1078.8 937.428 1103 945.399C1128.25 953.717 1147.93 956.147 1166.81 953.293C1190.04 949.779 1212.27 941.75 1230.96 934.356C1239.74 930.887 1248.63 927.174 1257.24 923.582C1293.48 908.461 1330.96 892.833 1369.39 890.883L1369.44 893.448C1331.2 895.385 1293.81 910.981 1257.66 926.064C1249.05 929.656 1240.14 933.368 1231.36 936.844C1212.61 944.258 1190.31 952.319 1166.97 955.846C1161.89 956.622 1156.76 957.007 1151.48 957.007Z" fill="white" fill-opacity="0.52"/>
<path d="M1150.71 941.551C1136.44 941.551 1121.2 938.608 1103.89 932.58C1080.06 924.281 1056.56 911.962 1033.83 900.041C1021.85 893.762 1009.47 887.266 997.191 881.443C967.939 867.572 933.857 853.425 899.516 861.204C874.841 866.796 850.478 879.006 826.915 890.812C796.652 905.979 765.358 921.658 733.001 923.55C731.09 923.659 729.175 923.717 727.26 923.717C692.135 923.717 655.839 905.549 623.616 889.421C619.079 887.151 614.543 884.848 610.006 882.553C577.016 865.821 542.902 848.526 507.811 842.671C469.262 836.232 430.344 850.963 392.712 865.206C390.825 865.917 388.942 866.629 387.063 867.341C380.636 869.765 374.095 872.292 367.769 874.735C330.291 889.222 291.539 904.196 252.349 906.813L252.28 904.247C291.308 901.644 329.982 886.695 367.383 872.241C373.713 869.797 380.258 867.264 386.686 864.84C388.565 864.135 390.447 863.423 392.33 862.705C430.096 848.41 469.148 833.635 507.977 840.118C543.235 846.005 577.43 863.339 610.497 880.109C615.033 882.411 619.566 884.707 624.103 886.978C657.957 903.92 696.335 923.134 732.94 920.992C765.078 919.113 796.262 903.484 826.424 888.369C850.048 876.531 874.48 864.289 899.289 858.664C933.951 850.809 968.243 865.032 997.662 878.987C1009.96 884.816 1022.36 891.319 1034.34 897.604C1057.04 909.5 1080.5 921.806 1104.24 930.072C1128.2 938.416 1148.15 940.814 1167.04 937.633C1190.24 933.715 1212.44 924.724 1231.1 916.438C1239.91 912.527 1248.84 908.339 1257.47 904.292C1293.52 887.388 1330.79 869.906 1369.39 867.764L1369.44 870.33C1331.05 872.459 1293.88 889.895 1257.94 906.755C1249.29 910.808 1240.36 914.996 1231.54 918.914C1212.82 927.225 1190.53 936.254 1167.21 940.192C1161.82 941.096 1156.33 941.551 1150.71 941.551Z" fill="white" fill-opacity="0.52"/>
<path d="M1150.12 925.057C1135.94 925.057 1120.97 922.165 1104.8 916.342C1082.24 908.217 1059.58 895.385 1037.67 882.97C994.148 858.318 949.143 832.827 902.158 842.369C875.604 847.763 849.415 860.46 824.09 872.741C791.92 888.337 758.655 904.466 724.253 905.832C722.873 905.889 721.493 905.915 720.122 905.915C680.839 905.915 643.726 883.931 607.786 862.647C577.937 844.967 547.07 826.683 515.159 821.117C476.245 814.332 436.714 829.518 398.482 844.21C396.319 845.043 394.16 845.871 392.01 846.692C385.229 849.282 378.323 852.002 371.644 854.624C332.912 869.855 292.862 885.599 252.333 887.574L252.284 885.009C292.639 883.04 332.604 867.328 371.254 852.136C377.937 849.507 384.844 846.794 391.632 844.197C393.783 843.376 395.938 842.549 398.104 841.715C436.471 826.972 476.144 811.728 515.342 818.565C547.451 824.169 578.416 842.504 608.363 860.242C645.41 882.187 683.724 904.87 724.216 903.266C758.391 901.907 791.551 885.83 823.616 870.285C849.009 857.972 875.263 845.242 901.955 839.823C949.334 830.198 994.521 855.798 1038.22 880.552C1060.09 892.942 1082.7 905.748 1105.16 913.841C1127.86 922.018 1148.15 924.371 1167.2 921.024C1190.39 916.952 1212.57 907.223 1231.2 898.245C1240.04 893.987 1249 889.421 1257.66 884.996C1293.54 866.687 1330.64 847.756 1369.4 845.82L1369.45 848.385C1330.92 850.309 1293.93 869.188 1258.16 887.439C1249.49 891.864 1240.52 896.437 1231.68 900.701C1212.98 909.711 1190.71 919.478 1167.38 923.576C1161.74 924.564 1155.99 925.057 1150.12 925.057Z" fill="white" fill-opacity="0.52"/>
<path d="M1146.89 906.268C1132.6 906.268 1118.82 903.805 1105.21 898.848C1081.92 890.37 1059.06 877.243 1036.95 864.552C994.205 840.016 950.007 814.646 902.186 823.156C873.218 828.312 844.655 841.446 817.034 854.15C782.389 870.086 746.562 886.561 709.576 887.471C708.833 887.491 708.087 887.497 707.348 887.497C670.443 887.497 636.775 865.071 604.187 843.363C576.61 824.997 548.096 806.002 517.756 800.673C478.603 793.798 438.747 809.388 400.202 824.464C398.234 825.234 396.274 825.997 394.323 826.76C387.29 829.499 380.124 832.378 373.19 835.168C333.963 850.931 293.397 867.239 252.329 868.342L252.3 865.776C293.178 864.68 333.651 848.41 372.788 832.686C379.723 829.896 386.893 827.017 393.933 824.272C395.885 823.509 397.845 822.746 399.813 821.976C438.496 806.848 478.493 791.201 517.935 798.12C548.51 803.488 577.134 822.553 604.82 840.997C637.907 863.038 672.122 885.823 709.555 884.906C746.327 884.002 782.044 867.572 816.588 851.687C844.274 838.951 872.906 825.786 902.012 820.604C923.648 816.75 946.368 819.417 971.469 828.748C993.836 837.066 1016.04 849.808 1037.51 862.134C1059.58 874.799 1082.39 887.901 1105.58 896.34C1153.38 913.739 1197.86 896.584 1231.26 879.692C1240.11 875.216 1249.09 870.387 1257.77 865.719C1293.54 846.486 1330.52 826.6 1369.42 825.394L1369.45 827.96C1330.81 829.159 1293.94 848.981 1258.3 868.149C1249.61 872.824 1240.62 877.653 1231.75 882.136C1208.09 894.102 1188.19 901.163 1169.12 904.357C1161.54 905.633 1154.15 906.268 1146.89 906.268Z" fill="white" fill-opacity="0.52"/>
<path d="M1150.87 886.118C1137.05 886.118 1122.56 883.309 1106.44 877.576C1083.79 869.528 1061.15 857.151 1039.27 845.178C994.972 820.957 949.167 795.908 901.03 805.598C871.266 811.587 841.73 825.215 813.171 838.393C776.346 855.387 738.264 872.959 699.2 874.415C662.538 875.755 629.175 851.379 596.903 827.78C571.205 808.99 544.631 789.559 516.547 783.236C480.149 775.053 442.148 789.732 405.4 803.93C401.59 805.399 397.816 806.861 394.079 808.278C387.177 810.895 380.141 813.646 373.34 816.301C334.048 831.64 293.422 847.493 252.329 849.103L252.288 846.538C293.207 844.941 333.744 829.114 372.95 813.813C379.755 811.158 386.791 808.413 393.698 805.79C397.431 804.373 401.205 802.917 405.011 801.442C440.188 787.847 480.064 772.443 516.77 780.696C545.09 787.064 571.774 806.579 597.581 825.452C629.682 848.923 662.871 873.183 699.155 871.849C738.009 870.4 775.981 852.88 812.708 835.931C841.332 822.726 870.925 809.067 900.819 803.052C949.338 793.285 995.325 818.436 1039.8 842.754C1061.64 854.701 1084.23 867.053 1106.79 875.069C1129.75 883.226 1149.34 885.426 1168.45 881.975C1191.94 877.737 1214.81 867.559 1232.12 859.171C1240.68 855.022 1249.35 850.591 1257.73 846.307C1293.55 827.998 1330.58 809.067 1369.38 806.778L1369.44 809.343C1330.87 811.613 1293.94 830.492 1258.23 848.744C1249.84 853.034 1241.17 857.465 1232.6 861.621C1215.22 870.047 1192.25 880.263 1168.63 884.521C1162.79 885.586 1156.89 886.118 1150.87 886.118Z" fill="white" fill-opacity="0.52"/>
<path d="M1154.56 861.159C1141.06 861.159 1126.62 858.549 1109.69 853.162C1087.41 846.076 1064.74 835.161 1042.8 824.605C996.51 802.321 948.636 779.279 900.19 789.617C869.895 796.081 839.721 809.484 810.537 822.444C772.544 839.317 733.261 856.76 693.166 859.177C662.928 860.992 632.421 839.471 605.502 820.476C601.752 817.827 597.938 815.095 594.25 812.459C568.884 794.292 542.655 775.502 514.648 768.358C479.958 759.508 441.405 773.725 407.389 786.275C402.487 788.084 397.857 789.79 393.195 791.457C386.52 793.836 379.723 796.324 373.149 798.729C333.89 813.094 293.292 827.947 252.333 829.877L252.284 827.312C293.081 825.394 333.602 810.568 372.784 796.228C379.358 793.823 386.158 791.335 392.837 788.95C397.492 787.289 402.122 785.583 407.019 783.774C441.182 771.173 479.901 756.898 514.908 765.825C543.13 773.026 569.456 791.887 594.919 810.125C598.604 812.767 602.414 815.493 606.163 818.141C632.92 837.021 663.244 858.421 693.101 856.619C733.001 854.214 772.195 836.809 810.095 819.982C839.331 807.002 869.562 793.573 899.967 787.084C948.77 776.669 996.81 799.794 1043.27 822.156C1065.16 832.692 1087.8 843.594 1110 850.655C1134.25 858.37 1153.33 860.357 1171.88 857.093C1190.18 853.88 1209.51 847.557 1234.56 836.61C1242.61 833.09 1250.76 829.37 1258.64 825.773C1294.28 809.497 1331.14 792.663 1369.38 789.809L1369.45 792.374C1331.41 795.215 1294.64 812.004 1259.09 828.242C1251.2 831.839 1243.05 835.565 1235 839.086C1209.86 850.078 1190.45 856.42 1172.06 859.652C1166.32 860.646 1160.53 861.159 1154.56 861.159Z" fill="white" fill-opacity="0.52"/>
<path d="M685.96 841.048C658.44 841.048 630.092 822.348 604.946 805.758L602.653 804.245C598.924 801.788 595.134 799.255 591.466 796.806C566.117 779.863 539.904 762.343 512.234 755.276C478.286 746.599 440.423 759.45 407.015 770.788C401.777 772.565 396.83 774.245 391.851 775.867C385.436 777.958 378.911 780.132 372.597 782.235C333.468 795.286 293.008 808.772 252.329 810.625L252.28 808.06C292.813 806.22 333.2 792.753 372.26 779.728C378.574 777.624 385.103 775.444 391.523 773.354C396.494 771.737 401.44 770.057 406.674 768.281C440.22 756.898 478.242 743.995 512.493 752.749C540.354 759.867 566.661 777.451 592.099 794.452C595.763 796.902 599.553 799.435 603.278 801.891L605.571 803.404C631.707 820.642 661.329 840.17 689.66 838.38C730.104 835.796 770.073 819.27 808.732 803.289C838.244 791.092 868.759 778.471 899.314 772.122C935.229 764.658 970.41 774.893 1003.36 786.019C1016.2 790.354 1029.2 795.138 1041.76 799.768C1065.58 808.541 1090.21 817.609 1114.75 823.971C1132.72 828.626 1154.18 832.917 1177.11 829.422C1194.98 826.696 1214.4 821.335 1238.23 812.543C1245.62 809.817 1253.1 806.957 1260.34 804.193C1295.59 790.72 1332.05 776.784 1369.38 774.117L1369.45 776.682C1332.27 779.343 1295.9 793.246 1260.72 806.688C1253.48 809.458 1245.99 812.318 1238.6 815.044C1214.69 823.862 1195.2 829.242 1177.26 831.974C1154.01 835.514 1131.5 830.909 1114.48 826.497C1089.89 820.129 1065.23 811.049 1041.38 802.263C1028.82 797.639 1015.83 792.855 1003.01 788.526C970.195 777.445 935.172 767.248 899.516 774.662C869.063 780.991 838.597 793.586 809.133 805.764C770.394 821.778 730.339 838.342 689.717 840.933C688.475 841.01 687.217 841.048 685.96 841.048Z" fill="white" fill-opacity="0.52"/>
<path d="M684.535 820.386C657.51 820.386 629.366 804.001 604.402 789.463L600.787 787.359C597.045 785.185 593.304 782.986 589.559 780.78C563.792 765.62 537.148 749.94 509.45 743.514C475.563 735.658 439.705 746.413 405.027 756.808C400.129 758.277 395.065 759.797 390.176 761.207C384.052 762.971 377.824 764.805 371.798 766.581C332.876 778.048 292.631 789.899 252.329 791.38L252.292 788.815C292.464 787.34 332.644 775.502 371.502 764.055C377.527 762.278 383.756 760.444 389.883 758.681C394.769 757.27 399.833 755.757 404.727 754.288C439.534 743.848 475.531 733.055 509.689 740.975C537.558 747.432 564.283 763.163 590.127 778.375C593.868 780.574 597.605 782.774 601.347 784.948L604.966 787.052C630.993 802.205 660.501 819.385 688.378 817.699C728.858 815.255 769.103 800.358 808.026 785.955C837.647 774.989 868.276 763.657 898.827 757.866C935.923 750.838 974.18 760.06 1004.91 767.473C1018.23 770.686 1031.75 774.226 1044.82 777.657C1069.61 784.153 1095.24 790.874 1120.61 795.613C1139.12 799.076 1161.08 802.263 1183.63 799.685C1201.19 797.684 1219.99 793.766 1242.8 787.372C1249.42 785.512 1256.14 783.576 1262.64 781.697C1297.33 771.68 1333.2 761.323 1369.39 759.361L1369.44 761.926C1333.37 763.882 1297.56 774.226 1262.93 784.223C1256.43 786.102 1249.71 788.039 1243.08 789.899C1220.21 796.312 1201.36 800.237 1183.75 802.244C1161.06 804.835 1139 801.634 1120.42 798.159C1095.01 793.407 1069.36 786.686 1044.55 780.183C1031.49 776.759 1017.98 773.219 1004.67 770.006C965.699 760.611 933.176 753.935 899.017 760.412C868.556 766.184 837.972 777.503 808.395 788.45C769.4 802.885 729.077 817.808 688.439 820.258C687.14 820.347 685.838 820.386 684.535 820.386Z" fill="white" fill-opacity="0.52"/>
<path d="M685.468 797.992C657.32 797.992 629.082 784.211 601.765 770.878C600.186 770.109 598.612 769.339 597.049 768.582C594.091 767.146 591.133 765.697 588.175 764.247C561.325 751.088 533.561 737.486 505.161 732.337C470.787 726.103 434.925 735.261 400.243 744.123C395.556 745.323 390.711 746.56 386 747.721C380.94 748.972 375.876 750.241 370.816 751.511C332.157 761.207 292.184 771.231 252.325 772.161L252.3 769.596C292.046 768.666 331.963 758.655 370.56 748.978C375.624 747.708 380.688 746.439 385.749 745.188C390.456 744.027 395.296 742.79 399.979 741.59C434.771 732.702 470.743 723.512 505.339 729.791C533.894 734.966 561.73 748.612 588.65 761.804C591.608 763.253 594.566 764.703 597.52 766.139C599.086 766.902 600.657 767.665 602.239 768.441C629.613 781.799 657.928 795.606 685.996 795.44C717.411 795.241 749.419 785.371 780.372 775.822C784.056 774.687 787.725 773.552 791.377 772.443C796.088 771.013 800.799 769.564 805.51 768.114C835.217 758.976 865.938 749.53 896.566 744.399C932.295 738.416 968.539 743.54 1003.59 748.497L1005.1 748.709C1019.5 750.742 1034.12 753.012 1048.27 755.199C1073.74 759.149 1100.09 763.227 1126.05 766.107C1165.13 770.442 1204.85 768.973 1247.47 761.618C1253.56 760.566 1259.64 759.489 1265.72 758.411C1299.57 752.415 1334.58 746.208 1369.4 745.246L1369.43 747.811C1334.69 748.773 1299.72 754.968 1265.9 760.957C1259.82 762.035 1253.74 763.112 1247.65 764.164C1204.93 771.532 1165.11 773.007 1125.94 768.659C1099.95 765.78 1073.6 761.695 1048.11 757.745C1033.97 755.551 1019.35 753.288 1004.96 751.255L1003.44 751.043C968.47 746.099 932.307 740.981 896.737 746.939C866.182 752.056 835.497 761.496 805.822 770.622C801.111 772.071 796.396 773.52 791.685 774.957C788.033 776.066 784.365 777.201 780.684 778.336C749.659 787.904 717.574 797.806 686.004 798.005C685.83 797.992 685.647 797.992 685.468 797.992Z" fill="white" fill-opacity="0.52"/>
<path d="M686.836 774.181C652.057 774.181 617.724 760.502 584.507 747.272C557.652 736.575 529.881 725.513 502.085 721.774C466.438 716.984 429.788 724.468 394.347 731.702C390.902 732.407 387.469 733.106 384.044 733.792C379.313 734.741 374.586 735.71 369.854 736.672C331.455 744.502 291.75 752.595 252.312 752.909L252.304 750.344C291.64 750.03 331.293 741.943 369.647 734.126C374.379 733.164 379.11 732.195 383.841 731.246C387.266 730.56 390.699 729.855 394.14 729.156C429.666 721.903 466.405 714.399 502.227 719.216C530.157 722.974 557.989 734.061 584.909 744.784C618.3 758.091 652.832 771.814 687.7 771.616C728.522 771.346 769.672 760.419 809.466 749.856C837.907 742.302 867.318 734.498 896.368 730.643C928.704 726.353 961.726 728.014 993.661 729.624C998.104 729.848 1002.55 730.073 1006.98 730.278C1021.96 730.983 1037.19 731.785 1051.92 732.561C1078.47 733.965 1105.92 735.415 1132.92 736.319C1177.26 737.8 1222.29 735.928 1265.83 734.113C1299.77 732.696 1334.86 731.246 1369.42 731.375L1369.42 733.94C1334.87 733.811 1299.8 735.267 1265.87 736.678C1222.31 738.493 1177.26 740.372 1132.88 738.884C1105.87 737.98 1078.42 736.53 1051.87 735.126C1037.14 734.35 1021.91 733.542 1006.93 732.843C1002.49 732.638 998.047 732.413 993.604 732.189C961.714 730.586 928.741 728.925 896.497 733.202C867.513 737.05 838.138 744.848 809.73 752.39C769.874 762.971 728.659 773.918 687.704 774.187C687.416 774.181 687.124 774.181 686.836 774.181Z" fill="white" fill-opacity="0.52"/>
<path d="M690.395 749.69C690.338 749.69 690.277 749.69 690.22 749.69C654.978 749.671 619.822 739.654 585.822 729.964C557.523 721.903 528.262 713.559 499.123 711.046C454.009 707.146 408.269 714.598 364.039 721.813C327.463 727.777 289.636 733.953 252.308 733.677L252.317 731.112C289.567 731.387 327.341 725.218 363.873 719.26C408.168 712.04 453.972 704.575 499.212 708.487C528.453 711.013 557.766 719.369 586.114 727.443C620.045 737.114 655.128 747.112 690.224 747.131C690.281 747.131 690.342 747.131 690.399 747.131C730.287 747.131 770.597 738.999 809.592 731.131C837.968 725.404 867.31 719.485 896.266 716.74C922.244 714.278 948.737 713.585 974.362 712.918C985.663 712.623 997.35 712.315 1008.82 711.866C1024.39 711.251 1039.94 710.629 1055.51 710C1083.1 708.891 1111.63 707.749 1139.69 706.678C1187.84 704.844 1236.52 708.532 1283.6 712.091C1311.7 714.22 1340.76 716.413 1369.44 717.42L1369.4 719.985C1340.71 718.978 1311.63 716.779 1283.52 714.65C1236.47 711.09 1187.81 707.409 1139.73 709.237C1111.67 710.308 1083.14 711.449 1055.55 712.559C1039.98 713.181 1024.43 713.809 1008.87 714.425C997.382 714.88 985.696 715.182 974.391 715.477C948.786 716.144 922.309 716.836 896.368 719.293C867.464 722.031 838.151 727.944 809.799 733.664C770.751 741.545 730.384 749.69 690.395 749.69Z" fill="white" fill-opacity="0.52"/>
<path d="M692.89 725.122C657.6 725.122 622.122 718.568 587.785 712.226C558.363 706.794 527.937 701.17 497.82 699.714C454.694 697.623 410.98 702.318 368.702 706.852C330.595 710.943 291.19 715.169 252.304 714.432L252.325 711.866C291.145 712.61 330.518 708.378 368.592 704.293C410.907 699.752 454.662 695.052 497.869 697.149C528.055 698.611 558.517 704.235 587.976 709.68C623.218 716.189 659.665 722.903 695.82 722.544C733.314 722.153 771.282 717.016 808.001 712.052C837.493 708.064 867.987 703.94 898.084 702.292C953.712 699.246 1010.1 692.833 1064.62 686.638C1091.68 683.56 1119.66 680.379 1147.22 677.647L1152.1 677.16C1172.17 675.146 1192.92 673.062 1213.4 675.12C1229.25 676.717 1245.67 679.532 1263.62 683.739C1267.05 684.541 1270.47 685.349 1273.88 686.157C1305.01 693.513 1337.2 701.118 1369.45 703.055L1369.39 705.62C1337.04 703.671 1304.81 696.059 1273.64 688.69C1270.23 687.882 1266.81 687.074 1263.38 686.272C1245.48 682.078 1229.1 679.27 1213.3 677.673C1192.92 675.621 1172.22 677.698 1152.2 679.712L1147.32 680.199C1119.76 682.931 1091.79 686.112 1064.73 689.19C1010.19 695.392 953.789 701.805 898.133 704.851C868.081 706.499 837.607 710.616 808.135 714.605C771.384 719.575 733.383 724.711 695.824 725.109C694.846 725.115 693.868 725.122 692.89 725.122Z" fill="white" fill-opacity="0.52"/>
<path d="M697.634 701.106C662.558 701.106 627.057 697.527 592.712 694.064C560.903 690.858 528.006 687.542 495.576 687.08C456.419 686.529 416.64 688.915 378.173 691.217C336.929 693.692 294.286 696.245 252.296 695.193L252.321 692.628C294.266 693.686 336.889 691.127 378.108 688.658C416.596 686.349 456.395 683.964 495.589 684.515C528.067 684.971 560.984 688.293 592.813 691.499C627.438 694.988 663.248 698.604 698.567 698.534C734.681 698.47 771.339 695.584 806.792 692.794C836.694 690.441 867.61 688.004 898.072 687.273C955.279 685.894 1012.95 675.076 1068.73 664.61C1096.2 659.454 1124.61 654.124 1152.62 649.988L1155.77 649.52C1176.6 646.429 1198.14 643.229 1219.39 646.237C1235 648.443 1250.85 652.637 1267.84 659.056C1270.92 660.217 1273.99 661.39 1277.05 662.551C1308.16 674.402 1337.54 685.593 1369.45 687.921L1369.37 690.486C1337.3 688.145 1307.85 676.922 1276.67 665.046C1273.61 663.879 1270.54 662.711 1267.46 661.551C1250.55 655.163 1234.77 650.989 1219.25 648.789C1198.14 645.801 1176.68 648.988 1155.93 652.072L1152.77 652.541C1124.78 656.677 1096.38 662.006 1068.92 667.156C1013.1 677.628 955.384 688.459 898.092 689.838C867.663 690.569 836.755 693 806.869 695.353C771.396 698.143 734.718 701.035 698.567 701.099C698.259 701.099 697.946 701.106 697.634 701.106Z" fill="white" fill-opacity="0.52"/>
<path d="M694.895 678.141C662.416 678.141 629.483 676.775 597.597 675.454C563.147 674.024 527.519 672.549 492.476 672.792C461.901 673.004 430.79 673.799 400.706 674.562C352.053 675.8 301.744 677.076 252.296 675.961L252.321 673.395C301.74 674.511 352.041 673.235 400.681 671.997C430.77 671.234 461.885 670.445 492.472 670.227C527.544 669.984 563.179 671.459 597.642 672.889C630.575 674.255 664.632 675.672 698.137 675.576C731.691 675.48 765.796 674.421 798.778 673.402C830.737 672.414 863.788 671.388 896.303 671.241C954.938 670.971 1013.69 656.882 1070.51 643.261C1098.3 636.598 1127.04 629.711 1155.44 624.51L1156.87 624.247C1178.59 620.264 1201.05 616.154 1223.17 619.636C1238.56 622.06 1254.54 627.395 1270.67 635.495C1274.01 637.169 1277.32 638.855 1280.62 640.523C1310.02 655.458 1337.79 669.56 1369.45 671.702L1369.38 674.268C1337.51 672.106 1309.63 657.953 1280.12 642.966C1276.83 641.292 1273.52 639.612 1270.19 637.938C1254.17 629.896 1238.3 624.599 1223.02 622.188C1201.07 618.732 1178.7 622.829 1157.06 626.793L1155.63 627.056C1127.26 632.25 1098.53 639.138 1070.76 645.801C1013.88 659.441 955.067 673.543 896.315 673.812C863.812 673.96 830.77 674.986 798.815 675.973C765.825 676.993 731.711 678.051 698.145 678.147C697.057 678.141 695.974 678.141 694.895 678.141Z" fill="white" fill-opacity="0.52"/>
<path d="M427.276 657.389C368.974 657.389 310.387 657.228 252.304 656.715L252.312 654.15C361.702 655.112 472.946 654.836 580.526 654.573C619.485 654.477 659.766 654.375 699.383 654.336C726.436 654.31 753.939 654.195 780.542 654.08C818.495 653.919 857.738 653.753 896.335 653.842C896.591 653.842 896.846 653.842 897.102 653.842C955.591 653.842 1013.77 638.137 1070.04 622.938C1098.73 615.192 1128.39 607.182 1157.81 601.321C1194.29 594.048 1233.44 590.515 1272.5 613.717C1278.27 617.148 1284.04 620.983 1289.63 624.689C1297.3 629.781 1305.22 635.04 1313.23 639.311C1330.27 648.398 1348.66 653.201 1369.44 654.009L1369.4 656.574C1348.45 655.76 1329.91 650.912 1312.71 641.741C1304.65 637.445 1296.7 632.16 1289 627.056C1283.43 623.355 1277.67 619.533 1271.92 616.122C1233.2 593.118 1194.29 596.633 1158.02 603.867C1128.63 609.722 1098.98 617.731 1070.31 625.472C1013.98 640.683 955.729 656.408 897.102 656.408C896.842 656.408 896.591 656.408 896.331 656.408C857.737 656.311 818.495 656.484 780.546 656.645C753.944 656.76 726.44 656.876 699.387 656.901C659.771 656.94 619.489 657.042 580.53 657.139C530.064 657.26 478.781 657.389 427.276 657.389Z" fill="white" fill-opacity="0.52"/>
<path d="M557.409 640.536C535.274 640.536 513.082 639.99 491.06 638.432C438.427 634.713 384.961 635.687 333.257 636.63C306.735 637.111 279.309 637.618 252.304 637.477L252.308 634.911C279.301 635.046 306.719 634.552 333.237 634.065C384.965 633.122 438.451 632.147 491.133 635.873C539.368 639.285 588.455 637.836 635.927 636.438C657.161 635.809 679.118 635.162 700.709 634.963C737.887 634.61 775.681 634.886 812.234 635.149C839.944 635.347 868.596 635.559 896.777 635.489C936.398 635.392 974.618 630.345 1013.61 620.046C1030.67 615.544 1047.97 610.491 1064.71 605.604C1094.99 596.767 1126.3 587.623 1157.37 581.37C1180.39 576.733 1198.89 575.156 1215.6 576.413C1236.49 577.978 1255.11 584.006 1272.52 594.831C1278.08 598.294 1283.64 602.141 1289.02 605.867C1296.94 611.35 1305.14 617.026 1313.45 621.534C1330.08 630.544 1347.97 634.931 1368.08 634.931C1368.52 634.931 1368.97 634.931 1369.41 634.924L1369.42 637.489C1368.97 637.496 1368.53 637.496 1368.08 637.496C1347.78 637.496 1329.73 633.064 1312.93 623.958C1304.55 619.418 1296.32 613.723 1288.37 608.214C1283 604.501 1277.45 600.66 1271.92 597.216C1233.05 573.033 1192.3 576.919 1157.58 583.916C1126.55 590.162 1095.26 599.3 1065 608.131C1048.27 613.018 1030.95 618.071 1013.89 622.579C974.796 632.898 936.495 637.964 896.781 638.054C868.596 638.124 839.94 637.913 812.229 637.714C775.681 637.451 737.891 637.175 700.722 637.528C679.142 637.733 657.19 638.381 635.959 639.003C610.124 639.76 583.805 640.536 557.409 640.536Z" fill="white" fill-opacity="0.52"/>
<path d="M562.883 625.805C539.254 625.805 515.585 624.304 492.16 619.918C452.982 612.588 416.486 609.863 380.587 611.594C365.545 612.319 350.263 613.415 335.481 614.48C308.237 616.436 280.06 618.456 252.3 618.238L252.308 615.673C280.035 615.903 308.184 613.877 335.408 611.921C350.194 610.857 365.488 609.76 380.538 609.035C416.519 607.297 453.091 610.029 492.351 617.372C541.657 626.6 592.135 623.028 640.955 619.572C663.613 617.968 687.043 616.307 710.034 615.955C745.568 615.41 781.687 616.333 816.616 617.225C844.619 617.943 873.579 618.68 902.057 618.655C941.377 618.623 979.284 613.274 1017.95 602.308C1033.88 597.793 1050.03 592.734 1065.65 587.841C1095.35 578.535 1126.06 568.923 1156.6 562.593C1179.02 557.944 1197.51 556.539 1214.77 558.155C1235.33 560.086 1253.89 566.377 1271.53 577.4C1276.71 580.639 1281.91 584.179 1286.94 587.603C1295.6 593.497 1304.56 599.595 1313.67 604.322C1330.85 613.236 1349.07 616.949 1369.39 615.685L1369.45 618.251C1348.94 619.533 1330.53 615.775 1313.17 606.765C1303.99 602 1295 595.882 1286.3 589.963C1281.28 586.545 1276.09 583.018 1270.93 579.792C1230.15 554.301 1188.52 558.572 1156.81 565.145C1126.33 571.462 1095.65 581.075 1065.97 590.367C1050.35 595.26 1034.19 600.326 1018.25 604.848C979.483 615.846 941.478 621.201 902.065 621.233C901.651 621.233 901.237 621.233 900.819 621.233C872.727 621.233 844.197 620.502 816.596 619.796C781.678 618.905 745.572 617.981 710.055 618.526C687.096 618.879 663.678 620.54 641.032 622.143C615.309 623.952 589.125 625.805 562.883 625.805Z" fill="white" fill-opacity="0.52"/>
<path d="M569.444 610.581C543.523 610.581 517.618 607.977 492.156 600.185C489.222 599.288 486.304 598.371 483.403 597.46C468.385 592.734 454.203 588.277 438.999 586.802C422.281 585.179 404.548 585.327 381.5 587.295C366.381 588.584 351.03 590.47 336.183 592.298C308.736 595.677 280.36 599.179 252.3 599.005L252.304 596.44C280.287 596.613 308.643 593.112 336.057 589.739C350.912 587.911 366.271 586.019 381.411 584.73C404.524 582.762 422.313 582.608 439.096 584.243C454.406 585.731 468.645 590.207 483.716 594.946C486.617 595.857 489.53 596.774 492.46 597.672C543.872 613.402 597.208 607.894 648.782 602.571C672.65 600.109 697.333 597.563 721.412 597.178C755.964 596.626 791.06 598.454 824.995 600.224C852.316 601.648 880.563 603.116 908.358 603.334C946.802 603.648 983.833 598.088 1021.55 586.353C1036.74 581.627 1052.13 576.317 1067.02 571.18C1095.32 561.419 1124.57 551.332 1153.75 544.791C1175.38 539.949 1194.5 538.5 1212.21 540.372C1232.49 542.514 1251.13 548.953 1269.2 560.047C1274.19 563.112 1279.21 566.421 1284.06 569.628C1293.5 575.855 1303.26 582.3 1313.19 587.154C1330.84 595.793 1349.21 598.832 1369.34 596.434L1369.46 598.993C1349.12 601.41 1330.56 598.345 1312.7 589.611C1302.7 584.718 1292.91 578.253 1283.44 572.001C1278.59 568.801 1273.58 565.498 1268.61 562.445C1234.94 541.777 1199.59 537.114 1153.97 547.337C1124.85 553.859 1095.62 563.94 1067.36 573.694C1052.46 578.83 1037.06 584.147 1021.85 588.873C984.032 600.634 946.891 606.214 908.338 605.899C880.522 605.675 852.26 604.206 824.93 602.783C791.011 601.019 755.936 599.191 721.416 599.743C697.382 600.128 672.723 602.667 648.875 605.13C622.707 607.83 596.071 610.581 569.444 610.581Z" fill="white" fill-opacity="0.52"/>
<path d="M576.967 594.953C548.437 594.953 520.045 591.169 492.407 579.613C488.958 578.17 485.521 576.669 482.194 575.22C468 569.025 454.589 563.17 439.681 561.272C423.202 559.181 405.538 559.547 382.405 562.458C367.217 564.369 351.817 567.108 336.925 569.75C309.28 574.662 280.697 579.735 252.308 579.76V577.195C280.607 577.17 309.142 572.103 336.739 567.204C351.643 564.555 367.058 561.817 382.271 559.906C405.494 556.982 423.238 556.616 439.806 558.72C454.873 560.631 468.353 566.518 482.624 572.751C485.943 574.2 489.38 575.701 492.817 577.137C546.79 599.704 603.838 592.458 659.008 585.442C684.491 582.204 710.846 578.856 736.349 578.561C769.659 578.183 803.44 581.094 836.105 583.909C862.538 586.192 889.871 588.546 916.79 589.142C953.627 589.963 989.36 584.14 1026.04 571.353C1040.33 566.37 1054.79 560.765 1068.78 555.34C1095.36 545.034 1122.85 534.383 1150.36 527.54C1193.73 516.76 1230.53 521.653 1266.18 542.931C1268.28 544.181 1270.37 545.438 1272.44 546.682C1303.98 565.62 1333.78 583.512 1369.32 577.189L1369.5 579.735C1364.46 580.632 1359.52 581.049 1354.69 581.049C1325.11 581.049 1299.14 565.453 1271.86 549.075C1269.79 547.83 1267.71 546.58 1265.61 545.329C1230.23 524.212 1193.69 519.363 1150.61 530.073C1123.17 536.896 1095.71 547.535 1069.16 557.828C1055.16 563.253 1040.69 568.865 1026.38 573.854C989.579 586.68 953.72 592.516 916.762 591.701C889.81 591.105 862.461 588.745 836.012 586.462C803.371 583.647 769.615 580.735 736.357 581.113C710.911 581.402 684.588 584.75 659.133 587.982C632.011 591.451 604.426 594.953 576.967 594.953Z" fill="white" fill-opacity="0.52"/>
<path d="M936.491 578.497C933.192 578.497 929.889 578.433 926.578 578.292C900.628 577.234 874.35 573.873 848.94 570.628C817.752 566.639 785.497 562.542 753.643 562.631C727.726 562.721 701.416 566.197 675.973 569.564C661.568 571.468 646.672 573.437 632.011 574.771C585.513 578.997 536.467 581.216 492.817 558.495C488.735 556.372 484.73 554.134 480.855 551.973C467.529 544.541 454.942 537.518 440.334 535.255C419.521 532.029 398.912 534.652 383.281 537.288C368.028 539.866 352.584 543.482 337.652 546.977C309.836 553.493 281.062 560.233 252.312 560.522L252.3 557.956C280.936 557.668 309.649 550.947 337.416 544.438C352.365 540.936 367.821 537.32 383.111 534.735C398.819 532.08 419.538 529.451 440.496 532.696C455.299 534.985 467.975 542.059 481.399 549.549C485.266 551.704 489.263 553.935 493.328 556.052C536.71 578.638 585.582 576.413 631.922 572.199C646.558 570.872 661.442 568.903 675.839 566.999C701.314 563.632 727.657 560.15 753.639 560.06C785.558 559.976 817.85 564.074 849.07 568.07C874.46 571.314 900.718 574.668 926.618 575.727C961.605 577.15 995.783 571.032 1031.11 557.014C1044.38 551.749 1057.8 545.804 1070.78 540.064C1095.43 529.15 1120.93 517.869 1146.59 510.674C1167.02 504.947 1186.23 503.363 1205.33 505.826C1224.72 508.32 1243.47 514.919 1262.67 525.994C1264.7 527.168 1266.73 528.342 1268.73 529.509C1301.67 548.619 1332.77 566.659 1369.29 557.976L1369.54 560.509C1332.61 569.301 1301.31 551.139 1268.17 531.914C1266.17 530.746 1264.14 529.573 1262.12 528.406C1224.83 506.89 1187.14 501.92 1146.88 513.201C1121.29 520.37 1095.84 531.638 1071.22 542.533C1058.23 548.286 1044.8 554.23 1031.5 559.502C999.379 572.251 968.194 578.497 936.491 578.497Z" fill="white" fill-opacity="0.52"/>
<path d="M949.228 565.626C945.191 565.626 941.149 565.498 937.091 565.248C912.213 563.702 887.1 559.277 862.814 555C833.172 549.78 802.519 544.38 772.106 544.181C744.607 544.015 716.677 548.042 689.664 551.948C674.293 554.173 658.399 556.469 642.768 557.963C619.85 560.156 593.223 562.298 567.225 560.028C538.597 557.527 514.425 550.024 493.328 537.089C488.65 534.222 484.134 531.15 479.767 528.188C467.213 519.652 455.356 511.597 440.991 508.981C420.487 505.249 399.853 508.603 384.166 511.944C368.848 515.201 353.376 519.716 338.41 524.077C310.412 532.241 281.459 540.68 252.321 541.283L252.3 538.718C281.301 538.121 310.185 529.701 338.118 521.557C353.104 517.19 368.596 512.668 383.955 509.404C399.736 506.044 420.499 502.671 441.182 506.435C455.782 509.09 467.744 517.221 480.413 525.834C484.762 528.79 489.263 531.849 493.917 534.703C539.396 562.58 592.342 560.22 642.675 555.41C658.281 553.916 674.163 551.62 689.522 549.402C716.571 545.49 744.542 541.456 772.118 541.623C802.617 541.815 833.314 547.228 863 552.454C887.258 556.725 912.339 561.144 937.165 562.689C970.877 564.786 1002.43 558.534 1036.47 543.001C1048.68 537.435 1061 531.138 1072.91 525.058C1095.52 513.502 1118.9 501.555 1142.64 493.994C1162.46 487.677 1181.7 485.959 1201.45 488.742C1220.24 491.39 1239.04 498.06 1258.92 509.141C1260.93 510.257 1262.93 511.379 1264.92 512.495C1299.31 531.76 1331.79 549.947 1369.27 538.756L1369.57 541.276C1361.5 543.688 1353.67 544.752 1346 544.752C1317.65 544.752 1291.61 530.163 1264.38 514.906C1262.39 513.791 1260.39 512.675 1258.39 511.553C1218.56 489.364 1180.8 484.445 1142.96 496.508C1119.32 504.043 1095.98 515.971 1073.41 527.501C1061.49 533.594 1049.16 539.891 1036.93 545.47C1007.27 558.982 978.461 565.626 949.228 565.626Z" fill="white" fill-opacity="0.52"/>
<path d="M961.402 552.762C956.127 552.762 950.795 552.505 945.39 552.005C922.293 549.85 899.086 544.508 876.647 539.34C848.052 532.76 818.478 525.95 788.93 525.706C760.237 525.469 731.094 529.996 702.913 534.376C686.045 536.999 668.604 539.705 651.452 541.36C598.587 546.464 543.008 548.786 495.56 516.914C490.346 513.412 485.379 508.968 480.575 504.678C474.78 499.503 468.791 494.148 462.404 490.499C455.904 486.786 448.697 484.118 440.987 482.566C421.506 478.648 401.992 482.367 387.165 486.042C371.067 490.031 354.857 495.687 339.173 501.151C311.004 510.969 281.877 521.121 252.325 522.038L252.292 519.472C281.683 518.562 310.728 508.436 338.82 498.643C354.524 493.167 370.763 487.511 386.909 483.502C401.842 479.802 421.506 476.057 441.186 480.014C449.013 481.591 456.338 484.304 462.952 488.075C469.465 491.794 475.519 497.207 481.37 502.433C486.134 506.692 491.06 511.097 496.189 514.541C543.312 546.195 598.681 543.874 651.347 538.788C668.47 537.134 685.899 534.427 702.751 531.811C730.972 527.424 760.156 522.903 788.938 523.128C818.6 523.372 848.23 530.195 876.882 536.787C899.289 541.943 922.459 547.279 945.487 549.427C978.635 552.525 1009.01 546.144 1041.08 529.342C1052.48 523.372 1063.94 516.561 1075.02 509.981C1095.89 497.585 1117.46 484.772 1139.64 476.929C1175.53 464.232 1212.39 469.17 1255.62 492.487C1257.5 493.507 1259.38 494.526 1261.26 495.546C1297.07 514.951 1330.9 533.286 1369.24 519.505L1369.6 522.006C1360.14 525.404 1350.95 526.879 1341.96 526.879C1314.08 526.879 1287.98 512.739 1260.74 497.97C1258.86 496.95 1256.98 495.931 1255.09 494.917C1212.16 471.767 1175.59 466.848 1139.99 479.437C1117.93 487.241 1096.41 500.029 1075.59 512.386C1064.49 518.979 1053.02 525.796 1041.59 531.779C1014.55 545.958 988.698 552.762 961.402 552.762Z" fill="white" fill-opacity="0.52"/>
<path d="M972.346 539.551C966.738 539.551 961.053 539.211 955.262 538.532C933.091 535.934 910.972 529.586 889.583 523.442C862.497 515.67 834.495 507.628 806.228 507.192C776.046 506.724 745.365 511.848 715.695 516.805C697.893 519.78 679.487 522.852 661.398 524.686C643.385 526.507 625.085 528.002 606.918 528.002C568.024 528.002 529.727 521.153 496.051 495.982C489.867 491.358 484.142 486.042 478.603 480.899C466.945 470.067 455.928 459.839 441.649 456.523C422.544 452.092 402.97 456.466 388.053 460.775C371.895 465.444 355.66 471.991 339.961 478.327C311.621 489.774 282.312 501.6 252.329 502.805L252.288 500.24C282.088 499.041 311.304 487.248 339.559 475.845C355.287 469.497 371.55 462.936 387.761 458.255C402.803 453.913 422.549 449.501 441.884 453.99C456.476 457.376 467.622 467.733 479.422 478.693C484.929 483.81 490.626 489.095 496.741 493.667C545.796 530.33 604.926 527.829 661.292 522.127C679.349 520.3 697.739 517.228 715.52 514.259C745.236 509.295 775.965 504.165 806.24 504.633C834.645 505.075 862.72 513.137 889.871 520.928C911.219 527.053 933.293 533.389 955.38 535.979C987.461 539.744 1016.32 533.087 1046.2 515.048C1056.56 508.789 1066.94 501.625 1076.98 494.706C1095.86 481.681 1115.39 468.208 1135.79 460.057C1154.51 452.573 1173.75 450.7 1194.59 454.33C1212 457.363 1230.28 464.11 1252.12 475.563C1254.06 476.583 1256 477.603 1257.93 478.622C1295.08 498.207 1330.16 516.715 1369.2 500.291L1369.62 502.773C1330.11 519.389 1294.8 500.772 1257.42 481.059C1255.48 480.039 1253.55 479.02 1251.6 478C1220.58 461.731 1179.42 445.262 1136.18 462.551C1115.92 470.651 1096.45 484.08 1077.62 497.066C1067.57 503.998 1057.18 511.168 1046.77 517.452C1022.06 532.362 998.039 539.551 972.346 539.551Z" fill="white" fill-opacity="0.52"/>
<path d="M981.609 525.578C975.77 525.578 969.818 525.154 963.715 524.314C942.318 521.364 921.173 514.105 900.722 507.083C874.983 498.246 848.368 489.107 821.161 488.575C789.753 487.959 757.802 493.737 726.902 499.33C708.253 502.703 688.97 506.191 670.037 508.231C610.099 514.682 547.317 517.472 496.368 475.608C489.904 470.298 484.02 464.033 478.335 457.973C467.127 446.032 456.541 434.758 442.334 430.993C423.518 426.011 403.923 430.981 388.954 435.867C372.739 441.164 356.48 448.571 340.756 455.734C312.242 468.721 282.754 482.156 252.329 483.573L252.28 481.008C282.502 479.597 311.889 466.213 340.305 453.266C356.058 446.089 372.35 438.67 388.621 433.353C403.729 428.422 423.514 423.401 442.598 428.46C457.153 432.315 467.882 443.742 479.24 455.844C484.892 461.859 490.731 468.086 497.114 473.332C547.691 514.894 610.217 512.098 669.923 505.672C688.824 503.639 708.087 500.157 726.716 496.784C757.665 491.185 789.668 485.394 821.177 486.016C848.547 486.555 875.243 495.719 901.062 504.582C921.465 511.585 942.557 518.831 963.853 521.768C995.378 526.116 1022.98 519.229 1050.72 500.093C1060.17 493.571 1069.58 486.093 1078.67 478.859C1095.78 465.258 1113.46 451.194 1132.32 442.806C1150.64 434.668 1169.94 432.667 1191.33 436.688C1208.27 439.875 1226.09 446.59 1249.1 458.46C1251 459.441 1252.9 460.422 1254.8 461.41C1293.25 481.354 1329.57 500.189 1369.17 481.066L1369.65 483.522C1351.64 492.218 1332.48 493.782 1311.09 488.299C1292.01 483.413 1272.84 473.466 1254.29 463.853C1252.4 462.872 1250.5 461.884 1248.6 460.903C1214.04 443.075 1173.26 427.274 1132.76 445.275C1114.05 453.593 1096.43 467.605 1079.4 481.149C1070.28 488.395 1060.86 495.892 1051.36 502.44C1028.74 518.042 1006.21 525.578 981.609 525.578Z" fill="white" fill-opacity="0.52"/>
<path d="M988.289 510.411C982.807 510.411 977.219 510.001 971.506 509.193C948.522 505.922 926.01 496.142 906.147 487.511C879.195 475.801 854.581 469.997 830.899 469.779C799.026 469.465 766.592 475.877 735.209 482.066C715.224 486.01 694.558 490.082 674.289 492.378C646.502 495.52 614.206 498.521 582.608 494.308C547.435 489.62 518.84 476.743 495.195 454.939C488.784 449.027 483.111 442.133 477.621 435.463C466.929 422.471 456.829 410.203 442.411 406.028C423.904 400.667 404.329 406.233 389.34 411.678C373.263 417.52 357.161 425.619 341.588 433.456C312.883 447.898 283.2 462.834 252.329 464.341L252.28 461.775C282.924 460.275 312.497 445.397 341.097 431.013C356.699 423.163 372.837 415.045 388.974 409.177C404.114 403.674 423.904 398.057 442.704 403.501C457.51 407.785 467.76 420.239 478.611 433.43C484.06 440.049 489.693 446.897 496.015 452.727C547.045 499.778 612.006 496.854 674.172 489.826C694.4 487.536 715.042 483.464 735.006 479.533C766.437 473.332 798.948 466.912 830.903 467.226C854.731 467.451 879.483 473.28 906.573 485.054C926.371 493.654 948.81 503.408 971.648 506.659C1001.96 510.975 1028.83 503.774 1053.79 484.644C1062.73 477.789 1071.53 469.849 1080.04 462.167C1094.79 448.86 1110.05 435.091 1126.6 426.466C1144.45 417.161 1163.6 414.416 1185.14 418.084C1206.48 421.714 1227.13 431.212 1242.73 439.074C1246.23 440.837 1249.79 442.665 1253.23 444.435C1290.72 463.68 1329.49 483.579 1369.14 461.865L1369.68 464.289C1329.51 486.286 1290.48 466.252 1252.73 446.878C1249.29 445.115 1245.73 443.287 1242.23 441.523C1205.44 422.977 1166.03 408.619 1127.11 428.909C1110.71 437.458 1095.53 451.156 1080.84 464.405C1072.31 472.107 1063.48 480.065 1054.49 486.959C1033.98 502.651 1012.18 510.405 988.289 510.411Z" fill="white" fill-opacity="0.52"/>
<path d="M992.72 493.699C987.022 493.699 981.135 493.25 975.003 492.359C953.785 489.261 934.511 480.508 911.519 469.375C885.732 456.895 861.54 450.822 837.55 450.809C837.53 450.809 837.505 450.809 837.481 450.809C817.038 450.809 796.287 455.068 776.217 459.185C772.861 459.871 769.505 460.563 766.161 461.23L762.392 461.981C734.868 467.477 706.411 473.158 678.274 476.705C649.728 480.302 616.555 483.772 584.069 479.321C547.731 474.345 518.564 460.288 494.899 436.361C488.386 429.775 482.746 421.964 477.288 414.403C467.107 400.301 457.49 386.982 443.166 382.204C425.032 376.163 406.257 381.742 390.285 387.995C374.155 394.312 358.018 403.11 342.411 411.614C313.516 427.364 283.643 443.653 252.337 445.089L252.288 442.524C283.346 441.1 313.102 424.876 341.88 409.19C357.519 400.667 373.693 391.849 389.892 385.5C406.046 379.177 425.044 373.54 443.499 379.69C458.241 384.602 468.012 398.14 478.355 412.467C483.768 419.963 489.36 427.716 495.771 434.194C546.842 485.837 616.689 481.893 678.144 474.146C706.244 470.6 734.685 464.924 762.189 459.435L765.959 458.684C769.302 458.018 772.654 457.331 776.01 456.639C796.128 452.509 816.932 448.244 837.481 448.244C837.505 448.244 837.526 448.244 837.55 448.244C861.702 448.257 886.053 454.362 911.994 466.919C934.896 478.007 954.086 486.728 975.154 489.8C1006.63 494.392 1032.4 487.28 1056.27 467.419C1064.69 460.416 1072.9 452.252 1080.84 444.364C1094.58 430.711 1108.79 416.596 1124.58 407.939C1142.26 398.249 1161.52 395.504 1183.44 399.564C1204.1 403.386 1224.29 412.717 1241.32 421.342C1244.87 423.144 1248.51 425.023 1252.02 426.838C1290.17 446.551 1329.63 466.938 1369.12 442.614L1369.71 445.006C1356.61 453.073 1343.54 456.305 1330.55 456.305C1303.81 456.305 1277.37 442.639 1251.51 429.281C1248 427.466 1244.38 425.594 1240.82 423.792C1202.98 404.624 1162.77 389.726 1125.11 410.37C1109.49 418.931 1095.37 432.969 1081.71 446.545C1073.74 454.458 1065.5 462.648 1057.03 469.695C1044.42 480.187 1031.37 487.055 1017.12 490.704C1009.3 492.699 1001.22 493.699 992.72 493.699Z" fill="white" fill-opacity="0.52"/>
<path d="M996.067 474.678C989.376 474.678 982.405 474.069 975.105 472.857C953.603 469.285 933.788 459.948 912.818 450.059L911.008 449.206C886.73 437.766 863.759 432.09 840.78 431.853C820.791 431.641 800.527 435.861 780.916 439.939C777.84 440.581 774.768 441.216 771.704 441.838L765.723 443.05C737.834 448.712 708.991 454.567 680.473 458.223C651.318 461.961 617.44 465.559 584.328 460.942C547.001 455.734 517.31 440.991 493.548 415.878C487.282 409.26 481.91 401.571 476.708 394.145C466.718 379.863 457.279 366.377 442.712 361.586C424.671 355.654 405.92 361.458 389.961 367.916C374.143 374.316 358.302 383.147 342.984 391.689C313.926 407.888 283.874 424.645 252.329 425.844L252.288 423.279C283.578 422.092 313.504 405.406 342.444 389.271C357.794 380.71 373.669 371.86 389.559 365.434C405.697 358.899 424.671 353.038 443.04 359.079C458.042 364.011 467.635 377.721 477.795 392.247C482.953 399.615 488.281 407.234 494.448 413.756C545.641 467.861 617.245 463.763 680.343 455.677C708.825 452.028 737.647 446.173 765.52 440.51L771.502 439.298C774.565 438.676 777.633 438.041 780.709 437.4C800.373 433.309 820.714 429.082 840.792 429.288C863.926 429.525 887.047 435.239 911.471 446.744L913.28 447.596C934.178 457.453 953.919 466.758 975.275 470.305C1008.19 475.768 1034.38 468.919 1057.7 448.757C1065.87 441.69 1073.81 433.456 1081.48 425.491C1094.95 411.511 1108.88 397.063 1124.58 388.399C1164.21 366.531 1205.68 384.795 1241.44 403.63C1244.75 405.374 1248.14 407.195 1251.42 408.952C1290.01 429.653 1329.92 451.053 1369.09 423.401L1369.75 425.741C1356.15 435.341 1342.5 439.131 1328.87 439.131C1302.64 439.131 1276.48 425.1 1250.9 411.376C1247.63 409.619 1244.24 407.804 1240.93 406.06C1205.42 387.36 1164.27 369.218 1125.11 390.817C1109.6 399.378 1095.76 413.743 1082.37 427.633C1074.67 435.624 1066.71 443.89 1058.48 451.002C1040.04 466.944 1019.85 474.672 996.067 474.678Z" fill="white" fill-opacity="0.52"/>
<path d="M999.764 454.003C990.135 454.003 980.875 452.592 972.167 450.784C953.87 446.981 935.744 440.613 918.215 434.456C890.752 424.811 862.355 414.833 833.091 414.75C832.867 414.75 832.644 414.75 832.421 414.75C801.996 414.75 771.059 420.496 741.133 426.062C720.572 429.884 699.314 433.834 678.424 435.88C649.525 438.715 615.934 441.312 583.014 436.271C546.165 430.628 516.588 416.359 492.586 392.663C486.868 387.014 481.748 380.626 476.801 374.451C466.117 361.112 456.025 348.517 441.243 344.618C423.011 339.808 404.325 345.612 388.447 351.922C373.238 357.97 357.973 366.101 343.215 373.963C314.039 389.508 283.866 405.579 252.325 406.618L252.292 404.053C283.59 403.02 313.638 387.014 342.7 371.533C357.49 363.651 372.784 355.507 388.053 349.434C404.09 343.053 422.983 337.192 441.511 342.085C456.707 346.093 466.957 358.893 477.807 372.437C482.721 378.574 487.806 384.917 493.446 390.489C545.26 441.658 616.044 439.433 678.323 433.328C699.168 431.282 720.406 427.338 740.942 423.522C771.136 417.911 802.353 412.101 833.091 412.197C862.53 412.281 891.015 422.285 918.564 431.962C936.057 438.105 954.15 444.461 972.374 448.251C997.252 453.426 1026.66 455.298 1056.19 429.955C1064.77 422.593 1073.07 413.935 1081.09 405.56C1094.63 391.445 1108.62 376.849 1124.39 367.98C1164.23 345.561 1205.53 365.178 1241.1 385.333C1244.01 386.982 1246.94 388.662 1249.87 390.348C1289.12 412.896 1329.71 436.22 1369.04 404.2L1369.78 406.483C1351.88 421.06 1332.04 425.549 1309.14 420.226C1288.93 415.525 1268.79 403.957 1249.32 392.766C1246.38 391.079 1243.46 389.399 1240.55 387.751C1205.24 367.749 1164.27 348.26 1124.93 370.404C1109.35 379.171 1095.44 393.677 1081.99 407.708C1073.93 416.109 1065.6 424.799 1056.96 432.212C1037.41 448.988 1017.93 454.003 999.764 454.003Z" fill="white" fill-opacity="0.52"/>
<path d="M1000.64 432.424C988.536 432.424 976.497 430.115 965.954 427.71C953.103 424.779 940.143 421.374 927.608 418.084C893.438 409.106 858.103 399.827 822.406 399.589C821.749 399.583 821.092 399.583 820.434 399.583C791.961 399.583 763.053 403.578 735.075 407.445C712.741 410.53 689.644 413.723 666.908 414.865C638.82 416.276 608.797 416.859 579.516 411.659C546.392 405.771 519.079 393.33 496.019 373.624C489.538 368.089 483.72 361.708 478.091 355.546C466.202 342.521 454.974 330.221 439.121 327.22C420.759 323.744 402.174 329.637 386.418 335.851C372.037 341.527 357.575 348.902 343.584 356.026C314.25 370.981 283.914 386.437 252.321 387.379L252.288 384.814C283.643 383.884 313.861 368.48 343.081 353.59C357.097 346.446 371.587 339.064 386.016 333.363C401.915 327.085 420.682 321.147 439.303 324.674C455.559 327.752 466.949 340.231 479.004 353.442C484.596 359.566 490.378 365.902 496.782 371.373C547.236 414.487 611.02 415.109 666.847 412.306C689.534 411.165 712.611 407.977 734.925 404.893C763.585 400.936 793.223 396.845 822.406 397.031C858.233 397.268 893.633 406.567 927.868 415.558C940.395 418.847 953.347 422.253 966.182 425.177C999.699 432.821 1024.26 433.039 1050.62 411.562C1060.44 403.553 1069.87 393.799 1078.98 384.359C1092.98 369.866 1107.45 354.879 1123.73 345.849C1141.77 335.845 1161.21 333.761 1183.16 339.475C1203.11 344.669 1222.61 355.59 1240.71 366.621C1243.1 368.076 1245.5 369.551 1247.91 371.033C1287.96 395.665 1329.37 421.137 1369.01 384.981L1369.82 387.2C1351.77 403.662 1331.62 408.895 1308.21 403.206C1287.61 398.198 1267.13 385.603 1247.32 373.418C1244.91 371.937 1242.52 370.462 1240.13 369.006C1203.18 346.49 1163.8 326.347 1124.27 348.26C1108.17 357.187 1093.78 372.084 1079.87 386.494C1070.72 395.966 1061.26 405.765 1051.36 413.833C1038.32 424.465 1024.62 430.397 1009.48 431.975C1006.54 432.289 1003.59 432.424 1000.64 432.424Z" fill="white" fill-opacity="0.52"/>
<path d="M999.281 411.973C989.169 411.973 979.004 409.343 969.14 406.791C965.975 405.97 962.704 405.124 959.511 404.386C904.426 391.663 853.919 385.526 805.104 385.686C780.834 385.757 756.179 387.815 732.332 389.81C709.677 391.702 686.252 393.664 663.171 393.914C635.404 394.215 605.729 393.696 576.854 387.873C544.225 381.293 517.204 368.891 494.246 349.941C488.816 345.458 483.776 340.482 478.903 335.672C467.367 324.283 456.472 313.522 441.9 310.469C422.325 306.371 402.101 312.669 384.9 319.364C371.214 324.693 357.425 331.42 344.087 337.929C314.555 352.339 284.012 367.243 252.317 368.128L252.288 365.562C283.752 364.677 314.181 349.832 343.608 335.473C356.967 328.958 370.779 322.218 384.511 316.869C401.862 310.11 422.273 303.768 442.115 307.923C457.032 311.046 468.073 321.948 479.763 333.491C484.608 338.276 489.624 343.226 494.996 347.664C545.215 389.111 608.131 391.939 663.159 391.342C686.203 391.092 709.608 389.136 732.242 387.245C756.106 385.25 780.786 383.185 805.096 383.115C853.992 382.974 904.581 389.098 959.742 401.84C962.952 402.584 966.23 403.431 969.4 404.252C980.1 407.022 991.17 409.882 1002.04 409.331C1016.13 408.612 1030.74 402.289 1045.48 390.522C1055.79 382.287 1065.69 372.174 1075.26 362.395C1088.63 348.729 1102.46 334.595 1117.72 325.296C1159.81 299.631 1200.88 321.974 1239.34 347.068C1241.42 348.421 1243.51 349.793 1245.6 351.172C1286.54 378.068 1328.88 405.88 1368.97 365.761L1369.84 367.929C1351.58 386.199 1331.05 392.086 1307.09 385.923C1286.04 380.511 1265.16 366.8 1244.98 353.538C1242.88 352.159 1240.8 350.787 1238.72 349.434C1200.56 324.539 1159.84 302.357 1118.3 327.688C1103.2 336.89 1089.44 350.954 1076.14 364.549C1066.53 374.367 1056.6 384.513 1046.21 392.811C1031.26 404.745 1016.42 411.165 1002.09 411.889C1001.16 411.947 1000.22 411.973 999.281 411.973Z" fill="white" fill-opacity="0.52"/>
<path d="M993.884 389.701C983.423 389.701 972.901 386.648 962.716 383.692C957.871 382.287 952.864 380.832 947.966 379.741C905.108 370.205 861.459 371.116 819.254 371.995C809.45 372.2 799.318 372.411 789.327 372.488C774.115 372.61 758.638 373.008 743.673 373.399C713.094 374.188 681.476 375.009 650.385 373.476C599.354 370.962 540.853 365.03 492.359 326.283C488.147 322.917 484.17 319.434 480.327 316.061C467.894 305.159 456.147 294.86 440.399 292.648C420.564 289.864 400.454 296.194 383.395 302.754C370.467 307.724 357.421 313.817 344.806 319.71C315.005 333.626 284.19 348.023 252.325 348.895L252.296 346.33C283.943 345.458 314.648 331.119 344.347 317.248C356.983 311.348 370.049 305.243 383.014 300.26C400.202 293.654 420.479 287.28 440.545 290.095C456.638 292.353 468.527 302.78 481.115 313.817C484.945 317.177 488.905 320.646 493.089 323.988C541.287 362.497 599.577 368.397 650.434 370.904C681.484 372.437 713.086 371.616 743.645 370.827C758.614 370.443 774.095 370.039 789.315 369.917C799.297 369.84 809.43 369.628 819.229 369.423C861.499 368.544 905.21 367.634 948.19 377.196C953.12 378.292 958.147 379.754 963.004 381.165C973.413 384.186 984.19 387.315 994.785 387.129C1008.09 386.898 1022 381.556 1036.12 371.251C1048.33 362.35 1059.88 350.749 1071.05 339.532C1084.79 325.725 1099.01 311.45 1114.62 302.01C1134.08 290.23 1154.61 287.806 1177.39 294.591C1198.01 300.734 1218.55 313.887 1237.67 327.188C1239.48 328.444 1241.29 329.708 1243.11 330.984C1283.04 358.899 1328.3 390.534 1368.95 346.567L1369.87 348.684C1351.35 368.711 1330.42 375.182 1305.85 368.474C1284.32 362.593 1263.04 347.715 1242.46 333.331C1240.63 332.061 1238.82 330.792 1237.02 329.541C1198.56 302.799 1157.48 278.828 1115.2 304.415C1099.75 313.765 1085.6 327.97 1071.92 341.706C1060.7 352.968 1049.11 364.613 1036.8 373.591C1022.47 384.051 1008.34 389.47 994.805 389.707C994.501 389.694 994.189 389.701 993.884 389.701Z" fill="white" fill-opacity="0.52"/>
<path d="M987.246 367.223C986.284 367.223 985.326 367.198 984.369 367.146C975.158 366.64 965.955 363.632 957.056 360.721C951.712 358.97 946.185 357.162 940.743 355.93C902.434 347.254 863.593 351.23 826.03 355.077C807.928 356.931 789.206 358.848 770.722 359.342C730.721 360.407 687.307 358.38 641.693 353.307C594.148 348.023 539.453 339.404 492.066 303.832C488.492 301.151 485.006 298.067 481.634 295.085C475.807 289.929 469.781 284.606 463.268 281.348C455.753 277.596 447.329 275.371 438.236 274.743C419.051 273.415 400.012 279.334 383.918 285.305C371.104 290.057 358.16 295.841 345.645 301.427C315.533 314.875 284.405 328.778 252.321 329.657L252.292 327.091C284.166 326.219 315.188 312.361 345.191 298.964C357.726 293.366 370.682 287.581 383.533 282.81C399.736 276.801 418.909 270.837 438.293 272.184C447.528 272.825 456.09 275.089 463.743 278.905C470.414 282.239 476.517 287.633 482.413 292.846C485.761 295.809 489.226 298.868 492.752 301.517C539.887 336.897 594.4 345.477 641.799 350.749C687.368 355.815 730.733 357.841 770.686 356.777C789.133 356.283 807.831 354.372 825.916 352.519C863.565 348.664 902.491 344.676 940.967 353.391C946.457 354.635 952.008 356.45 957.38 358.207C966.214 361.099 975.348 364.088 984.421 364.581C999.013 365.383 1014.48 359.951 1030.37 348.44C1042.83 339.411 1054.69 327.739 1066.16 316.452C1080.64 302.19 1095.62 287.447 1112.03 277.815C1155.3 252.419 1195.55 277.372 1236.39 307.513C1237.78 308.532 1239.16 309.558 1240.56 310.591C1281.41 340.821 1327.71 375.092 1368.93 327.329L1369.89 329.4C1354.76 346.927 1339.01 353.654 1323.13 353.654C1294.91 353.654 1266.27 332.453 1239.88 312.919C1238.48 311.886 1237.09 310.86 1235.71 309.841C1195.19 279.937 1155.28 255.171 1112.6 280.219C1096.35 289.762 1081.44 304.441 1067.02 318.633C1055.51 329.964 1043.61 341.674 1031.05 350.774C1015.96 361.702 1001.24 367.223 987.246 367.223Z" fill="white" fill-opacity="0.52"/>
<path d="M743.657 345.9C705.234 345.9 665.711 339.449 628.57 332.401C583.691 323.891 536.158 311.886 492.647 281.944C489.376 279.694 486.175 277.192 483.074 274.775C476.16 269.382 469.627 264.283 462.169 261.487C454.353 258.557 446.015 257.082 436.678 256.973C417.898 256.748 399.135 262.577 384.888 267.682C372.196 272.229 359.369 277.705 346.964 282.996C316.401 296.04 284.795 309.52 252.325 310.418L252.296 307.853C284.568 306.961 316.072 293.52 346.542 280.521C358.963 275.224 371.802 269.741 384.531 265.181C398.863 260.044 417.748 254.183 436.69 254.407C446.153 254.523 454.609 256.017 462.542 258.993C470.179 261.853 477.101 267.252 483.793 272.479C486.872 274.884 490.062 277.372 493.296 279.597C536.617 309.405 584.008 321.371 628.765 329.862C667.809 337.269 709.491 344.021 749.707 343.284C773.255 342.854 797.017 338.397 819.996 334.081C855.352 327.444 891.908 320.582 928.392 328.297C935.237 329.746 942.103 332.247 948.741 334.671C957.746 337.955 967.058 341.347 976.355 342.104C990.224 343.226 1004.95 338.718 1020.11 328.701C1034.54 319.171 1048.11 306.038 1061.23 293.34C1075.04 279.976 1089.32 266.149 1104.69 256.427C1125.56 243.23 1146.17 239.517 1165.98 245.397C1188.96 252.221 1210.53 268.901 1229.56 283.625C1232.22 285.683 1234.91 287.787 1237.62 289.909C1279.51 322.673 1327 359.804 1368.92 308.135L1369.91 310.155C1354.54 329.111 1338.48 336.384 1322.25 336.384C1293.39 336.384 1263.99 313.393 1236.9 292.205C1234.19 290.089 1231.5 287.985 1228.84 285.927C1209.9 271.28 1188.44 254.677 1165.67 247.918C1146.18 242.133 1125.86 245.795 1105.29 258.807C1090.05 268.452 1075.83 282.214 1062.08 295.527C1048.9 308.276 1035.28 321.461 1020.73 331.067C1005.34 341.232 990.378 345.811 976.265 344.663C966.827 343.9 957.445 340.475 948.372 337.173C941.77 334.768 934.941 332.273 928.168 330.843C891.888 323.173 855.433 330.009 820.179 336.627C797.155 340.95 773.348 345.42 749.715 345.849C747.703 345.881 745.682 345.9 743.657 345.9Z" fill="white" fill-opacity="0.52"/>
<path d="M726.935 331.241C690.456 331.241 653.095 320.845 616.9 310.777L615.082 310.27C579.715 300.433 533.533 285.568 490.009 257.704C488.151 256.511 486.304 255.286 484.519 254.106C476.562 248.828 469.043 243.845 460.347 241.665C452.361 239.664 443.901 238.914 434.474 239.363C415.719 240.26 397.041 246.167 382.872 251.214C371.469 255.273 359.921 259.967 348.758 264.501C317.578 277.173 285.335 290.281 252.325 291.179L252.296 288.614C285.116 287.722 317.265 274.653 348.356 262.013C359.531 257.473 371.088 252.772 382.519 248.706C396.761 243.634 415.537 237.702 434.43 236.798C443.957 236.342 452.519 237.105 460.606 239.132C469.501 241.364 477.105 246.404 485.156 251.746C486.937 252.926 488.776 254.144 490.626 255.331C534.008 283.112 580.08 297.938 615.37 307.75L617.188 308.257C655.311 318.864 694.732 329.83 732.957 328.586C758.338 327.758 783.853 321.134 808.525 314.721C844.132 305.473 880.952 295.905 917.971 303.639C925.689 305.249 933.318 308.378 940.695 311.412C949.017 314.83 957.628 318.363 966.287 319.652C981.463 321.923 997.78 317.357 1014.79 306.095C1029.41 296.406 1043.23 283.227 1056.59 270.485C1071.13 256.626 1086.15 242.293 1102.33 232.328C1123.69 219.168 1144.56 215.917 1164.36 222.663C1187.03 230.385 1208.03 247.475 1228.35 264.008C1230.6 265.835 1232.86 267.689 1235.14 269.561C1277.94 304.653 1326.46 344.432 1368.91 288.915L1369.94 290.89C1350.62 316.164 1328.36 324.283 1301.9 315.734C1278.83 308.276 1256.24 289.755 1234.39 271.838C1232.11 269.965 1229.85 268.112 1227.61 266.291C1207.38 249.835 1186.47 232.821 1164.02 225.177C1144.54 218.546 1123.98 221.753 1102.92 234.726C1086.87 244.608 1071.91 258.884 1057.43 272.684C1044.02 285.478 1030.15 298.701 1015.41 308.462C998.161 319.89 981.585 324.513 966.137 322.205C957.348 320.89 948.676 317.331 940.289 313.894C932.957 310.886 925.377 307.776 917.76 306.185C880.976 298.503 844.278 308.039 808.789 317.254C784.06 323.68 758.488 330.323 732.989 331.151C730.972 331.208 728.952 331.241 726.935 331.241Z" fill="white" fill-opacity="0.52"/>
<path d="M715.212 314.997C681.89 314.997 647.788 302.735 614.79 290.878L610.209 289.23C567.866 274.05 526.98 255.587 488.682 234.367C470.808 224.459 454.986 220.522 437.388 221.599C417.363 222.824 397.833 228.884 381.37 234.649C371.295 238.176 361.081 242.12 351.201 245.93C319.189 258.281 286.089 271.055 252.321 271.94L252.292 269.375C285.878 268.49 318.888 255.76 350.811 243.441C360.696 239.626 370.921 235.682 381.013 232.148C397.549 226.357 417.168 220.271 437.323 219.034C455.137 217.944 471.145 221.926 489.218 231.943C527.458 253.131 568.288 271.568 610.566 286.728L615.151 288.377C648.535 300.375 683.062 312.803 716.652 312.425C744.509 312.124 772.325 303.165 799.228 294.495C835.533 282.797 873.072 270.703 911.183 279.751C918.994 281.605 926.639 285.189 934.032 288.659C942.367 292.564 950.985 296.604 959.758 298.099C974.094 300.529 989.522 296.822 1005.6 287.081C1022.22 277.013 1037.74 262.321 1052.76 248.116C1067.68 234.001 1083.1 219.406 1099.65 209.267C1120.06 196.768 1139.53 193.177 1157.52 198.589C1181.59 205.83 1203.7 224.651 1225.08 242.851L1226.83 244.339C1228.8 246.013 1230.78 247.719 1232.79 249.431C1254.91 268.362 1277.79 287.941 1301.09 295.796C1327.59 304.73 1349.77 296.194 1368.88 269.702L1369.95 271.632C1355.4 291.808 1339.11 301.792 1320.57 301.799C1314.23 301.799 1307.64 300.632 1300.75 298.31C1277.22 290.377 1254.24 270.709 1232.02 251.688C1230.01 249.976 1228.03 248.277 1226.06 246.603L1224.31 245.115C1203.04 227.005 1181.05 208.286 1157.22 201.116C1139.53 195.793 1120.36 199.346 1100.25 211.665C1083.82 221.727 1068.46 236.265 1053.6 250.322C1038.53 264.585 1022.94 279.328 1006.19 289.48C989.867 299.368 974.188 303.133 959.592 300.657C950.669 299.144 941.981 295.072 933.578 291.128C926.237 287.684 918.649 284.125 910.947 282.297C873.121 273.319 835.724 285.369 799.557 297.021C772.577 305.711 744.68 314.702 716.669 315.003C716.182 314.997 715.695 314.997 715.212 314.997Z" fill="white" fill-opacity="0.52"/>
<path d="M704.873 296.425C672.151 296.425 639.039 281.63 606.983 267.31C605.108 266.47 603.242 265.636 601.383 264.809C583.537 256.864 565.525 248.103 548.109 239.632C529.516 230.59 510.29 221.233 491.235 212.865C452.499 195.845 413.199 206.811 379.406 218.418C371.145 221.259 362.753 224.318 354.642 227.274C321.477 239.363 287.181 251.868 252.321 252.702L252.296 250.136C286.986 249.303 321.193 236.83 354.276 224.767C362.392 221.804 370.787 218.745 379.061 215.904C413.045 204.226 452.576 193.209 491.669 210.383C510.749 218.764 529.982 228.121 548.587 237.169C565.995 245.641 584 254.395 601.825 262.334C603.684 263.161 605.55 263.995 607.429 264.835C640.232 279.488 674.151 294.648 707.49 293.821C735.404 293.135 763.313 282.938 790.301 273.075C827.239 259.576 865.435 245.622 904.211 255.837C912.396 257.992 920.28 262.225 927.905 266.323C935.801 270.562 943.965 274.948 952.365 276.936C967.902 280.617 984.827 276.885 1002.67 265.848C1019.28 255.568 1034.85 240.876 1049.91 226.659C1064.2 213.172 1078.97 199.231 1094.66 189.015C1116.88 174.554 1137.8 170.514 1156.84 177.01C1180.54 185.09 1202.21 204.335 1223.18 222.946L1226.3 225.716C1228.92 228.037 1231.55 230.391 1234.18 232.751C1254.68 251.105 1275.88 270.087 1298.83 279.238C1325.21 289.749 1348.77 280.072 1368.87 250.47L1369.98 252.349C1354.8 274.691 1337.69 285.92 1318.92 285.92C1312.29 285.92 1305.47 284.522 1298.44 281.72C1275.27 272.485 1253.98 253.42 1233.38 234.983C1230.75 232.623 1228.12 230.276 1225.5 227.954L1222.38 225.184C1201.53 206.663 1179.96 187.521 1156.5 179.517C1137.78 173.13 1117.18 177.125 1095.28 191.388C1079.7 201.533 1064.98 215.423 1050.74 228.865C1035.63 243.133 1020 257.883 1003.26 268.24C985.148 279.443 967.947 283.221 952.126 279.475C943.584 277.455 935.347 273.03 927.381 268.753C919.818 264.694 911.998 260.493 903.944 258.371C865.488 248.238 827.45 262.141 790.666 275.576C763.597 285.465 735.602 295.694 707.514 296.386C706.634 296.412 705.753 296.425 704.873 296.425Z" fill="white" fill-opacity="0.52"/>
<path d="M700.957 275.038C667.545 275.038 634.438 258.191 602.385 241.883L600.572 240.959C592.298 236.753 583.898 232.302 575.774 227.999C547.954 213.269 519.193 198.038 489.948 189.477C453.615 178.844 416.016 189.502 377.483 202.36C371.542 204.342 365.508 206.413 359.669 208.414C324.829 220.368 288.804 232.725 252.317 233.45L252.296 230.885C288.621 230.16 324.561 217.828 359.324 205.906C365.163 203.906 371.201 201.834 377.146 199.846C415.845 186.931 453.619 176.228 490.24 186.95C519.594 195.543 548.417 210.806 576.286 225.562C584.405 229.865 592.801 234.309 601.067 238.51L602.88 239.433C635.858 256.209 669.96 273.569 704.215 272.408C731.407 271.491 758.78 260.737 785.253 250.329C822.593 235.656 861.203 220.477 900.06 232.559C908.326 235.13 916.162 240.017 923.741 244.75C931.277 249.45 939.068 254.318 947.183 256.799C962.785 261.577 979.828 258.633 997.836 248.052C1015.8 237.497 1032.49 221.625 1048.63 206.278C1063.39 192.247 1078.65 177.735 1094.9 167.249C1117.38 152.743 1137.66 149.236 1156.91 156.533C1180.19 165.358 1201.4 184.93 1221.92 203.854C1223.38 205.201 1224.83 206.548 1226.29 207.882C1228.64 210.043 1231 212.23 1233.36 214.423C1254.11 233.655 1275.56 253.548 1298.97 262.815C1325.34 273.261 1348.85 262.648 1368.84 231.27L1369.99 233.091C1349.56 265.149 1325.54 275.987 1298.57 265.303C1274.94 255.94 1253.38 235.957 1232.54 216.635C1230.18 214.442 1227.82 212.262 1225.47 210.101C1224.02 208.76 1222.56 207.42 1221.1 206.073C1200.68 187.245 1179.57 167.769 1156.52 159.034C1137.62 151.871 1117.67 155.334 1095.51 169.635C1079.38 180.05 1064.17 194.504 1049.47 208.491C1033.26 223.901 1016.51 239.831 998.405 250.47C980.116 261.218 962.777 264.2 946.879 259.332C938.613 256.799 930.749 251.894 923.149 247.148C915.638 242.46 907.876 237.612 899.752 235.092C861.248 223.125 822.816 238.228 785.651 252.836C759.093 263.276 731.63 274.069 704.256 274.993C703.152 275.019 702.057 275.038 700.957 275.038Z" fill="white" fill-opacity="0.52"/>
<path d="M704.613 251.599C704.382 251.599 704.155 251.599 703.919 251.599C663.475 251.316 625.056 229.711 587.899 208.812C556.054 190.9 523.121 172.38 489.068 167.378C451.326 161.831 413.001 174.291 375.933 186.341L375.787 186.386C372.934 187.315 370.077 188.245 367.225 189.182C329.897 201.385 291.3 214.006 252.308 214.224L252.304 211.659C291.129 211.441 329.646 198.846 366.896 186.668C369.753 185.731 372.605 184.802 375.462 183.872L375.608 183.827C412.79 171.738 451.241 159.24 489.222 164.819C523.478 169.853 556.504 188.425 588.447 206.387C625.474 227.21 663.763 248.751 703.931 249.027C704.159 249.027 704.39 249.027 704.617 249.027C731.776 249.027 759.324 237.92 785.972 227.172C823.608 211.992 862.53 196.3 901.119 211.499C908.776 214.513 916.007 219.585 923.003 224.498C931.212 230.256 939.701 236.214 948.802 238.734C963.646 242.838 979.942 239.76 997.24 229.596C1015.55 218.841 1032.54 202.636 1048.97 186.969C1063.5 173.111 1078.53 158.784 1094.46 148.197C1116.8 133.364 1136.8 129.561 1155.62 136.57C1178.86 145.227 1199.96 165.011 1220.36 184.147C1221.71 185.417 1223.06 186.681 1224.4 187.938C1226.97 190.336 1229.54 192.766 1232.12 195.203C1252.58 214.513 1273.73 234.476 1296.81 244.358C1324.25 256.107 1348.49 245.231 1368.84 212.044L1370 213.826C1354.62 238.914 1337.06 251.515 1317.61 251.515C1310.76 251.515 1303.69 249.957 1296.39 246.834C1273.08 236.855 1251.84 216.802 1231.29 197.403C1228.71 194.966 1226.14 192.542 1223.57 190.144C1222.22 188.887 1220.88 187.617 1219.52 186.347C1199.22 167.314 1178.24 147.632 1155.23 139.065C1136.76 132.184 1117.09 135.942 1095.09 150.557C1079.26 161.067 1064.28 175.349 1049.8 189.156C1033.31 204.887 1016.25 221.15 997.8 231.994C980.23 242.319 963.646 245.436 948.518 241.254C939.222 238.683 930.64 232.661 922.341 226.838C915.411 221.977 908.245 216.943 900.726 213.987C862.53 198.948 823.81 214.564 786.369 229.66C759.624 240.446 731.971 251.592 704.613 251.599Z" fill="white" fill-opacity="0.52"/>
<path d="M710.213 232.969C668.401 232.969 628.136 211.402 589.177 190.535C558.054 173.868 525.872 156.63 493.142 150.531C455.457 143.502 417.249 156.226 380.299 168.526L374.549 170.437C334.86 183.647 293.824 197.313 252.28 194.979L252.337 192.414C293.677 194.729 334.62 181.101 374.212 167.923L379.962 166.012C417.042 153.667 455.384 140.905 493.328 147.979C526.229 154.116 558.492 171.392 589.697 188.104C629 209.151 669.651 230.91 711.722 230.391C738.082 230.058 764.705 219.553 790.451 209.389C826.452 195.178 863.682 180.486 900.945 193.228C908.44 195.793 915.589 200.282 922.5 204.63C930.266 209.511 938.301 214.564 946.757 216.789C962.347 220.893 979.593 217.661 998.007 207.176C1015.89 196.993 1032.72 182.006 1048.99 167.512C1063.16 154.892 1077.81 141.848 1093.15 131.966C1116.64 116.825 1136.33 112.823 1155.11 119.371C1178.57 127.553 1200.1 146.446 1220.93 164.723C1222.2 165.832 1223.46 166.942 1224.72 168.045C1227.16 170.18 1229.6 172.335 1232.05 174.496C1252.97 192.965 1274.6 212.056 1297.99 221.201C1324.69 231.642 1348.54 222.067 1368.86 192.747L1369.96 194.639C1349.21 224.574 1324.86 234.348 1297.6 223.69C1274 214.468 1252.27 195.287 1231.26 176.734C1228.81 174.573 1226.37 172.418 1223.93 170.289C1222.67 169.186 1221.41 168.077 1220.14 166.967C1199.42 148.78 1177.99 129.978 1154.76 121.878C1136.31 115.446 1116.93 119.409 1093.75 134.338C1078.51 144.157 1063.91 157.168 1049.78 169.744C1033.45 184.289 1016.56 199.333 998.555 209.588C979.873 220.22 962.355 223.497 946.485 219.316C937.858 217.046 929.743 211.941 921.895 207.01C915.046 202.706 907.961 198.249 900.596 195.736C863.702 183.121 826.663 197.736 790.841 211.877C765.001 222.073 738.285 232.616 711.73 232.95C711.227 232.969 710.72 232.969 710.213 232.969Z" fill="white" fill-opacity="0.52"/>
<path d="M717.346 213.583C682.425 213.583 647.589 197.352 613.889 181.646L609.823 179.755C604.276 177.177 598.632 174.502 593.174 171.912C560.071 156.226 525.839 140.001 490.987 134.204C455.059 128.227 418.767 140.347 383.663 152.064L379.114 153.583C340.204 166.538 296.1 181.223 252.248 175.74L252.377 173.181C295.994 178.639 338.082 164.627 378.781 151.076L383.33 149.556C418.556 137.795 454.978 125.63 491.162 131.651C526.168 137.474 560.473 153.731 593.649 169.455C599.107 172.04 604.747 174.714 610.29 177.292L614.356 179.184C648.129 194.921 683.058 211.223 717.923 211.011C744.071 210.876 770.341 200.718 795.747 190.894C830.319 177.529 866.064 163.703 902.097 174.862C909.279 177.087 916.202 180.947 922.901 184.68C930.851 189.111 939.072 193.696 947.666 195.473C962.266 198.493 978.359 195.71 995.491 187.213C1014.28 177.888 1032.08 163.472 1049.31 149.531C1064.33 137.365 1079.87 124.783 1096.04 115.581C1118.28 102.934 1136.73 99.4906 1154.11 104.743C1177.86 111.919 1199.92 129.638 1221.25 146.773L1223.82 148.838C1225.55 150.223 1227.28 151.621 1229.03 153.026C1273.82 189.105 1324.58 230 1368.91 173.457L1369.93 175.452C1349.78 201.155 1326.51 209.325 1298.8 200.423C1274.66 192.67 1251.09 173.675 1228.29 155.309C1226.54 153.904 1224.81 152.506 1223.08 151.121L1220.52 149.056C1199.29 132.004 1177.33 114.369 1153.81 107.257C1136.72 102.094 1118.54 105.506 1096.59 117.985C1080.51 127.13 1065.02 139.674 1050.04 151.801C1032.76 165.794 1014.9 180.261 995.974 189.65C978.615 198.262 962.29 201.078 947.455 198.006C938.69 196.197 930.388 191.567 922.362 187.085C915.719 183.378 908.849 179.549 901.785 177.363C866.105 166.313 830.53 180.069 796.132 193.369C770.633 203.226 744.27 213.422 717.927 213.557C717.732 213.583 717.537 213.583 717.346 213.583Z" fill="white" fill-opacity="0.52"/>
<path d="M723.835 193.369C689.595 193.369 655.035 178.902 621.583 164.896C618.925 163.78 616.275 162.677 613.642 161.58C608.249 159.336 602.763 157.021 597.455 154.783C564.08 140.687 529.568 126.111 494.704 120.121C454.443 113.208 414.409 126.111 375.693 138.59C335.631 151.506 294.205 164.857 252.207 156.501L252.41 153.955C294.14 162.26 335.436 148.947 375.369 136.076C414.206 123.558 454.37 110.611 494.879 117.569C529.869 123.577 564.441 138.18 597.873 152.301C603.177 154.539 608.663 156.854 614.052 159.099C616.685 160.195 619.335 161.305 621.997 162.414C656.11 176.696 691.389 191.471 726.172 190.778C751.326 190.285 776.521 180.858 800.888 171.745C833.646 159.49 867.517 146.818 901.801 155.623C909.105 157.495 916.198 160.997 923.06 164.383C930.806 168.205 938.816 172.155 947.078 173.72C962.067 176.555 977.965 174.124 995.682 166.294C1014.37 158.034 1032.34 145.189 1049.71 132.767C1064.01 122.539 1078.81 111.957 1093.97 103.954C1118.28 91.1281 1138.41 87.8062 1157.32 93.5009C1180.03 100.343 1201.5 115.773 1222.26 130.702L1222.49 130.869C1224.69 132.453 1226.91 134.056 1229.14 135.672C1273.7 167.91 1324.2 204.457 1368.94 154.18L1369.89 156.271C1353.61 174.554 1336.64 181.589 1319.5 181.589C1288.7 181.589 1257.35 158.9 1228.47 138.007C1226.24 136.39 1224.02 134.787 1221.82 133.203L1221.59 133.036C1200.92 118.178 1179.54 102.806 1157.02 96.0211C1138.39 90.4098 1118.52 93.7061 1094.49 106.391C1079.41 114.349 1064.65 124.899 1050.38 135.108C1032.96 147.568 1014.93 160.458 996.128 168.769C978.201 176.696 962.1 179.145 946.895 176.272C938.487 174.682 930.404 170.693 922.585 166.839C915.78 163.479 908.74 160.009 901.553 158.162C867.586 149.441 833.874 162.049 801.273 174.246C776.821 183.391 751.537 192.85 726.205 193.35C725.409 193.363 724.622 193.369 723.835 193.369Z" fill="white" fill-opacity="0.52"/>
<path d="M728.29 172.412C696.108 172.412 663.293 160.336 631.488 148.633C627.406 147.132 623.352 145.638 619.331 144.189C613.427 142.053 607.425 139.847 601.618 137.712C566.596 124.834 530.376 111.515 494.006 106.16C455.806 100.536 417.842 112.143 381.123 123.366C339.295 136.153 296.047 149.37 252.166 137.256L252.446 134.73C296.031 146.767 339.133 133.588 380.814 120.846C417.647 109.584 455.729 97.945 494.16 103.601C530.64 108.975 566.912 122.308 601.988 135.21C607.79 137.346 613.792 139.552 619.692 141.688C623.713 143.143 627.771 144.631 631.853 146.138C665.744 158.605 700.782 171.501 734.86 169.68C758.31 168.423 781.906 160.061 804.723 151.967C837.096 140.488 870.576 128.624 904.309 136.762C910.959 138.366 917.488 141.239 923.798 144.015C930.794 147.094 938.025 150.274 945.39 151.698C961.58 154.834 978.96 152.557 998.522 144.734C1016.2 137.667 1033.48 127.085 1050.19 116.844C1065.75 107.314 1081.84 97.4641 1098.24 90.4419C1120.84 80.7648 1139.66 78.3343 1157.5 82.7913C1180.75 88.6078 1203.03 102.697 1224.57 116.324L1229.44 119.403C1273.76 147.408 1324 179.152 1368.98 134.896L1369.84 137.077C1354.57 152.096 1337.79 159.528 1318.94 159.528C1312.56 159.528 1305.96 158.682 1299.09 156.989C1275.25 151.108 1251.65 136.204 1228.84 121.788L1223.97 118.71C1202.51 105.134 1180.32 91.1024 1157.25 85.3244C1139.65 80.9251 1121.03 83.3364 1098.67 92.9173C1082.34 99.9074 1066.3 109.732 1050.78 119.236C1034.02 129.503 1016.69 140.116 998.92 147.215C979.159 155.116 961.584 157.412 945.191 154.238C937.708 152.788 930.416 149.582 923.364 146.478C917.099 143.72 910.619 140.873 904.065 139.289C870.629 131.228 837.307 143.041 805.08 154.462C782.186 162.574 758.517 170.969 734.917 172.232C732.713 172.354 730.498 172.412 728.29 172.412Z" fill="white" fill-opacity="0.52"/>
<path d="M733.987 150.621C701.111 150.621 667.541 140.046 635.01 129.792C630.343 128.323 625.519 126.803 620.82 125.354C615.52 123.719 610.221 122.07 604.917 120.416C568.811 109.148 531.472 97.4961 494.193 92.8339C457.888 88.2936 421.7 98.6633 386.706 108.693C342.98 121.224 297.768 134.178 252.126 117.998L252.483 115.497C297.808 131.562 342.858 118.652 386.422 106.166C421.518 96.1109 457.811 85.7092 494.327 90.2752C531.699 94.9502 569.083 106.615 605.238 117.896C610.538 119.55 615.837 121.205 621.136 122.834C625.835 124.283 630.664 125.803 635.331 127.271C669.838 138.141 705.518 149.389 740.196 147.921C763.601 146.933 787.035 139.148 809.697 131.626C839.624 121.692 870.568 111.412 901.898 116.6C909.499 117.857 916.989 120.66 924.232 123.372C931.411 126.059 938.836 128.836 946.319 130.087C961.54 132.62 977.803 131.106 996.043 125.463C1014.67 119.704 1033.04 110.392 1050.81 101.395C1065.93 93.7317 1081.56 85.8118 1097.32 80.0915C1120.16 71.7996 1139.12 69.5101 1156.99 72.8833C1180.55 77.3339 1203.42 89.6018 1225.53 101.459L1229.34 103.499C1275.74 128.394 1323.73 154.141 1369.03 115.613L1369.81 117.87C1349.25 135.352 1326.14 141.194 1299.16 135.73C1275.4 130.92 1251.72 118.216 1228.82 105.929L1225.02 103.89C1202.98 92.0708 1180.19 79.8478 1156.8 75.4293C1139.12 72.0881 1120.33 74.3647 1097.69 82.5925C1081.99 88.2936 1066.39 96.1943 1051.31 103.839C1033.5 112.861 1015.08 122.192 996.359 127.983C977.957 133.671 961.536 135.198 946.153 132.639C938.565 131.376 931.09 128.58 923.859 125.873C916.669 123.18 909.231 120.397 901.732 119.153C870.658 114.009 839.839 124.238 810.034 134.133C787.303 141.681 763.796 149.486 740.244 150.48C738.159 150.576 736.073 150.621 733.987 150.621Z" fill="white" fill-opacity="0.52"/>
<path d="M740.297 128.047C705.595 128.047 670.353 118.999 636.256 110.239C632.417 109.251 628.591 108.27 624.772 107.301C619.014 105.839 613.252 104.358 607.49 102.877C571.035 93.5009 533.338 83.7981 495.881 79.8349C461.215 76.1603 426.444 85.4206 392.813 94.3666C346.907 106.583 299.44 119.217 252.093 98.7466L252.523 96.2712C299.521 116.594 346.81 104.005 392.545 91.8335C426.265 82.8554 461.138 73.5759 495.99 77.2698C533.525 81.2458 571.258 90.9549 607.75 100.343C613.512 101.825 619.27 103.306 625.028 104.768C628.846 105.737 632.677 106.718 636.515 107.705C671.153 116.6 706.967 125.79 742.131 125.476C766.373 125.251 790.634 117.896 814.096 110.784C843.272 101.94 873.445 92.789 903.948 97.2075C911.142 98.2464 918.284 100.549 925.19 102.774C931.52 104.813 938.061 106.917 944.598 108.033C961.101 110.854 978.899 109.719 999.005 104.57C1016.65 100.048 1034.27 92.9878 1051.31 86.1581C1066.32 80.1428 1081.84 73.9222 1097.35 69.446C1121.34 62.5265 1142.52 60.8463 1162.11 64.3157C1184.24 68.234 1206 77.7636 1227.06 86.9789L1229.2 87.9216C1275.55 108.225 1323.47 129.214 1369.07 96.3482L1369.75 98.6825C1323.61 131.933 1275.4 110.816 1228.77 90.3906L1226.63 89.4479C1205.64 80.2582 1183.93 70.7607 1161.93 66.8616C1142.51 63.4243 1121.48 65.0916 1097.65 71.9663C1082.19 76.4233 1066.69 82.6374 1051.71 88.6399C1034.64 95.4825 1016.98 102.556 999.265 107.096C979.013 112.284 961.077 113.419 944.424 110.572C937.814 109.443 931.232 107.321 924.865 105.275C918 103.063 910.903 100.78 903.797 99.7535C873.522 95.3734 843.466 104.486 814.4 113.298C790.865 120.435 766.531 127.81 742.139 128.041C741.527 128.041 740.91 128.047 740.297 128.047Z" fill="white" fill-opacity="0.52"/>
<path d="M739.802 104.672C705.985 104.672 671.64 97.6436 638.386 90.8459C634.093 89.9674 629.808 89.0888 625.531 88.2295C619.83 87.0815 614.133 85.9208 608.431 84.7537C571.745 77.2698 533.809 69.5294 496.258 66.4191C456.313 63.1165 418.97 73.3707 379.431 84.2278L379.309 84.2599C341.474 94.6488 296.765 102.21 252.057 79.4886L252.552 77.0453C296.928 99.5996 341.389 92.0772 379.033 81.7396L379.155 81.7075C418.787 70.8248 456.216 60.5449 496.343 63.8668C533.959 66.977 571.924 74.7238 608.643 82.2141C614.344 83.3749 620.041 84.542 625.742 85.6835C630.019 86.5429 634.304 87.4214 638.597 88.3C672.938 95.3221 708.44 102.588 743.272 102.081C767.452 101.729 791.746 95.4696 815.24 89.4158C844.038 81.9961 873.819 74.3198 903.737 77.4173C911.317 78.1997 918.876 80.1877 926.184 82.1115C932.145 83.6763 938.309 85.2988 944.432 86.2479C960.968 88.8194 978.862 88.2359 999.139 84.4779C1016.86 81.1945 1034.69 75.8525 1051.92 70.6837C1067.09 66.137 1082.77 61.4363 1098.34 58.1465C1146.77 47.9114 1190.88 59.2815 1227.63 71.7547L1229.03 72.2292C1275.34 87.9473 1323.23 104.204 1369.14 77.071L1369.71 79.4758C1351.62 90.1662 1333.25 94.1999 1314.81 94.1999C1286.02 94.1999 1257.06 84.3689 1228.69 74.7367L1227.29 74.2621C1190.67 61.8339 1146.74 50.5087 1098.56 60.6924C1083.03 63.9758 1067.37 68.6701 1052.23 73.204C1034.96 78.3792 1017.11 83.7276 999.33 87.0238C978.939 90.8074 960.931 91.3846 944.278 88.8002C938.102 87.8383 931.91 86.2158 925.92 84.6382C918.653 82.7272 911.134 80.752 903.635 79.976C873.908 76.8978 844.217 84.5484 815.508 91.9489C791.957 98.0156 767.602 104.294 743.296 104.647C742.127 104.666 740.959 104.672 739.802 104.672Z" fill="white" fill-opacity="0.52"/>
<path d="M732.031 80.566C701.071 80.566 669.643 75.6024 639.153 70.7927C633.014 69.8244 626.667 68.824 620.455 67.8813C616.076 67.2207 611.702 66.5538 607.324 65.8804C571.335 60.391 534.117 54.7091 497.386 52.439C456.155 49.893 417.501 60.128 380.124 70.0232C355.214 76.6221 334.714 79.3476 315.61 78.6101C292.598 77.7187 271.802 71.7098 252.028 60.2371L252.588 57.8322C297.816 84.0675 342.302 77.4429 379.857 67.4965C417.314 57.5757 456.046 47.3215 497.447 49.8802C534.227 52.1504 571.465 57.8322 607.478 63.3281C611.856 63.995 616.231 64.662 620.609 65.3289C626.825 66.2716 633.172 67.272 639.311 68.2404C673.027 73.5631 707.896 79.0654 741.949 77.8277C765.557 76.9684 789.396 72.2292 812.449 67.644C841.584 61.8531 871.708 55.8699 901.72 57.6206C910.379 58.1272 919.055 59.8523 927.446 61.5261C933.817 62.7958 940.407 64.1105 946.928 64.8736C962.408 66.6885 979.073 66.5089 997.877 64.3221C1016.22 62.193 1034.77 58.3645 1052.72 54.6578C1069.08 51.2782 1086.01 47.7896 1102.75 45.59C1140.05 40.6905 1178.54 43.82 1227.56 55.748L1228.82 56.0558C1275.1 67.3233 1322.95 78.9692 1369.19 57.8002L1369.64 60.2627C1323.06 81.5921 1275.02 69.9013 1228.57 58.589L1227.31 58.2811C1178.42 46.3852 1140.05 43.2557 1102.88 48.1423C1086.18 50.3355 1069.27 53.8242 1052.93 57.1973C1034.97 60.904 1016.39 64.7389 997.999 66.8744C979.114 69.0677 962.371 69.2472 946.81 67.4259C940.244 66.6564 933.634 65.3418 927.243 64.0656C918.888 62.4046 910.249 60.6796 901.659 60.1794C871.781 58.435 841.721 64.4055 812.651 70.1835C789.555 74.7752 765.675 79.5207 741.985 80.3801C738.674 80.5083 735.355 80.566 732.031 80.566Z" fill="white" fill-opacity="0.52"/>
<path d="M326.582 62.969C298.863 62.969 274.793 55.7288 252 40.9791L252.617 38.6063C288.682 61.9429 328.023 66.3165 380.173 52.7981C417.44 43.1402 455.972 33.1553 497.029 34.7778C530.254 36.0924 564.052 39.9466 596.733 43.6661C641.916 48.8157 688.638 54.1384 734.568 52.843C759.231 52.1504 784.231 48.758 808.407 45.4745C838.532 41.3959 869.688 37.1634 900.527 38.1125C913.313 38.5037 926.196 39.7606 938.654 40.9727C957.989 42.8581 977.986 44.8012 997.91 43.5378C1016.34 42.3643 1035.05 40.0492 1053.14 37.8111C1069.63 35.7718 1086.69 33.6619 1103.49 32.4178C1140.93 29.6539 1181.63 31.7573 1227.93 38.8628L1228.43 38.9398C1274.74 46.0389 1322.63 53.3817 1369.25 38.5358L1369.57 41.0496C1322.71 55.9789 1274.7 48.6169 1228.27 41.4921L1227.77 41.4152C1181.56 34.3289 1140.93 32.2255 1103.57 34.983C1086.79 36.2207 1069.75 38.3305 1053.27 40.3699C1035.17 42.608 1016.45 44.923 997.979 46.103C977.97 47.3728 957.932 45.4232 938.556 43.5378C926.115 42.3258 913.252 41.0753 900.498 40.6841C869.749 39.7414 838.633 43.9611 808.545 48.0461C784.344 51.3295 759.316 54.7284 734.596 55.421C688.589 56.71 641.831 51.3808 596.611 46.2313C563.95 42.5118 530.173 38.664 496.984 37.3494C456.086 35.7269 417.626 45.6926 380.433 55.3312C360.862 60.4038 343.077 62.969 326.582 62.969Z" fill="white" fill-opacity="0.52"/>
<path d="M330.356 46.9495C325.255 46.9495 320.284 46.693 315.427 46.1735C292.582 43.7559 274.773 38.3315 254.922 24.3L256.409 21.7275C292.998 47.5908 328.643 50.7716 380.449 37.2852C387.242 35.5153 394.14 33.5593 400.807 31.6675C411.402 28.6599 422.358 25.5496 433.208 23.1127C454.942 18.2325 476.27 17.9054 496.084 18.2902C527.799 18.8994 560.047 20.804 591.231 22.6446C633.963 25.1712 678.152 27.7813 721.603 27.0887C748.1 26.6719 775.024 24.8057 801.058 23.0037C833.042 20.7912 866.117 18.5018 898.701 18.8673C912.842 19.0277 927.182 19.8229 941.052 20.586C959.657 21.6185 978.895 22.683 997.869 22.2213C1016.4 21.7724 1035.22 20.7399 1053.44 19.7395C1070.02 18.8289 1087.16 17.8862 1104.03 17.3924C1143.06 16.2445 1183.66 17.2513 1228.14 20.4706C1274.4 23.8245 1313.02 23.5476 1360.11 15.525L1368.86 24.7865C1321.66 32.8283 1274.39 26.3897 1228.06 23.0357C1183.61 19.8165 1143.05 18.8096 1104.05 19.9575C1087.2 20.4513 1070.06 21.394 1053.49 22.3047C1035.27 23.3051 1016.43 24.3376 997.889 24.7865C978.879 25.2418 959.616 24.1772 940.991 23.1512C927.134 22.3816 912.802 21.5928 898.685 21.4325C866.145 21.067 833.087 23.3564 801.123 25.5688C775.077 27.3709 748.141 29.237 721.615 29.6539C678.124 30.34 633.918 27.73 591.166 25.2033C559.99 23.3628 527.755 21.4582 496.059 20.8489C476.31 20.4706 455.055 20.7912 433.432 25.6458C422.613 28.0763 411.67 31.1801 401.091 34.1878C394.416 36.0796 387.518 38.042 380.709 39.8119C362.388 44.5896 345.775 46.9495 330.356 46.9495Z" fill="white" fill-opacity="0.52"/>
<path d="M332.498 30.3144C326.635 30.3144 320.925 29.9553 315.346 29.2434C292.59 26.3256 283.729 28.2585 263.829 13.1625L267.787 10.4625C304.352 38.2048 329.897 34.4315 380.676 20.7271C388.001 18.7519 395.43 16.533 402.613 14.3847C412.652 11.3835 423.031 8.27962 433.31 5.78499C454.276 0.699549 475.129 0.0133676 494.521 0.0390193C524.013 0.0710839 553.996 0.186516 582.993 0.289123C622.058 0.43662 662.453 0.584115 702.182 0.545638C778.737 0.468683 856.573 0.353252 931.845 0.244232C989.323 0.160865 1046.8 0.0774948 1104.28 0.00695275C1136.85 -0.0315248 1169.97 0.0967348 1202 0.21858C1256.87 0.430206 1273.64 0.957507 1329.43 0.341867C1273.63 0.957507 1256.87 2.99537 1202 2.78375C1169.97 2.6619 1136.85 2.53364 1104.28 2.57212C1046.8 2.64266 989.319 2.72603 931.845 2.8094C856.573 2.91842 778.737 3.03385 702.182 3.1108C662.453 3.1557 622.053 3.00179 582.989 2.85429C553.992 2.74527 524.009 2.63625 494.517 2.60418C475.182 2.57212 454.41 3.2583 433.553 8.32451C423.303 10.8127 412.936 13.9102 402.909 16.905C395.719 19.0533 388.285 21.2786 380.944 23.2538C363.475 27.9737 347.471 30.3144 332.498 30.3144Z" fill="white" fill-opacity="0.52"/>
</g>
<defs>
<linearGradient id="paint0_linear_2422_20" x1="665.5" y1="510" x2="1370" y2="511.327" gradientUnits="userSpaceOnUse">
<stop stop-color="white"/>
<stop offset="1" stop-color="#9747FF"/>
</linearGradient>
</defs>
</svg>
