<svg width="1080" height="1117" viewBox="0 0 1080 1117" fill="none" xmlns="http://www.w3.org/2000/svg">
<g style="mix-blend-mode:soft-light">
<path d="M1080 172.143C1080 204.167 1079.96 236.455 1079.79 268.418C1078.68 491.523 1079.15 718.369 1079.62 937.745C1079.74 996.725 1079.53 1015.02 1079.62 1075.01L1077.06 1084.9C1076.96 1024.92 1077.18 996.725 1077.06 937.749C1076.81 817.992 1076.54 695.974 1076.54 573.588C1076.54 471.782 1076.72 369.729 1077.23 268.418C1077.49 215.643 1077.44 161.987 1077.4 110.092C1077.36 74.2005 1077.33 70.6405 1077.4 34.1367L1079.96 47.4938C1079.89 83.9936 1079.92 74.2046 1079.96 110.092C1079.98 130.551 1080 151.29 1080 172.143Z" fill="white" fill-opacity="0.52"/>
<path d="M1061.66 191.705C1061.66 219.12 1061.02 246.66 1059.09 273.977C1057.53 295.885 1055.18 318.235 1052.91 339.847C1047.75 388.877 1042.42 439.575 1045.86 489.193C1047.52 513 1050.12 537.229 1052.63 560.655C1056.53 596.988 1060.56 634.555 1061.17 671.522C1061.93 716.863 1058.56 762.972 1055.32 807.567C1052.98 839.583 1050.57 872.69 1049.7 905.23C1048.57 947.422 1051.96 990.325 1055.25 1031.82C1057.55 1060.91 1060.37 1083.93 1061.17 1113.52L1058.61 1116.98C1057.8 1087.42 1054.98 1060.98 1052.69 1031.9C1049.4 990.382 1046.01 947.447 1047.13 905.201C1048.01 872.637 1050.42 839.522 1052.75 807.494C1056 762.927 1059.36 716.839 1058.61 671.542C1057.99 634.62 1053.96 597.073 1050.07 560.768C1047.56 537.331 1044.96 513.094 1043.3 489.266C1039.85 439.558 1045.18 388.812 1050.34 339.737C1052.61 318.133 1054.96 295.791 1056.52 273.9C1060.31 220.58 1059.11 166.368 1057.95 113.938C1057.14 77.7342 1056.32 40.3012 1057.14 3.46467L1061.66 6.92756C1060.84 43.7438 1059.71 77.726 1060.51 113.917C1061.08 139.522 1061.66 165.557 1061.66 191.705Z" fill="white" fill-opacity="0.52"/>
<path d="M1044.36 200.726C1044.36 224.318 1043.32 247.967 1040.41 271.478C1037.28 296.705 1033.18 322.293 1029.21 347.038C1027.11 360.108 1024.95 373.624 1022.94 386.922C1022.45 390.204 1021.95 393.487 1021.44 396.778C1016.69 427.84 1011.77 459.958 1015.74 491.446C1018.75 515.265 1023.43 539.441 1027.96 562.822C1034.23 595.212 1040.71 628.705 1042.87 661.82C1044.92 693.341 1040.74 725.807 1036.69 757.206C1035.62 765.541 1034.51 774.156 1033.54 782.559C1032.92 787.956 1032.29 793.353 1031.67 798.75C1027.33 836.106 1022.84 874.736 1020.94 912.806C1018.95 952.536 1025.2 992.805 1031.24 1031.75C1035.6 1059.88 1040.11 1088.97 1041.5 1117.66L1038.93 1117.71C1037.55 1089.08 1033.04 1060.01 1028.68 1031.91C1022.64 992.915 1016.38 952.593 1018.37 912.757C1020.28 874.651 1024.77 836.004 1029.11 798.632C1029.74 793.235 1030.37 787.839 1030.99 782.442C1031.95 774.03 1033.06 765.411 1034.13 757.076C1038.17 725.726 1042.36 693.308 1040.3 661.889C1038.15 628.838 1031.67 595.378 1025.41 563.021C1020.88 539.624 1016.19 515.432 1013.18 491.576C1009.18 459.945 1014.11 427.751 1018.88 396.62C1019.39 393.333 1019.89 390.05 1020.39 386.767C1022.39 373.462 1024.55 359.945 1026.65 346.871C1030.62 322.135 1034.72 296.555 1037.84 271.348C1044.46 217.878 1041.39 163.589 1038.42 111.09C1036.37 74.8944 1034.26 37.4613 1035.31 0.567944L1037.88 0.596509C1036.82 37.4493 1038.93 74.8538 1040.98 111.033C1042.66 140.517 1044.36 170.569 1044.36 200.726Z" fill="white" fill-opacity="0.52"/>
<path d="M1028.06 209.304C1028.06 230.214 1026.72 251.168 1023.19 272.058C1018.85 297.74 1013.06 323.73 1007.46 348.868C1004.5 362.137 1001.45 375.856 998.639 389.364C997.908 392.878 997.158 396.405 996.408 399.935C989.822 430.9 983.011 462.92 988.5 494.108C992.515 516.9 998.954 539.969 1005.19 562.279C1013.71 592.797 1022.52 624.355 1025.28 655.754C1026.8 673.166 1024.38 691.15 1022.03 708.541C1021.5 712.49 1020.94 716.576 1020.45 720.552C1017.85 741.624 1014.6 762.234 1011.47 781.366C1010.57 786.909 1009.65 792.456 1008.73 797.999C1002.3 836.909 995.657 877.142 992.861 916.884C990.129 955.802 998.992 995.005 1007.57 1032.92C1013.84 1060.62 1020.32 1089.27 1022.25 1117.66L1019.69 1117.72C1017.76 1089.43 1011.29 1060.81 1005.03 1033.14C996.44 995.159 987.558 955.879 990.303 916.811C993.099 877.02 999.755 836.763 1006.19 797.829C1007.1 792.286 1008.02 786.743 1008.93 781.2C1012.05 762.076 1015.3 741.478 1017.9 720.427C1018.39 716.442 1018.94 712.356 1019.47 708.403C1021.82 691.064 1024.24 673.137 1022.72 655.843C1019.97 624.541 1011.17 593.033 1002.66 562.559C996.427 540.225 989.975 517.132 985.955 494.282C980.427 462.895 987.263 430.774 993.868 399.712C994.618 396.181 995.369 392.659 996.1 389.145C998.909 375.629 1001.97 361.905 1004.92 348.636C1010.52 323.515 1016.3 297.533 1020.64 271.879C1029.74 218.016 1024.2 163.561 1018.85 110.899C1015.17 74.8092 1011.38 37.4897 1012.29 0.567944L1014.86 0.592358C1013.94 37.4492 1017.74 74.7321 1021.41 110.794C1024.7 143.13 1028.06 176.152 1028.06 209.304Z" fill="white" fill-opacity="0.52"/>
<path d="M1013.44 209.061C1013.44 231.16 1011.34 251.834 1007.16 271.888C1001.77 297.663 994.484 323.677 987.436 348.831C983.716 362.112 979.869 375.848 976.348 389.381C975.489 392.684 974.604 396.007 973.719 399.338C965.472 430.36 956.949 462.433 963.631 493.467C968.39 515.578 976.31 537.863 983.967 559.418C994.317 588.565 1005.03 618.702 1008.13 648.929C1009.96 666.848 1006.78 685.493 1003.69 703.526C1003.05 707.283 1002.38 711.171 1001.79 714.945C998.383 736.398 994.112 757.324 990.008 776.745C988.828 782.324 987.635 787.903 986.442 793.483C977.977 833.054 969.223 873.977 965.6 914.523C962.079 953.903 973.366 993.292 984.274 1031.38C992.342 1059.54 1000.68 1088.66 1003.03 1117.65L1000.47 1117.73C998.133 1088.85 989.809 1059.78 981.754 1031.67C970.82 993.487 959.514 953.997 963.048 914.429C966.677 873.819 975.437 832.868 983.909 793.264C985.102 787.684 986.295 782.109 987.474 776.529C991.579 757.125 995.843 736.211 999.249 714.782C999.851 711.004 1000.51 707.113 1001.16 703.351C1004.23 685.388 1007.41 666.807 1005.59 649.03C1002.5 618.929 991.816 588.857 981.485 559.771C973.815 538.184 965.889 515.866 961.117 493.682C954.384 462.404 962.945 430.206 971.218 399.067C972.103 395.735 972.981 392.42 973.841 389.117C977.361 375.576 981.216 361.836 984.935 348.547C991.976 323.405 999.255 297.411 1004.64 271.672C1012.89 232.182 1012.98 190.261 1004.93 139.742C1003.55 131.095 1002.07 122.31 1000.63 113.813C994.381 76.8056 987.923 38.5408 988.404 0.576245L990.969 0.58833C990.469 38.4596 996.934 76.6799 1003.18 113.638C1004.62 122.139 1006.1 130.928 1007.48 139.579C1011.45 164.592 1013.44 187.506 1013.44 209.061Z" fill="white" fill-opacity="0.52"/>
<path d="M1000.23 213.679C1000.23 234.276 996.138 254.09 991.963 271.153C985.698 296.754 977.092 322.504 968.768 347.411C964.375 360.554 959.828 374.148 955.686 387.551C954.845 390.269 953.986 393 953.127 395.743C943.341 426.964 933.215 459.247 940.744 490.387C946.015 512.181 955.153 534.045 963.99 555.186C975.816 583.472 988.039 612.721 991.245 642.31C993.233 660.66 989.302 679.837 985.499 698.381C984.826 701.672 984.127 705.072 983.486 708.371C979.311 729.845 973.834 751.55 969.031 769.956C967.594 775.466 966.139 780.981 964.683 786.491C954.268 825.945 943.495 866.738 939.134 907.328C934.76 948.04 948.247 988.565 961.297 1027.75C971.057 1057.06 981.145 1087.37 983.761 1117.65L981.203 1117.74C978.593 1087.58 968.524 1057.34 958.789 1028.09C945.707 988.788 932.176 948.153 936.575 907.219C940.949 866.551 951.729 825.718 962.156 786.228C963.612 780.717 965.068 775.207 966.504 769.696C971.301 751.31 976.771 729.622 980.94 708.18C981.581 704.877 982.28 701.473 982.953 698.182C986.737 679.715 990.649 660.619 988.68 642.428C985.493 612.993 973.295 583.817 961.502 555.608C952.646 534.426 943.488 512.522 938.198 490.638C930.598 459.219 940.763 426.793 950.6 395.435C951.459 392.692 952.312 389.961 953.152 387.246C957.302 373.831 961.842 360.234 966.241 347.082C974.559 322.2 983.158 296.47 989.411 270.914C994.221 251.262 998.921 227.946 997.337 204.037C995.779 180.592 991.143 157.271 987.269 139.576C985.371 130.908 983.338 122.103 981.376 113.585C972.866 76.7366 964.067 38.6381 963.939 0.592358L966.504 0.588451C966.632 38.5165 975.418 76.558 983.915 113.35C985.884 121.867 987.917 130.677 989.815 139.352C993.695 157.085 998.344 180.458 999.903 203.968C1000.13 207.215 1000.23 210.457 1000.23 213.679Z" fill="white" fill-opacity="0.52"/>
<path d="M986.019 215.756C986.019 235.363 981.703 253.964 977.259 270.033C970.275 295.277 960.508 320.561 951.062 345.017C946.079 357.917 940.93 371.255 936.255 384.418C935.632 386.171 935.004 387.928 934.375 389.693C923.07 421.328 911.379 454.041 919.459 485.696C925.045 507.568 935.184 529.398 944.995 550.507C957.988 578.457 971.417 607.365 974.514 636.848C976.496 655.664 971.82 675.32 967.306 694.331C966.697 696.883 966.094 699.419 965.517 701.935C960.643 723.003 954.217 744.25 948.574 762.258C946.894 767.619 945.194 772.979 943.495 778.339C931.246 816.977 918.574 856.926 913.591 896.891C908.23 939.859 923.807 982.697 938.877 1024.12C949.972 1054.63 961.444 1086.18 964.542 1117.64L961.983 1117.74C958.898 1086.41 947.451 1054.93 936.383 1024.49C921.274 982.941 905.652 939.981 911.039 896.766C916.035 856.707 928.719 816.706 940.987 778.023C942.687 772.662 944.386 767.306 946.066 761.946C951.703 743.962 958.122 722.74 962.983 701.704C963.567 699.188 964.17 696.652 964.773 694.096C969.268 675.17 973.918 655.604 971.962 636.962C968.883 607.657 955.487 578.838 942.539 550.97C932.708 529.812 922.537 507.933 916.932 485.96C908.775 453.997 920.517 421.129 931.881 389.34C932.509 387.575 933.138 385.818 933.76 384.065C938.441 370.885 943.597 357.539 948.58 344.635C958.013 320.208 967.768 294.944 974.738 269.757C980.068 250.499 985.204 227.601 982.889 203.741C980.619 180.324 974.655 157.048 969.711 139.389C967.274 130.689 964.67 121.859 962.15 113.318C951.338 76.6596 940.154 38.7518 939.333 0.604564L941.898 0.584423C942.712 38.5937 953.877 76.4324 964.67 113.021C967.19 121.567 969.8 130.401 972.231 139.109C977.188 156.813 983.165 180.145 985.442 203.644C985.839 207.71 986.019 211.751 986.019 215.756Z" fill="white" fill-opacity="0.52"/>
<path d="M971.692 217.132C971.692 236.329 967.056 254.386 962.688 268.702C955.128 293.471 944.367 318.171 933.959 342.055C928.469 354.65 922.794 367.676 917.657 380.551L917.291 381.468C904.35 413.91 890.966 447.456 899.354 480.259C905.075 502.621 916.041 524.838 926.648 546.319C940.551 574.48 954.929 603.603 957.744 633.509C959.585 653.007 954.082 673.259 948.766 692.846C948.413 694.157 948.054 695.459 947.708 696.758C942.212 717.128 934.921 737.591 928.508 754.922C926.609 760.059 924.686 765.192 922.762 770.329C908.826 807.555 894.41 846.047 888.953 884.824C883.669 922.338 897.129 959.621 910.141 995.674L910.641 997.05C912.642 1002.59 914.72 1008.24 916.734 1013.69C929.175 1047.47 942.045 1082.4 945.297 1117.64L942.738 1117.74C939.506 1082.63 926.661 1047.77 914.239 1014.06C912.232 1008.6 910.147 1002.96 908.147 997.411L907.653 996.035C894.596 959.86 881.091 922.451 886.407 884.678C891.884 845.788 906.319 807.235 920.274 769.952C922.197 764.819 924.121 759.686 926.019 754.549C932.426 737.242 939.711 716.807 945.188 696.482C945.54 695.183 945.893 693.877 946.246 692.566C951.537 673.072 957.013 652.913 955.192 633.602C952.396 603.891 938.063 574.866 924.211 546.798C913.578 525.259 902.58 502.99 896.834 480.51C888.363 447.374 901.811 413.662 914.816 381.062L915.182 380.145C920.325 367.254 926 354.22 931.496 341.616C941.891 317.761 952.64 293.093 960.181 268.39C965.555 250.779 971.333 227.487 968.3 203.445C965.344 180.06 958.091 156.825 952.101 139.198C949.132 130.466 945.957 121.603 942.892 113.033C929.835 76.5824 916.336 38.8857 914.874 0.600536L917.439 0.559886C918.895 38.6827 932.368 76.2943 945.393 112.672C948.465 121.246 951.639 130.113 954.608 138.857C960.617 156.533 967.889 179.833 970.859 203.315C971.436 207.961 971.692 212.579 971.692 217.132Z" fill="white" fill-opacity="0.52"/>
<path d="M957.007 218.516C957.007 233.05 954.05 248.689 947.913 267.335C939.916 291.604 928.309 315.683 917.08 338.967C911.161 351.242 905.036 363.934 899.528 376.497C884.791 410.063 872.222 442.854 880.084 474.911C885.798 498.198 897.437 521.25 908.698 543.544C923.313 572.472 938.422 602.386 940.821 633.249C943.61 669.177 926.834 707.758 912.039 741.803C910.956 744.29 909.884 746.766 908.82 749.217C906.723 754.074 904.6 758.931 902.471 763.788C887.029 799.099 871.067 835.611 865.302 872.727C859.396 910.793 873.549 948.908 887.24 985.769L888.664 989.612C890.889 995.613 893.205 1001.72 895.449 1007.63C909 1043.37 923.012 1080.32 926.051 1117.65L923.493 1117.74C920.472 1080.55 906.486 1043.67 892.961 1008.01C890.716 1002.1 888.401 995.991 886.176 989.985L884.752 986.142C871.016 949.152 856.805 910.903 862.756 872.569C868.54 835.311 884.534 798.73 900.002 763.354C902.125 758.497 904.248 753.644 906.345 748.786C907.403 746.331 908.48 743.86 909.564 741.369C924.314 707.442 941.019 668.99 938.262 633.322C935.883 602.67 920.819 572.861 906.255 544.031C894.962 521.681 883.29 498.567 877.544 475.154C869.605 442.773 882.245 409.803 897.052 376.059C902.574 363.476 908.698 350.775 914.624 338.492C925.833 315.245 937.428 291.203 945.399 267.002C953.717 241.754 956.147 222.07 953.294 203.185C949.779 179.958 941.75 157.726 934.356 139.036C930.887 130.263 927.174 121.368 923.583 112.762C908.461 76.5215 892.833 39.044 890.883 0.608714L893.448 0.555858C895.385 38.8045 910.981 76.1928 926.064 112.344C929.656 120.954 933.369 129.857 936.844 138.638C944.258 157.385 952.319 179.691 955.846 203.027C956.622 208.107 957.007 213.236 957.007 218.516Z" fill="white" fill-opacity="0.52"/>
<path d="M941.552 219.295C941.552 233.562 938.608 248.803 932.58 266.109C924.282 289.937 911.962 313.439 900.041 336.171C893.762 348.149 887.266 360.534 881.443 372.809C867.572 402.061 853.425 436.142 861.204 470.483C866.796 495.159 879.006 519.522 890.813 543.085C905.979 573.348 921.659 604.642 923.55 636.999C923.659 638.91 923.717 640.825 923.717 642.74C923.717 677.865 905.549 714.161 889.421 746.384C887.151 750.921 884.849 755.457 882.553 759.994C865.821 792.984 848.526 827.098 842.671 862.189C836.232 900.738 850.963 939.656 865.206 977.288C865.918 979.175 866.629 981.058 867.341 982.937C869.765 989.364 872.292 995.905 874.735 1002.23C889.222 1039.71 904.196 1078.46 906.813 1117.65L904.248 1117.72C901.644 1078.69 886.695 1040.02 872.241 1002.62C869.797 996.287 867.264 989.742 864.84 983.314C864.135 981.435 863.423 979.553 862.705 977.67C848.41 939.904 833.635 900.852 840.118 862.023C846.005 826.765 863.339 792.57 880.109 759.503C882.411 754.966 884.707 750.434 886.978 745.897C903.921 712.043 923.134 673.665 920.992 637.059C919.113 604.922 903.484 573.738 888.369 543.576C876.531 519.952 864.289 495.52 858.664 470.711C850.809 436.049 865.032 401.757 878.987 372.338C884.816 360.039 891.319 347.642 897.604 335.656C909.5 312.964 921.806 289.498 930.072 265.756C938.416 241.799 940.814 221.847 937.633 202.962C933.715 179.756 924.724 157.555 916.438 138.898C912.527 130.092 908.339 121.161 904.292 112.526C887.388 76.481 869.906 39.2063 867.764 0.612742L870.33 0.555858C872.459 38.9465 889.896 76.1157 906.755 112.064C910.808 120.707 914.996 129.642 918.914 138.46C927.225 157.182 936.254 179.468 940.192 202.792C941.096 208.184 941.552 213.666 941.552 219.295Z" fill="white" fill-opacity="0.52"/>
<path d="M925.058 219.883C925.058 234.061 922.165 249.03 916.342 265.204C908.217 287.758 895.385 310.416 882.97 332.332C858.318 375.852 832.827 420.857 842.369 467.842C847.763 494.396 860.46 520.585 872.741 545.91C888.337 578.08 904.466 611.345 905.832 645.747C905.889 647.127 905.915 648.507 905.915 649.878C905.915 689.161 883.932 726.274 862.647 762.214C844.967 792.063 826.683 822.93 821.117 854.841C814.332 893.755 829.518 933.286 844.21 971.518C845.044 973.681 845.871 975.84 846.692 977.99C849.282 984.771 852.002 991.677 854.624 998.356C869.855 1037.09 885.599 1077.14 887.574 1117.67L885.009 1117.72C883.04 1077.36 867.328 1037.4 852.136 998.746C849.507 992.063 846.794 985.156 844.197 978.368C843.376 976.217 842.549 974.062 841.715 971.895C826.972 933.529 811.728 893.856 818.565 854.658C824.17 822.549 842.504 791.584 860.242 761.637C882.187 724.59 904.87 686.276 903.266 645.784C901.907 611.609 885.83 578.449 870.285 546.384C857.972 520.991 845.242 494.737 839.823 468.045C830.198 420.666 855.798 375.479 880.552 331.78C892.942 309.913 905.748 287.299 913.841 264.839C922.018 242.14 924.371 221.847 921.024 202.8C916.952 179.605 907.223 157.43 898.245 138.796C893.987 129.963 889.421 121.003 884.996 112.34C866.687 76.4606 847.756 39.3564 845.82 0.604563L848.385 0.551829C850.309 39.0764 869.188 76.067 887.439 111.84C891.864 120.512 896.437 129.476 900.701 138.322C909.711 157.024 919.478 179.289 923.576 202.617C924.564 208.261 925.058 214.007 925.058 219.883Z" fill="white" fill-opacity="0.52"/>
<path d="M906.268 223.113C906.268 237.4 903.805 251.181 898.848 264.795C890.37 288.078 877.243 310.944 864.552 333.055C840.016 375.795 814.646 419.993 823.156 467.813C828.312 496.782 841.446 525.345 854.15 552.966C870.086 587.611 886.561 623.437 887.471 660.424C887.491 661.167 887.497 661.913 887.497 662.652C887.497 699.557 865.071 733.225 843.363 765.813C824.997 793.39 806.002 821.904 800.673 852.244C793.798 891.397 809.388 931.253 824.464 969.798C825.234 971.766 825.997 973.726 826.76 975.677C829.499 982.709 832.378 989.876 835.168 996.81C850.931 1036.04 867.239 1076.6 868.342 1117.67L865.777 1117.7C864.68 1076.82 848.41 1036.35 832.686 997.212C829.896 990.277 827.017 983.107 824.272 976.067C823.509 974.115 822.746 972.155 821.976 970.187C806.848 931.504 791.201 891.507 798.12 852.065C803.488 821.49 822.553 792.866 840.997 765.18C863.038 732.093 885.823 697.878 884.906 660.444C884.002 623.673 867.572 587.956 851.687 553.412C838.951 525.726 825.786 497.094 820.604 467.988C816.75 446.352 819.418 423.632 828.748 398.531C837.066 376.164 849.808 353.964 862.134 332.491C874.799 310.424 887.901 287.607 896.341 264.417C913.739 216.616 896.584 172.143 879.693 138.74C875.216 129.885 870.387 120.905 865.719 112.226C846.486 76.4606 826.6 39.4781 825.394 0.584299L827.96 0.551829C829.159 39.1941 848.981 76.055 868.149 111.703C872.824 120.394 877.653 129.378 882.136 138.249C894.102 161.909 901.163 181.809 904.357 200.876C905.633 208.46 906.268 215.854 906.268 223.113Z" fill="white" fill-opacity="0.52"/>
<path d="M886.118 219.128C886.118 232.953 883.309 247.435 877.576 263.561C869.528 286.212 857.151 308.846 845.178 330.729C820.957 375.028 795.908 420.833 805.598 468.97C811.587 498.734 825.215 528.27 838.393 556.829C855.388 593.653 872.959 631.736 874.415 670.8C875.755 707.462 851.379 740.825 827.78 773.097C808.99 798.795 789.559 825.369 783.236 853.453C775.053 889.851 789.732 927.852 803.93 964.6C805.399 968.41 806.861 972.184 808.278 975.921C810.895 982.823 813.646 989.859 816.301 996.66C831.64 1035.95 847.493 1076.58 849.103 1117.67L846.538 1117.71C844.941 1076.79 829.114 1036.26 813.813 997.05C811.158 990.245 808.413 983.209 805.79 976.302C804.373 972.569 802.917 968.795 801.442 964.989C787.847 929.812 772.443 889.936 780.696 853.23C787.064 824.91 806.579 798.226 825.452 772.419C848.923 740.318 873.183 707.129 871.849 670.845C870.4 631.991 852.88 594.019 835.931 557.292C822.727 528.668 809.067 499.075 803.052 469.181C793.285 420.662 818.436 374.675 842.754 330.202C854.701 308.359 867.053 285.769 875.069 263.208C883.226 240.249 885.426 220.658 881.976 201.554C877.737 178.059 867.559 155.186 859.171 137.879C855.022 129.321 850.591 120.654 846.307 112.271C827.998 76.4525 809.067 39.4173 806.778 0.61677L809.343 0.555857C811.613 39.1291 830.493 76.059 848.744 111.772C853.034 120.159 857.465 128.834 861.621 137.404C870.047 154.776 880.263 177.747 884.521 201.371C885.586 207.215 886.118 213.111 886.118 219.128Z" fill="white" fill-opacity="0.52"/>
<path d="M861.159 215.444C861.159 228.944 858.549 243.382 853.162 260.311C846.076 282.588 835.161 305.263 824.606 327.195C802.321 373.49 779.279 421.364 789.617 469.81C796.081 500.105 809.484 530.279 822.444 559.462C839.317 597.455 856.76 636.739 859.177 676.834C860.992 707.072 839.471 737.579 820.476 764.498C817.827 768.248 815.095 772.062 812.459 775.75C794.292 801.116 775.502 827.345 768.358 855.352C759.508 890.042 773.725 928.595 786.276 962.611C788.084 967.513 789.79 972.143 791.457 976.805C793.836 983.48 796.324 990.277 798.729 996.851C813.094 1036.11 827.947 1076.71 829.877 1117.67L827.312 1117.72C825.394 1076.92 810.568 1036.4 796.228 997.216C793.824 990.642 791.335 983.842 788.95 977.162C787.289 972.508 785.583 967.878 783.774 962.981C771.173 928.818 756.898 890.099 765.825 855.092C773.026 826.87 791.887 800.543 810.125 775.081C812.767 771.396 815.493 767.586 818.141 763.837C837.021 737.08 858.421 706.756 856.619 676.899C854.214 636.999 836.809 597.805 819.982 559.905C807.002 530.669 793.573 500.438 787.084 470.033C776.669 421.23 799.794 373.19 822.156 326.728C832.692 304.837 843.594 282.198 850.655 259.998C858.37 235.749 860.358 216.665 857.093 198.117C853.881 179.816 847.557 160.485 836.61 135.437C833.09 127.39 829.37 119.242 825.773 111.362C809.497 75.7181 792.663 38.8613 789.809 0.624826L792.374 0.547678C795.215 38.5934 812.004 75.3569 828.242 110.911C831.839 118.795 835.565 126.948 839.086 135.002C850.078 160.136 856.42 179.549 859.652 197.938C860.646 203.676 861.159 209.471 861.159 215.444Z" fill="white" fill-opacity="0.52"/>
<path d="M841.048 684.04C841.048 711.56 822.348 739.908 805.758 765.054L804.245 767.347C801.788 771.076 799.255 774.866 796.806 778.534C779.863 803.883 762.343 830.096 755.276 857.766C746.599 891.714 759.45 929.577 770.788 962.985C772.565 968.223 774.245 973.17 775.867 978.149C777.958 984.564 780.132 991.089 782.235 997.403C795.286 1036.53 808.772 1076.99 810.625 1117.67L808.06 1117.72C806.22 1077.19 792.753 1036.8 779.728 997.739C777.625 991.426 775.444 984.897 773.354 978.477C771.738 973.506 770.057 968.56 768.281 963.325C756.898 929.78 743.995 891.758 752.749 857.507C759.867 829.646 777.451 803.339 794.452 777.901C796.902 774.237 799.435 770.447 801.891 766.722L803.404 764.429C820.642 738.293 840.17 708.671 838.381 680.34C835.796 639.896 819.27 599.927 803.289 561.268C791.092 531.756 778.471 501.241 772.122 470.686C764.658 434.771 774.893 399.59 786.019 366.637C790.354 353.802 795.138 340.805 799.768 328.238C808.541 304.419 817.609 279.788 823.971 255.251C828.626 237.279 832.917 215.817 829.422 192.895C826.696 175.024 821.335 155.6 812.543 131.768C809.817 124.379 806.957 116.896 804.193 109.661C790.72 74.4074 776.784 37.9524 774.117 0.624826L776.682 0.551828C779.343 37.7252 793.246 74.1031 806.688 109.28C809.458 116.519 812.318 124.006 815.044 131.403C823.862 155.307 829.242 174.801 831.974 192.745C835.514 215.987 830.91 238.504 826.497 255.522C820.129 280.113 811.049 304.768 802.263 328.615C797.639 341.178 792.855 354.167 788.527 366.986C777.445 399.805 767.249 434.828 774.662 470.483C780.991 500.937 793.586 531.403 805.765 560.866C821.778 599.606 838.342 639.66 840.933 680.283C841.01 681.525 841.048 682.783 841.048 684.04Z" fill="white" fill-opacity="0.52"/>
<path d="M820.386 685.465C820.386 712.49 804.001 740.634 789.463 765.598L787.359 769.213C785.185 772.955 782.986 776.696 780.78 780.441C765.62 806.208 749.94 832.852 743.514 860.55C735.658 894.436 746.413 930.295 756.808 964.973C758.277 969.871 759.797 974.935 761.207 979.824C762.971 985.948 764.805 992.176 766.581 998.202C778.048 1037.12 789.899 1077.37 791.38 1117.67L788.815 1117.71C787.34 1077.54 775.502 1037.36 764.055 998.498C762.278 992.472 760.444 986.244 758.681 980.117C757.27 975.231 755.757 970.167 754.288 965.273C743.848 930.466 733.055 894.469 740.975 860.31C747.433 832.442 763.163 805.717 778.375 779.873C780.575 776.132 782.774 772.395 784.948 768.653L787.052 765.034C802.205 739.007 819.385 709.499 817.699 681.622C815.256 641.142 800.358 600.897 785.955 561.974C774.989 532.353 763.657 501.724 757.866 471.173C750.838 434.077 760.06 395.82 767.473 365.087C770.686 351.765 774.226 338.249 777.657 325.178C784.153 300.389 790.874 274.756 795.613 249.387C799.076 230.88 802.263 208.919 799.685 186.366C797.684 168.812 793.766 150.012 787.372 127.203C785.512 120.577 783.576 113.857 781.697 107.361C771.68 72.6706 761.323 36.8041 759.361 0.612741L761.926 0.555856C763.882 36.6295 774.226 72.4394 784.223 107.068C786.102 113.569 788.039 120.289 789.899 126.919C796.312 149.789 800.237 168.641 802.244 186.252C804.835 208.943 801.635 230.997 798.159 249.582C793.407 274.988 786.686 300.641 780.183 325.446C776.759 338.512 773.219 352.025 770.006 365.334C760.611 404.301 753.935 436.824 760.412 470.983C766.184 501.444 777.503 532.028 788.45 561.605C802.885 600.6 817.808 640.923 820.258 681.561C820.347 682.86 820.386 684.162 820.386 685.465Z" fill="white" fill-opacity="0.52"/>
<path d="M797.992 684.531C797.992 712.68 784.211 740.918 770.878 768.235C770.109 769.814 769.339 771.388 768.582 772.951C767.146 775.909 765.697 778.867 764.247 781.825C751.088 808.675 737.486 836.439 732.337 864.839C726.103 899.212 735.261 935.075 744.124 969.757C745.323 974.444 746.56 979.289 747.721 984C748.972 989.06 750.241 994.124 751.511 999.184C761.208 1037.84 771.231 1077.82 772.161 1117.68L769.596 1117.7C768.666 1077.95 758.655 1038.04 748.978 999.44C747.708 994.376 746.439 989.311 745.188 984.251C744.027 979.544 742.79 974.703 741.59 970.021C732.702 935.229 723.512 899.257 729.791 864.66C734.966 836.106 748.613 808.269 761.804 781.35C763.253 778.392 764.703 775.434 766.139 772.48C766.902 770.914 767.665 769.343 768.441 767.761C781.799 740.387 795.606 712.072 795.44 684.004C795.241 652.589 785.371 620.581 775.823 589.628C774.687 585.944 773.552 582.275 772.443 578.623C771.013 573.912 769.564 569.201 768.114 564.49C758.976 534.783 749.53 504.062 744.399 473.434C738.416 437.705 743.54 401.461 748.497 366.414L748.709 364.896C750.742 350.503 753.012 335.879 755.199 321.733C759.149 296.259 763.228 269.911 766.107 243.946C770.442 204.869 768.974 165.152 761.618 122.529C760.566 116.442 759.489 110.359 758.411 104.281C752.415 70.4268 746.208 35.4204 745.246 0.600534L747.811 0.572091C748.773 35.3148 754.968 70.2848 760.957 104.102C762.035 110.181 763.112 116.264 764.164 122.354C771.532 165.075 773.007 204.885 768.659 244.059C765.78 270.045 761.695 296.405 757.745 321.892C755.551 336.029 753.288 350.649 751.255 365.038L751.043 366.556C746.099 401.53 740.981 437.693 746.939 473.263C752.056 503.818 761.496 534.503 770.622 564.178C772.071 568.889 773.52 573.604 774.957 578.315C776.066 581.967 777.201 585.635 778.336 589.316C787.905 620.341 797.806 652.426 798.005 683.996C797.992 684.17 797.992 684.353 797.992 684.531Z" fill="white" fill-opacity="0.52"/>
<path d="M774.181 683.164C774.181 717.943 760.502 752.276 747.272 785.493C736.575 812.348 725.513 840.119 721.774 867.915C716.984 903.562 724.468 940.212 731.702 975.653C732.407 979.098 733.106 982.531 733.792 985.956C734.741 990.687 735.71 995.414 736.672 1000.15C744.502 1038.54 752.595 1078.25 752.909 1117.69L750.344 1117.7C750.03 1078.36 741.943 1038.71 734.126 1000.35C733.164 995.621 732.195 990.89 731.246 986.159C730.56 982.734 729.855 979.301 729.156 975.86C721.903 940.334 714.4 903.595 719.216 867.773C722.974 839.843 734.061 812.011 744.784 785.091C758.091 751.7 771.814 717.168 771.616 682.3C771.346 641.478 760.419 600.328 749.857 560.534C742.302 532.093 734.498 502.682 730.644 473.632C726.353 441.296 728.014 408.274 729.624 376.339C729.848 371.896 730.073 367.452 730.278 363.017C730.983 348.036 731.785 332.807 732.561 318.077C733.965 291.531 735.415 264.084 736.319 237.08C737.8 192.74 735.928 147.711 734.113 104.167C732.696 70.228 731.246 35.1362 731.375 0.580148L733.94 0.584298C733.811 35.1282 735.267 70.1995 736.678 104.127C738.493 147.691 740.372 192.737 738.884 237.116C737.98 264.129 736.531 291.584 735.126 318.134C734.35 332.86 733.542 348.089 732.843 363.07C732.638 367.509 732.413 371.952 732.189 376.396C730.586 408.286 728.925 441.259 733.202 473.502C737.05 502.487 744.848 531.862 752.39 560.27C762.971 600.126 773.918 641.34 774.187 682.296C774.181 682.584 774.181 682.876 774.181 683.164Z" fill="white" fill-opacity="0.52"/>
<path d="M749.69 679.605C749.69 679.662 749.69 679.723 749.69 679.78C749.671 715.022 739.654 750.178 729.964 784.178C721.903 812.477 713.559 841.738 711.046 870.877C707.147 915.991 714.598 961.731 721.813 1005.96C727.777 1042.54 733.953 1080.36 733.677 1117.69L731.112 1117.68C731.387 1080.43 725.218 1042.66 719.261 1006.13C712.04 961.832 704.575 916.028 708.487 870.788C711.014 841.547 719.37 812.234 727.443 783.886C737.114 749.955 747.112 714.872 747.131 679.776C747.131 679.719 747.131 679.658 747.131 679.601C747.131 639.713 739 599.403 731.131 560.408C725.404 532.032 719.485 502.69 716.74 473.734C714.278 447.756 713.585 421.263 712.918 395.638C712.623 384.337 712.315 372.65 711.866 361.175C711.251 345.613 710.629 330.056 710 314.494C708.891 286.901 707.749 258.371 706.678 230.307C704.844 182.162 708.532 133.481 712.091 86.4024C714.22 58.2982 716.413 29.2364 717.42 0.564157L719.985 0.600533C718.978 29.2931 716.779 58.367 714.65 86.4833C711.091 133.533 707.409 182.186 709.237 230.271C710.308 258.335 711.45 286.865 712.559 314.454C713.181 330.015 713.81 345.573 714.425 361.134C714.88 372.618 715.182 384.304 715.477 395.609C716.144 421.214 716.836 447.691 719.293 473.632C722.031 502.536 727.944 531.849 733.664 560.201C741.545 599.249 749.69 639.616 749.69 679.605Z" fill="white" fill-opacity="0.52"/>
<path d="M725.122 677.11C725.122 712.4 718.568 747.878 712.226 782.214C706.794 811.637 701.17 842.063 699.714 872.18C697.623 915.306 702.318 959.02 706.852 1001.3C710.943 1039.4 715.169 1078.81 714.432 1117.7L711.866 1117.68C712.61 1078.85 708.378 1039.48 704.293 1001.41C699.752 959.093 695.052 915.338 697.149 872.131C698.611 841.945 704.235 811.483 709.68 782.024C716.189 746.782 722.903 710.335 722.544 674.18C722.153 636.686 717.016 598.718 712.052 561.999C708.064 532.507 703.94 502.012 702.292 471.916C699.246 416.288 692.833 359.905 686.638 305.381C683.56 278.319 680.379 250.341 677.647 222.78L677.16 217.903C675.146 197.833 673.062 177.077 675.12 156.598C676.717 140.752 679.533 124.326 683.739 106.379C684.541 102.954 685.349 99.5332 686.157 96.1166C693.513 64.9893 701.118 32.8031 703.055 0.551827L705.62 0.61274C703.671 32.9573 696.059 65.1883 688.69 96.3561C687.882 99.7727 687.074 103.193 686.273 106.618C682.078 124.521 679.27 140.902 677.673 156.699C675.621 177.077 677.698 197.78 679.712 217.801L680.199 222.683C682.931 250.235 686.112 278.214 689.19 305.271C695.392 359.812 701.805 416.211 704.851 471.867C706.499 501.919 710.616 532.393 714.605 561.865C719.575 598.616 724.712 636.617 725.109 674.176C725.116 675.154 725.122 676.132 725.122 677.11Z" fill="white" fill-opacity="0.52"/>
<path d="M701.106 672.366C701.106 707.442 697.527 742.943 694.064 777.288C690.858 809.097 687.542 841.994 687.081 874.424C686.529 913.581 688.915 953.36 691.217 991.827C693.692 1033.07 696.245 1075.71 695.193 1117.7L692.628 1117.68C693.686 1075.73 691.127 1033.11 688.658 991.892C686.349 953.404 683.964 913.605 684.515 874.411C684.971 841.933 688.293 809.016 691.499 777.187C694.988 742.562 698.604 706.752 698.534 671.433C698.47 635.319 695.584 598.661 692.795 563.208C690.441 533.306 688.004 502.39 687.273 471.928C685.894 414.721 675.076 357.048 664.61 301.27C659.454 273.799 654.125 245.394 649.988 217.375L649.52 214.226C646.429 193.398 643.229 171.863 646.237 150.608C648.443 135.002 652.637 119.153 659.056 102.159C660.217 99.0788 661.39 96.0111 662.551 92.9515C674.402 61.8445 685.593 32.4622 687.921 0.551827L690.486 0.628976C688.145 32.6976 676.922 62.1489 665.046 93.333C663.879 96.3925 662.711 99.4602 661.551 102.536C655.163 119.453 650.989 135.226 648.789 150.751C645.801 171.859 648.988 193.321 652.072 214.072L652.541 217.225C656.677 245.224 662.006 273.62 667.156 301.083C677.628 356.898 688.459 414.616 689.838 471.908C690.569 502.337 693 533.245 695.353 563.131C698.143 598.604 701.035 635.282 701.099 671.433C701.099 671.741 701.106 672.054 701.106 672.366Z" fill="white" fill-opacity="0.52"/>
<path d="M678.141 675.105C678.141 707.584 676.775 740.517 675.454 772.403C674.024 806.853 672.549 842.481 672.793 877.524C673.004 908.099 673.799 939.21 674.563 969.294C675.8 1017.95 677.076 1068.26 675.961 1117.7L673.395 1117.68C674.511 1068.26 673.235 1017.96 671.997 969.319C671.234 939.23 670.445 908.115 670.227 877.528C669.984 842.456 671.459 806.821 672.889 772.358C674.255 739.425 675.672 705.368 675.576 671.863C675.48 638.309 674.422 604.204 673.402 571.222C672.414 539.263 671.388 506.212 671.241 473.697C670.971 415.062 656.882 356.31 643.261 299.489C636.598 271.701 629.711 242.964 624.51 214.563L624.247 213.127C620.264 191.405 616.154 168.946 619.636 146.831C622.06 131.435 627.395 115.456 635.495 99.3264C637.169 95.9869 638.855 92.6757 640.523 89.3808C655.458 59.9781 669.56 32.2065 671.702 0.547676L674.268 0.616768C672.106 32.4947 657.953 60.3676 642.966 89.8758C641.292 93.1667 639.612 96.4778 637.938 99.8133C629.897 115.833 624.6 131.703 622.188 146.985C618.732 168.925 622.83 191.3 626.793 212.936L627.056 214.373C632.25 242.745 639.138 271.466 645.801 299.241C659.441 356.119 673.543 414.933 673.812 473.685C673.96 506.188 674.986 539.23 675.973 571.185C676.993 604.175 678.051 638.289 678.147 671.855C678.141 672.942 678.141 674.026 678.141 675.105Z" fill="white" fill-opacity="0.52"/>
<path d="M657.389 942.724C657.389 1001.03 657.228 1059.61 656.715 1117.7L654.15 1117.69C655.112 1008.3 654.836 897.054 654.573 789.474C654.477 750.515 654.375 710.233 654.336 670.617C654.311 643.564 654.195 616.06 654.08 589.458C653.919 551.505 653.753 512.262 653.842 473.665C653.842 473.409 653.842 473.154 653.842 472.898C653.842 414.409 638.137 356.233 622.939 299.963C615.192 271.275 607.182 241.612 601.321 212.185C594.048 175.706 590.515 136.561 613.717 97.5045C617.148 91.7302 620.983 85.9559 624.689 80.3724C629.781 72.7032 635.04 64.7783 639.311 56.7683C648.398 39.7296 653.201 21.3438 654.009 0.559883L656.574 0.600533C655.76 21.5509 650.912 40.0908 641.741 57.2877C637.445 65.3505 632.16 73.3038 627.056 81.0014C623.355 86.5727 619.533 92.3308 616.122 98.0766C593.119 136.8 596.633 175.706 603.867 211.982C609.722 241.373 617.731 271.019 625.472 299.687C640.683 356.022 656.408 414.271 656.408 472.898C656.408 473.158 656.408 473.409 656.408 473.669C656.311 512.262 656.485 551.505 656.645 589.454C656.76 616.056 656.876 643.56 656.901 670.613C656.94 710.229 657.042 750.511 657.139 789.47C657.26 839.936 657.389 891.219 657.389 942.724Z" fill="white" fill-opacity="0.52"/>
<path d="M640.536 812.591C640.536 834.726 639.991 856.918 638.432 878.94C634.713 931.573 635.687 985.039 636.63 1036.74C637.111 1063.26 637.618 1090.69 637.477 1117.7L634.911 1117.69C635.046 1090.7 634.552 1063.28 634.065 1036.76C633.122 985.035 632.148 931.549 635.873 878.867C639.285 830.632 637.836 781.545 636.438 734.073C635.809 712.839 635.162 690.882 634.963 669.291C634.61 632.113 634.886 594.319 635.149 557.766C635.348 530.056 635.559 501.404 635.489 473.222C635.392 433.602 630.345 395.382 620.046 356.387C615.544 339.328 610.491 322.025 605.604 305.291C596.767 275.012 587.623 243.702 581.37 212.632C576.733 189.612 575.156 171.108 576.413 154.403C577.978 133.505 584.006 114.888 594.831 97.4842C598.294 91.921 602.141 86.3576 605.867 80.981C611.35 73.0562 617.026 64.8636 621.534 56.5451C630.544 39.9163 634.931 22.0337 634.931 1.91926C634.931 1.47696 634.931 1.03468 634.924 0.588325L637.49 0.580147C637.496 1.0265 637.496 1.4729 637.496 1.91926C637.496 22.2163 633.065 40.2694 623.958 57.0727C619.418 65.452 613.723 73.677 608.214 81.6343C604.501 86.9987 600.66 92.5458 597.216 98.0806C573.033 136.954 576.919 177.698 583.916 212.425C590.162 243.451 599.301 274.74 608.131 304.995C613.018 321.733 618.071 339.048 622.579 356.115C632.898 395.204 637.964 433.505 638.054 473.218C638.124 501.404 637.913 530.06 637.714 557.77C637.451 594.319 637.175 632.109 637.528 669.278C637.733 690.858 638.381 712.81 639.003 734.04C639.76 759.876 640.536 786.195 640.536 812.591Z" fill="white" fill-opacity="0.52"/>
<path d="M625.805 807.117C625.805 830.746 624.304 854.415 619.918 877.84C612.588 917.018 609.863 953.514 611.594 989.413C612.319 1004.46 613.415 1019.74 614.48 1034.52C616.436 1061.76 618.456 1089.94 618.238 1117.7L615.673 1117.69C615.904 1089.96 613.877 1061.82 611.921 1034.59C610.857 1019.81 609.76 1004.51 609.035 989.462C607.297 953.481 610.029 916.908 617.372 877.649C626.6 828.343 623.028 777.864 619.572 729.045C617.969 706.387 616.308 682.957 615.955 659.966C615.41 624.432 616.333 588.313 617.225 553.384C617.943 525.381 618.68 496.421 618.655 467.943C618.623 428.623 613.274 390.716 602.308 352.045C597.793 336.118 592.734 319.968 587.841 304.346C578.536 274.651 568.923 243.942 562.593 213.403C557.944 190.975 556.539 172.488 558.155 155.226C560.086 134.674 566.377 116.109 577.4 98.4742C580.639 93.2924 584.179 88.0903 587.603 83.0587C593.497 74.3953 599.595 65.4357 604.322 56.326C613.236 39.1494 616.949 20.9301 615.686 0.612739L618.251 0.547676C619.533 21.0598 615.775 39.47 606.765 56.8292C602 66.0079 595.882 75 589.963 83.6959C586.545 88.7153 583.018 93.9051 579.792 99.0666C554.301 139.847 558.572 181.476 565.145 213.188C571.462 243.674 581.075 274.355 590.367 304.025C595.26 319.652 600.327 335.81 604.848 351.753C615.846 390.517 621.201 428.522 621.233 467.935C621.233 468.349 621.233 468.763 621.233 469.181C621.233 497.273 620.502 525.803 619.796 553.404C618.905 588.322 617.981 624.428 618.526 659.945C618.879 682.904 620.54 706.322 622.143 728.968C623.952 754.691 625.805 780.875 625.805 807.117Z" fill="white" fill-opacity="0.52"/>
<path d="M610.581 800.556C610.581 826.477 607.977 852.382 600.186 877.844C599.288 880.778 598.371 883.696 597.46 886.597C592.734 901.615 588.277 915.797 586.802 931.001C585.179 947.719 585.327 965.452 587.296 988.5C588.585 1003.62 590.47 1018.97 592.298 1033.82C595.677 1061.26 599.179 1089.64 599.006 1117.7L596.44 1117.7C596.614 1089.71 593.112 1061.36 589.739 1033.94C587.911 1019.09 586.019 1003.73 584.73 988.589C582.762 965.476 582.608 947.687 584.243 930.904C585.731 915.594 590.207 901.355 594.946 886.284C595.857 883.383 596.774 880.47 597.672 877.54C613.403 826.128 607.894 772.792 602.571 721.218C600.109 697.35 597.563 672.667 597.178 648.588C596.626 614.036 598.454 578.94 600.224 545.005C601.648 517.684 603.116 489.437 603.334 461.642C603.649 423.198 598.089 386.167 586.353 348.454C581.627 333.262 576.317 317.866 571.18 302.978C561.419 274.683 551.332 245.427 544.791 216.247C539.949 194.623 538.5 175.503 540.372 157.795C542.514 137.514 548.953 118.869 560.047 100.795C563.112 95.8082 566.422 90.7887 569.628 85.9356C575.855 76.4972 582.3 66.7424 587.154 56.8131C595.793 39.1576 598.832 20.7879 596.434 0.661323L598.993 0.539619C601.41 20.8772 598.345 39.4416 589.611 57.2958C584.718 67.2983 578.253 77.0937 572.001 86.5645C568.801 91.4095 565.498 96.4169 562.446 101.388C541.777 135.055 537.114 170.41 547.337 216.028C553.859 245.147 563.94 274.375 573.694 302.641C578.83 317.538 584.147 332.941 588.873 348.149C600.634 385.968 606.214 423.109 605.899 461.662C605.675 489.478 604.206 517.74 602.783 545.07C601.019 578.989 599.191 614.064 599.743 648.584C600.128 672.618 602.667 697.277 605.13 721.125C607.83 747.293 610.581 773.928 610.581 800.556Z" fill="white" fill-opacity="0.52"/>
<path d="M594.953 793.033C594.953 821.563 591.169 849.955 579.613 877.593C578.17 881.042 576.669 884.479 575.22 887.806C569.025 902 563.17 915.411 561.272 930.319C559.181 946.798 559.547 964.462 562.458 987.595C564.369 1002.78 567.108 1018.18 569.75 1033.07C574.662 1060.72 579.735 1089.3 579.76 1117.69L577.195 1117.69C577.17 1089.39 572.103 1060.86 567.204 1033.26C564.555 1018.36 561.817 1002.94 559.906 987.729C556.982 964.506 556.616 946.762 558.72 930.194C560.631 915.127 566.518 901.647 572.751 887.376C574.2 884.057 575.701 880.62 577.137 877.183C599.705 823.21 592.458 766.162 585.442 710.992C582.204 685.509 578.856 659.154 578.561 633.651C578.183 600.341 581.094 566.56 583.909 533.894C586.192 507.462 588.546 480.129 589.143 453.209C589.963 416.373 584.14 380.64 571.353 343.962C566.37 329.674 560.765 315.208 555.34 301.217C545.034 274.639 534.383 247.151 527.54 219.635C516.76 176.274 521.653 139.47 542.931 103.818C544.182 101.721 545.438 99.6349 546.683 97.5613C565.62 66.0162 583.512 36.2157 577.189 0.681709L579.735 0.498969C580.633 5.54279 581.049 10.4772 581.049 15.31C581.049 44.8872 565.453 70.861 549.075 98.1375C547.83 100.211 546.58 102.293 545.329 104.395C524.212 139.774 519.364 176.315 530.073 219.388C536.896 246.835 547.535 274.286 557.828 300.836C563.254 314.835 568.865 329.313 573.854 343.617C586.68 380.421 592.516 416.28 591.701 453.238C591.105 480.19 588.745 507.539 586.462 533.988C583.647 566.629 580.735 600.385 581.114 633.643C581.402 659.089 584.75 685.412 587.982 710.866C591.451 737.989 594.953 765.574 594.953 793.033Z" fill="white" fill-opacity="0.52"/>
<path d="M578.497 433.509C578.497 436.808 578.433 440.111 578.292 443.422C577.234 469.372 573.873 495.65 570.628 521.06C566.64 552.248 562.542 584.503 562.631 616.357C562.721 642.274 566.197 668.584 569.564 694.027C571.468 708.432 573.437 723.328 574.771 737.989C578.997 784.487 581.216 833.533 558.495 877.183C556.372 881.265 554.134 885.27 551.973 889.145C544.541 902.471 537.518 915.058 535.255 929.666C532.029 950.479 534.652 971.088 537.288 986.719C539.866 1001.97 543.483 1017.42 546.978 1032.35C553.493 1060.16 560.233 1088.94 560.522 1117.69L557.956 1117.7C557.668 1089.06 550.947 1060.35 544.438 1032.58C540.937 1017.63 537.32 1002.18 534.735 986.889C532.08 971.181 529.451 950.462 532.696 929.504C534.985 914.701 542.059 902.025 549.549 888.601C551.704 884.734 553.936 880.737 556.052 876.672C578.638 833.29 576.413 784.418 572.2 738.078C570.872 723.442 568.903 708.558 566.999 694.161C563.632 668.686 560.15 642.343 560.06 616.361C559.977 584.442 564.074 552.15 568.07 520.93C571.315 495.54 574.668 469.282 575.727 443.382C577.15 408.395 571.032 374.217 557.014 338.894C551.749 325.617 545.804 312.198 540.064 299.217C529.15 274.566 517.869 249.071 510.674 223.405C504.947 202.978 503.363 183.769 505.826 164.669C508.321 145.281 514.919 126.526 525.994 107.328C527.168 105.295 528.342 103.275 529.509 101.266C548.619 68.333 566.659 37.226 557.976 0.706L560.509 0.462592C569.301 37.3925 551.14 68.6901 531.914 101.826C530.746 103.835 529.573 105.855 528.406 107.884C506.89 145.171 501.92 182.864 513.201 223.121C520.37 248.709 531.638 274.16 542.533 298.778C548.286 311.767 554.231 325.199 559.502 338.496C572.251 370.621 578.497 401.806 578.497 433.509Z" fill="white" fill-opacity="0.52"/>
<path d="M565.626 420.772C565.626 424.809 565.498 428.851 565.248 432.908C563.702 457.787 559.278 482.9 555 507.186C549.78 536.828 544.38 567.481 544.182 597.894C544.015 625.393 548.042 653.323 551.948 680.336C554.173 695.707 556.469 711.601 557.963 727.232C560.156 750.15 562.298 776.777 560.028 802.775C557.527 831.403 550.024 855.575 537.089 876.672C534.222 881.35 531.151 885.866 528.188 890.233C519.652 902.787 511.597 914.644 508.981 929.009C505.249 949.513 508.603 970.147 511.944 985.834C515.202 1001.15 519.716 1016.62 524.077 1031.59C532.241 1059.59 540.68 1088.54 541.283 1117.68L538.718 1117.7C538.121 1088.7 529.701 1059.82 521.557 1031.88C517.19 1016.9 512.668 1001.4 509.404 986.045C506.044 970.264 502.671 949.501 506.435 928.818C509.09 914.218 517.222 902.256 525.834 889.587C528.79 885.237 531.85 880.737 534.703 876.083C562.58 830.604 560.22 777.658 555.411 727.325C553.916 711.719 551.62 695.836 549.402 680.478C545.49 653.429 541.456 625.458 541.623 597.882C541.815 567.383 547.228 536.686 552.454 506.999C556.725 482.742 561.144 457.661 562.689 432.835C564.786 399.123 558.534 367.566 543.002 333.525C537.435 321.319 531.138 309.004 525.058 297.094C513.502 274.48 501.555 251.095 493.994 227.362C487.677 207.535 485.959 188.297 488.742 168.548C491.39 149.76 498.06 130.961 509.141 111.078C510.257 109.069 511.379 107.073 512.495 105.08C531.76 70.6946 549.947 38.2122 538.756 0.726386L541.276 0.426093C543.688 8.49702 544.752 16.3325 544.752 23.9976C544.752 52.3453 530.163 78.3882 514.907 105.62C513.791 107.608 512.675 109.609 511.553 111.613C489.364 151.44 484.445 189.198 496.508 227.037C504.043 250.682 515.971 274.022 527.502 296.591C533.594 308.513 539.891 320.841 545.471 333.071C558.983 362.733 565.626 391.539 565.626 420.772Z" fill="white" fill-opacity="0.52"/>
<path d="M552.762 408.598C552.762 413.873 552.505 419.205 552.005 424.61C549.851 447.707 544.509 470.914 539.34 493.353C532.76 521.948 525.95 551.521 525.706 581.07C525.469 609.763 529.996 638.906 534.376 667.087C536.999 683.955 539.705 701.396 541.36 718.548C546.465 771.413 548.786 826.992 516.914 874.44C513.412 879.654 508.968 884.621 504.678 889.425C499.503 895.22 494.148 901.209 490.499 907.596C486.786 914.096 484.118 921.303 482.566 929.013C478.648 948.494 482.367 968.008 486.042 982.835C490.031 998.932 495.687 1015.14 501.151 1030.83C510.969 1059 521.121 1088.12 522.038 1117.68L519.473 1117.71C518.562 1088.32 508.436 1059.27 498.643 1031.18C493.167 1015.48 487.511 999.237 483.503 983.091C479.802 968.158 476.057 948.494 480.014 928.814C481.591 920.987 484.304 913.662 488.075 907.048C491.794 900.535 497.207 894.481 502.433 888.63C506.692 883.866 511.097 878.94 514.541 873.811C546.195 826.688 543.874 771.319 538.788 718.653C537.134 701.53 534.427 684.101 531.811 667.249C527.425 639.028 522.903 609.844 523.128 581.062C523.372 551.4 530.195 521.77 536.787 493.118C541.943 470.711 547.279 447.541 549.427 424.513C552.525 391.365 546.144 360.988 529.342 328.92C523.372 317.521 516.561 306.058 509.981 294.976C497.585 274.111 484.772 252.536 476.929 230.36C464.232 194.465 469.17 157.612 492.487 114.385C493.507 112.498 494.526 110.615 495.546 108.736C514.951 72.9264 533.286 39.1007 519.505 0.762763L522.006 0.401679C525.405 9.86443 526.879 19.0512 526.879 28.0433C526.879 55.9202 512.739 82.0158 497.97 109.26C496.95 111.139 495.931 113.017 494.917 114.908C471.767 157.839 466.848 194.412 479.437 230.007C487.241 252.069 500.029 273.592 512.386 294.408C518.979 305.506 525.796 316.982 531.779 328.412C545.958 355.453 552.762 381.302 552.762 408.598Z" fill="white" fill-opacity="0.52"/>
<path d="M539.551 397.654C539.551 403.262 539.212 408.947 538.532 414.738C535.935 436.909 529.586 459.028 523.442 480.417C515.67 507.503 507.628 535.505 507.192 563.772C506.724 593.954 511.848 624.635 516.805 654.305C519.78 672.107 522.852 690.513 524.686 708.602C526.508 726.615 528.002 744.915 528.002 763.082C528.002 801.976 521.153 840.273 495.982 873.949C491.358 880.133 486.042 885.858 480.899 891.397C470.067 903.055 459.839 914.072 456.523 928.351C452.092 947.455 456.466 967.03 460.775 981.947C465.444 998.105 471.991 1014.34 478.327 1030.04C489.774 1058.38 501.6 1087.69 502.805 1117.67L500.24 1117.71C499.041 1087.91 487.248 1058.7 475.845 1030.44C469.497 1014.71 462.936 998.45 458.255 982.239C453.913 967.197 449.501 947.451 453.99 928.116C457.376 913.524 467.733 902.378 478.693 890.578C483.81 885.071 489.095 879.374 493.667 873.259C530.33 824.204 527.829 765.074 522.128 708.708C520.3 690.651 517.228 672.261 514.259 654.48C509.295 624.764 504.165 594.035 504.633 563.76C505.076 535.355 513.137 507.279 520.928 480.129C527.053 458.781 533.389 436.707 535.979 414.62C539.744 382.539 533.087 353.68 515.048 323.803C508.789 313.435 501.625 303.055 494.706 293.021C481.681 274.136 468.208 254.605 460.057 234.211C452.573 215.488 450.7 196.254 454.33 175.41C457.363 158.002 464.11 139.721 475.563 117.883C476.583 115.939 477.603 114.003 478.622 112.068C498.207 74.9188 516.715 39.8352 500.292 0.799383L502.773 0.381415C519.389 39.888 500.772 75.1987 481.059 112.583C480.04 114.519 479.02 116.454 478 118.398C461.731 149.424 445.262 190.578 462.551 233.817C470.651 254.082 484.08 273.551 497.066 292.375C503.998 302.426 511.168 312.822 517.453 323.227C532.363 347.939 539.551 371.961 539.551 397.654Z" fill="white" fill-opacity="0.52"/>
<path d="M525.578 388.39C525.578 394.23 525.154 400.182 524.314 406.285C521.364 427.682 514.105 448.827 507.083 469.278C498.246 495.017 489.107 521.632 488.575 548.839C487.959 580.246 493.738 612.197 499.33 643.097C502.703 661.747 506.191 681.03 508.231 699.963C514.682 759.901 517.472 822.683 475.608 873.632C470.298 880.096 464.033 885.98 457.973 891.665C446.032 902.873 434.758 913.459 430.994 927.666C426.011 946.482 430.981 966.077 435.867 981.046C441.164 997.261 448.571 1013.52 455.735 1029.24C468.721 1057.76 482.156 1087.25 483.573 1117.67L481.008 1117.72C479.597 1087.5 466.213 1058.11 453.266 1029.69C446.09 1013.94 438.67 997.65 433.353 981.379C428.422 966.271 423.401 946.486 428.46 927.402C432.315 912.847 443.742 902.118 455.844 890.76C461.859 885.108 468.086 879.269 473.332 872.886C514.894 822.309 512.098 759.783 505.672 700.077C503.639 681.176 500.157 661.913 496.784 643.284C491.185 612.335 485.394 580.332 486.016 548.823C486.555 521.453 495.719 494.757 504.582 468.937C511.585 448.535 518.831 427.443 521.768 406.147C526.116 374.622 519.229 347.021 500.093 319.282C493.571 309.828 486.093 300.422 478.86 291.328C465.258 274.225 451.194 256.541 442.806 237.676C434.668 219.364 432.667 200.061 436.688 178.668C439.875 161.727 446.59 143.909 458.46 120.897C459.441 118.998 460.422 117.099 461.41 115.2C481.354 76.7488 500.189 40.4318 481.066 0.827826L483.522 0.352972C492.218 18.3614 493.782 37.5182 488.299 58.9149C483.413 77.9864 473.466 97.1594 463.853 115.708C462.872 117.603 461.885 119.502 460.903 121.401C443.075 155.957 427.274 196.741 445.275 237.238C453.593 255.953 467.605 273.567 481.149 290.602C488.396 299.716 495.892 309.138 502.44 318.637C518.042 341.255 525.578 363.788 525.578 388.39Z" fill="white" fill-opacity="0.52"/>
<path d="M510.411 381.711C510.411 387.193 510.001 392.781 509.193 398.494C505.922 421.478 496.142 443.99 487.511 463.853C475.801 490.805 469.997 515.419 469.779 539.101C469.465 570.974 475.878 603.408 482.066 634.791C486.01 654.776 490.082 675.442 492.378 695.711C495.52 723.498 498.522 755.794 494.308 787.392C489.62 822.565 476.743 851.16 454.939 874.805C449.027 881.216 442.133 886.889 435.463 892.379C422.471 903.071 410.203 913.171 406.028 927.589C400.667 946.096 406.233 965.671 411.678 980.66C417.52 996.737 425.62 1012.84 433.456 1028.41C447.898 1057.12 462.834 1086.8 464.341 1117.67L461.776 1117.72C460.275 1087.08 445.397 1057.5 431.013 1028.9C423.163 1013.3 415.045 997.163 409.177 981.025C403.675 965.886 398.057 946.096 403.501 927.296C407.785 912.49 420.239 902.24 433.43 891.389C440.049 885.939 446.898 880.307 452.727 873.985C499.778 822.955 496.854 757.994 489.826 695.828C487.536 675.6 483.464 654.958 479.533 634.994C473.332 603.562 466.912 571.052 467.227 539.097C467.451 515.269 473.28 490.517 485.054 463.427C493.654 443.629 503.408 421.189 506.66 398.352C510.975 368.037 503.774 341.17 484.644 316.215C477.789 307.271 469.849 298.47 462.167 289.957C448.86 275.207 435.091 259.95 426.466 243.398C417.161 225.552 414.416 206.403 418.084 184.864C421.714 163.524 431.212 142.874 439.074 127.272C440.837 123.77 442.665 120.212 444.435 116.767C463.68 79.2768 483.579 40.5128 461.865 0.856146L464.289 0.324652C486.286 40.4926 466.252 79.5243 446.878 117.27C445.115 120.711 443.287 124.269 441.524 127.767C422.977 164.559 408.619 203.972 428.909 242.895C437.458 259.292 451.156 274.472 464.405 289.157C472.107 297.691 480.065 306.517 486.959 315.509C502.651 336.021 510.405 357.815 510.411 381.711Z" fill="white" fill-opacity="0.52"/>
<path d="M493.699 377.28C493.699 382.977 493.25 388.865 492.359 394.997C489.261 416.215 480.508 435.489 469.375 458.481C456.895 484.268 450.822 508.46 450.809 532.45C450.809 532.47 450.809 532.495 450.809 532.519C450.809 552.962 455.068 573.713 459.185 593.783C459.871 597.139 460.564 600.495 461.23 603.838L461.981 607.608C467.477 635.132 473.158 663.589 476.705 691.726C480.302 720.272 483.772 753.445 479.321 785.931C474.345 822.269 460.288 851.436 436.361 875.101C429.775 881.614 421.964 887.254 414.403 892.712C400.301 902.893 386.982 912.51 382.204 926.834C376.163 944.968 381.742 963.743 387.995 979.715C394.312 995.844 403.11 1011.98 411.614 1027.59C427.364 1056.48 443.653 1086.36 445.089 1117.66L442.524 1117.71C441.1 1086.65 424.876 1056.9 409.19 1028.12C400.667 1012.48 391.849 996.307 385.5 980.108C379.177 963.954 373.54 944.956 379.69 926.501C384.603 911.759 398.14 901.988 412.467 891.645C419.963 886.232 427.717 880.64 434.194 874.229C485.837 823.157 481.893 753.311 474.146 691.856C470.6 663.756 464.924 635.315 459.435 607.811L458.685 604.041C458.018 600.698 457.331 597.346 456.639 593.99C452.509 573.872 448.244 553.067 448.244 532.519C448.244 532.495 448.244 532.474 448.244 532.45C448.257 508.298 454.362 483.947 466.919 458.006C478.007 435.104 486.728 415.914 489.8 394.846C494.392 363.37 487.28 337.595 467.419 313.727C460.416 305.307 452.252 297.099 444.364 289.157C430.711 275.418 416.597 261.212 407.939 245.419C398.249 227.739 395.504 208.485 399.564 186.556C403.386 165.898 412.717 145.711 421.342 128.684C423.144 125.126 425.023 121.494 426.838 117.984C446.551 79.8286 466.938 40.3749 442.614 0.876409L445.006 0.28803C453.073 13.3865 456.305 26.4567 456.305 39.4538C456.305 66.1865 442.639 92.6309 429.281 118.487C427.466 121.997 425.594 125.625 423.792 129.179C404.624 167.022 389.726 207.231 410.37 244.887C418.931 260.505 432.969 274.631 446.545 288.293C454.458 296.259 462.648 304.496 469.695 312.973C480.187 325.58 487.055 338.634 490.704 352.881C492.699 360.7 493.699 368.779 493.699 377.28Z" fill="white" fill-opacity="0.52"/>
<path d="M474.678 373.933C474.678 380.624 474.069 387.595 472.857 394.895C469.285 416.397 459.948 436.211 450.059 457.182L449.206 458.992C437.766 483.27 432.09 506.241 431.853 529.22C431.641 549.209 435.861 569.473 439.94 589.084C440.581 592.16 441.216 595.232 441.838 598.296L443.05 604.277C448.712 632.166 454.567 661.009 458.223 689.527C461.962 718.682 465.559 752.56 460.942 785.672C455.735 822.999 440.991 852.69 415.878 876.452C409.26 882.718 401.571 888.09 394.145 893.292C379.863 903.282 366.377 912.721 361.586 927.288C355.655 945.329 361.458 964.08 367.916 980.039C374.316 995.857 383.147 1011.7 391.689 1027.02C407.888 1056.07 424.645 1086.13 425.844 1117.67L423.279 1117.71C422.092 1086.42 405.406 1056.5 389.271 1027.56C380.71 1012.21 371.86 996.331 365.434 980.441C358.899 964.303 353.038 945.329 359.079 926.96C364.011 911.958 377.721 902.365 392.247 892.205C399.615 887.047 407.234 881.719 413.756 875.552C467.861 824.359 463.764 752.755 455.677 689.656C452.028 661.175 446.173 632.352 440.51 604.48L439.298 598.498C438.676 595.435 438.041 592.367 437.4 589.291C433.309 569.627 429.082 549.286 429.288 529.208C429.525 506.074 435.239 482.953 446.744 458.529L447.597 456.719C457.453 435.822 466.758 416.081 470.305 394.725C475.769 361.812 468.92 335.619 448.757 312.299C441.69 304.131 433.456 296.194 425.491 288.52C411.511 275.053 397.063 261.122 388.399 245.423C366.531 205.786 384.795 164.32 403.63 128.563C405.374 125.247 407.195 121.859 408.952 118.581C429.653 79.987 451.053 40.0827 423.401 0.912908L425.741 0.251531C435.342 13.8492 439.132 27.5035 439.132 41.1336C439.132 67.3591 425.1 93.5156 411.376 119.1C409.619 122.375 407.804 125.763 406.06 129.074C387.36 164.575 369.218 205.733 390.817 244.887C399.378 260.4 413.743 274.241 427.633 287.628C435.624 295.329 443.89 303.291 451.002 311.52C466.944 329.963 474.672 350.15 474.678 373.933Z" fill="white" fill-opacity="0.52"/>
<path d="M454.003 370.236C454.003 379.865 452.592 389.125 450.784 397.833C446.981 416.129 440.613 434.256 434.456 451.785C424.811 479.248 414.833 507.645 414.75 536.909C414.75 537.133 414.75 537.356 414.75 537.579C414.75 568.004 420.496 598.941 426.062 628.867C429.884 649.428 433.834 670.686 435.88 691.576C438.715 720.475 441.312 754.066 436.271 786.986C430.628 823.835 416.359 853.412 392.663 877.414C387.014 883.131 380.626 888.252 374.451 893.199C361.112 903.883 348.517 913.975 344.618 928.757C339.808 946.989 345.612 965.675 351.922 981.553C357.97 996.762 366.101 1012.03 373.963 1026.79C389.508 1055.96 405.579 1086.13 406.618 1117.68L404.053 1117.71C403.02 1086.41 387.014 1056.36 371.533 1027.3C363.651 1012.51 355.507 997.216 349.434 981.947C343.053 965.91 337.192 947.017 342.085 928.489C346.093 913.293 358.893 903.043 372.437 892.193C378.574 887.279 384.917 882.194 390.49 876.554C441.658 824.74 439.433 753.956 433.328 691.677C431.282 670.832 427.338 649.594 423.522 629.058C417.911 598.864 412.101 567.647 412.197 536.909C412.281 507.47 422.285 478.985 431.962 451.436C438.105 433.943 444.461 415.849 448.251 397.626C453.426 372.748 455.298 343.337 429.955 313.813C422.593 305.234 413.935 296.932 405.56 288.906C391.445 275.373 376.849 261.378 367.98 245.613C345.561 205.766 365.178 164.474 385.334 128.899C386.982 125.99 388.662 123.064 390.348 120.127C412.896 80.8797 436.22 40.2937 404.2 0.961614L406.483 0.21906C421.06 18.122 425.549 37.9564 420.226 60.8626C415.526 81.0663 403.957 101.205 392.766 120.682C391.079 123.616 389.399 126.538 387.751 129.447C367.749 164.758 348.26 205.725 370.404 245.07C379.171 260.647 393.677 274.558 407.708 288.013C416.109 296.072 424.799 304.403 432.212 313.042C448.988 332.592 454.003 352.073 454.003 370.236Z" fill="white" fill-opacity="0.52"/>
<path d="M432.424 369.355C432.424 381.464 430.115 393.503 427.71 404.045C424.779 416.896 421.374 429.857 418.084 442.391C409.106 476.562 399.827 511.897 399.589 547.594C399.583 548.251 399.583 548.908 399.583 549.566C399.583 578.039 403.578 606.947 407.445 634.925C410.53 657.259 413.724 680.356 414.865 703.092C416.276 731.18 416.859 761.203 411.659 790.484C405.772 823.608 393.33 850.921 373.624 873.981C368.089 880.461 361.708 886.28 355.546 891.908C342.521 903.798 330.221 915.026 327.22 930.879C323.744 949.241 329.637 967.826 335.851 983.582C341.527 997.963 348.902 1012.42 356.027 1026.42C370.981 1055.75 386.437 1086.09 387.379 1117.68L384.814 1117.71C383.884 1086.36 368.48 1056.14 353.59 1026.92C346.446 1012.9 339.064 998.413 333.363 983.984C327.085 968.085 321.147 949.318 324.674 930.697C327.752 914.441 340.231 903.051 353.442 890.995C359.566 885.404 365.902 879.621 371.373 873.218C414.487 822.764 415.109 758.98 412.306 703.153C411.165 680.466 407.978 657.389 404.893 635.075C400.936 606.415 396.845 576.777 397.031 547.594C397.268 511.767 406.567 476.367 415.558 442.132C418.847 429.605 422.253 416.653 425.177 403.818C432.821 370.301 433.039 345.739 411.562 319.384C403.553 309.56 393.799 300.134 384.359 291.02C369.866 277.025 354.879 262.555 345.849 246.271C335.845 228.23 333.761 208.789 339.475 186.844C344.669 166.888 355.59 147.387 366.621 129.289C368.076 126.903 369.551 124.501 371.033 122.09C395.665 82.0442 421.137 40.6346 384.981 0.994084L387.2 0.182561C403.662 18.2316 408.895 38.3826 403.206 61.7879C398.198 82.3893 385.603 102.873 373.418 122.679C371.937 125.085 370.462 127.483 369.006 129.869C346.491 166.819 326.348 206.204 348.26 245.731C357.187 261.828 372.084 276.217 386.494 290.131C395.966 299.278 405.765 308.74 413.833 318.637C424.465 331.683 430.397 345.382 431.975 360.522C432.289 363.455 432.424 366.41 432.424 369.355Z" fill="white" fill-opacity="0.52"/>
<path d="M411.973 370.719C411.973 380.831 409.344 390.996 406.791 400.86C405.97 404.025 405.124 407.296 404.386 410.489C391.663 465.574 385.526 516.081 385.686 564.896C385.757 589.165 387.815 613.821 389.81 637.668C391.702 660.323 393.664 683.748 393.914 706.829C394.215 734.596 393.696 764.271 387.873 793.146C381.293 825.775 368.891 852.796 349.941 875.754C345.458 881.184 340.482 886.224 335.672 891.097C324.283 902.633 313.522 913.528 310.469 928.1C306.371 947.675 312.669 967.899 319.364 985.099C324.693 998.786 331.42 1012.57 337.929 1025.91C352.339 1055.45 367.243 1085.99 368.128 1117.68L365.563 1117.71C364.678 1086.25 349.832 1055.82 335.473 1026.39C328.958 1013.03 322.218 999.221 316.869 985.489C310.11 968.138 303.768 947.727 307.923 927.885C311.046 912.968 321.948 901.927 333.492 890.237C338.276 885.392 343.226 880.376 347.664 875.004C389.111 824.785 391.939 761.869 391.342 706.841C391.092 683.797 389.136 660.392 387.245 637.757C385.25 613.894 383.185 589.214 383.115 564.904C382.974 516.008 389.098 465.419 401.84 410.258C402.584 407.048 403.431 403.77 404.252 400.6C407.022 389.9 409.882 378.83 409.331 367.956C408.612 353.871 402.289 339.259 390.522 324.521C382.287 314.206 372.174 304.309 362.395 294.741C348.729 281.367 334.595 267.538 325.296 252.284C299.631 210.193 321.974 169.12 347.068 130.656C348.421 128.579 349.793 126.489 351.172 124.395C378.068 83.4564 405.881 41.1215 365.761 1.02655L367.929 0.158146C386.199 18.4182 392.086 38.9465 385.924 62.9118C380.511 83.9636 366.8 104.837 353.538 125.02C352.16 127.118 350.787 129.204 349.434 131.277C324.539 169.437 302.357 210.165 327.688 251.7C336.89 266.795 350.954 280.555 364.549 293.86C374.367 303.465 384.513 313.399 392.811 323.791C404.745 338.744 411.165 353.583 411.889 367.907C411.947 368.836 411.973 369.777 411.973 370.719Z" fill="white" fill-opacity="0.52"/>
<path d="M389.701 376.116C389.701 386.577 386.648 397.098 383.692 407.284C382.287 412.129 380.832 417.136 379.741 422.034C370.205 464.892 371.116 508.541 371.995 550.746C372.2 560.55 372.412 570.682 372.488 580.672C372.61 595.885 373.008 611.362 373.399 626.327C374.188 656.906 375.009 688.524 373.476 719.615C370.962 770.646 365.03 829.147 326.283 877.641C322.917 881.853 319.434 885.83 316.061 889.673C305.159 902.106 294.86 913.853 292.648 929.601C289.864 949.436 296.194 969.546 302.754 986.605C307.724 999.533 313.817 1012.58 319.71 1025.19C333.626 1054.99 348.023 1085.81 348.895 1117.68L346.33 1117.7C345.458 1086.06 331.119 1055.35 317.248 1025.65C311.348 1013.02 305.243 999.951 300.26 986.986C293.654 969.798 287.28 949.521 290.095 929.455C292.353 913.362 302.78 901.473 313.817 888.885C317.177 885.055 320.646 881.094 323.988 876.911C362.497 828.713 368.397 770.423 370.904 719.566C372.437 688.516 371.616 656.914 370.828 626.355C370.443 611.386 370.039 595.905 369.917 580.685C369.84 570.703 369.628 560.57 369.423 550.771C368.545 508.501 367.634 464.79 377.196 421.81C378.292 416.88 379.754 411.853 381.165 406.995C384.186 396.587 387.315 385.81 387.129 375.215C386.898 361.913 381.556 348.003 371.251 333.878C362.35 321.672 350.749 310.124 339.532 298.953C325.725 285.205 311.45 270.991 302.011 255.385C290.23 235.919 287.806 215.387 294.591 192.607C300.734 171.993 313.887 151.453 327.188 132.328C328.445 130.522 329.708 128.713 330.984 126.891C358.9 86.9582 390.534 41.6976 346.567 1.05085L348.684 0.133732C368.711 18.6453 375.182 39.5836 368.474 64.1453C362.593 85.68 347.715 106.963 333.331 127.544C332.061 129.366 330.792 131.176 329.541 132.977C302.799 171.437 278.828 212.522 304.415 254.8C313.765 270.252 327.97 284.398 341.706 298.081C352.968 309.296 364.613 320.893 373.592 333.197C384.051 347.533 389.47 361.662 389.707 375.195C389.694 375.499 389.701 375.811 389.701 376.116Z" fill="white" fill-opacity="0.52"/>
<path d="M367.224 382.754C367.224 383.716 367.198 384.674 367.147 385.631C366.64 394.842 363.632 404.045 360.721 412.944C358.97 418.288 357.162 423.815 355.93 429.256C347.254 467.566 351.23 506.407 355.077 543.97C356.931 562.072 358.848 580.794 359.342 599.278C360.407 639.279 358.38 682.693 353.307 728.307C348.023 775.852 339.404 830.547 303.832 877.933C301.151 881.508 298.067 884.994 295.085 888.366C289.929 894.193 284.606 900.219 281.348 906.732C277.597 914.247 275.371 922.671 274.743 931.764C273.415 950.949 279.334 969.988 285.305 986.081C290.057 998.896 295.841 1011.84 301.427 1024.35C314.875 1054.47 328.778 1085.59 329.657 1117.68L327.091 1117.71C326.219 1085.83 312.361 1054.81 298.964 1024.81C293.366 1012.27 287.581 999.318 282.81 986.467C276.801 970.264 270.837 951.091 272.184 931.707C272.825 922.472 275.089 913.91 278.905 906.257C282.24 899.586 287.633 893.483 292.846 887.587C295.809 884.239 298.868 880.774 301.517 877.248C336.897 830.113 345.477 775.6 350.749 728.201C355.815 682.632 357.841 639.267 356.777 599.314C356.283 580.867 354.372 562.169 352.519 544.084C348.665 506.435 344.676 467.509 353.391 429.033C354.635 423.543 356.45 417.992 358.207 412.62C361.099 403.786 364.088 394.652 364.581 385.578C365.383 370.987 359.951 355.522 348.44 339.632C339.411 327.167 327.739 315.31 316.452 303.843C302.19 289.356 287.447 274.375 277.815 257.965C252.419 214.701 277.372 174.452 307.513 133.606C308.532 132.223 309.559 130.835 310.591 129.439C340.822 88.5894 375.092 42.2943 327.329 1.0672L329.4 0.105534C346.927 15.237 353.654 30.9852 353.654 46.8714C353.654 75.0852 332.453 103.733 312.919 130.125C311.886 131.521 310.86 132.909 309.841 134.288C279.937 174.813 255.171 214.722 280.219 257.397C289.762 273.653 304.441 288.561 318.633 302.978C329.964 314.486 341.674 326.388 350.774 338.951C361.702 354.037 367.224 368.759 367.224 382.754Z" fill="white" fill-opacity="0.52"/>
<path d="M345.901 626.343C345.901 664.766 339.449 704.289 332.401 741.43C323.891 786.309 311.886 833.842 281.945 877.353C279.694 880.624 277.193 883.825 274.775 886.926C269.382 893.84 264.283 900.373 261.487 907.831C258.557 915.647 257.082 923.985 256.973 933.322C256.748 952.102 262.577 970.865 267.682 985.112C272.229 997.804 277.706 1010.63 282.996 1023.04C296.04 1053.6 309.52 1085.2 310.418 1117.68L307.853 1117.7C306.961 1085.43 293.52 1053.93 280.521 1023.46C275.224 1011.04 269.741 998.198 265.181 985.469C260.044 971.137 254.183 952.252 254.407 933.31C254.523 923.847 256.017 915.391 258.993 907.458C261.853 899.821 267.253 892.899 272.479 886.207C274.884 883.127 277.372 879.938 279.597 876.704C309.405 833.383 321.371 785.992 329.862 741.235C337.269 702.191 344.022 660.509 343.284 620.293C342.854 596.745 338.397 572.983 334.082 550.004C327.444 514.648 320.582 478.092 328.297 441.608C329.746 434.763 332.247 427.897 334.672 421.259C337.955 412.254 341.347 402.942 342.104 393.645C343.226 379.776 338.718 365.054 328.701 349.89C319.171 335.457 306.038 321.892 293.34 308.769C279.976 294.956 266.15 280.677 256.428 265.306C243.23 244.445 239.517 223.827 245.397 204.021C252.221 181.042 268.901 159.471 283.625 140.444C285.683 137.782 287.787 135.092 289.909 132.381C322.673 90.4884 359.804 43.0043 308.135 1.08332L310.155 0.0851477C329.112 15.4641 336.384 31.5208 336.384 47.7519C336.384 76.6108 313.393 106.014 292.205 133.103C290.089 135.81 287.985 138.496 285.927 141.158C271.28 160.096 254.677 181.561 247.918 204.326C242.133 223.823 245.795 244.14 258.807 264.709C268.452 279.95 282.214 294.173 295.527 307.925C308.276 321.1 321.461 334.722 331.067 349.269C341.232 364.661 345.811 379.622 344.663 393.735C343.9 403.173 340.475 412.555 337.173 421.628C334.768 428.23 332.273 435.059 330.843 441.832C323.173 478.112 330.009 514.567 336.627 549.821C340.95 572.845 345.42 596.652 345.849 620.285C345.881 622.297 345.901 624.318 345.901 626.343Z" fill="white" fill-opacity="0.52"/>
<path d="M331.241 643.065C331.241 679.544 320.845 716.904 310.777 753.1L310.27 754.918C300.433 790.285 285.568 836.467 257.704 879.991C256.511 881.849 255.286 883.696 254.106 885.481C248.828 893.438 243.845 900.957 241.665 909.653C239.664 917.639 238.914 926.099 239.363 935.526C240.261 954.281 246.167 972.959 251.214 987.128C255.273 998.531 259.967 1010.08 264.501 1021.24C277.173 1052.42 290.281 1084.67 291.179 1117.68L288.614 1117.7C287.723 1084.88 274.653 1052.73 262.013 1021.64C257.473 1010.47 252.772 998.912 248.706 987.481C243.634 973.239 237.702 954.463 236.798 935.57C236.342 926.043 237.105 917.481 239.132 909.393C241.364 900.499 246.404 892.895 251.746 884.844C252.926 883.063 254.145 881.224 255.331 879.374C283.112 835.992 297.938 789.92 307.75 754.63L308.257 752.812C318.864 714.689 329.83 675.268 328.586 637.043C327.758 611.662 321.134 586.147 314.721 561.475C305.473 525.868 295.905 489.048 303.639 452.029C305.249 444.311 308.379 436.682 311.412 429.305C314.83 420.983 318.363 412.372 319.652 403.713C321.923 388.537 317.357 372.22 306.096 355.214C296.406 340.586 283.227 326.769 270.485 313.407C256.626 298.872 242.293 283.846 232.328 267.671C219.168 246.307 215.917 225.438 222.664 205.64C230.385 182.973 247.475 161.966 264.008 141.649C265.835 139.405 267.689 137.141 269.561 134.86C304.653 92.0587 344.432 43.54 288.915 1.0915L290.891 0.0567051C316.164 19.3799 324.283 41.6368 315.734 68.0976C308.276 91.1661 289.755 113.76 271.838 135.607C269.965 137.887 268.112 140.152 266.291 142.391C249.835 162.615 232.822 183.525 225.177 205.981C218.546 225.462 221.753 246.023 234.726 267.083C244.609 283.128 258.884 298.093 272.684 312.567C285.478 325.978 298.701 339.847 308.462 354.585C319.89 371.839 324.513 388.415 322.205 403.863C320.89 412.652 317.331 421.324 313.894 429.711C310.886 437.043 307.776 444.623 306.185 452.24C298.503 489.024 308.039 525.722 317.254 561.211C323.68 585.94 330.324 611.512 331.151 637.011C331.209 639.028 331.241 641.048 331.241 643.065Z" fill="white" fill-opacity="0.52"/>
<path d="M314.997 654.788C314.997 688.11 302.735 722.212 290.878 755.21L289.23 759.791C274.05 802.134 255.587 843.02 234.367 881.318C224.459 899.192 220.522 915.013 221.599 932.612C222.824 952.637 228.884 972.167 234.649 988.63C238.176 998.705 242.12 1008.92 245.93 1018.8C258.281 1050.81 271.055 1083.91 271.94 1117.68L269.375 1117.71C268.49 1084.12 255.761 1051.11 243.441 1019.19C239.626 1009.3 235.682 999.079 232.148 988.987C226.357 972.451 220.271 952.832 219.034 932.677C217.944 914.863 221.926 898.855 231.943 880.782C253.131 842.541 271.568 801.712 286.729 759.434L288.377 754.849C300.375 721.465 312.803 686.938 312.425 653.347C312.124 625.491 303.165 597.675 294.495 570.772C282.797 534.467 270.703 496.928 279.751 458.817C281.605 451.006 285.189 443.361 288.659 435.968C292.564 427.633 296.604 419.015 298.099 410.242C300.529 395.906 296.822 380.478 287.081 364.397C277.013 347.776 262.321 332.255 248.116 317.241C234.002 302.325 219.406 286.901 209.267 270.346C196.768 249.943 193.177 230.474 198.589 212.477C205.83 188.407 224.652 166.3 242.851 144.924L244.339 143.175C246.013 141.203 247.719 139.218 249.431 137.214C268.362 115.091 287.941 92.213 295.796 68.9091C304.73 42.4078 296.194 20.2321 269.702 1.11994L271.633 0.0486483C291.808 14.6039 301.792 30.8878 301.799 49.4318C301.799 55.766 300.632 62.3639 298.31 69.2459C290.378 92.777 270.709 115.76 251.688 137.985C249.976 139.985 248.277 141.974 246.603 143.942L245.115 145.69C227.005 166.957 208.286 188.95 201.116 212.778C195.793 230.47 199.346 249.639 211.665 269.753C221.727 286.179 236.265 301.542 250.322 316.401C264.585 331.472 279.328 347.058 289.48 363.808C299.368 380.133 303.133 395.812 300.657 410.408C299.144 419.331 295.072 428.019 291.128 436.422C287.684 443.763 284.125 451.351 282.297 459.053C273.319 496.879 285.369 534.276 297.021 570.443C305.711 597.423 314.702 625.32 315.003 653.331C314.997 653.818 314.997 654.305 314.997 654.788Z" fill="white" fill-opacity="0.52"/>
<path d="M296.425 665.127C296.425 697.849 281.63 730.961 267.31 763.017C266.47 764.892 265.636 766.758 264.809 768.617C256.864 786.463 248.104 804.475 239.632 821.891C230.59 840.484 221.233 859.71 212.865 878.765C195.845 917.501 206.811 956.801 218.418 990.594C221.259 998.855 224.318 1007.25 227.274 1015.36C239.363 1048.52 251.868 1082.82 252.702 1117.68L250.136 1117.7C249.303 1083.01 236.83 1048.81 224.767 1015.72C221.804 1007.61 218.745 999.212 215.904 990.939C204.226 956.955 193.209 917.424 210.383 878.331C218.764 859.251 228.121 840.017 237.17 821.413C245.641 804.005 254.395 786 262.334 768.175C263.161 766.316 263.995 764.449 264.835 762.571C279.488 729.768 294.648 695.849 293.821 662.51C293.135 634.596 282.939 606.687 273.075 579.699C259.576 542.761 245.622 504.565 255.838 465.789C257.992 457.604 262.225 449.72 266.323 442.095C270.562 434.199 274.948 426.035 276.936 417.635C280.617 402.098 276.885 385.173 265.848 367.335C255.568 350.718 240.876 335.148 226.659 320.09C213.172 305.802 199.231 291.032 189.015 275.337C174.554 253.124 170.514 232.202 177.01 213.159C185.09 189.458 204.335 167.785 222.946 146.823L225.716 143.702C228.038 141.081 230.391 138.451 232.751 135.818C251.105 115.318 270.087 94.1242 279.238 71.1652C289.749 44.7937 280.072 21.2302 250.47 1.12799L252.349 0.0202056C274.692 15.1963 285.921 32.308 285.921 51.0793C285.921 57.7056 284.523 64.5349 281.72 71.5629C272.485 94.7329 253.42 116.024 234.983 136.617C232.623 139.251 230.276 141.876 227.954 144.497L225.184 147.618C206.663 168.475 187.521 190.038 179.517 213.5C173.13 232.219 177.125 252.816 191.388 274.72C201.533 290.302 215.423 305.023 228.865 319.258C243.134 334.373 257.883 350.004 268.24 366.742C279.443 384.852 283.221 402.053 279.476 417.874C277.455 426.416 273.031 434.653 268.753 442.619C264.694 450.182 260.493 458.002 258.371 466.056C248.238 504.512 262.141 542.55 275.577 579.333C285.465 606.403 295.694 634.398 296.386 662.486C296.412 663.366 296.425 664.247 296.425 665.127Z" fill="white" fill-opacity="0.52"/>
<path d="M275.038 669.043C275.038 702.455 258.191 735.562 241.883 767.615L240.96 769.428C236.753 777.702 232.302 786.102 227.999 794.225C213.269 822.046 198.038 850.807 189.477 880.052C178.844 916.385 189.502 953.984 202.36 992.517C204.342 998.458 206.413 1004.49 208.414 1010.33C220.368 1045.17 232.725 1081.2 233.45 1117.68L230.885 1117.7C230.16 1081.38 217.828 1045.44 205.907 1010.68C203.906 1004.84 201.834 998.799 199.846 992.854C186.931 954.155 176.228 916.381 186.95 879.759C195.543 850.405 210.806 821.583 225.562 793.714C229.865 785.595 234.309 777.199 238.51 768.933L239.433 767.119C256.209 734.142 273.569 700.04 272.409 665.785C271.491 638.593 260.737 611.22 250.329 584.747C235.656 547.407 220.477 508.797 232.559 469.94C235.13 461.674 240.017 453.838 244.75 446.258C249.45 438.723 254.318 430.932 256.799 422.817C261.577 407.215 258.634 390.172 248.052 372.163C237.497 354.196 221.625 337.51 206.278 321.368C192.247 306.61 177.735 291.353 167.249 275.101C152.743 252.621 149.236 232.34 156.534 213.094C165.358 189.815 184.93 168.601 203.854 148.085C205.201 146.624 206.548 145.167 207.882 143.714C210.043 141.361 212.23 139.003 214.423 136.642C233.655 115.894 253.548 94.4367 262.815 71.0314C273.261 44.6599 262.648 21.1491 231.27 1.15644L233.091 0.0121488C265.149 20.435 275.987 44.4612 265.303 71.4251C255.94 95.0576 235.958 116.617 216.635 137.461C214.442 139.823 212.262 142.18 210.101 144.53C208.76 145.983 207.42 147.443 206.073 148.904C187.245 169.319 167.769 190.427 159.035 213.476C151.871 232.377 155.334 252.333 169.635 274.489C180.05 290.622 194.504 305.827 208.491 320.532C223.901 336.735 239.831 353.49 250.47 371.595C261.218 389.884 264.2 407.223 259.333 423.121C256.799 431.387 251.894 439.251 247.148 446.851C242.46 454.362 237.612 462.124 235.092 470.248C223.125 508.752 238.228 547.184 252.836 584.349C263.276 610.907 274.069 638.37 274.993 665.744C275.019 666.848 275.038 667.943 275.038 669.043Z" fill="white" fill-opacity="0.52"/>
<path d="M251.599 665.387C251.599 665.618 251.599 665.845 251.599 666.081C251.316 706.525 229.711 744.944 208.812 782.101C190.9 813.946 172.38 846.879 167.378 880.932C161.831 918.674 174.291 956.999 186.341 994.067L186.386 994.213C187.316 997.066 188.245 999.923 189.182 1002.78C201.385 1040.1 214.006 1078.7 214.224 1117.69L211.659 1117.7C211.441 1078.87 198.846 1040.35 186.668 1003.1C185.732 1000.25 184.802 997.395 183.872 994.538L183.827 994.392C171.739 957.21 159.24 918.759 164.819 880.778C169.853 846.522 188.425 813.496 206.388 781.553C227.21 744.526 248.751 706.237 249.027 666.069C249.027 665.841 249.027 665.61 249.027 665.383C249.027 638.224 237.92 610.676 227.172 584.028C211.992 546.392 196.3 507.47 211.499 468.881C214.513 461.224 219.585 453.993 224.498 446.997C230.256 438.788 236.214 430.299 238.734 421.198C242.839 406.354 239.76 390.058 229.596 372.76C218.841 354.451 202.636 337.461 186.969 321.031C173.111 306.5 158.784 291.474 148.197 275.535C133.364 253.201 129.561 233.201 136.57 214.385C145.228 191.138 165.011 170.041 184.148 149.643C185.417 148.292 186.681 146.94 187.938 145.597C190.336 143.029 192.766 140.456 195.203 137.875C214.513 117.424 234.476 96.2749 244.358 73.1861C256.107 45.7474 245.231 21.5143 212.044 1.16449L213.827 -5.84853e-05C238.914 15.3789 251.515 32.937 251.515 52.39C251.515 59.2354 249.957 66.3122 246.834 73.6121C236.855 96.92 216.802 118.162 197.403 138.711C194.966 141.292 192.542 143.86 190.144 146.429C188.887 147.776 187.617 149.123 186.347 150.479C167.314 170.776 147.632 191.763 139.065 214.766C132.184 233.237 135.942 252.909 150.557 274.915C161.067 290.744 175.349 305.717 189.156 320.2C204.887 336.694 221.15 353.749 231.994 372.2C242.319 389.77 245.436 406.354 241.255 421.482C238.683 430.778 232.661 439.36 226.838 447.659C221.977 454.589 216.943 461.755 213.987 469.274C198.949 507.47 214.564 546.19 229.66 583.631C240.447 610.376 251.592 638.029 251.599 665.387Z" fill="white" fill-opacity="0.52"/>
<path d="M232.969 659.787C232.969 701.598 211.402 741.864 190.535 780.823C173.868 811.946 156.63 844.128 150.531 876.858C143.502 914.543 156.226 952.751 168.526 989.701L170.437 995.451C183.647 1035.14 197.313 1076.18 194.979 1117.72L192.414 1117.66C194.729 1076.32 181.101 1035.38 167.923 995.788L166.012 990.038C153.667 952.958 140.905 914.616 147.979 876.671C154.116 843.771 171.392 811.508 188.104 780.303C209.151 741 230.911 700.349 230.391 658.278C230.058 631.918 219.553 605.295 209.389 579.549C195.178 543.548 180.486 506.318 193.228 469.055C195.793 461.56 200.282 454.411 204.63 447.5C209.511 439.734 214.564 431.699 216.789 423.243C220.894 407.653 217.661 390.407 207.176 371.993C196.993 354.11 182.006 337.283 167.512 321.007C154.892 306.841 141.848 292.189 131.966 276.854C116.825 253.36 112.823 233.671 119.371 214.892C127.554 191.43 146.446 169.895 164.723 149.071C165.832 147.805 166.942 146.543 168.045 145.281C170.18 142.842 172.335 140.399 174.496 137.952C192.965 117.034 212.057 95.3984 221.201 72.0134C231.642 45.3091 222.067 21.4616 192.747 1.13617L194.639 0.0405907C224.575 20.7921 234.348 45.1388 223.69 72.403C214.468 96.0031 195.287 117.728 176.734 138.744C174.573 141.19 172.418 143.633 170.289 146.068C169.186 147.33 168.077 148.592 166.967 149.862C148.78 170.585 129.978 192.014 121.878 215.245C115.446 233.687 119.409 253.072 134.338 276.246C144.157 291.487 157.168 306.091 169.744 320.216C184.289 336.548 199.333 353.437 209.588 371.445C220.22 390.127 223.497 407.645 219.316 423.515C217.046 432.141 211.941 440.257 207.01 448.105C202.707 454.954 198.25 462.039 195.736 469.404C183.121 506.297 197.737 543.337 211.877 579.159C222.074 604.999 232.616 631.715 232.95 658.269C232.969 658.773 232.969 659.28 232.969 659.787Z" fill="white" fill-opacity="0.52"/>
<path d="M213.583 652.654C213.583 687.575 197.352 722.411 181.646 756.111L179.755 760.177C177.177 765.724 174.503 771.368 171.912 776.826C156.226 809.929 140.001 844.161 134.204 879.013C128.227 914.94 140.347 951.233 152.064 986.337L153.584 990.886C166.538 1029.8 181.223 1073.9 175.74 1117.75L173.181 1117.62C178.639 1074.01 164.627 1031.92 151.076 991.219L149.556 986.67C137.795 951.444 125.63 915.022 131.651 878.838C137.474 843.832 153.731 809.527 169.456 776.351C172.04 770.893 174.714 765.253 177.292 759.71L179.184 755.644C194.921 721.871 211.223 686.942 211.011 652.077C210.877 625.929 200.719 599.659 190.894 574.253C177.529 539.681 163.703 503.936 174.862 467.903C177.087 460.72 180.947 453.798 184.68 447.099C189.111 439.149 193.696 430.928 195.473 422.334C198.493 407.734 195.71 391.641 187.213 374.509C177.889 355.721 163.472 337.916 149.531 320.695C137.365 305.669 124.783 290.131 115.581 273.957C102.934 251.724 99.4906 233.274 104.743 215.886C111.919 192.14 129.638 170.082 146.773 148.746L148.838 146.178C150.223 144.453 151.621 142.72 153.026 140.971C189.105 96.1816 230 45.4189 173.457 1.08759L175.452 0.0690329C201.155 20.22 209.325 43.4872 200.424 71.1978C192.67 95.3376 173.675 118.913 155.309 141.714C153.904 143.459 152.506 145.192 151.121 146.916L149.056 149.485C132.004 170.715 114.369 192.672 107.257 216.195C102.094 233.282 105.506 251.465 117.985 273.409C127.13 289.49 139.674 304.979 151.801 319.956C165.794 337.238 180.261 355.105 189.65 374.026C198.262 391.385 201.078 407.71 198.006 422.545C196.197 431.31 191.567 439.612 187.085 447.638C183.378 454.281 179.549 461.151 177.363 468.215C166.313 503.895 180.069 539.47 193.369 573.868C203.226 599.367 213.422 625.73 213.557 652.073C213.583 652.268 213.583 652.463 213.583 652.654Z" fill="white" fill-opacity="0.52"/>
<path d="M193.369 646.165C193.369 680.405 178.902 714.965 164.896 748.417C163.78 751.075 162.677 753.725 161.58 756.358C159.336 761.751 157.021 767.237 154.783 772.545C140.687 805.92 126.111 840.431 120.121 875.296C113.208 915.557 126.111 955.591 138.59 994.307C151.506 1034.37 164.857 1075.79 156.501 1117.79L153.956 1117.59C162.26 1075.86 148.947 1034.56 136.076 994.631C123.558 955.794 110.611 915.63 117.569 875.121C123.578 840.131 138.18 805.559 152.301 772.127C154.539 766.823 156.854 761.337 159.099 755.948C160.195 753.315 161.305 750.665 162.414 748.003C176.696 713.889 191.471 678.611 190.778 643.828C190.285 618.674 180.858 593.479 171.745 569.112C159.49 536.353 146.818 502.483 155.623 468.199C157.495 460.895 160.997 453.802 164.383 446.94C168.205 439.194 172.155 431.184 173.72 422.922C176.555 407.933 174.124 392.034 166.294 374.318C158.034 355.632 145.189 337.664 132.767 320.293C122.539 305.985 111.957 291.19 103.954 276.027C91.1282 251.72 87.8063 231.594 93.5009 212.685C100.344 189.969 115.773 168.503 130.702 147.744L130.869 147.513C132.453 145.309 134.056 143.089 135.672 140.858C167.91 96.2992 204.457 45.7962 154.18 1.05512L156.271 0.11371C174.554 16.3854 181.589 33.359 181.589 50.5031C181.589 81.2976 158.9 112.652 138.007 141.531C136.391 143.763 134.787 145.983 133.203 148.182L133.037 148.413C118.178 169.084 102.806 190.46 96.0212 212.985C90.4099 231.61 93.7062 251.477 106.391 275.507C114.349 290.59 124.899 305.348 135.108 319.615C147.568 337.043 160.458 355.068 168.769 373.872C176.696 391.799 179.145 407.9 176.272 423.105C174.682 431.513 170.693 439.596 166.839 447.415C163.479 454.22 160.009 461.26 158.162 468.446C149.441 502.414 162.049 536.126 174.246 568.726C183.391 593.179 192.85 618.463 193.35 643.795C193.363 644.591 193.369 645.378 193.369 646.165Z" fill="white" fill-opacity="0.52"/>
<path d="M172.412 641.71C172.412 673.892 160.336 706.707 148.633 738.512C147.132 742.594 145.638 746.648 144.189 750.669C142.053 756.573 139.847 762.575 137.712 768.381C124.834 803.404 111.515 839.624 106.16 875.994C100.536 914.194 112.143 952.158 123.366 988.877C136.153 1030.7 149.37 1073.95 137.256 1117.83L134.73 1117.55C146.767 1073.97 133.588 1030.87 120.846 989.186C109.585 952.353 97.9451 914.271 103.601 875.84C108.975 839.36 122.308 803.088 135.211 768.012C137.346 762.21 139.552 756.208 141.688 750.308C143.143 746.287 144.631 742.229 146.138 738.147C158.605 704.256 171.501 669.217 169.68 635.14C168.423 611.69 160.061 588.094 151.968 565.277C140.488 532.904 128.624 499.424 136.762 465.691C138.366 459.041 141.239 452.512 144.015 446.202C147.094 439.206 150.274 431.975 151.698 424.61C154.834 408.42 152.558 391.04 144.734 371.478C137.667 353.802 127.085 336.52 116.844 319.806C107.314 304.252 97.4641 288.163 90.442 271.762C80.7649 249.164 78.3344 230.336 82.7914 212.502C88.6079 189.247 102.697 166.969 116.325 145.427L119.403 140.557C147.408 96.2383 179.152 46.0031 134.896 1.0185L137.077 0.162294C152.096 15.4277 159.528 32.2147 159.528 51.0631C159.528 57.4378 158.682 64.044 156.989 70.9097C151.108 94.7533 136.205 118.345 121.788 141.158L118.71 146.027C105.134 167.489 91.1025 189.677 85.3245 212.753C80.9252 230.352 83.3365 248.965 92.9174 271.332C99.9074 287.656 109.732 303.701 119.236 319.218C129.503 335.976 140.116 353.307 147.216 371.08C155.116 390.841 157.412 408.416 154.238 424.809C152.788 432.292 149.582 439.584 146.478 446.636C143.72 452.901 140.873 459.381 139.289 465.935C131.228 499.371 143.041 532.693 154.462 564.92C162.574 587.814 170.969 611.483 172.232 635.083C172.354 637.287 172.412 639.502 172.412 641.71Z" fill="white" fill-opacity="0.52"/>
<path d="M150.621 636.013C150.621 668.889 140.046 702.459 129.792 734.99C128.323 739.656 126.803 744.481 125.354 749.18C123.719 754.48 122.07 759.779 120.416 765.082C109.148 801.189 97.4962 838.528 92.834 875.807C88.2936 912.112 98.6633 948.299 108.693 983.294C121.224 1027.02 134.178 1072.23 117.998 1117.87L115.497 1117.52C131.562 1072.19 118.652 1027.14 106.166 983.578C96.111 948.482 85.7092 912.189 90.2752 875.673C94.9503 838.301 106.615 800.917 117.896 764.762C119.55 759.462 121.205 754.163 122.834 748.864C124.283 744.165 125.803 739.336 127.271 734.669C138.141 700.162 149.39 664.482 147.921 629.804C146.933 606.399 139.148 582.965 131.626 560.302C121.692 530.376 111.412 499.432 116.6 468.102C117.857 460.501 120.66 453.011 123.372 445.768C126.059 438.589 128.836 431.164 130.087 423.681C132.62 408.46 131.106 392.197 125.463 373.957C119.704 355.332 110.393 336.962 101.395 319.193C93.7318 304.074 85.8119 288.435 80.0915 272.679C71.7996 249.842 69.5102 230.884 72.8834 213.013C77.334 189.454 89.6019 166.584 101.459 144.465L103.499 140.663C128.394 94.2582 154.141 46.271 115.613 0.965883L117.87 0.194765C135.352 20.7515 141.194 43.8565 135.73 70.8408C130.92 94.5991 118.216 118.28 105.929 141.182L103.89 144.985C92.0709 167.022 79.8478 189.815 75.4293 213.204C72.0882 230.884 74.3648 249.667 82.5926 272.314C88.2937 288.005 96.1944 303.607 103.839 318.694C112.862 336.504 122.192 354.922 127.983 373.64C133.671 392.042 135.198 408.464 132.639 423.847C131.376 431.435 128.58 438.91 125.873 446.141C123.18 453.331 120.397 460.769 119.153 468.268C114.009 499.342 124.238 530.161 134.133 559.966C141.681 582.697 149.486 606.204 150.48 629.755C150.576 631.841 150.621 633.927 150.621 636.013Z" fill="white" fill-opacity="0.52"/>
<path d="M128.047 629.703C128.047 664.405 118.999 699.647 110.239 733.744C109.251 737.583 108.27 741.409 107.302 745.228C105.839 750.986 104.358 756.748 102.877 762.51C93.5009 798.965 83.7982 836.662 79.835 874.119C76.1604 908.785 85.4207 943.556 94.3667 977.187C106.583 1023.09 119.217 1070.56 98.7467 1117.91L96.2713 1117.48C116.594 1070.48 104.005 1023.19 91.8336 977.455C82.8555 943.734 73.576 908.862 77.2698 874.01C81.2458 836.475 90.955 798.742 100.344 762.25C101.825 756.488 103.306 750.73 104.768 744.972C105.737 741.154 106.718 737.323 107.706 733.485C116.6 698.847 125.79 663.033 125.476 627.869C125.251 603.627 117.896 579.366 110.784 555.904C101.94 526.728 92.7891 496.555 97.2076 466.052C98.2465 458.858 100.549 451.716 102.774 444.81C104.813 438.48 106.917 431.939 108.033 425.402C110.854 408.899 109.719 391.101 104.57 370.995C100.049 353.352 92.9879 335.733 86.1582 318.694C80.1428 303.68 73.9223 288.155 69.4461 272.646C62.5265 248.657 60.8464 227.475 64.3158 207.888C68.234 185.761 77.7636 163.995 86.979 142.943L87.9217 140.797C108.225 94.4488 129.214 46.5265 96.3483 0.925111L98.6826 0.251527C131.934 46.3885 110.816 94.603 90.3907 141.227L89.448 143.373C80.2583 164.364 70.7607 186.069 66.8617 208.067C63.4244 227.491 65.0917 248.523 71.9664 272.35C76.4233 287.806 82.6375 303.307 88.64 318.292C95.4825 335.363 102.556 353.019 107.096 370.735C112.284 390.987 113.419 408.923 110.572 425.576C109.443 432.186 107.321 438.768 105.275 445.135C103.063 452 100.78 459.097 99.7535 466.203C95.3735 496.478 104.486 526.534 113.298 555.6C120.435 579.135 127.81 603.469 128.041 627.86C128.041 628.473 128.047 629.09 128.047 629.703Z" fill="white" fill-opacity="0.52"/>
<path d="M104.672 630.198C104.672 664.015 97.6437 698.36 90.846 731.614C89.9674 735.907 89.0889 740.192 88.2295 744.469C87.0816 750.17 85.9209 755.867 84.7537 761.568C77.2698 798.255 69.5294 836.191 66.4192 873.742C63.1165 913.687 73.3708 951.03 84.2279 990.569L84.2599 990.691C94.6488 1028.53 102.21 1073.23 79.4887 1117.94L77.0454 1117.45C99.5996 1073.07 92.0773 1028.61 81.7396 990.967L81.7076 990.845C70.8249 951.213 60.545 913.784 63.8668 873.657C66.9771 836.041 74.7239 798.076 82.2142 761.357C83.3749 755.656 84.5421 749.959 85.6836 744.258C86.5429 739.981 87.4215 735.696 88.3001 731.403C95.3222 697.062 102.588 661.56 102.081 626.728C101.729 602.548 95.4697 578.254 89.4159 554.76C81.9962 525.961 74.3199 496.181 77.4173 466.263C78.1997 458.683 80.1877 451.124 82.1116 443.816C83.6763 437.855 85.2988 431.691 86.2479 425.568C88.8195 409.032 88.2359 391.138 84.478 370.861C81.1946 353.141 75.8526 335.315 70.6838 318.077C66.137 302.913 61.4364 287.23 58.1465 271.656C47.9115 223.227 59.2816 179.123 71.7547 142.367L72.2293 140.971C87.9474 94.6599 104.204 46.766 77.0711 0.860291L79.4759 0.292298C90.1662 18.3819 94.2 36.7513 94.2 55.1859C94.2 83.9799 84.369 112.936 74.7368 141.312L74.2622 142.708C61.834 179.325 50.5087 223.259 60.6925 271.441C63.9759 286.97 68.6701 302.629 73.2041 317.773C78.3793 335.039 83.7276 352.893 87.0239 370.67C90.8075 391.061 91.3847 409.069 88.8003 425.722C87.8383 431.898 86.2159 438.09 84.6383 444.08C82.7272 451.347 80.7521 458.866 79.9761 466.365C76.8979 496.092 84.5485 525.783 91.949 554.492C98.0156 578.043 104.294 602.398 104.647 626.704C104.666 627.873 104.672 629.041 104.672 630.198Z" fill="white" fill-opacity="0.52"/>
<path d="M80.5661 637.969C80.5661 668.929 75.6025 700.357 70.7928 730.847C69.8244 736.986 68.824 743.333 67.8813 749.545C67.2208 753.924 66.5539 758.298 65.8805 762.676C60.391 798.665 54.7092 835.883 52.439 872.614C49.8931 913.845 60.1281 952.499 70.0232 989.875C76.6221 1014.79 79.3476 1035.29 78.6101 1054.39C77.7187 1077.4 71.7098 1098.2 60.2371 1117.97L57.8323 1117.41C84.0675 1072.18 77.443 1027.7 67.4966 990.143C57.5758 952.686 47.3215 913.954 49.8803 872.553C52.1504 835.773 57.8323 798.535 63.3282 762.522C63.9951 758.144 64.662 753.769 65.329 749.391C66.2717 743.175 67.2721 736.828 68.2405 730.689C73.5632 696.973 79.0655 662.104 77.8278 628.051C76.9684 604.443 72.2293 580.604 67.6441 557.551C61.8532 528.416 55.8699 498.291 57.6207 468.28C58.1273 459.621 59.8524 450.945 61.5261 442.554C62.7959 436.183 64.1105 429.593 64.8737 423.072C66.6885 407.592 66.509 390.927 64.3222 372.123C62.1931 353.778 58.3646 335.225 54.6579 317.282C51.2783 300.917 47.7897 283.992 45.59 267.254C40.6906 229.954 43.8201 191.462 55.7481 142.444L56.0559 141.178C67.3234 94.9034 78.9693 47.05 57.8002 0.807557L60.2628 0.357117C81.5922 46.9445 69.9014 94.9765 58.589 141.426L58.2812 142.692C46.3852 191.576 43.2557 229.954 48.1424 267.12C50.3356 283.821 53.8242 300.726 57.1974 317.071C60.9041 335.035 64.739 353.607 66.8745 372.001C69.0677 390.886 69.2473 407.628 67.426 423.19C66.6565 429.756 65.3418 436.366 64.0657 442.757C62.4047 451.112 60.6796 459.751 60.1794 468.341C58.4351 498.218 64.4055 528.279 70.1836 557.348C74.7752 580.445 79.5208 604.325 80.3801 628.015C80.5084 631.326 80.5661 634.645 80.5661 637.969Z" fill="white" fill-opacity="0.52"/>
<path d="M62.969 1043.42C62.969 1071.14 55.7289 1095.21 40.9791 1118L38.6064 1117.38C61.943 1081.32 66.3166 1041.98 52.7981 989.827C43.1403 952.56 33.1554 914.027 34.7779 872.971C36.0925 839.746 39.9467 805.948 43.6662 773.267C48.8157 728.084 54.1385 681.362 52.843 635.432C52.1504 610.769 48.758 585.769 45.4746 561.593C41.396 531.468 37.1635 500.312 38.1126 469.473C38.5038 456.687 39.7607 443.804 40.9727 431.346C42.8581 412.011 44.8012 392.014 43.5379 372.09C42.3643 353.656 40.0493 334.945 37.8112 316.856C35.7719 300.365 33.662 283.314 32.4179 266.507C29.6539 229.07 31.7574 188.37 38.8629 142.071L38.9398 141.568C46.0389 95.2603 53.3817 47.3745 38.5358 0.746521L41.0497 0.426087C55.979 47.2894 48.6169 95.2969 41.4922 141.726L41.4152 142.229C34.329 188.443 32.2255 229.07 34.9831 266.426C36.2208 283.213 38.3306 300.247 40.3699 316.726C42.608 334.832 44.9231 353.554 46.1031 372.021C47.3728 392.03 45.4233 412.068 43.5379 431.444C42.3259 443.885 41.0753 456.748 40.6842 469.502C39.7415 500.251 43.9612 531.366 48.0462 561.455C51.3296 585.656 54.7284 610.684 55.421 635.404C56.71 681.411 51.3809 728.169 46.2313 773.389C42.5118 806.05 38.6641 839.827 37.3494 873.015C35.727 913.914 45.6926 952.373 55.3313 989.567C60.4039 1009.14 62.969 1026.92 62.969 1043.42Z" fill="white" fill-opacity="0.52"/>
<path d="M46.9496 1039.64C46.9496 1044.74 46.6931 1049.72 46.1736 1054.57C43.7559 1077.42 38.3315 1095.23 24.3001 1115.08L21.7276 1113.59C47.5909 1077 50.7717 1041.36 37.2853 989.551C35.5153 982.758 33.5594 975.86 31.6676 969.193C28.6599 958.598 25.5497 947.642 23.1128 936.792C18.2325 915.058 17.9055 893.73 18.2902 873.916C18.8995 842.201 20.8041 809.953 22.6446 778.769C25.1713 736.037 27.7814 691.848 27.0888 648.397C26.6719 621.9 24.8058 594.976 23.0037 568.941C20.7913 536.958 18.5019 503.883 18.8674 471.299C19.0277 457.158 19.8229 442.818 20.5861 428.948C21.6186 410.343 22.6831 391.105 22.2214 372.131C21.7725 353.603 20.74 334.775 19.7396 316.564C18.8289 299.984 17.8862 282.844 17.3924 265.971C16.2445 226.939 17.2514 186.341 20.4706 141.86C23.8246 95.5971 23.5476 56.9765 15.5251 9.8941L24.7865 1.13617C32.8283 48.3444 26.3898 95.6094 23.0358 141.937C19.8165 186.386 18.8097 226.948 19.9576 265.947C20.4514 282.803 21.3941 299.939 22.3047 316.511C23.3052 334.73 24.3376 353.567 24.7865 372.111C25.2419 391.121 24.1773 410.384 23.1512 429.009C22.3817 442.866 21.5929 457.198 21.4326 471.315C21.067 503.855 23.3565 536.913 25.5689 568.877C27.3709 594.923 29.2371 621.859 29.6539 648.385C30.3401 691.876 27.7301 736.082 25.2034 778.834C23.3629 810.01 21.4582 842.245 20.849 873.941C20.4706 893.69 20.7913 914.945 25.6459 936.568C28.0764 947.386 31.1802 958.33 34.1879 968.909C36.0797 975.584 38.042 982.482 39.812 989.291C44.5896 1007.61 46.9496 1024.22 46.9496 1039.64Z" fill="white" fill-opacity="0.52"/>
<path d="M30.3145 1037.5C30.3145 1043.37 29.9553 1049.07 29.2435 1054.65C26.3256 1077.41 28.2586 1086.27 13.1626 1106.17L10.4626 1102.21C38.2048 1065.65 34.4316 1040.1 20.7272 989.324C18.752 981.999 16.5331 974.57 14.3848 967.387C11.3835 957.348 8.27968 946.969 5.78506 936.69C0.699613 915.724 0.0134313 894.871 0.0390832 875.479C0.0711482 845.987 0.186581 816.004 0.289188 787.007C0.436685 747.942 0.584181 707.547 0.545704 667.817C0.46875 591.263 0.35332 513.427 0.244302 438.155C0.160934 380.677 0.0775654 323.202 0.00702395 265.724C-0.0314532 233.148 0.0968067 200.028 0.218653 168C0.430279 113.131 0.95758 96.3648 0.34194 40.5662C0.95758 96.3729 2.99545 113.131 2.78382 168.004C2.66197 200.032 2.53371 233.152 2.57219 265.724C2.64273 323.202 2.7261 380.681 2.80947 438.155C2.91849 513.427 3.03392 591.263 3.11087 667.817C3.15576 707.547 3.00185 747.947 2.85435 787.011C2.74533 816.008 2.63631 845.991 2.60425 875.483C2.57218 894.818 3.25837 915.59 8.32457 936.447C10.8128 946.697 13.9102 957.064 16.9051 967.091C19.0534 974.281 21.2787 981.715 23.2538 989.056C27.9737 1006.52 30.3145 1022.53 30.3145 1037.5Z" fill="white" fill-opacity="0.52"/>
</g>
</svg>
